<?xml version="1.0" encoding="utf-8"?>
<!-- Generator: Adobe Illustrator 19.0.0, SVG Export Plug-In . SVG Version: 6.00 Build 0)  -->
<svg version="1.1" xmlns="http://www.w3.org/2000/svg" xmlns:xlink="http://www.w3.org/1999/xlink" x="0px" y="0px"
	 viewBox="20 -20 170 66.8" style="enable-background:new 20 -20 170 66.8;" xml:space="preserve">
<style type="text/css">
	.st0{fill:#FFFFFF;}
	.st1{font-family:'Roboto-Light';}
	.st2{font-size:49.65px;}
</style>
<g id="Layer_1">
	<path class="st0" d="M87.4-7.8c-0.5-0.2-1.1,0.1-1.3,0.6c-1.3,3.8-4.5,3.8-5.5,3.8c-0.3-2.4-1.3-4.6-3-6.3
		c-1.6-1.6-3.7-2.6-5.9-2.9c-0.1-1.2,0.1-4.2,3.8-5.4c0.5-0.2,0.8-0.7,0.6-1.3c-0.2-0.5-0.7-0.8-1.3-0.6c-4.3,1.4-5.2,4.9-5.1,7.2
		c-2.6,0.1-5.1,1.1-7,3.1C61.1-8,60.1-6,59.8-3.8C56-5,51.6-5.1,47.2-4c-4.5-2.6-9.3-4.8-12.7-4.7C26.2-8.4,19.6-1.3,20,7
		c0.2,4.6,2.4,8.6,5.8,11.3c-0.2,0.9-0.4,1.8-0.7,2.8c-1.8,7-4.2,16.4-0.7,21.1l-2.5,2.4c-0.4,0.4-0.4,1,0,1.4
		c0.2,0.2,0.5,0.3,0.7,0.3s0.5-0.1,0.7-0.3l2.5-2.5c1.9,1.5,4.6,2,7.5,2c5.4,0,11.8-1.9,16.7-3.4l1.2-0.4c0.3,0.4,0.7,0.8,1.1,1.1
		c2.8,2.6,6.4,4,10.3,4c0.2,0,0.4,0,0.6,0c4-0.2,7.8-1.9,10.5-4.9c2.7-3,4.2-6.8,4-10.9c-0.1-2.2-1.2-5-3.2-8.4
		c-0.7-1.1-1.4-2.2-2.1-3.3c0.8-4,0.6-7.9-0.5-11.3c2.2-0.4,4.2-1.4,5.8-2.9c1.8-1.8,2.8-4.1,3-6.6c0.1,0,0.3,0,0.5,0
		c2.3,0,5.5-1,6.9-5.2C88.2-7.1,88-7.6,87.4-7.8z M22,6.9C21.7-0.3,27.4-6.5,34.6-6.8c0.1,0,0.2,0,0.2,0c6.4,0,19.3,9.5,22.9,12.2
		C55.4,7.5,49,13,43.1,16.5c-3.2,1.9-5.7,2.9-7.5,2.9C28.4,19.8,22.3,14.1,22,6.9z M47.8,29.1l-8.4-8.4c1.4-0.5,3-1.3,4.7-2.3
		c0.5-0.3,0.9-0.6,1.4-0.9l5,5C49.4,24.7,48.4,27,47.8,29.1z M51.6,20.6l-4.3-4.3c1.9-1.3,3.7-2.6,5.4-4l2.5,2.5
		C53.9,16.6,52.7,18.6,51.6,20.6z M26.5,23.3l18.4,18.3c-2.6,0.7-5.3,1.4-8,1.7l-12-12C25.3,28.6,25.9,25.8,26.5,23.3z M26.4,41.5
		c-1.6-1.6-2-4.4-1.8-7.6l9.7,9.7C31,43.7,28.2,43.2,26.4,41.5z M49.4,40.3c-0.7,0.2-1.5,0.5-2.3,0.7c0,0,0,0,0-0.1L27.1,21
		c0.1-0.5,0.3-1.1,0.4-1.6c2.2,1.3,4.8,2.1,7.6,2.1c0.2,0,0.4,0,0.6,0c0.5,0,1-0.1,1.5-0.2l10.1,10.1c0,0.3,0,0.7,0,1
		c0.1,2.8,1,5.4,2.5,7.7L49.4,40.3z M75.7,31.3c0.1,3.5-1.1,6.9-3.5,9.4c-2.4,2.6-5.6,4.1-9.1,4.2s-6.9-1.1-9.4-3.5
		c-2.6-2.4-4.1-5.6-4.2-9.1C49.2,26,59,12.8,61.7,9.2c2.1,2.3,7.6,8.7,11.1,14.6C74.6,27,75.6,29.5,75.7,31.3z M62.3,7
		c-0.2-0.2-0.5-0.3-0.8-0.3s-0.6,0.1-0.7,0.4c-0.2,0.3-2.1,2.7-4.5,6.1l-2-2c3.2-2.6,5.5-4.8,5.7-5s0.3-0.5,0.3-0.8
		s-0.1-0.6-0.4-0.7c-0.4-0.3-4.8-3.9-10.2-7.2c6.3-1,12.2,0.6,16.2,4.6c3.8,3.8,5.5,9.2,4.8,15.1C66.7,11.8,62.5,7.2,62.3,7z
		 M76.2,3.8C74.8,5.2,73,6,71.1,6.2c-0.9-2.1-2.2-4-3.8-5.6c-1.6-1.6-3.5-2.9-5.6-3.8c0.2-2,1.1-3.7,2.4-5.1c3.3-3.3,8.7-3.3,12.1,0
		c1.6,1.6,2.5,3.8,2.5,6S77.8,2.2,76.2,3.8z"/>
</g>
<g id="Layer_2">
	<text transform="matrix(1 0 0 1 101.9168 37.7189)" class="st0 st1 st2">BEE</text>
</g>
</svg>
