<?xml version="1.0" encoding="utf-8"?>
<!-- Generator: Adobe Illustrator 16.0.0, SVG Export Plug-In . SVG Version: 6.00 Build 0)  -->
<!DOCTYPE svg PUBLIC "-//W3C//DTD SVG 1.1//EN" "http://www.w3.org/Graphics/SVG/1.1/DTD/svg11.dtd">
<svg version="1.1" id="Layer_1" xmlns="http://www.w3.org/2000/svg" xmlns:xlink="http://www.w3.org/1999/xlink" x="0px" y="0px"
	 width="128px" height="128px" viewBox="0 0 128 128" enable-background="new 0 0 128 128" xml:space="preserve">
<g>
	
		<rect x="82.5" y="12.5" fill="#FFECB3" stroke="#37474F" stroke-width="3" stroke-linecap="round" stroke-linejoin="round" stroke-miterlimit="10" width="35" height="35"/>
	
		<rect x="3.5" y="18.5" fill="#FFAB00" stroke="#37474F" stroke-width="3" stroke-linecap="round" stroke-linejoin="round" stroke-miterlimit="10" width="36" height="35"/>
	
		<rect x="40.5" y="18.5" fill="#FFFFFF" stroke="#37474F" stroke-width="3" stroke-linecap="round" stroke-linejoin="round" stroke-miterlimit="10" width="36" height="35"/>
	
		<rect x="89.5" y="5.5" fill="#FFAB00" stroke="#37474F" stroke-width="3" stroke-linecap="round" stroke-linejoin="round" stroke-miterlimit="10" width="35" height="35"/>
	
		<rect x="3.5" y="53.5" fill="#FFFFFF" stroke="#37474F" stroke-width="3" stroke-linecap="round" stroke-linejoin="round" stroke-miterlimit="10" width="36" height="35"/>
	
		<rect x="40.5" y="53.5" fill="#FFAB00" stroke="#37474F" stroke-width="3" stroke-linecap="round" stroke-linejoin="round" stroke-miterlimit="10" width="36" height="34"/>
	
		<rect x="76.5" y="53.5" fill="#FFFFFF" stroke="#37474F" stroke-width="3" stroke-linecap="round" stroke-linejoin="round" stroke-miterlimit="10" width="35" height="35"/>
	
		<rect x="3.5" y="87.5" fill="#FFAB00" stroke="#37474F" stroke-width="3" stroke-linecap="round" stroke-linejoin="round" stroke-miterlimit="10" width="36" height="35"/>
	
		<rect x="40.5" y="87.5" fill="#FFFFFF" stroke="#37474F" stroke-width="3" stroke-linecap="round" stroke-linejoin="round" stroke-miterlimit="10" width="35" height="35"/>
	
		<rect x="76.5" y="87.5" fill="#FFAB00" stroke="#37474F" stroke-width="3" stroke-linecap="round" stroke-linejoin="round" stroke-miterlimit="10" width="35" height="35"/>
	<g>
		<path fill="#37474F" stroke="#37474F" stroke-miterlimit="10" d="M50,78.6c0.8,0.8,0.8,2,0,2.9c-0.8,0.8-2.1,0.8-2.9,0
			c-0.8-0.8-0.8-2.1,0-2.9C47.9,77.8,49.2,77.8,50,78.6z"/>
		<path fill="#37474F" stroke="#37474F" stroke-miterlimit="10" d="M60,68.6c0.8,0.8,0.8,2.1,0,2.9c-0.8,0.8-2.1,0.8-2.9,0
			c-0.8-0.8-0.8-2.1,0-2.9C57.9,67.8,59.2,67.8,60,68.6z"/>
		<path fill="#37474F" stroke="#37474F" stroke-miterlimit="10" d="M70,58.5c0.8,0.8,0.8,2.1,0,2.9c-0.8,0.8-2.1,0.8-2.9,0
			c-0.8-0.8-0.8-2.1,0-2.9C68,57.7,69.3,57.7,70,58.5z"/>
	</g>
</g>
</svg>
