<?xml version="1.0" encoding="utf-8"?>
<!-- Generator: Adobe Illustrator 19.0.0, SVG Export Plug-In . SVG Version: 6.00 Build 0)  -->
<svg version="1.1" id="Layer_3" xmlns="http://www.w3.org/2000/svg" xmlns:xlink="http://www.w3.org/1999/xlink" x="0px" y="0px"
	 viewBox="0 0 84.2 13.3" style="enable-background:new 0 0 84.2 13.3;" xml:space="preserve">
<style type="text/css">
	.st0{fill:#FFFFFF;}
	.st1{fill:#1589CA;}
	.st2{fill:#6360AB;}
	.st3{fill:#CF1F44;}
	.st4{fill:#F37024;}
	.st5{fill:#FCB717;}
	.st6{fill:#12B24B;}
</style>
<polyline id="XMLID_11_" class="st0" points="40.5,3.3 46.2,3.3 51.2,10.3 51.2,10.3 51.2,3.3 54.9,3.3 54.9,13 49.3,13 44.2,6 
	44.1,6 44.1,13 40.5,13 40.5,3.3 "/>
<path id="XMLID_22_" class="st0" d="M60.1,10.9h1.2c2.2,0,3-0.3,3-1c0-0.7-1-1-2.7-1h-1.5V10.9 M60.1,7h1.2C63.1,7,64,6.9,64,6.1
	s-0.7-1-2.4-1h-1.5C60.1,5.1,60.1,7,60.1,7z M56,3.3h7c3.4,0,5.3,0.9,5.3,2.4c0,0.9-0.9,1.9-2.7,2.2l0,0c2.2,0.1,3.1,1.5,3.1,2.4
	c0,1.6-1.9,2.7-5.6,2.7H56V3.3z"/>
<path id="XMLID_13_" class="st0" d="M79.7,6.4c-0.1-1-1-1.3-2.1-1.5c-3.1-0.3-3.7,2.1-3.7,3.1c0,1.6,0.4,3.1,3.6,3.1
	c0.6,0,2.1-0.6,2.1-1.5H84c-0.1,2.8-4.9,3.6-7,3.6c-4.3,0-8-0.7-7.7-5c0.1-3,3-5.2,8.6-5c3.1,0,6.2,1,6.2,3.4h-4.5"/>
<path id="XMLID_14_" class="st0" d="M35.2,6.4c-0.1-1-1-1.3-2.1-1.5C30,4.7,29.4,7,29.4,8.1c0,1.6,0.4,3.1,3.6,3.1
	c0.6,0,2.2-0.6,2.2-1.5h4.5c-0.1,2.8-4.9,3.6-7,3.6c-4.3,0-8-0.7-7.7-5c0.1-3,3-5.2,8.6-5c3.1,0,6.2,1,6.2,3.4h-4.6"/>
<path id="XMLID_7_" class="st0" d="M21.1,12.9c-0.4,0.2-0.8,0.2-1.2,0.2l-17.5,0c-1-0.1-2-0.9-2.2-1.9c-0.3-1,0-2,0.6-2.7
	c0.6-0.6,1.4-0.9,2.3-0.8C2.2,7.2,1.9,6.2,2,5.2c0.1-0.9,0.8-1.7,1.6-2.1c0.9-0.4,2.1-0.2,2.8,0.5c-0.2-0.5-0.2-1.3,0-1.8
	C6.6,1,7.5,0.3,8.3,0.1c1.1-0.2,2.2,0.2,2.8,1.1c0.1,0.2,0.2,0.4,0.3,0.6c0.3-0.9,1.2-1.7,2.2-1.8c1-0.1,1.9,0.3,2.5,1.1
	c0.5,0.7,0.6,1.7,0.3,2.5h0C17,3,18.1,2.7,19,3.1c0.9,0.3,1.6,1.2,1.7,2.1c0.1,1-0.2,1.9-1,2.5c1.1-0.1,2.2,0.5,2.7,1.6
	c0.4,0.9,0.3,2.2-0.4,2.9C21.7,12.5,21.4,12.8,21.1,12.9"/>
<path id="XMLID_6_" class="st1" d="M19.3,7.7l-6.5,4.3L15,6.9l1-2.4c0.4-0.8,1.2-1.3,2.1-1.3c0.8,0,1.6,0.4,2,1.1
	c0.5,0.7,0.5,1.9,0,2.6C19.9,7.2,19.6,7.5,19.3,7.7"/>
<path id="XMLID_5_" class="st2" d="M16,3.6l-3.2,7.6l-0.1-0.8l-1-6.2c0-0.4,0.1-0.7,0.4-0.9L12.6,3c0-0.1-0.1-0.1-0.2-0.2l-0.9,0
	c-0.1-0.9,0.3-1.7,1.1-2.2c0.6-0.4,1.5-0.5,2.1-0.2c0.9,0.3,1.4,1.3,1.5,2.2C16.2,3,16.2,3.3,16,3.6"/>
<path id="XMLID_4_" class="st3" d="M9.9,11.2L6.7,3.6C6.4,2.8,6.5,1.8,7.1,1.1c0.6-0.7,1.5-1,2.4-0.7c0.8,0.2,1.5,0.9,1.7,1.7
	c0.1,0.3,0.1,0.6,0.1,1L9.9,11.2"/>
<path id="XMLID_3_" class="st4" d="M3.1,7.5C2.5,6.9,2.2,6.1,2.3,5.3c0.1-0.9,0.8-1.7,1.6-2C4.7,3,5.7,3.2,6.3,3.9
	c0.3,0.2,0.4,0.5,0.6,0.8l3.1,7.4L3.1,7.5"/>
<path id="XMLID_2_" class="st5" d="M2.4,12.9c-0.8-0.1-1.5-0.6-1.9-1.3c-0.4-0.8-0.3-1.9,0.2-2.6c0.6-0.7,1.4-1.1,2.3-0.9
	C3.4,8.1,3.7,8.3,4,8.4l6.6,4.4L2.4,12.9"/>
<path id="XMLID_1_" class="st6" d="M20.2,12.9c0.8-0.1,1.5-0.6,1.9-1.3c0.4-0.8,0.3-1.9-0.2-2.6c-0.6-0.7-1.4-1.1-2.3-0.9
	c-0.3,0.1-0.6,0.2-0.9,0.4l-6.6,4.4L20.2,12.9"/>
</svg>
