<?xml version="1.0" encoding="utf-8"?>
<!-- Generator: Adobe Illustrator 19.0.0, SVG Export Plug-In . SVG Version: 6.00 Build 0)  -->
<svg version="1.1" id="Layer_1" xmlns="http://www.w3.org/2000/svg" xmlns:xlink="http://www.w3.org/1999/xlink" x="0px" y="0px"
	 viewBox="0 0 40 29.3" style="enable-background:new 0 0 40 29.3;" xml:space="preserve">
<style type="text/css">
	.st0{clip-path:url(#XMLID_107_);fill:#010101;}
	.st1{fill:#010101;}
	.st2{clip-path:url(#XMLID_108_);fill:#010101;}
	.st3{fill:#1589CA;}
	.st4{fill:#6360AB;}
	.st5{fill:#CF1F44;}
	.st6{fill:#F37024;}
	.st7{fill:#FCB717;}
	.st8{fill:#12B24B;}
</style>
<g>
	<defs>
		<rect id="XMLID_12_" y="-0.4" width="40" height="29.8"/>
	</defs>
	<clipPath id="XMLID_107_">
		<use xlink:href="#XMLID_12_"  style="overflow:visible;"/>
	</clipPath>
	<path id="XMLID_14_" class="st0" d="M7,24.8c-0.1-0.7-0.7-0.9-1.4-1c-2.1-0.2-2.5,1.4-2.5,2.1c0,1.1,0.3,2.1,2.4,2.1
		C5.9,28,7,27.6,7,27h3c-0.1,1.9-3.3,2.4-4.7,2.4c-2.9,0-5.4-0.5-5.2-3.4c0.1-2,2-3.5,5.8-3.4c2.1,0,4.2,0.7,4.2,2.3H7"/>
	<path id="XMLID_13_" class="st0" d="M37,24.8c-0.1-0.7-0.7-0.9-1.4-1c-2.1-0.2-2.5,1.4-2.5,2.1c0,1.1,0.3,2.1,2.4,2.1
		c0.4,0,1.4-0.4,1.4-1h3c-0.1,1.9-3.3,2.4-4.7,2.4c-2.9,0-5.4-0.5-5.2-3.4c0.1-2,2-3.5,5.8-3.4c2.1,0,4.2,0.7,4.2,2.3H37"/>
</g>
<polyline id="XMLID_11_" class="st1" points="10.6,22.7 14.4,22.7 17.8,27.4 17.8,27.4 17.8,22.7 20.3,22.7 20.3,29.2 16.5,29.2 
	13.1,24.5 13,24.5 13,29.2 10.6,29.2 10.6,22.7 "/>
<g>
	<defs>
		<rect id="XMLID_7_" y="-0.4" width="40" height="29.8"/>
	</defs>
	<clipPath id="XMLID_108_">
		<use xlink:href="#XMLID_7_"  style="overflow:visible;"/>
	</clipPath>
	<path class="st2" d="M23.8,27.8h0.8c1.5,0,2-0.2,2-0.7c0-0.5-0.7-0.7-1.8-0.7h-1V27.8 M23.8,25.2h0.8c1.2,0,1.8-0.1,1.8-0.6
		c0-0.5-0.5-0.7-1.6-0.7h-1V25.2z M21,22.7h4.7c2.3,0,3.6,0.6,3.6,1.6c0,0.6-0.6,1.3-1.8,1.5v0c1.5,0.1,2.1,1,2.1,1.6
		c0,1.1-1.3,1.8-3.8,1.8H21V22.7z"/>
</g>
<path id="XMLID_6_" class="st3" d="M33.4,12.8l-11.1,7.4l3.7-8.9l1.8-4.1C28.5,5.8,29.9,5,31.4,5c1.4,0,2.7,0.7,3.5,1.9
	c0.8,1.2,0.9,3.2,0,4.5C34.5,11.9,34,12.4,33.4,12.8"/>
<path id="XMLID_5_" class="st4" d="M27.9,5.8l-5.5,13l-0.2-1.4L20.5,6.7c-0.1-0.7,0.2-1.2,0.7-1.6L22,4.7c0-0.2-0.2-0.2-0.3-0.3
	l-1.5,0c-0.1-1.5,0.6-2.9,1.9-3.8c1-0.7,2.6-0.8,3.7-0.3c1.5,0.6,2.5,2.2,2.5,3.7C28.2,4.6,28.1,5.2,27.9,5.8"/>
<path id="XMLID_4_" class="st5" d="M17.3,18.8l-5.4-13c-0.6-1.4-0.3-3.2,0.7-4.4c1.1-1.2,2.6-1.7,4.1-1.3c1.3,0.3,2.5,1.6,2.9,2.9
	c0.2,0.5,0.1,1.1,0.1,1.7L17.3,18.8"/>
<path id="XMLID_3_" class="st6" d="M5.7,12.3c-1.1-1-1.6-2.3-1.4-3.7c0.2-1.5,1.3-3,2.8-3.4c1.5-0.5,3-0.1,4.1,1
	c0.4,0.4,0.7,0.9,0.9,1.4l5.2,12.7L5.7,12.3"/>
<path id="XMLID_2_" class="st7" d="M4.6,21.6c-1.4-0.2-2.6-0.9-3.2-2.3c-0.7-1.3-0.5-3.2,0.4-4.4c1-1.2,2.5-1.8,3.9-1.5
	c0.6,0.1,1.1,0.4,1.6,0.7l11.3,7.6L4.6,21.6"/>
<path id="XMLID_1_" class="st8" d="M35.1,21.6c1.4-0.2,2.6-0.9,3.2-2.3c0.7-1.3,0.5-3.2-0.4-4.4c-1-1.2-2.5-1.8-3.9-1.5
	c-0.6,0.1-1.1,0.4-1.6,0.7l-11.3,7.6L35.1,21.6"/>
</svg>
