<?xml version="1.0" encoding="utf-8"?>
<!-- Generator: Adobe Illustrator 19.0.0, SVG Export Plug-In . SVG Version: 6.00 Build 0)  -->
<svg version="1.1" id="Layer_1" xmlns="http://www.w3.org/2000/svg" xmlns:xlink="http://www.w3.org/1999/xlink" x="0px" y="0px"
	 viewBox="188 -57.6 415.2 155.6" style="enable-background:new 188 -57.6 415.2 155.6;" xml:space="preserve">
<style type="text/css">
	.st0{fill:#FFFFFF;}
	.st1{fill:#F15A22;}
</style>
<g>
	<g>
		<g>
			<path d="M524.7-21.9v-6.7h3c0.6,0,1.1,0.1,1.3,0.2c0.3,0.1,0.5,0.3,0.7,0.7s0.3,0.7,0.3,1c0,0.5-0.1,0.9-0.5,1.2
				c-0.3,0.3-0.8,0.5-1.4,0.6c0.3,0.1,0.4,0.2,0.5,0.3c0.3,0.3,0.5,0.5,0.7,0.9l1.2,1.8h-1.1l-0.9-1.4c-0.3-0.4-0.5-0.7-0.7-0.9
				s-0.3-0.3-0.5-0.5c-0.1-0.1-0.3-0.1-0.4-0.2c-0.1,0-0.3,0-0.5,0h-1v3L524.7-21.9L524.7-21.9L524.7-21.9z M525.5-25.6h1.9
				c0.4,0,0.7-0.1,0.9-0.1c0.2-0.1,0.4-0.2,0.5-0.4c0.1-0.2,0.2-0.4,0.2-0.6c0-0.3-0.1-0.6-0.3-0.8c-0.2-0.2-0.6-0.3-1.1-0.3h-2.1
				L525.5-25.6L525.5-25.6z"/>
		</g>
		<g>
			<path d="M527.1-18.2c-3.8,0-6.9-3.1-6.9-6.9s3.1-6.9,6.9-6.9c3.8,0,6.9,3.1,6.9,6.9S530.9-18.2,527.1-18.2z M527.1-31.1
				c-3.3,0-6.1,2.7-6.1,6.1s2.7,6.1,6.1,6.1c3.3,0,6.1-2.7,6.1-6.1S530.5-31.1,527.1-31.1z"/>
		</g>
	</g>
	<g>
		<g>
			<g>
				<rect x="257.1" y="-24.5" width="81.6" height="81.6"/>
				<rect x="265.1" y="-16.6" class="st0" width="65.8" height="65.8"/>
				<rect x="291" y="9" width="62.8" height="62.8"/>
				<rect x="298.4" y="16.5" class="st1" width="47.7" height="47.7"/>
			</g>
			<g>
				<path d="M423.9,53c-0.6,1.5-1.5,2.9-2.7,4.1c-1.2,1.2-2.6,2.3-4.1,3.1c-1.5,0.9-3.3,1.5-5,2.1c-1.8,0.5-3.6,0.7-5.5,0.7
					c-2.6,0-5.1-0.5-7.5-1.5s-4.5-2.4-6.3-4.2c-1.9-1.8-3.4-3.9-4.5-6.4c-1.1-2.3-1.7-4.8-2.1-7.6h51.8l0.1-0.5
					c0.1-0.5,0.1-1,0.2-1.8c0.1-0.7,0.1-1.5,0.1-2.5c0-4.2-0.7-8.3-2.3-12.3s-3.7-7.5-6.5-10.4c-2.8-3-6.2-5.4-10.1-7.2
					S411.2,6,406.4,6s-9.3,0.9-13.2,2.7c-4,1.7-7.5,4.1-10.3,7.2c-2.9,3-5.1,6.5-6.7,10.5c-1.6,4-2.4,8.3-2.4,12.7s0.8,8.7,2.4,12.8
					c1.6,4,3.8,7.6,6.7,10.6s6.3,5.4,10.3,7.2c4,1.7,8.5,2.7,13.2,2.7c3.1,0,6.3-0.4,9.2-1.2c2.9-0.8,5.6-1.9,8-3.4
					c2.4-1.4,4.5-3.1,6.4-5.1c1.9-1.9,3.3-4.1,4.4-6.5l0.3-0.7l-10.5-2.9L423.9,53z M406.5,15.3c2.7,0,5.3,0.5,7.7,1.5
					c2.4,0.9,4.5,2.3,6.3,4c1.8,1.7,3.3,3.8,4.5,6.2c1.1,2.2,1.8,4.7,2.1,7.3h-41c0.3-2.6,0.9-5,2-7.2c1.1-2.4,2.6-4.5,4.4-6.2
					c1.8-1.7,3.9-3.1,6.3-4.1C401.1,15.8,403.7,15.3,406.5,15.3z"/>
				<polygon points="520.7,-15.6 444.6,-15.6 444.6,-4.3 497,-4.3 435.8,71.7 512.7,71.7 512.7,60.3 459.6,60.3 				"/>
			</g>
		</g>
	</g>
</g>
</svg>
