<?xml version="1.0" encoding="utf-8"?>
<!-- Generator: Adobe Illustrator 19.0.0, SVG Export Plug-In . SVG Version: 6.00 Build 0)  -->
<svg version="1.1" id="Layer_1" xmlns="http://www.w3.org/2000/svg" xmlns:xlink="http://www.w3.org/1999/xlink" x="0px" y="0px"
	 viewBox="-35 37 128 128" style="enable-background:new -35 37 128 128;" xml:space="preserve">
<style type="text/css">
	.st0{fill:#FFFFFF;}
	.st1{fill:none;stroke:#37474F;stroke-width:0;stroke-linecap:round;stroke-linejoin:round;}
	.st2{fill:#FFAB00;}
	.st3{fill:#37474F;}
	.st4{fill:#78909C;}
	.st5{fill:#FFECB3;}
</style>
<g>
	<path class="st0" d="M11.9,140.7c0-0.1,0.1-0.1,0.1-0.2c-0.1-0.6-0.1-1.1,0-1.6h-22.6c-1,0-1.8-0.9-1.8-1.8c0-1,0.9-1.8,1.8-1.8H14
		l4.9-4.9h-29.5c-1,0-1.8-0.9-1.8-1.8c0-1,0.9-1.8,1.8-1.8h32.9l6.2-6.2h-39.1c-1,0-1.8-0.9-1.8-1.8s0.9-1.8,1.8-1.8h42.7l5-5h-47.7
		c-1,0-1.8-0.9-1.8-1.8c0-0.9,0.9-1.8,1.8-1.8h51.3l6.1-6.1h-57.4c-1,0-1.8-0.9-1.8-1.8s0.9-1.8,1.8-1.8h59.8c0.3,0,0.7,0.1,0.9,0.3
		l10.1-10.1V59.5H44.9c-1,0-1.8-0.9-1.8-1.8V43.6h-64.7v108.8H6.9L11.9,140.7z M18.7,56c1.2,0,2.3,1.1,2.3,2.3c0,1.3-1,2.3-2.3,2.3
		c-1.3,0-2.3-1.1-2.3-2.3C16.4,57,17.5,56,18.7,56z M6.5,56c1.3,0,2.3,1.1,2.3,2.3c0.1,1.3-1,2.3-2.3,2.3s-2.3-1.1-2.3-2.3
		C4.2,57,5.3,56,6.5,56z M-5.6,56c1.3,0,2.3,1.1,2.3,2.3c0,1.3-1.1,2.3-2.3,2.3c-1.3,0-2.3-1.1-2.3-2.3C-7.9,57-6.8,56-5.6,56z
		 M-10.6,73h59.8c1,0,1.8,0.9,1.8,1.8c0,0.9-0.8,1.8-1.8,1.8h-59.8c-1,0-1.8-0.9-1.8-1.8S-11.6,73-10.6,73z M-10.6,81.6h59.8
		c1,0,1.8,0.9,1.8,1.8c0,0.9-0.8,1.8-1.8,1.8h-59.8c-1,0-1.8-0.9-1.8-1.8C-12.4,82.5-11.5,81.6-10.6,81.6z M-10.6,90.1h59.8
		c1,0,1.8,0.9,1.8,1.8c0,0.9-0.8,1.8-1.8,1.8h-59.8c-1,0-1.8-0.9-1.8-1.8C-12.4,91-11.5,90.1-10.6,90.1z"/>
	<path class="st0" d="M47.1,135.3h2.1c1,0,1.8,0.9,1.8,1.8c0.1,1-0.8,1.8-1.8,1.8h-5.7L30,152.4h30.2v-30.1L47.1,135.3z"/>
	<polygon class="st0" points="47.4,43.6 46.7,43.6 46.7,44.1 58.2,54.7 	"/>
	<line class="st1" x1="63.8" y1="156" x2="63.9" y2="156"/>
	<polygon class="st2" points="46.7,44.1 46.7,55.8 59.4,55.8 58.2,54.7 	"/>
	<path class="st3" d="M-10.6,76.6h59.8c1,0,1.8-0.9,1.8-1.8c0-0.9-0.8-1.8-1.8-1.8h-59.8c-1,0-1.8,0.9-1.8,1.8S-11.6,76.6-10.6,76.6
		z"/>
	<path class="st3" d="M-10.6,85.2h59.8c1,0,1.8-0.9,1.8-1.8c0-0.9-0.8-1.8-1.8-1.8h-59.8c-0.9,0-1.8,0.9-1.8,1.8
		C-12.4,84.3-11.6,85.2-10.6,85.2z"/>
	<path class="st3" d="M-10.6,93.7h59.8c1,0,1.8-0.9,1.8-1.8c0-0.9-0.8-1.8-1.8-1.8h-59.8c-0.9,0-1.8,0.9-1.8,1.8
		C-12.4,92.8-11.6,93.7-10.6,93.7z"/>
	<path class="st3" d="M-5.6,60.6c1.2,0,2.3-1,2.3-2.3c0-1.2-1-2.3-2.3-2.3c-1.2,0-2.3,1-2.3,2.3C-7.9,59.5-6.9,60.6-5.6,60.6z"/>
	<path class="st3" d="M6.5,60.6c1.3,0,2.4-1,2.3-2.3c0-1.2-1-2.3-2.3-2.3c-1.2,0-2.3,1-2.3,2.3C4.2,59.5,5.2,60.6,6.5,60.6z"/>
	<path class="st3" d="M18.7,60.6c1.3,0,2.3-1,2.3-2.3c0-1.2-1.1-2.3-2.3-2.3c-1.2,0-2.3,1-2.3,2.3C16.4,59.5,17.4,60.6,18.7,60.6z"
		/>
	<path class="st4" d="M68.7,85.4c-0.5,0-0.9,0.1-1.1,0.3l-3.8,3.8c2,0.5,4.3,1.6,6.5,3.5c0.5,0.3,1,0.6,1.4,1.1
		c0.4,0.4,0.7,0.8,0.9,1.2c1.9,2.1,3.1,4.4,3.6,6.4L80,98c0.9-1,0-4.8-3.8-8.6C73.2,86.6,70.4,85.4,68.7,85.4z"/>
	<path class="st3" d="M78.3,87.3c-4.9-4.7-10.3-6.2-12.8-3.7l-1.7,1.7v-30L48.8,40h-74.1v116H5.4l-1.7,3.7c-0.1,0.2-0.1,0.4-0.1,0.6
		c0,0.4,0.1,0.9,0.4,1.2c0.3,0.3,0.7,0.5,1.1,0.5c0.2,0,0.4,0,0.5-0.1l14.6-5.9h43.6v-37.3L75.5,107c0.2-0.2,0.3-0.4,0.5-0.6
		l6.2-6.3C84.6,97.4,82.9,91.9,78.3,87.3z M69.6,96.3c0.7,0.6,1,1.5,1,2.4c0,0.9-0.4,1.7-1,2.3L24,146.8c-1.3,1.3-3.4,1.3-4.7,0
		c-0.6-0.6-1-1.5-1-2.3s0.4-1.7,1-2.3L65,96.4c0.6-0.7,1.5-1,2.3-1S69,95.7,69.6,96.3z M62.8,94.1l-45.7,45.8
		c-0.7,0.7-1.2,1.4-1.5,2.3c-0.8-1.9-0.9-3.3-0.3-3.9L61,92.5c0.2-0.2,0.6-0.3,1.1-0.3c0.7,0,1.5,0.2,2.5,0.6
		C64,93.1,63.4,93.6,62.8,94.1z M27.6,150.6c-0.5,0.5-1.9,0.5-3.6-0.3c0.7-0.3,1.4-0.7,2-1.3l45.7-45.9c0.6-0.6,1-1.2,1.4-1.9
		c0.8,1.8,0.8,3.2,0.3,3.7L27.6,150.6z M46.7,55.8V44.1v-0.5h0.7l10.8,11.1l1.2,1.1H46.7z M-21.6,43.6h64.7v14.1
		c0,0.9,0.8,1.8,1.8,1.8h15.3v29.4L50.1,99c-0.3-0.2-0.6-0.3-0.9-0.3h-59.8c-0.9,0-1.8,0.9-1.8,1.8s0.8,1.8,1.8,1.8h57.4l-6.1,6.1
		h-51.3c-0.9,0-1.8,0.9-1.8,1.8c0,0.9,0.8,1.8,1.8,1.8h47.7l-5,5h-42.7c-0.9,0-1.8,0.9-1.8,1.8s0.8,1.8,1.8,1.8h39.1l-6.2,6.2h-32.9
		c-0.9,0-1.8,0.8-1.8,1.8c0,0.9,0.8,1.8,1.8,1.8h29.5l-4.9,4.9h-24.6c-0.9,0-1.8,0.8-1.8,1.8c0,0.9,0.8,1.8,1.8,1.8H12
		c0,0.5,0,1,0,1.6c0,0.1-0.1,0.1-0.1,0.2l-5,11.7h-28.5V43.6z M13.3,155.5l-3.1-3.2l3.3-7.7c0.8,1.5,2,3,3.4,4.4
		c1.4,1.4,2.9,2.5,4.4,3.3L13.3,155.5z M30,152.4l13.5-13.5h5.7c1,0,1.9-0.8,1.8-1.8c0-0.9-0.8-1.8-1.8-1.8h-2.1l13.1-13v30.1H30z
		 M80,98l-3.7,3.7c-0.5-2-1.8-4.3-3.6-6.4c-0.3-0.4-0.6-0.9-0.9-1.2c-0.4-0.4-0.9-0.8-1.4-1.1c-2.2-1.8-4.5-3-6.5-3.5l3.8-3.8
		c0.2-0.2,0.6-0.3,1.1-0.3c1.7,0,4.5,1.2,7.5,4C80,93.2,80.9,97,80,98z"/>
	<path class="st5" d="M21.3,152.3c-1.5-0.8-2.9-1.9-4.4-3.3c-1.4-1.4-2.6-2.9-3.4-4.4l-3.3,7.7l3.1,3.2L21.3,152.3z"/>
	<path class="st5" d="M73.1,101.2c-0.3,0.7-0.8,1.4-1.4,1.9L26,149c-0.6,0.6-1.3,1-2,1.3c1.7,0.8,3.1,0.8,3.6,0.3l45.8-45.7
		C73.9,104.3,73.8,102.9,73.1,101.2z"/>
	<path class="st5" d="M62.1,92.2c-0.5,0-0.9,0.1-1.1,0.3l-45.7,45.8c-0.6,0.6-0.5,2,0.3,3.9c0.3-0.9,0.8-1.6,1.5-2.3l45.7-45.8
		c0.5-0.5,1.2-1,1.8-1.3C63.7,92.4,62.8,92.2,62.1,92.2z"/>
	<path class="st2" d="M19.3,142.2c-0.6,0.6-1,1.5-1,2.3s0.4,1.7,1,2.3c1.3,1.3,3.4,1.3,4.7,0L69.6,101c0.6-0.6,1-1.4,1-2.3
		c0-0.9-0.3-1.8-1-2.4c-0.6-0.6-1.5-0.9-2.3-0.9s-1.7,0.3-2.3,1L19.3,142.2z"/>
</g>
</svg>
