<?xml version="1.0" encoding="utf-8"?>
<!-- Generator: Adobe Illustrator 16.0.0, SVG Export Plug-In . SVG Version: 6.00 Build 0)  -->
<!DOCTYPE svg PUBLIC "-//W3C//DTD SVG 1.1//EN" "http://www.w3.org/Graphics/SVG/1.1/DTD/svg11.dtd">
<svg version="1.1" id="Layer_1" xmlns="http://www.w3.org/2000/svg" xmlns:xlink="http://www.w3.org/1999/xlink" x="0px" y="0px"
	 width="128px" height="128px" viewBox="0 0 128 128" enable-background="new 0 0 128 128" xml:space="preserve">
<g>
	<g>
		<g>
			<path fill="#B0BEC5" d="M64,37c-23.5,0-45.1-3.7-61-9.9v73.8C18.9,94.8,40.5,91,64,91s44.1,3.7,61,9.9V27.1
				C108.1,33.2,87.5,37,64,37z"/>
		</g>
		<g>
			<path fill="#37474F" d="M125,102.9c-0.2,0-0.5,0-0.7-0.1C106.8,96.4,85.9,93,64,93c-22.6,0-44,3.5-60.3,9.7
				c-0.6,0.2-1.3,0.2-1.9-0.2c-0.5-0.4-0.9-1-0.9-1.6V27.1c0-0.7,0.3-1.3,0.9-1.6c0.5-0.4,1.2-0.5,1.9-0.2C20,31.5,41.4,35,64,35
				c21.9,0,42.8-3.4,60.3-9.7c0.6-0.2,1.3-0.1,1.8,0.2c0.5,0.4,0.9,1,0.9,1.6v73.8c0,0.7-0.3,1.3-0.9,1.6
				C125.8,102.8,125.4,102.9,125,102.9z M64,89c21.3,0,41.6,3.1,59,9V29.9c-17.4,5.9-37.7,9-59,9c-21.9,0-42.7-3.2-59-9v68
				C21.3,92.2,42.1,89,64,89z"/>
		</g>
	</g>
	<g>
		<g>
			<path fill="#FFECB3" d="M111.3,42.1c-4.7,1.3-10,2.2-15.6,2.7c-3.5,0.3-7.1,0.5-10.8,0.5"/>
		</g>
		<g>
			<path fill="#37474F" d="M84.9,47.3c-1.1,0-2-0.9-2-2s0.9-2,2-2c3.6,0,7.2-0.2,10.6-0.5c5.4-0.5,10.6-1.4,15.3-2.7
				c1.1-0.3,2.2,0.4,2.4,1.4c0.3,1.1-0.4,2.2-1.4,2.4c-4.9,1.3-10.3,2.2-15.9,2.8C92.3,47.2,88.6,47.3,84.9,47.3z"/>
		</g>
	</g>
	<g>
		<g>
			<path fill="#FFECB3" d="M111.4,52c-4.8,0.9-10.1,1.3-15.8,1.4c-3.5,0-7.1-0.1-10.8-0.4"/>
		</g>
		<g>
			<path fill="#37474F" d="M94.5,55.4c-3.2,0-6.5-0.1-9.9-0.4c-1.1-0.1-1.9-1.1-1.8-2.2c0.1-1.1,1.1-1.9,2.2-1.8
				c3.6,0.3,7.2,0.4,10.6,0.4c5.5-0.1,10.7-0.5,15.4-1.4c1.1-0.2,2.1,0.5,2.3,1.6c0.2,1.1-0.5,2.1-1.6,2.3c-5,0.9-10.4,1.4-16.1,1.4
				C95.2,55.4,94.9,55.4,94.5,55.4z"/>
		</g>
	</g>
	<g>
		<g>
			<polyline fill="#FFECB3" points="4.1,55.2 15,56.5 15,65 21.9,65.3 21.6,70.7 27.7,70.2 63.9,90.2 			"/>
		</g>
		<g>
			<path fill="#37474F" d="M63.9,92.2c-0.3,0-0.7-0.1-1-0.3L27.3,72.2l-5.6,0.5c-0.6,0-1.1-0.2-1.6-0.6c-0.4-0.4-0.6-1-0.6-1.5
				l0.2-3.4L14.9,67c-1.1,0-1.9-0.9-1.9-2v-6.7l-9.1-1.1C2.8,57.1,2,56.1,2.1,55c0.1-1.1,1.1-1.9,2.2-1.8l10.9,1.3
				c1,0.1,1.8,1,1.8,2v6.6l5,0.2c0.5,0,1,0.3,1.4,0.7c0.4,0.4,0.5,0.9,0.5,1.5l-0.2,3.1l3.9-0.3c0.4,0,0.8,0.1,1.1,0.2l36.2,20.1
				c1,0.5,1.3,1.8,0.8,2.7C65.3,91.9,64.6,92.2,63.9,92.2z"/>
		</g>
	</g>
	<g>
		<g>
			<circle fill="#FFAB00" cx="63.6" cy="53.9" r="9.7"/>
		</g>
		<g>
			<path fill="#37474F" d="M63.6,65.6c-6.4,0-11.7-5.2-11.7-11.7s5.2-11.7,11.7-11.7c6.4,0,11.7,5.2,11.7,11.7S70.1,65.6,63.6,65.6z
				 M63.6,46.2c-4.2,0-7.7,3.5-7.7,7.7s3.5,7.7,7.7,7.7c4.2,0,7.7-3.5,7.7-7.7S67.9,46.2,63.6,46.2z"/>
		</g>
	</g>
	<g>
		<g>
			<line fill="#FFECB3" x1="64" y1="59" x2="64" y2="72"/>
		</g>
		<g>
			<path fill="#37474F" d="M64,74c-1.1,0-2-0.9-2-2V59c0-1.1,0.9-2,2-2s2,0.9,2,2v13C66,73.1,65.1,74,64,74z"/>
		</g>
	</g>
	<g>
		<g>
			<polyline fill="#FFECB3" points="78.2,73.9 91.6,60.4 110.1,78.8 			"/>
		</g>
		<g>
			<path fill="#37474F" d="M110.1,80.8c-0.5,0-1-0.2-1.4-0.6l-17-17l-12,12c-0.8,0.8-2,0.8-2.8,0c-0.8-0.8-0.8-2,0-2.8L90.2,59
				c0.8-0.8,2-0.8,2.8,0l18.4,18.4c0.8,0.8,0.8,2,0,2.8C111.1,80.7,110.6,80.8,110.1,80.8z"/>
		</g>
	</g>
	<g>
		<g>
			<path fill="#FFFFFF" d="M38.3,75.5c8-1,16.6-1.5,25.4-1.5c23.5,0,44.9,3.7,61,9.9"/>
		</g>
		<g>
			<path fill="#37474F" d="M124.6,85.9c-0.2,0-0.5,0-0.7-0.1C107.4,79.5,86,76,63.6,76c-8.5,0-17,0.5-25.1,1.5
				c-1.1,0.1-2.1-0.6-2.2-1.7s0.6-2.1,1.7-2.2c8.3-1,16.9-1.5,25.6-1.5c22.9,0,44.8,3.5,61.7,10c1,0.4,1.6,1.5,1.2,2.6
				C126.2,85.4,125.4,85.9,124.6,85.9z"/>
		</g>
	</g>
	<g>
		<g>
			<line fill="#FFECB3" x1="93.2" y1="76.2" x2="91.8" y2="63.1"/>
		</g>
		<g>
			<path fill="#37474F" d="M93.2,78.2c-1,0-1.9-0.8-2-1.8l-1.4-13c-0.1-1.1,0.7-2.1,1.8-2.2c1.1-0.1,2.1,0.7,2.2,1.8l1.4,13
				c0.1,1.1-0.7,2.1-1.8,2.2C93.3,78.2,93.3,78.2,93.2,78.2z"/>
		</g>
	</g>
	<g>
		<g>
			<polygon fill="#FFECB3" points="22,49.6 13,47.3 13,38.1 22,40.4 			"/>
		</g>
		<g>
			<path fill="#37474F" d="M22,51.6c-0.2,0-0.3,0-0.5-0.1l-9-2.3c-0.9-0.2-1.5-1-1.5-1.9v-9.2c0-0.6,0.3-1.2,0.8-1.6
				c0.5-0.4,1.1-0.5,1.7-0.4l9,2.3c0.9,0.2,1.5,1,1.5,1.9v9.2c0,0.6-0.3,1.2-0.8,1.6C22.9,51.4,22.4,51.6,22,51.6z M15,45.7l5,1.3
				v-5.1l-5-1.3V45.7z"/>
		</g>
	</g>
	<g>
		<g>
			<path fill="#FFFFFF" d="M44.9,58.7c-4.1,2-9.1,0.4-11.2-3.8c-2-4.1-0.4-9.1,3.8-11.2"/>
		</g>
		<g>
			<path fill="#37474F" d="M41.2,61.6c-3.8,0-7.5-2.1-9.3-5.7c-1.2-2.5-1.4-5.3-0.5-7.9s2.7-4.7,5.2-5.9c1-0.5,2.2-0.1,2.7,0.9
				c0.5,1,0.1,2.2-0.9,2.7c-3.1,1.5-4.4,5.3-2.9,8.5c1.5,3.1,5.3,4.4,8.5,2.9c1-0.5,2.2-0.1,2.7,0.9c0.5,1,0.1,2.2-0.9,2.7
				C44.3,61.2,42.7,61.6,41.2,61.6z"/>
		</g>
	</g>
</g>
</svg>
