<?xml version="1.0" encoding="utf-8"?>
<!-- Generator: Adobe Illustrator 20.0.0, SVG Export Plug-In . SVG Version: 6.00 Build 0)  -->
<svg version="1.1" id="Layer_1" xmlns="http://www.w3.org/2000/svg" xmlns:xlink="http://www.w3.org/1999/xlink" x="0px" y="0px"
	 viewBox="0 0 1594 1358.3" style="enable-background:new 0 0 1594 1358.3;" xml:space="preserve">
<style type="text/css">
	.st0{fill:none;stroke:#DDDDDD;stroke-width:6;stroke-miterlimit:10;}
	.st1{fill:none;stroke:#DDDDDD;stroke-width:6;stroke-miterlimit:10;stroke-dasharray:12,12;}
	.st2{fill:#DDDDDD;}
	.st3{fill:#666666;}
	.st4{font-family:'Roboto-Regular';}
	.st5{font-size:20px;}
	.st6{fill:#78909C;}
	.st7{font-family:'Roboto-Bold';}
	.st8{font-size:31.6561px;}
	.st9{fill:#0071A9;}
	.st10{clip-path:url(#SVGID_2_);fill:#008DCB;}
	.st11{clip-path:url(#SVGID_4_);fill:#A0D1E4;}
	.st12{clip-path:url(#SVGID_6_);fill:#FFFFFF;}
	.st13{fill:none;stroke:#006193;stroke-width:2.2677;stroke-miterlimit:22.9256;}
	.st14{fill:#FFFFFF;}
	.st15{fill:#008DCB;}
	.st16{fill:#37474F;}
	.st17{fill:#FFECB3;}
	.st18{fill:#FFAB00;}
	.st19{fill:none;}
	.st20{fill:#B0BEC5;}
</style>
<g id="Layer_2">
	<g id="XMLID_4_">
		<g id="XMLID_32_">
			<line id="XMLID_35_" class="st0" x1="568" y1="277.3" x2="568" y2="283.3"/>
			<line id="XMLID_34_" class="st1" x1="568" y1="295.3" x2="568" y2="1296.3"/>
			<line id="XMLID_33_" class="st0" x1="568" y1="1302.3" x2="568" y2="1308.3"/>
		</g>
	</g>
	<g id="XMLID_3_">
		<g id="XMLID_36_">
			<line id="XMLID_94_" class="st0" x1="1026" y1="277.3" x2="1026" y2="283.3"/>
			<line id="XMLID_93_" class="st1" x1="1026" y1="295.3" x2="1026" y2="1296.3"/>
			<line id="XMLID_37_" class="st0" x1="1026" y1="1302.3" x2="1026" y2="1308.3"/>
		</g>
	</g>
	<g id="XMLID_2_">
		<g id="XMLID_97_">
			<line id="XMLID_100_" class="st0" x1="1487" y1="277.3" x2="1487" y2="283.3"/>
			<line id="XMLID_99_" class="st1" x1="1487" y1="295.3" x2="1487" y2="1296.3"/>
			<line id="XMLID_98_" class="st0" x1="1487" y1="1302.3" x2="1487" y2="1308.3"/>
		</g>
	</g>
	<g id="XMLID_107_">
		<g id="XMLID_102_">
			<line id="XMLID_105_" class="st0" x1="109" y1="277.3" x2="109" y2="283.3"/>
			<line id="XMLID_104_" class="st1" x1="109" y1="295.3" x2="109" y2="1296.3"/>
			<line id="XMLID_103_" class="st0" x1="109" y1="1302.3" x2="109" y2="1308.3"/>
		</g>
	</g>
</g>
<g id="Layer_4">
	<line id="XMLID_211_" class="st0" x1="597.7" y1="448.5" x2="997.7" y2="448.5"/>
	<g id="XMLID_208_" transform="translate(1716.9636,-2280.0287)">
		<polygon id="XMLID_210_" class="st2" points="-731.7,2739.7 -720.5,2728.5 -731.7,2717.3 -727.7,2713.3 -712.6,2728.5 
			-727.7,2743.7 		"/>
		<path id="XMLID_209_" class="st2" d="M-720.9,2721.6l6.9,6.9l-6.9,6.9l-6.9,6.9l-1.3-1.3l-1.3-1.3l5.6-5.6l5.6-5.6l-5.6-5.6
			l-5.6-5.6l1.3-1.3l1.3-1.3L-720.9,2721.6L-720.9,2721.6z"/>
	</g>
	<text id="XMLID_207_" transform="matrix(1 0 0 1 724.2142 429.5316)" class="st3 st4 st5">Get media items</text>
	<line id="XMLID_193_" class="st0" x1="1459.4" y1="828.5" x2="1059.4" y2="828.5"/>
	<g id="XMLID_190_" transform="translate(1716.9636,-2280.0287)">
		<polygon id="XMLID_192_" class="st2" points="-645.1,3119.7 -656.3,3108.5 -645.1,3097.3 -649.1,3093.3 -664.3,3108.5 
			-649.1,3123.7 		"/>
		<path id="XMLID_191_" class="st2" d="M-656,3101.6l-6.9,6.9l6.9,6.9l6.9,6.9l1.3-1.3l1.3-1.3l-5.6-5.6l-5.6-5.6l5.6-5.6l5.6-5.6
			l-1.3-1.3l-1.3-1.3L-656,3101.6L-656,3101.6z"/>
	</g>
	<text id="XMLID_189_" transform="matrix(1 0 0 1 1143.4623 809.5317)" class="st3 st4 st5">Uploaded &amp; licensed items</text>
	<line id="XMLID_188_" class="st0" x1="999.4" y1="933.5" x2="599.4" y2="933.5"/>
	<g id="XMLID_158_" transform="translate(1716.9636,-2280.0287)">
		<polygon id="XMLID_187_" class="st2" points="-1105.1,3224.7 -1116.3,3213.5 -1105.1,3202.3 -1109.1,3198.3 -1124.3,3213.5 
			-1109.1,3228.7 		"/>
		<path id="XMLID_159_" class="st2" d="M-1116,3206.6l-6.9,6.9l6.9,6.9l6.9,6.9l1.3-1.3l1.3-1.3l-5.6-5.6l-5.6-5.6l5.6-5.6l5.6-5.6
			l-1.3-1.3l-1.3-1.3L-1116,3206.6L-1116,3206.6z"/>
	</g>
	<text id="XMLID_157_" transform="matrix(1 0 0 1 683.4623 914.5317)" class="st3 st4 st5">Uploaded &amp; licensed items</text>
	<line id="XMLID_14_" class="st0" x1="127.7" y1="368.5" x2="527.7" y2="368.5"/>
	<g id="XMLID_11_" transform="translate(1716.9636,-2280.0287)">
		<polygon id="XMLID_13_" class="st2" points="-1201.7,2659.7 -1190.5,2648.5 -1201.7,2637.3 -1197.7,2633.3 -1182.6,2648.5 
			-1197.7,2663.7 		"/>
		<path id="XMLID_12_" class="st2" d="M-1190.9,2641.6l6.9,6.9l-6.9,6.9l-6.9,6.9l-1.3-1.3l-1.3-1.3l5.6-5.6l5.6-5.6l-5.6-5.6
			l-5.6-5.6l1.3-1.3l1.3-1.3L-1190.9,2641.6L-1190.9,2641.6z"/>
	</g>
	<text id="XMLID_1_" transform="matrix(1 0 0 1 235.2787 349.5316)" class="st3 st4 st5">Opens Media Library</text>
	<line id="XMLID_39_" class="st0" x1="535.4" y1="1023.5" x2="135.4" y2="1023.5"/>
	<g id="XMLID_16_" transform="translate(1716.9636,-2280.0287)">
		<polygon id="XMLID_18_" class="st2" points="-1569.1,3314.7 -1580.3,3303.5 -1569.1,3292.3 -1573.1,3288.3 -1588.3,3303.5 
			-1573.1,3318.7 		"/>
		<path id="XMLID_17_" class="st2" d="M-1580,3296.6l-6.9,6.9l6.9,6.9l6.9,6.9l1.3-1.3l1.3-1.3l-5.6-5.6l-5.6-5.6l5.6-5.6l5.6-5.6
			l-1.3-1.3l-1.3-1.3L-1580,3296.6L-1580,3296.6z"/>
	</g>
	<text id="XMLID_15_" transform="matrix(1 0 0 1 180.7049 1004.5317)" class="st3 st4 st5">Provide uploaded &amp; licensed items</text>
</g>
<g id="Layer_5">
	<rect id="XMLID_10_" x="1469" y="492.5" class="st6" width="36.6" height="383.2"/>
	<rect id="XMLID_9_" x="1008.2" y="408.8" class="st6" width="36.6" height="566.1"/>
	<rect id="XMLID_8_" x="549.2" y="315.3" class="st6" width="36.6" height="746.6"/>
</g>
<g id="Layer_3">
	<text id="XMLID_448_" transform="matrix(1 0 0 1 1428.558 73.5143)" class="st7 st8">Toolbelt</text>
	<g id="XMLID_5_">
		<path id="XMLID_81_" class="st9" d="M1485.4,107.4c-0.3,3.2-0.7,6.5-2.8,8.8c-4.2,4.7-9.8,7.6-14.4,9.8
			c-11.7,5.8-25.2,19.2-25.2,40.6c0,10.4,4,21.6,11.6,30.2c8,9.2,20.1,15.4,34.4,15.4c12.8-0.1,23.3-4.2,31.2-11
			c9.2-8,14.8-19.7,14.8-34.5c0-10.9-3.3-20.4-9.2-27.7c-11.7-14.3-21.1-15.6-27.1-19C1494.3,117.7,1490.4,113.4,1485.4,107.4
			L1485.4,107.4z"/>
		<g id="XMLID_76_">
			<g>
				<defs>
					<path id="SVGID_1_" d="M1485.4,107.4c-0.3,3.2-0.7,6.5-2.8,8.8c-4.2,4.7-9.8,7.6-14.4,9.8c-11.7,5.8-25.2,19.2-25.2,40.6
						c0,10.4,4,21.6,11.6,30.2c8,9.2,20.1,15.4,34.4,15.4c12.8-0.1,23.3-4.2,31.2-11c9.2-8,14.8-19.7,14.8-34.5
						c0-10.9-3.3-20.4-9.2-27.7c-11.7-14.3-21.1-15.6-27.1-19C1494.3,117.7,1490.4,113.4,1485.4,107.4L1485.4,107.4z"/>
				</defs>
				<clipPath id="SVGID_2_">
					<use xlink:href="#SVGID_1_"  style="overflow:visible;"/>
				</clipPath>
				<path id="XMLID_80_" class="st10" d="M1520.3,129.6c6.2,9.3,6,19.4,0.6,28.3c-4.3,7.1-12.1,13.1-22,20
					c-14.9,10.4-30.1,18.2-42.6,14.9c-6.1-1.6-11.4-6.4-15.9-13.7l-3.8-77.8l53.8-0.9L1520.3,129.6L1520.3,129.6z"/>
			</g>
			<g>
				<defs>
					<path id="SVGID_3_" d="M1485.4,107.4c-0.3,3.2-0.7,6.5-2.8,8.8c-4.2,4.7-9.8,7.6-14.4,9.8c-11.7,5.8-25.2,19.2-25.2,40.6
						c0,10.4,4,21.6,11.6,30.2c8,9.2,20.1,15.4,34.4,15.4c12.8-0.1,23.3-4.2,31.2-11c9.2-8,14.8-19.7,14.8-34.5
						c0-10.9-3.3-20.4-9.2-27.7c-11.7-14.3-21.1-15.6-27.1-19C1494.3,117.7,1490.4,113.4,1485.4,107.4L1485.4,107.4z"/>
				</defs>
				<clipPath id="SVGID_4_">
					<use xlink:href="#SVGID_3_"  style="overflow:visible;"/>
				</clipPath>
				<path id="XMLID_79_" class="st11" d="M1484.8,108c2.5,4.2,2.8,10,0,12.1c-1.3,1-1.1,1.6-0.5,2c1,0.9,0.3,2.6-0.8,4.2
					c-6.3,9.1-18.6,16.4-26,19.7c-2,0.9-5.8,2-6.9,0.8c-2.9-3.1,2.3-7.9,5.2-12.2l23-16.6L1484.8,108L1484.8,108z"/>
			</g>
			<g>
				<defs>
					<path id="SVGID_5_" d="M1485.4,107.4c-0.3,3.2-0.7,6.5-2.8,8.8c-4.2,4.7-9.8,7.6-14.4,9.8c-11.7,5.8-25.2,19.2-25.2,40.6
						c0,10.4,4,21.6,11.6,30.2c8,9.2,20.1,15.4,34.4,15.4c12.8-0.1,23.3-4.2,31.2-11c9.2-8,14.8-19.7,14.8-34.5
						c0-10.9-3.3-20.4-9.2-27.7c-11.7-14.3-21.1-15.6-27.1-19C1494.3,117.7,1490.4,113.4,1485.4,107.4L1485.4,107.4z"/>
				</defs>
				<clipPath id="SVGID_6_">
					<use xlink:href="#SVGID_5_"  style="overflow:visible;"/>
				</clipPath>
				<path id="XMLID_78_" class="st12" d="M1484.7,106.8c3.2,7.3,3,11.6-4.4,14.9c-0.2,0.1-0.8,0.6,0.2,0.8c2.8,0.6-0.9,4.8-2.5,6.3
					c-1.8,1.7-4.3,4.3-10.5,8.4c-6.2,4.2-12.9,7-14.6,5.8c-3.1-2.1,3.1-7.3,6.4-12.5L1484.7,106.8L1484.7,106.8z"/>
			</g>
		</g>
		<path id="XMLID_75_" class="st13" d="M1485.4,107.4c-0.3,3.2-0.7,6.5-2.8,8.8c-4.2,4.7-9.8,7.6-14.4,9.8
			c-11.7,5.8-25.2,19.2-25.2,40.6c0,10.4,4,21.6,11.6,30.2c8,9.2,20.1,15.4,34.4,15.4c12.8-0.1,23.3-4.2,31.2-11
			c9.2-8,14.8-19.7,14.8-34.5c0-10.9-3.3-20.4-9.2-27.7c-11.7-14.3-21.1-15.6-27.1-19C1494.3,117.7,1490.4,113.4,1485.4,107.4
			L1485.4,107.4z"/>
		<path id="XMLID_71_" class="st14" d="M1505.6,179c-6.5,0-12.8-11.3-25.7-11.6c-9.7-0.2-17.3,7.9-17.2,15.7
			c0.2,9.4,6.8,11.6,13,11.7c12.1,0.2,22.9-12.2,30.2-12.3c5.6-0.1,11.2,11.6,16.3,12c5.8,0.5,10.2-10.9,9.8-17.7
			c-0.3-4.6-2.9-7.8-6.3-7.8C1519.4,169.2,1511.9,179,1505.6,179L1505.6,179z M1494.4,194.1c2.8-2.8,5.7-4.4,9.1-4.3
			c5.3,0.1,5.5,1.4,7.1,4.5c0.3,0.6,0.1,1.2-0.1,1.5c-0.1,0.2-0.7,0.8-0.9,0.8c-0.5,0-0.7-0.2-0.9-0.7c-1.3-3.2-3.1-3.2-5.5-3.2
			c-3.6,0-5.2,1.8-7.4,3.6c-0.5,0.4-1,0.8-1.4,0.4c-0.3-0.3-0.6-0.7-0.6-0.9C1493.8,195,1493.9,194.5,1494.4,194.1L1494.4,194.1z
			 M1487,201.6c2.9,2.6,16.4,4.9,24.5-0.6c0.3-0.2,0.7-0.3,1-0.2c0.2,0.1,0.4,0.2,0.4,0.5c0.1,0.5,0.1,1.1-0.3,1.4
			c-5.6,4.7-20.9,7.4-28.2,1.4c-0.7-0.6-0.7-1.5-0.3-2c0.4-0.4,0.7-0.6,1.1-0.8C1485.9,201.1,1486.6,201.2,1487,201.6L1487,201.6z"
			/>
		<path id="XMLID_6_" class="st15" d="M1463,221.3v2.6c0,6.1-2.7,9.4-10.7,9.4h-9.6c-0.1,0-0.2-0.1-0.2-0.2V212
			c0-0.1,0.1-0.2,0.2-0.2h9.6C1460.1,211.7,1463,215.2,1463,221.3L1463,221.3z M1532,211.4l-4.4,0.7c-0.1,0-0.2,0.1-0.2,0.2v17
			c0,3.6,3.3,4.8,7.2,3.8c0.2,0,0.3-0.1,0.5-0.1c0.1,0,0.2-0.1,0.2-0.3l-0.4-2.3c0-0.1-0.1-0.1-0.1-0.1c-1.9,0-2.4,0-2.4-1v-17.7
			c0-0.1,0-0.1-0.1-0.2C1532.2,211.4,1532.1,211.3,1532,211.4L1532,211.4z M1508.6,226.9v-3.8c0-3.6-2.5-5.6-7.8-5.5
			s-7.4,0.6-7.4,4.9v16.6c0,0.1,0,0.1,0.1,0.2s0.1,0.1,0.2,0.1l4.4-0.7c0.1,0,0.2-0.1,0.2-0.2v-3.3c0-0.6-0.5-1.2-0.4-2.1
			c1.4,0.4,3.1,0.6,5,0.6C1505.1,233.6,1508.6,232.4,1508.6,226.9L1508.6,226.9z M1498.3,230.5v-7.9c0-1.6,0.1-2,2.6-2
			s2.8,1.5,2.8,2.5v4.5c0,2.4-0.8,3.3-2.9,3.2C1499.7,230.8,1499.2,230.6,1498.3,230.5L1498.3,230.5z M1480.7,217.6l-4.4,0.7
			c-0.1,0-0.2,0.1-0.2,0.2v10.2c0,3.6,3.3,4.9,7.2,4.9c3.9,0.1,7.7-1,7.7-4.9v-10.9c0-0.1,0-0.1-0.1-0.2c-0.1,0-0.1-0.1-0.2-0.1
			l-4.4,0.7c-0.1,0-0.2,0.1-0.2,0.2v10.2c0,1.1-0.6,2-2.6,2s-2.5-0.9-2.5-2v-10.9c0-0.1,0-0.1-0.1-0.2
			C1480.8,217.6,1480.7,217.6,1480.7,217.6L1480.7,217.6z M1514.8,228v1.5c0,1.5,2.7,1.4,4.1,1.4c0.8,0,1.1-0.3,1.1-1.1v-3.4
			c0-0.1,0-0.1-0.1-0.2c0,0-0.1-0.1-0.2-0.1C1518,226.3,1514.8,226.4,1514.8,228L1514.8,228z M1510,229.4V228c0-3.6,6-4.2,9.8-4.5
			c0.1,0,0.2-0.1,0.2-0.2v-0.8c0-0.9-0.3-1.6-1.6-1.7c-2.2-0.2-3.5,0.1-6.6,0.8c-0.1,0-0.2,0-0.3-0.2l-0.6-2.1c0-0.1,0-0.2,0.1-0.3
			c1.9-0.7,4.3-1.3,7.1-1.2c2.7,0.1,6.5,0,6.5,4.7v7.4c0,3.2-2.3,3.8-7.3,3.9C1513.6,233.7,1510,232.3,1510,229.4L1510,229.4z
			 M1470.2,233.3h-4.4c-0.1,0-0.2-0.1-0.2-0.2v-13.3v-0.1c0.7-1.2,4.8-1.7,8.8-1.7c0.1,0,0.2,0.1,0.2,0.2v2.6c0,0.1,0,0.1-0.1,0.2
			c0,0-0.1,0.1-0.2,0.1c-2.4-0.1-3.7,0.1-3.9,0.6c0,0,0,0,0,0.1V233C1470.4,233.2,1470.3,233.3,1470.2,233.3L1470.2,233.3z
			 M1457.6,223.9v-2.6c0-4.7-1.5-6.1-5.4-6.1h-4.5V230h4.5C1456.8,230,1457.6,227.7,1457.6,223.9L1457.6,223.9z"/>
	</g>
	<text id="XMLID_447_" transform="matrix(1 0 0 1 941.4965 73.109)" class="st7 st8">Content API</text>
	<g id="XMLID_148_">
		<g id="XMLID_184_">
			<g id="XMLID_199_">
				<path id="XMLID_200_" class="st6" d="M1015,174.4l0.9-0.3c2.8-1.3,6.8,1.7,9.2,6.5l1.8,3.8c5.6-3.7,9.9-8.6,13.1-14.2l-3.9-1.5
					c-5-1.9-8.3-5.7-7.3-8.6l0.3-0.9c1-2.9,6-3.7,11.1-1.9l3.9,1.5c1.2-6.3,1.1-12.9-0.8-19.3l-3.8,1.8c-4.9,2.2-9.8,1.9-11.2-0.9
					l-0.3-0.9c-1.3-2.8,1.7-6.8,6.5-9.2l3.8-1.8c-3.7-5.6-8.6-9.9-14.2-13.1l-1.5,3.9c-1.9,5-5.7,8.3-8.6,7.3l-1-0.2
					c-2.9-1-3.7-6-1.9-11.1l1.5-3.9c-6.3-1.2-12.9-1.1-19.3,0.8l1.8,3.8c2.2,4.9,1.9,9.8-0.9,11.2l-0.9,0.3
					c-2.8,1.3-6.8-1.6-9.2-6.5l-1.8-3.8c-5.6,3.7-10,8.6-13.1,14.2l3.9,1.5c5,1.9,8.3,5.7,7.3,8.6l-0.3,0.9c-1,2.9-6,3.7-11.1,1.9
					l-3.9-1.5c-1.2,6.3-1.1,12.9,0.8,19.3l3.8-1.8c4.9-2.2,9.8-1.9,11.2,0.9l0.3,0.9c1.3,2.8-1.6,6.8-6.5,9.2l-3.8,1.8
					c3.7,5.6,8.6,9.9,14.2,13.1l1.5-3.9c1.9-5,5.7-8.3,8.6-7.3l0.9,0.3c2.9,1,3.7,6,1.9,11.1l-1.5,3.9c6.3,1.2,12.9,1.1,19.3-0.8
					l-1.8-3.9C1011.8,180.7,1012.2,175.6,1015,174.4z M992.4,156.4c-3.1-6.7-0.2-14.6,6.5-17.7c6.7-3.1,14.6-0.2,17.7,6.5
					c3.1,6.7,0.2,14.6-6.5,17.7C1003.5,165.9,995.6,163,992.4,156.4z"/>
			</g>
			<g id="XMLID_185_">
				<path id="XMLID_186_" class="st16" d="M1004.5,193.2L1004.5,193.2c-2.8,0-5.7-0.3-8.5-0.9c-0.7-0.1-1.2-0.6-1.5-1.1
					c-0.3-0.6-0.3-1.2-0.1-1.9l1.5-3.9c1.6-4.2,0.7-7.7-0.6-8.2l-0.9-0.3c-1.5-0.6-4.2,1.9-5.7,5.9l-1.5,3.9
					c-0.2,0.6-0.7,1.1-1.3,1.3s-1.3,0.2-1.9-0.1c-6-3.4-11.3-8-15-13.8c-0.3-0.6-0.4-1.2-0.3-1.8c0.2-0.7,0.7-1.1,1.2-1.5l3.8-1.8
					c2-0.9,3.7-2.2,4.7-3.7c0.7-1,1-1.9,0.8-2.6l-0.3-0.9c-0.3-0.7-1.5-1.1-3-1.1c-1.6,0-3.5,0.4-5.1,1.2l-3.8,1.8
					c-0.6,0.2-1.2,0.2-1.9,0c-0.6-0.2-1-0.8-1.2-1.5c-1.9-6.6-2.2-13.6-0.9-20.3c0.1-0.7,0.6-1.2,1.1-1.5c0.6-0.3,1.2-0.3,1.9-0.1
					l3.9,1.5c1.6,0.6,3,0.9,4.5,0.9c1.9,0,3.5-0.6,3.7-1.3l0.3-0.9c0.2-0.6-0.1-1.5-0.9-2.5c-1.1-1.3-2.9-2.5-5-3.2l-3.9-1.5
					c-0.6-0.2-1.1-0.7-1.3-1.3c-0.2-0.4-0.2-1.2,0.1-1.8c3.4-6,8-11.2,13.8-15c0.6-0.3,1.2-0.4,1.8-0.3c0.7,0.2,1.1,0.7,1.5,1.2
					l1.8,3.8c1.6,3.5,4.1,5.5,5.7,5.5c0.2,0,0.3,0,0.4-0.1l0.9-0.3c1.2-0.6,1.8-4.1-0.1-8.2l-1.8-3.8c-0.2-0.6-0.2-1.2,0-1.9
					c0.2-0.6,0.8-1,1.5-1.2c6.6-1.9,13.6-2.2,20.3-0.9c0.7,0.1,1.2,0.6,1.5,1.1c0.2,0.6,0.3,1.2,0.1,1.9l-1.5,3.9
					c-1.6,4.2-0.7,7.7,0.6,8.2l0.9,0.3c1.5,0.6,4.2-1.9,5.7-5.9l1.5-3.9c0.2-0.6,0.7-1.1,1.3-1.3c0.7-0.2,1.3-0.2,1.9,0.1
					c6,3.4,11.2,8,15,13.8c0.3,0.6,0.4,1.2,0.3,1.8c-0.2,0.7-0.7,1.1-1.2,1.5l-3.8,1.8c-2,0.9-3.7,2.2-4.7,3.7c-0.7,1-1,1.9-0.8,2.6
					l0.3,0.9c0.3,0.7,1.5,1.1,3,1.1c1.6,0,3.5-0.4,5.1-1.2l3.8-1.8c0.6-0.2,1.2-0.2,1.9,0c0.6,0.2,1,0.8,1.2,1.5
					c1.9,6.6,2.2,13.6,0.9,20.3c-0.1,0.7-0.6,1.2-1.1,1.5c-0.6,0.2-1.2,0.3-1.9,0.1l-3.9-1.5c-1.6-0.6-3-0.9-4.5-0.9
					c-1.9,0-3.5,0.6-3.7,1.3l-0.3,1c-0.2,0.6,0.1,1.5,0.9,2.5c1.1,1.3,2.9,2.5,4.9,3.2l3.9,1.5c0.6,0.2,1.1,0.7,1.3,1.3
					c0.2,0.6,0.2,1.3-0.1,1.9c-3.4,6-8,11.2-13.8,15c-0.6,0.3-1.2,0.4-1.8,0.3c-0.6-0.1-1.1-0.7-1.5-1.2l-1.8-3.8
					c-1.6-3.5-4.1-5.5-5.7-5.5c-0.2,0-0.3,0-0.4,0.1l-0.8,0.3c-0.6,0.2-1,1.1-1.1,2.3c-0.1,1.7,0.3,3.8,1.2,5.8l1.8,3.8
					c0.2,0.6,0.2,1.2,0,1.9s-0.8,1-1.5,1.2C1012.5,192.6,1008.5,193.2,1004.5,193.2z M999.6,188.4c1.7,0.2,3.4,0.3,5,0.3l0,0
					c2.7,0,5.5-0.3,8-0.9l-0.7-1.3c-1.2-2.7-1.8-5.6-1.7-8c0.2-2.9,1.6-5.1,3.7-6l0.8-0.3c0.8-0.3,1.6-0.6,2.3-0.6
					c3.6,0,7.5,3.2,9.7,8.2l0.7,1.3c3.5-2.7,6.5-5.9,8.8-9.6l-1.2-0.7c-2.8-1-5.3-2.7-6.8-4.6c-1.9-2.2-2.5-4.7-1.7-6.9l0.3-0.9
					c1-2.7,3.9-4.4,7.9-4.4c1.9,0,4,0.3,6,1.1l1.3,0.6c0.6-4.4,0.4-8.8-0.6-13.1l-1.3,0.7c-2.3,1.1-4.8,1.7-7,1.7
					c-3.5,0-6-1.3-7-3.7l-0.3-0.9c-1-2.1-0.6-4.6,1.1-7c1.5-2,3.7-3.8,6.5-5.1l1.3-0.7c-2.7-3.5-5.9-6.5-9.6-8.8l-0.6,1.3
					c-1.9,5.4-5.8,8.9-9.5,8.9c-0.7,0-1.3-0.1-1.9-0.3l-0.9-0.3c-4.1-1.5-5.5-7.6-3.2-14l0.6-1.3c-4.4-0.6-8.8-0.4-13.1,0.6l0.7,1.3
					c2.8,6.1,1.9,12.3-2,14.2l-0.9,0.3c-0.8,0.3-1.6,0.6-2.3,0.6c-3.6,0-7.5-3.2-9.7-8l-0.9-1.2c-3.5,2.7-6.5,5.9-8.8,9.6l1.3,0.6
					c2.8,1,5.3,2.7,6.8,4.6c1.9,2.2,2.5,4.7,1.7,6.9l-0.2,0.8c-1,2.7-3.9,4.4-7.9,4.4c-1.9,0-4-0.3-6-1.1l-1.3-0.6
					c-0.6,4.4-0.4,8.8,0.6,13.1l1.3-0.7c2.3-1.1,4.8-1.7,7-1.7c3.5,0,6,1.3,7.2,3.7l0.3,0.9c1,2.1,0.6,4.6-1.1,7
					c-1.5,2-3.7,3.8-6.5,5.1l-1.3,0.7c2.7,3.5,5.9,6.5,9.6,8.8l0.6-1.3c1.9-5.4,5.8-8.9,9.5-8.9c0.7,0,1.3,0.1,1.9,0.3l0.9,0.3
					c4.1,1.5,5.5,7.6,3.2,14L999.6,188.4z M1004.5,166.4c-6,0-11.6-3.6-14.1-9.1c-3.6-7.8-0.2-17,7.6-20.7c2.1-1,4.2-1.5,6.6-1.5
					c6,0,11.6,3.6,14.1,9.1c3.6,7.8,0.2,17-7.6,20.7C1009,165.8,1006.8,166.4,1004.5,166.4z M1004.5,139.6c-1.6,0-3.1,0.3-4.7,1
					c-5.6,2.6-7.9,9.2-5.4,14.8c1.8,3.9,5.8,6.4,10.1,6.4c1.6,0,3.1-0.3,4.7-1c5.6-2.6,7.9-9.2,5.4-14.8
					C1012.8,142.2,1008.9,139.6,1004.5,139.6z"/>
			</g>
		</g>
		<g id="XMLID_173_">
			<g id="XMLID_180_">
				<path id="XMLID_181_" class="st17" d="M1080.4,216.7l0.3-0.6c1.2-1.9,4.9-1.7,8.2,0.6l2.6,1.7c2-4.5,2.9-9.2,2.7-13.9l-3,0.7
					c-3.8,0.8-7.4-0.3-7.8-2.6l-0.1-0.7c-0.4-2.2,2.3-4.6,6.1-5.4l3-0.7c-1.6-4.4-4.2-8.4-7.9-11.6l-1.7,2.6
					c-2.1,3.2-5.4,4.9-7.3,3.7l-0.6-0.3c-1.9-1.2-1.7-4.9,0.6-8.2l1.7-2.6c-4.5-2-9.2-2.9-13.9-2.7l0.7,3c0.8,3.8-0.3,7.4-2.6,7.8
					l-0.7,0.1c-2.2,0.4-4.6-2.3-5.4-6.1l-0.6-3c-4.4,1.6-8.4,4.2-11.6,7.9l2.6,1.7c3.2,2.1,4.9,5.5,3.7,7.3l-0.3,0.6
					c-1.2,1.9-4.9,1.7-8.2-0.6l-2.6-1.7c-2,4.5-2.9,9.2-2.7,13.9l3-0.7c3.8-0.8,7.4,0.3,7.8,2.6l0.1,0.7c0.4,2.2-2.3,4.6-6.1,5.4
					l-3,0.7c1.6,4.4,4.2,8.4,7.9,11.6l1.7-2.6c2.1-3.2,5.5-4.9,7.3-3.7l0.6,0.3c1.9,1.2,1.7,4.9-0.6,8.2l-1.7,2.6
					c4.5,2,9.2,2.9,13.9,2.7l-0.7-3c-0.8-3.8,0.3-7.4,2.6-7.8l0.7-0.1c2.2-0.4,4.6,2.3,5.4,6.1l0.7,3c4.4-1.6,8.4-4.2,11.6-7.9
					l-2.6-1.7C1080.9,221.8,1079.2,218.6,1080.4,216.7z M1059.5,214.2c-4.5-2.9-5.7-8.9-2.8-13.4c2.9-4.5,8.9-5.7,13.4-2.8
					s5.7,8.9,2.8,13.4C1070,215.9,1064,217.1,1059.5,214.2z"/>
			</g>
			<g id="XMLID_174_">
				<path id="XMLID_175_" class="st16" d="M1064.8,237.7c-4.6,0-9.1-1-13.2-2.9c-0.6-0.2-1-0.8-1.2-1.5s-0.1-1.3,0.3-1.8l1.7-2.6
					c1.7-2.7,1.6-4.8,1.1-5l-0.6-0.3c0,0-0.1,0-0.2,0c-0.8,0-2.5,0.9-4,3.1l-1.7,2.6c-0.3,0.6-0.9,0.9-1.6,1s-1.3-0.1-1.8-0.6
					c-3.8-3.4-6.7-7.7-8.5-12.5c-0.2-0.6-0.2-1.3,0.1-1.9c0.3-0.6,0.9-1,1.5-1.1l3-0.7c3.1-0.7,4.5-2.3,4.4-2.8V210
					c0-0.2-1.1-1-3.1-1c-0.7,0-1.3,0.1-2,0.2l-3,0.7c-0.7,0.1-1.3,0-1.8-0.4c-0.4-0.4-0.8-1-0.9-1.7c-0.3-5.1,0.7-10.3,2.8-14.9
					c0.2-0.6,0.8-1,1.5-1.2s1.3-0.1,1.8,0.3l2.6,1.7c1.3,0.9,2.9,1.5,4,1.5c0.7,0,1-0.2,1-0.2l0.3-0.6c0.1-0.1,0.1-0.6-0.3-1.3
					c-0.6-1-1.6-2.1-2.8-2.9l-2.6-1.7c-0.6-0.3-0.9-0.9-1-1.6c-0.1-0.7,0.1-1.3,0.6-1.8c3.4-3.8,7.7-6.7,12.5-8.5
					c0.6-0.2,1.3-0.2,1.9,0.1s1,0.9,1.1,1.5l0.9,3c0.7,3,2.2,4.4,2.8,4.4l0.7-0.1c0.4-0.1,1.5-2,0.8-5.1l-0.7-3
					c-0.1-0.7,0-1.3,0.4-1.8c0.4-0.6,1-0.8,1.7-0.9c5.1-0.2,10.2,0.7,14.9,2.8c0.6,0.2,1,0.8,1.2,1.5s0.1,1.3-0.3,1.8l-1.7,2.6
					c-0.8,1.2-1.3,2.6-1.5,3.8c0,0.8,0.1,1.2,0.2,1.3l0.6,0.3c0,0,0.1,0,0.2,0c0.9,0,2.7-1.1,4-3.1l1.7-2.6c0.3-0.6,0.9-0.9,1.6-1
					s1.3,0.1,1.8,0.6c3.8,3.4,6.7,7.7,8.5,12.5c0.2,0.6,0.2,1.3-0.1,1.9c-0.3,0.6-0.9,1-1.5,1.1l-3,0.7c-3.1,0.7-4.5,2.3-4.4,2.8
					l0.1,0.7c0.1,0.3,1.1,1,3.1,1c0.7,0,1.3-0.1,2-0.2l3-0.7c0.7-0.1,1.3,0,1.8,0.4c0.4,0.4,0.8,1,0.9,1.7
					c0.3,5.1-0.7,10.3-2.8,14.9c-0.2,0.6-0.8,1-1.5,1.2s-1.3,0.1-1.8-0.3l-2.6-1.7c-1.3-0.9-2.9-1.5-4-1.5c-0.7,0-1,0.2-1,0.2
					l-0.3,0.6c-0.1,0.1-0.1,0.6,0.3,1.3c0.6,1,1.6,2.1,2.8,2.9l2.6,1.7c0.6,0.3,0.9,0.9,1,1.6c0.1,0.7-0.1,1.3-0.6,1.8
					c-3.4,3.8-7.7,6.7-12.5,8.5c-0.6,0.2-1.3,0.2-1.9-0.1s-1-0.9-1.1-1.5l-0.7-3c-0.7-3-2.2-4.4-2.7-4.4l-0.7,0.1
					c-0.1,0-0.4,0.3-0.7,1.1c-0.3,1.1-0.3,2.6-0.1,4l0.7,3c0.1,0.7,0,1.3-0.4,1.8c-0.4,0.4-1,0.8-1.7,0.9
					C1065.9,237.6,1065.3,237.7,1064.8,237.7z M1055.9,231.7c2.5,0.9,5,1.3,7.7,1.5l-0.1-0.3c-0.4-2.2-0.3-4.5,0.2-6.3
					c0.7-2.2,2.2-3.7,4-4.1l0.7-0.1c0.3-0.1,0.7-0.1,0.9-0.1c3.2,0,6.1,3.2,7.2,7.9l0.1,0.3c2.3-1.1,4.6-2.7,6.5-4.5l-0.2-0.2
					c-1.9-1.2-3.5-2.9-4.4-4.6c-1.1-2.1-1.1-4.2,0-5.8l0.3-0.6c1-1.5,2.7-2.2,4.8-2.2s4.4,0.8,6.5,2.1l0.2,0.2
					c0.9-2.5,1.3-5.1,1.5-7.7l-0.3,0.1c-1,0.2-1.9,0.3-2.9,0.3c-4,0-6.9-1.8-7.5-4.6l-0.1-0.7c-0.7-3.5,2.7-6.9,7.9-8l0.3-0.1
					c-1.1-2.3-2.7-4.6-4.5-6.5l-0.2,0.2c-2.1,3.1-5,5.1-7.7,5.1c-1,0-1.9-0.2-2.7-0.8l-0.6-0.3c-1.6-1-2.3-3-2.2-5.4
					c0.1-1.9,0.9-4,2.1-5.9l0.2-0.2c-2.5-0.9-5-1.3-7.7-1.5l0.1,0.3c1.1,5.3-0.8,9.7-4.2,10.4l-0.7,0.1c-0.3,0.1-0.7,0.1-0.9,0.1
					c-3.2,0-6.1-3.2-7.2-7.9l-0.1-0.3c-2.3,1.1-4.6,2.7-6.5,4.5l0.2,0.2c1.9,1.2,3.5,2.9,4.4,4.6c1.1,2.1,1.1,4.2,0,5.8l-0.3,0.4
					c-1,1.5-2.7,2.2-4.8,2.2s-4.4-0.8-6.5-2.1l-0.2-0.2c-0.9,2.5-1.3,5.1-1.5,7.7l0.3-0.1c1-0.2,1.9-0.3,2.9-0.3
					c4,0,6.9,1.8,7.6,4.6l0.1,0.7c0.7,3.5-2.7,6.9-7.9,8l-0.3,0.1c1.1,2.3,2.7,4.6,4.5,6.5l0.2-0.2c2.1-3.1,5-5.1,7.7-5.1
					c1,0,1.9,0.2,2.7,0.8l0.6,0.3c3,2,3,6.8,0.1,11.3L1055.9,231.7z M1064.8,218c-2.3,0-4.6-0.7-6.6-2c-5.5-3.6-7-11.1-3.5-16.5
					c2.2-3.4,5.9-5.4,9.9-5.4c2.3,0,4.6,0.7,6.6,2c2.7,1.8,4.5,4.5,5.1,7.6c0.7,3.1,0,6.4-1.7,8.9C1072.6,216,1068.9,218,1064.8,218
					z M1064.9,198.6c-2.6,0-4.9,1.2-6.3,3.4c-2.2,3.5-1.3,8,2.1,10.4c1.2,0.8,2.7,1.2,4.1,1.2c2.6,0,4.9-1.2,6.3-3.4
					c1.1-1.7,1.5-3.7,1.1-5.6c-0.4-2-1.6-3.7-3.2-4.7C1067.7,199,1066.3,198.6,1064.9,198.6z"/>
			</g>
		</g>
		<g id="XMLID_168_">
			<g id="XMLID_171_">
				<path id="XMLID_172_" class="st18" d="M1057.3,143.1c0-9.3,7.5-16.8,16.8-16.8s16.8,7.5,16.8,16.8s-7.5,16.8-16.8,16.8"/>
			</g>
			<g id="XMLID_169_">
				<path id="XMLID_170_" class="st16" d="M1074,162.1c-1.2,0-2.2-1-2.2-2.2s1-2.2,2.2-2.2c8,0,14.5-6.5,14.5-14.5
					s-6.5-14.5-14.5-14.5s-14.5,6.5-14.5,14.5c0,1.2-1,2.2-2.2,2.2s-2.2-1-2.2-2.2c0-10.5,8.5-19,19-19s19,8.5,19,19
					S1084.4,162.1,1074,162.1z"/>
			</g>
		</g>
		<g id="XMLID_163_">
			<g id="XMLID_166_">
				<polyline id="XMLID_167_" class="st18" points="985.9,200.1 985.9,219.1 1026.2,219.1 				"/>
			</g>
			<g id="XMLID_164_">
				<path id="XMLID_165_" class="st16" d="M1026.2,221.4H986c-1.2,0-2.2-1-2.2-2.2v-19c0-1.2,1-2.2,2.2-2.2s2.2,1,2.2,2.2V217h38
					c1.2,0,2.2,1,2.2,2.2C1028.4,220.4,1027.4,221.4,1026.2,221.4z"/>
			</g>
		</g>
		<g id="XMLID_149_">
			<g id="XMLID_161_">
				<line id="XMLID_162_" class="st19" x1="985.9" y1="231.4" x2="1026.2" y2="231.4"/>
			</g>
			<g id="XMLID_155_">
				<path id="XMLID_160_" class="st16" d="M1026.2,233.7H986c-1.2,0-2.2-1-2.2-2.2s1-2.2,2.2-2.2h40.2c1.2,0,2.2,1,2.2,2.2
					C1028.4,232.7,1027.4,233.7,1026.2,233.7z"/>
			</g>
		</g>
	</g>
	<text id="XMLID_111_" transform="matrix(1 0 0 1 540.1586 73.109)" class="st7 st8">BEE</text>
	<path id="XMLID_26_" class="st16" d="M629.2,132.3c-0.9-0.4-2,0.2-2.4,1.1c-2.4,7-8.3,7-10.1,7c-0.6-4.4-2.4-8.5-5.5-11.6
		c-2.9-2.9-6.8-4.8-10.9-5.3c-0.2-2.2,0.2-7.7,7-10c0.9-0.4,1.5-1.3,1.1-2.4c-0.4-0.9-1.3-1.5-2.4-1.1c-7.9,2.6-9.6,9-9.4,13.3
		c-4.8,0.2-9.4,2-12.9,5.7c-2.9,2.9-4.8,6.6-5.3,10.7c-7-2.2-15.1-2.4-23.2-0.4c-8.3-4.8-17.1-8.8-23.4-8.7
		c-15.3,0.6-27.5,13.6-26.7,28.9c0.4,8.5,4.4,15.9,10.7,20.8c-0.4,1.7-0.7,3.3-1.3,5.2c-3.3,12.9-7.7,30.2-1.3,38.9l-4.6,4.4
		c-0.7,0.7-0.7,1.8,0,2.6c0.4,0.4,0.9,0.6,1.3,0.6s0.9-0.2,1.3-0.6l4.6-4.6c3.5,2.8,8.5,3.7,13.8,3.7c10,0,21.8-3.5,30.8-6.3
		l2.2-0.7c0.6,0.7,1.3,1.5,2,2c5.2,4.8,11.8,7.4,19,7.4c0.4,0,0.7,0,1.1,0c7.4-0.4,14.4-3.5,19.4-9s7.7-12.5,7.4-20.1
		c-0.2-4.1-2.2-9.2-5.9-15.5c-1.3-2-2.6-4.1-3.9-6.1c1.5-7.4,1.1-14.6-0.9-20.8c4.1-0.7,7.7-2.6,10.7-5.3c3.3-3.3,5.2-7.6,5.5-12.2
		c0.2,0,0.6,0,0.9,0c4.2,0,10.1-1.8,12.7-9.6C630.7,133.6,630.3,132.7,629.2,132.3z"/>
	<path id="XMLID_60_" class="st6" d="M559.2,221c-1.3,0.4-2.8,0.9-4.2,1.3c0,0,0,0,0-0.2l-37-36.7c0.2-0.9,0.6-2,0.7-2.9
		c4.1,2.4,8.8,3.9,14,3.9c0.4,0,0.7,0,1.1,0c0.9,0,1.8-0.2,2.8-0.4l18.6,18.6c0,0.6,0,1.3,0,1.8c0.2,5.2,1.8,10,4.6,14.2L559.2,221z
		"/>
	<path id="XMLID_62_" class="st18" d="M516.9,189.7l33.9,33.7c-4.8,1.3-9.8,2.6-14.7,3.1L514,204.4
		C514.7,199.4,515.8,194.3,516.9,189.7z"/>
	<path id="XMLID_61_" class="st6" d="M516.7,223.2c-2.9-2.9-3.7-8.1-3.3-14l17.9,17.9C525.2,227.3,520.1,226.4,516.7,223.2z"/>
	<path id="XMLID_82_" class="st18" d="M556.2,200.4l-15.5-15.5c2.6-0.9,5.5-2.4,8.7-4.2c0.9-0.6,1.7-1.1,2.6-1.7l9.2,9.2
		C559.2,192.3,557.3,196.5,556.2,200.4z"/>
	<path id="XMLID_63_" class="st6" d="M563.2,184.7l-7.9-7.9c3.5-2.4,6.8-4.8,10-7.4l4.6,4.6C567.5,177.3,565.2,181,563.2,184.7z"/>
	<path id="XMLID_43_" class="st18" d="M582.9,159.6c-0.4-0.4-0.9-0.6-1.5-0.6s-1.1,0.2-1.3,0.7c-0.4,0.6-3.9,5-8.3,11.2l-3.7-3.7
		c5.9-4.8,10.1-8.8,10.5-9.2s0.6-0.9,0.6-1.5s-0.2-1.1-0.7-1.3c-0.7-0.6-8.8-7.2-18.8-13.3c11.6-1.8,22.5,1.1,29.9,8.5
		c7,7,10.1,17,8.8,27.8C591,168.5,583.3,160,582.9,159.6z"/>
	<path id="XMLID_83_" class="st20" d="M508.6,159.4c-0.6-13.3,10-24.7,23.2-25.3c0.2,0,0.4,0,0.4,0c11.8,0,35.6,17.5,42.2,22.5
		c-4.2,3.9-16,14-26.9,20.5c-5.9,3.5-10.5,5.3-13.8,5.3C520.4,183.2,509.2,172.7,508.6,159.4z"/>
	<path id="XMLID_44_" class="st20" d="M607.6,204.4c0.2,6.5-2,12.7-6.5,17.3c-4.4,4.8-10.3,7.6-16.8,7.7c-6.5,0.2-12.7-2-17.3-6.5
		c-4.8-4.4-7.6-10.3-7.7-16.8c-0.6-11.6,17.5-36,22.5-42.6c3.9,4.2,14,16,20.5,26.9C605.6,196.5,607.5,201.1,607.6,204.4z"/>
	<path id="XMLID_42_" class="st17" d="M608.6,153.7c-2.6,2.6-5.9,4.1-9.4,4.4c-1.7-3.9-4.1-7.4-7-10.3c-2.9-2.9-6.5-5.3-10.3-7
		c0.4-3.7,2-6.8,4.4-9.4c6.1-6.1,16-6.1,22.3,0c2.9,2.9,4.6,7,4.6,11.1S611.5,150.8,608.6,153.7z"/>
	<text id="XMLID_38_" transform="matrix(1 0 0 1 67.3539 73.109)" class="st7 st8">Editor</text>
	<g id="XMLID_139_">
		<g id="XMLID_247_">
			<g id="XMLID_251_">
				<path id="XMLID_253_" class="st6" d="M95.4,177.8c-22.9,1.2-30.2-21.7-14.5-41"/>
				<path id="XMLID_252_" class="st16" d="M93.7,179.8c-9.4,0-17-4-20.7-11.4c-4.8-9.4-2.5-22.1,6.4-33c0.7-1,2.1-1,2.9-0.3
					c1,0.7,1,2.1,0.3,2.9c-7.7,9.7-10.1,20.6-5.9,28.7c3.3,6.3,10.1,9.5,18.7,9.1c1.1-0.1,2.1,0.8,2.1,1.9c0.1,1.1-0.8,2.1-1.9,2.1
					C94.9,179.8,94.3,179.8,93.7,179.8z"/>
			</g>
			<g id="XMLID_248_">
				<path id="XMLID_250_" class="st6" d="M122,177.8c22.9,1.2,30.2-21.5,14.5-41"/>
				<path id="XMLID_249_" class="st16" d="M123.8,179.8c-0.6,0-1.2,0-1.9-0.1c-1.1-0.1-1.9-1-1.9-2.1c0.1-1.1,1-1.9,2.1-1.9
					c8.7,0.5,15.6-2.9,18.7-9.1c4.1-8,1.8-19-5.9-28.7c-0.7-1-0.6-2.1,0.3-2.9c1-0.7,2.1-0.6,2.9,0.3c8.7,10.9,11.2,23.6,6.4,33
					C140.7,175.7,133.2,179.8,123.8,179.8z"/>
			</g>
		</g>
		<g id="XMLID_143_">
			<g id="XMLID_244_">
				<path id="XMLID_246_" class="st20" d="M88.3,198.7l-12,4c-7.9,0-14.4,1.9-14.4,9.2l-7.6,19.8h109l-7.7-19.8
					c0-7.2-6.4-9.1-14.4-9.1l-13-4"/>
				<path id="XMLID_245_" class="st16" d="M163.2,233.8H54.3c-0.7,0-1.3-0.3-1.7-1c-0.4-0.5-0.5-1.2-0.2-1.9l7.6-19.5
					c0.2-7.1,5.6-10.8,16-10.9l11.7-4c1-0.4,2.2,0.2,2.5,1.3s-0.2,2.2-1.3,2.5l-12,4c-0.2,0.1-0.4,0.1-0.6,0.1
					c-11,0-12.4,3.9-12.4,7.2c0,0.2,0,0.5-0.1,0.7l-6.6,17.1h103l-6.6-17.1c-0.1-0.2-0.1-0.5-0.1-0.7c0-3.3-1.4-7.1-12.4-7.1
					c-0.2,0-0.4,0-0.6-0.1l-13-4c-1.1-0.3-1.6-1.5-1.3-2.5c0.3-1.1,1.5-1.6,2.5-1.3l12.7,4c10.5,0.1,16,3.7,16.1,10.8l7.6,19.5
					c0.2,0.6,0.2,1.3-0.2,1.9C164.5,233.5,163.9,233.8,163.2,233.8z"/>
			</g>
			<g id="XMLID_241_">
				<path id="XMLID_243_" class="st6" d="M77,126.5c7.9-8.3,17-16.3,31.7-16.3s26.6,11,26.6,24.7"/>
				<path id="XMLID_242_" class="st16" d="M135.4,136.9c-1.1,0-2.1-1-2.1-2.1c0-12.5-11-22.6-24.6-22.6c-14.3,0-23,8-30.2,15.6
					c-0.8,0.8-2.1,0.8-2.9,0.1c-0.8-0.8-0.8-2.1-0.1-2.9c7.7-8.1,17.1-16.8,33.1-16.8c15.9,0,28.7,12,28.7,26.7
					C137.4,136,136.6,136.9,135.4,136.9z"/>
			</g>
			<g id="XMLID_238_">
				<path id="XMLID_240_" class="st14" d="M87.1,144c0,17.5,8,38,21.7,38s21.7-20.4,21.7-38"/>
				<path id="XMLID_239_" class="st16" d="M108.7,184C94.1,184,85,163.3,85,144c0-1.1,1-2.1,2.1-2.1s2.1,1,2.1,2.1
					c0,17.4,7.9,36,19.6,36s19.6-18.6,19.6-36c0-1.1,1-2.1,2.1-2.1s2.1,1,2.1,2.1C132.4,163.3,123.4,184,108.7,184z"/>
			</g>
			<g id="XMLID_215_">
				<g id="XMLID_227_">
					<g id="XMLID_233_">
						<circle id="XMLID_237_" class="st14" cx="97.3" cy="149.8" r="8.4"/>
						<path id="XMLID_234_" class="st16" d="M97.3,160.3c-5.8,0-10.5-4.7-10.5-10.5s4.7-10.5,10.5-10.5s10.5,4.7,10.5,10.5
							S103.1,160.3,97.3,160.3z M97.3,143.5c-3.6,0-6.4,2.9-6.4,6.4c0,3.6,2.9,6.4,6.4,6.4s6.4-2.9,6.4-6.4
							C103.8,146.2,100.8,143.5,97.3,143.5z"/>
					</g>
					<g id="XMLID_228_">
						<line id="XMLID_230_" class="st19" x1="83.3" y1="150.5" x2="88.4" y2="150.5"/>
						<path id="XMLID_229_" class="st16" d="M88.4,152.6h-5.1c-1.1,0-2.1-1-2.1-2.1s1-2.1,2.1-2.1h5.1c1.1,0,2.1,1,2.1,2.1
							C90.4,151.6,89.6,152.6,88.4,152.6z"/>
					</g>
				</g>
				<g id="XMLID_216_">
					<g id="XMLID_220_">
						<circle id="XMLID_226_" class="st14" cx="120.2" cy="149.8" r="8.4"/>
						<path id="XMLID_221_" class="st16" d="M120.1,160.3c-5.8,0-10.5-4.7-10.5-10.5s4.8-10.5,10.5-10.5c5.8,0,10.5,4.7,10.5,10.5
							C130.5,155.6,125.9,160.3,120.1,160.3z M120.1,143.5c-3.6,0-6.4,2.9-6.4,6.4c0,3.6,2.9,6.4,6.4,6.4s6.4-2.9,6.4-6.4
							C126.5,146.2,123.6,143.5,120.1,143.5z"/>
					</g>
					<g id="XMLID_217_">
						<line id="XMLID_219_" class="st19" x1="134.1" y1="149.5" x2="129" y2="149.5"/>
						<path id="XMLID_218_" class="st16" d="M134.1,151.6H129c-1.1,0-2.1-1-2.1-2.1s1-2.1,2.1-2.1h5.1c1.1,0,2.1,1,2.1,2.1
							C136.2,150.6,135.2,151.6,134.1,151.6z"/>
					</g>
				</g>
			</g>
			<g id="XMLID_152_">
				<g id="XMLID_212_">
					<line id="XMLID_214_" class="st19" x1="99.6" y1="180" x2="99.6" y2="194.2"/>
					<path id="XMLID_213_" class="st16" d="M99.6,196.3c-1.1,0-2.1-1-2.1-2.1V180c0-1.1,1-2.1,2.1-2.1s2.1,1,2.1,2.1v14.2
						C101.6,195.3,100.7,196.3,99.6,196.3z"/>
				</g>
				<g id="XMLID_153_">
					<line id="XMLID_156_" class="st19" x1="117.8" y1="180" x2="117.8" y2="194.2"/>
					<path id="XMLID_154_" class="st16" d="M117.8,196.3c-1.1,0-2.1-1-2.1-2.1V180c0-1.1,1-2.1,2.1-2.1s2.1,1,2.1,2.1v14.2
						C119.9,195.3,119,196.3,117.8,196.3z"/>
				</g>
			</g>
			<g id="XMLID_147_">
				<path id="XMLID_151_" class="st14" d="M127.5,196.7c0,4.8-8.4,8.7-18.8,8.7s-18.8-3.9-18.8-8.7"/>
				<path id="XMLID_150_" class="st16" d="M108.7,207.4c-11.9,0-20.8-4.6-20.8-10.6c0-1.1,1-2.1,2.1-2.1s2.1,1,2.1,2.1
					c0,3.2,7.2,6.6,16.8,6.6s16.8-3.5,16.8-6.6c0-1.1,1-2.1,2.1-2.1s2.1,1,2.1,2.1C129.6,202.8,120.6,207.4,108.7,207.4z"/>
			</g>
			<g id="XMLID_144_">
				<path id="XMLID_146_" class="st6" d="M126.3,130.2c0,7-22.8,9.8-32.1,9.8s-17-5.7-17-12.7"/>
				<path id="XMLID_145_" class="st16" d="M94.3,142.1c-10.5,0-19-6.6-19-14.8c0-1.1,1-2.1,2.1-2.1s2.1,1,2.1,2.1
					c0,5.9,6.7,10.6,14.9,10.6c12.8,0,30.1-3.9,30.1-7.9c0-1.1,1-2.1,2.1-2.1s2.1,1,2.1,2.1C128.3,141.4,94.6,142.1,94.3,142.1z"/>
			</g>
		</g>
		<g id="XMLID_140_">
			<path id="XMLID_142_" class="st18" d="M132.9,231.5c-4.4-8.8-13.6-14.9-24.2-14.9s-19.7,6.1-24.2,14.9"/>
			<path id="XMLID_141_" class="st16" d="M132.9,233.5c-0.7,0-1.4-0.4-1.8-1.1c-4.3-8.5-12.9-13.8-22.3-13.8s-18.1,5.3-22.3,13.8
				c-0.5,1-1.7,1.4-2.8,1c-1-0.5-1.4-1.7-1-2.8c5-9.8,14.9-16,26-16s21,6.1,26,16c0.5,1,0.1,2.2-1,2.8
				C133.5,233.4,133.2,233.5,132.9,233.5z"/>
		</g>
	</g>
</g>
</svg>
