<?xml version="1.0" encoding="utf-8"?>
<!-- Generator: Adobe Illustrator 19.0.0, SVG Export Plug-In . SVG Version: 6.00 Build 0)  -->
<svg version="1.1" xmlns="http://www.w3.org/2000/svg" xmlns:xlink="http://www.w3.org/1999/xlink" x="0px" y="0px"
	 viewBox="-35 37 128 128" style="enable-background:new -35 37 128 128;" xml:space="preserve">
<style type="text/css">
	.st0{fill:#FFFFFF;}
	.st1{fill:#37474F;}
	.st2{fill:#FFAB00;}
</style>
<g id="Layer_1">
	<g id="Layer_1_1_">
		<g>
			<g>
				<g>
					<polygon class="st0" points="54.9,51.5 -16.2,51.5 -16.2,163.2 68.8,163.2 68.8,65.7 					"/>
					<path class="st1" d="M70.6,165h-88.6V49.7h73.6l14.9,15.2L70.6,165L70.6,165z M-14.4,161.4h81.3v-95l-12.7-13h-68.6
						C-14.4,53.4-14.4,161.4-14.4,161.4z"/>
				</g>
				<g>
					<polyline class="st2" points="68.2,67.3 51.8,67.3 51.8,52.1 					"/>
					<path class="st1" d="M68.2,69.1H51.8c-1,0-1.8-0.9-1.8-1.8V52.1c0-1,0.9-1.8,1.8-1.8c0.9,0,1.8,0.9,1.8,1.8v13.3h14.6
						c1,0,1.8,0.9,1.8,1.8C70,68.3,69.1,69.1,68.2,69.1z"/>
				</g>
				<g>
					<g>
						<g>
							<g>
								<path class="st1" d="M56,121.4H-3.4c-1,0-1.8-0.9-1.8-1.8c0-1,0.9-1.8,1.8-1.8H56c1,0,1.8,0.9,1.8,1.8
									C57.9,120.5,57,121.4,56,121.4z"/>
							</g>
						</g>
						<g>
							<g>
								<path class="st1" d="M56,129.8H-3.4c-1,0-1.8-0.9-1.8-1.8c0-0.9,0.9-1.8,1.8-1.8H56c1,0,1.8,0.9,1.8,1.8
									C57.8,128.9,57,129.8,56,129.8z"/>
							</g>
						</g>
						<g>
							<g>
								<path class="st1" d="M56,139.6H-3.4c-1,0-1.8-0.9-1.8-1.8c0-0.9,0.9-1.8,1.8-1.8H56c1,0,1.8,0.9,1.8,1.8
									C57.8,138.7,57,139.6,56,139.6z"/>
							</g>
						</g>
						<g>
							<g>
								<path class="st1" d="M56,148H-3.4c-1,0-1.8-0.9-1.8-1.8c0-1,0.9-1.8,1.8-1.8H56c1,0,1.8,0.9,1.8,1.8
									C57.9,147.2,57,148,56,148z"/>
							</g>
						</g>
					</g>
					<g>
						<g>
							<g>
								<path class="st1" d="M56,86.1H-3.4c-1,0-1.8-0.9-1.8-1.8c0-1,0.9-1.8,1.8-1.8H56c1,0,1.8,0.9,1.8,1.8
									C57.9,85.3,57,86.1,56,86.1z"/>
							</g>
						</g>
						<g>
							<g>
								<path class="st1" d="M56,94.6H-3.4c-1,0-1.8-0.9-1.8-1.8s0.9-1.8,1.8-1.8H56c1,0,1.8,0.9,1.8,1.8S57,94.6,56,94.6z"/>
							</g>
						</g>
						<g>
							<g>
								<path class="st1" d="M56,103.1H-3.4c-1,0-1.8-0.9-1.8-1.8c0-1,0.9-1.8,1.8-1.8H56c1,0,1.8,0.9,1.8,1.8
									C57.9,102.3,57,103.1,56,103.1z"/>
							</g>
						</g>
						<g>
							<g>
								<path class="st1" d="M56,111.6H-3.4c-1,0-1.8-0.9-1.8-1.8c0-0.9,0.9-1.8,1.8-1.8H56c1,0,1.8,0.9,1.8,1.8
									C57.8,110.7,57,111.6,56,111.6z"/>
							</g>
						</g>
					</g>
				</g>
			</g>
			<g>
				<g>
					<path class="st1" d="M3.2,67.9c0,1-0.7,1.7-1.7,1.7s-1.7-0.7-1.7-1.7c0-1,0.7-1.7,1.7-1.7C2.4,66.2,3.2,66.9,3.2,67.9z"/>
					<path class="st1" d="M1.5,70.2c-1.3,0-2.3-1.1-2.3-2.3c0-1.3,1.1-2.3,2.3-2.3c1.3,0,2.3,1.1,2.3,2.3
						C3.8,69.3,2.7,70.2,1.5,70.2z M1.5,66.8c-0.6,0-1.1,0.5-1.1,1.1c0,0.6,0.5,1.1,1.1,1.1s1.1-0.5,1.1-1.1
						C2.6,67.3,2.1,66.8,1.5,66.8z"/>
				</g>
				<g>
					<path class="st1" d="M15.3,67.9c0,1-0.7,1.7-1.7,1.7S12,68.9,12,67.9c0-1,0.7-1.7,1.7-1.7C14.5,66.2,15.3,66.9,15.3,67.9z"/>
					<path class="st1" d="M13.5,70.2c-1.3,0-2.3-1.1-2.3-2.3c0-1.3,1.1-2.3,2.3-2.3c1.3,0,2.3,1.1,2.3,2.3
						C15.9,69.3,14.8,70.2,13.5,70.2z M13.5,66.8c-0.6,0-1.1,0.5-1.1,1.1c0,0.6,0.5,1.1,1.1,1.1s1.1-0.5,1.1-1.1
						C14.7,67.3,14.1,66.8,13.5,66.8z"/>
				</g>
				<g>
					<path class="st1" d="M27.4,67.9c0,1-0.7,1.7-1.7,1.7c-1,0-1.7-0.7-1.7-1.7c0-1,0.7-1.7,1.7-1.7C26.7,66.2,27.4,66.9,27.4,67.9z
						"/>
					<path class="st1" d="M25.7,70.2c-1.3,0-2.3-1.1-2.3-2.3c0-1.3,1.1-2.3,2.3-2.3c1.2,0,2.3,1.1,2.3,2.3
						C28,69.3,27.1,70.2,25.7,70.2z M25.7,66.8c-0.6,0-1.1,0.5-1.1,1.1c0,0.6,0.5,1.1,1.1,1.1s1.1-0.5,1.1-1.1
						C26.8,67.3,26.3,66.8,25.7,66.8z"/>
				</g>
			</g>
		</g>
	</g>
</g>
<g id="Layer_4">
	<g id="Layer_2_1_">
		<g>
			<path class="st2" d="M61.9,42.3c-9,0-16.4,7.4-16.4,16.4s7.4,16.4,16.4,16.4s16.4-7.4,16.4-16.4S70.9,42.3,61.9,42.3z M64.6,65.9
				h-5.3v-6.8h-4.2l6.8-8l6.8,8h-4.1C64.6,59.1,64.6,65.9,64.6,65.9z"/>
			<path class="st1" d="M61.9,40.7c-9.9,0-18,8.1-18,18s8.1,18,18,18s18-8.1,18-18S71.8,40.7,61.9,40.7z M61.9,75.1
				c-9,0-16.4-7.4-16.4-16.4s7.4-16.4,16.4-16.4s16.4,7.4,16.4,16.4S70.9,75.1,61.9,75.1z"/>
			<path class="st0" d="M61.9,36.9c-12,0-21.8,9.8-21.8,21.8s9.8,21.8,21.8,21.8s21.8-9.8,21.8-21.8S73.9,36.9,61.9,36.9z
				 M61.9,76.7c-9.9,0-18-8.1-18-18s8.1-18,18-18s18,8.1,18,18S71.8,76.7,61.9,76.7z"/>
			<polygon class="st0" points="61.9,51.1 55.1,59.1 59.2,59.1 59.2,65.9 64.6,65.9 64.6,59.1 68.7,59.1 			"/>
		</g>
	</g>
</g>
</svg>
