<?xml version="1.0" encoding="utf-8"?>
<!-- Generator: Adobe Illustrator 20.0.0, SVG Export Plug-In . SVG Version: 6.00 Build 0)  -->
<svg version="1.1" id="Layer_1" xmlns="http://www.w3.org/2000/svg" xmlns:xlink="http://www.w3.org/1999/xlink" x="0px" y="0px"
	 viewBox="0 0 128 128" style="enable-background:new 0 0 128 128;" xml:space="preserve">
<style type="text/css">
	.st0{fill:#FFFFFF;}
	.st1{fill:#37474F;}
	.st2{fill:#FFAB00;}
	.st3{fill:#78909C;}
	.st4{fill:none;}
</style>
<g id="Layer_1_2_">
	<g id="Layer_1_1_">
		<g>
			<g>
				<g>
					<polygon class="st0" points="76.1,8.1 5,8.1 5,119.8 90,119.8 90,22.3 					"/>
					<path class="st1" d="M91.8,121.6H3.2V6.3h73.6l14.9,15.2L91.8,121.6L91.8,121.6z M6.8,118h81.3V23L75.4,10H6.8
						C6.8,10,6.8,118,6.8,118z"/>
				</g>
				<g>
					<polyline class="st2" points="89.4,24 73,24 73,8.7 					"/>
					<path class="st1" d="M89.4,25.7H73c-1,0-1.8-0.9-1.8-1.8V8.7c0-1,0.9-1.8,1.8-1.8s1.8,0.9,1.8,1.8V22h14.6c1,0,1.8,0.9,1.8,1.8
						C91.2,25,90.3,25.7,89.4,25.7z"/>
				</g>
				<g>
					<g>
						<g>
							<g>
								<path class="st1" d="M77.2,78.1H17.8c-1,0-1.8-0.9-1.8-1.8c0-1,0.9-1.8,1.8-1.8h59.4c1,0,1.8,0.9,1.8,1.8
									C79.1,77.1,78.2,78.1,77.2,78.1z"/>
							</g>
						</g>
						<g>
							<g>
								<path class="st1" d="M77.2,86.4H17.8c-1,0-1.8-0.9-1.8-1.8c0-0.9,0.9-1.8,1.8-1.8h59.4c1,0,1.8,0.9,1.8,1.8
									S78.2,86.4,77.2,86.4z"/>
							</g>
						</g>
						<g>
							<g>
								<path class="st1" d="M77.2,96.2H17.8c-1,0-1.8-0.9-1.8-1.8c0-0.9,0.9-1.8,1.8-1.8h59.4c1,0,1.8,0.9,1.8,1.8
									C79,95.3,78.2,96.2,77.2,96.2z"/>
							</g>
						</g>
						<g>
							<g>
								<path class="st1" d="M77.2,104.6H17.8c-1,0-1.8-0.9-1.8-1.8c0-1,0.9-1.8,1.8-1.8h59.4c1,0,1.8,0.9,1.8,1.8
									C79.1,103.8,78.2,104.6,77.2,104.6z"/>
							</g>
						</g>
					</g>
					<g>
						<g>
							<g>
								<path class="st1" d="M77.2,42.7H17.8c-1,0-1.8-0.9-1.8-1.8c0-1,0.9-1.8,1.8-1.8h59.4c1,0,1.8,0.9,1.8,1.8
									C79.1,42,78.2,42.7,77.2,42.7z"/>
							</g>
						</g>
						<g>
							<g>
								<path class="st1" d="M77.2,51.2H17.8c-1,0-1.8-0.9-1.8-1.8s0.9-1.8,1.8-1.8h59.4c1,0,1.8,0.9,1.8,1.8S78.2,51.2,77.2,51.2z"
									/>
							</g>
						</g>
						<g>
							<g>
								<path class="st1" d="M77.2,59.7H17.8c-1,0-1.8-0.9-1.8-1.8c0-1,0.9-1.8,1.8-1.8h59.4c1,0,1.8,0.9,1.8,1.8
									C79.1,59,78.2,59.7,77.2,59.7z"/>
							</g>
						</g>
						<g>
							<g>
								<path class="st1" d="M77.2,68.2H17.8c-1,0-1.8-0.9-1.8-1.8c0-0.9,0.9-1.8,1.8-1.8h59.4c1,0,1.8,0.9,1.8,1.8
									C79,67.3,78.2,68.2,77.2,68.2z"/>
							</g>
						</g>
					</g>
				</g>
			</g>
			<g>
				<g>
					<path class="st1" d="M24.4,24.5c0,1-0.7,1.7-1.7,1.7S21,25.5,21,24.5s0.7-1.7,1.7-1.7C23.6,22.8,24.4,23.5,24.4,24.5z"/>
					<path class="st1" d="M22.7,26.8c-1.3,0-2.3-1.1-2.3-2.3c0-1.3,1.1-2.3,2.3-2.3c1.3,0,2.3,1.1,2.3,2.3
						C25,26,23.9,26.8,22.7,26.8z M22.7,23.5c-0.6,0-1.1,0.5-1.1,1.1s0.5,1.1,1.1,1.1c0.6,0,1.1-0.5,1.1-1.1S23.3,23.5,22.7,23.5z"
						/>
				</g>
				<g>
					<path class="st1" d="M36.5,24.5c0,1-0.7,1.7-1.7,1.7s-1.6-0.7-1.6-1.7s0.7-1.7,1.7-1.7C35.7,22.8,36.5,23.5,36.5,24.5z"/>
					<path class="st1" d="M34.7,26.8c-1.3,0-2.3-1.1-2.3-2.3c0-1.3,1.1-2.3,2.3-2.3c1.3,0,2.3,1.1,2.3,2.3
						C37.1,26,36,26.8,34.7,26.8z M34.7,23.5c-0.6,0-1.1,0.5-1.1,1.1s0.5,1.1,1.1,1.1c0.6,0,1.1-0.5,1.1-1.1
						C35.9,24,35.3,23.5,34.7,23.5z"/>
				</g>
				<g>
					<path class="st1" d="M48.6,24.5c0,1-0.7,1.7-1.7,1.7s-1.7-0.7-1.7-1.7s0.7-1.7,1.7-1.7C47.9,22.8,48.6,23.5,48.6,24.5z"/>
					<path class="st1" d="M46.9,26.8c-1.3,0-2.3-1.1-2.3-2.3c0-1.3,1.1-2.3,2.3-2.3s2.3,1.1,2.3,2.3C49.2,26,48.3,26.8,46.9,26.8z
						 M46.9,23.5c-0.6,0-1.1,0.5-1.1,1.1s0.5,1.1,1.1,1.1c0.6,0,1.1-0.5,1.1-1.1S47.5,23.5,46.9,23.5z"/>
				</g>
			</g>
		</g>
	</g>
</g>
<g id="Layer_3_3_">
	<g>
		<g>
			<g>
				<path class="st0" d="M87.5,121c-14.7,0-26.6-12-26.6-26.6s12-26.6,26.6-26.6s26.6,12,26.6,26.6S102.1,121,87.5,121z"/>
				<path class="st1" d="M87.5,121.7c-15.1,0-27.3-12.2-27.3-27.3c0-14.9,12.2-27.2,27.3-27.2s27.2,12.2,27.2,27.2
					C114.8,109.5,102.6,121.7,87.5,121.7z M87.5,68.5c-14.2,0-25.9,11.7-25.9,25.9s11.7,25.9,25.9,25.9s25.9-11.7,25.9-25.9
					S101.8,68.5,87.5,68.5z"/>
			</g>
			<g>
				<g>
					<g>
						<path class="st2" d="M106.5,96.9c-1.4,0-2.6-1.1-2.6-2.6s1.1-2.6,2.6-2.6s2.6,1.1,2.6,2.6C109.2,95.8,108,96.9,106.5,96.9z"/>
					</g>
					<g>
						<path class="st1" d="M67.7,96.9c-1.4,0-2.6-1.1-2.6-2.6s1.1-2.6,2.6-2.6s2.6,1.1,2.6,2.6C70.4,95.8,69.1,96.9,67.7,96.9z"/>
					</g>
				</g>
				<g>
					<g>
						<path class="st1" d="M84.6,113.9c0-1.4,1.1-2.6,2.6-2.6s2.6,1.1,2.6,2.6s-1.1,2.6-2.6,2.6S84.6,115.3,84.6,113.9z"/>
					</g>
					<g>
						<path class="st1" d="M84.6,75c0-1.4,1.1-2.6,2.6-2.6s2.6,1.1,2.6,2.6s-1.1,2.6-2.6,2.6S84.6,76.4,84.6,75z"/>
					</g>
				</g>
			</g>
			<g>
				<g>
					<g>
						<path class="st3" d="M102.7,82.6c-1,1-2.7,1-3.7,0s-1-2.7,0-3.7c1-1,2.7-1,3.7,0C103.7,79.9,103.7,81.4,102.7,82.6z"/>
					</g>
					<g>
						<path class="st3" d="M75.2,110c-1,1-2.7,1-3.7,0c-1-1-1-2.7,0-3.7s2.7-1,3.7,0S76.2,108.9,75.2,110z"/>
					</g>
				</g>
				<g>
					<g>
						<path class="st3" d="M99,110c-1-1-1-2.7,0-3.7c1-1,2.7-1,3.7,0c1,1,1,2.7,0,3.7C101.7,111,100.1,111,99,110z"/>
					</g>
					<g>
						<path class="st3" d="M71.5,82.6c-1-1-1-2.7,0-3.7c1-1,2.7-1,3.7,0c1,1,1,2.7,0,3.7C74.2,83.6,72.7,83.6,71.5,82.6z"/>
					</g>
				</g>
			</g>
			<g>
				<line class="st4" x1="95.9" y1="94.2" x2="86.8" y2="94.2"/>
				<path class="st1" d="M95.9,94.9h-9.1c-0.4,0-0.7-0.3-0.7-0.7s0.3-0.7,0.7-0.7h9.1c0.4,0,0.7,0.3,0.7,0.7S96.3,94.9,95.9,94.9z"
					/>
			</g>
			<g>
				<line class="st4" x1="87.5" y1="80.3" x2="87.5" y2="94"/>
				<path class="st1" d="M87.5,94.7c-0.4,0-0.7-0.3-0.7-0.7V80.3c0-0.4,0.3-0.7,0.7-0.7c0.4,0,0.7,0.3,0.7,0.7V94
					C88.2,94.4,87.9,94.7,87.5,94.7z"/>
			</g>
			<g>
				<path class="st2" d="M87.5,96.9c-1.4,0-2.4-1.1-2.4-2.4s1.1-2.4,2.4-2.4s2.6,1.1,2.6,2.4C90,95.8,88.9,96.9,87.5,96.9z"/>
				<path class="st1" d="M87.5,97.5c-1.7,0-3.1-1.4-3.1-3.1s1.4-3.1,3.1-3.1c1.7,0,3.1,1.4,3.1,3.1S89.2,97.5,87.5,97.5z M87.5,92.5
					c-1,0-1.7,0.9-1.7,1.7c0,1,0.9,1.7,1.7,1.7c1,0,1.8-0.9,1.8-1.7C89.3,93.4,88.5,92.5,87.5,92.5z"/>
			</g>
		</g>
		<g>
			<g>
				<g>
					<path class="st1" d="M79.8,89.7c-0.4,0-0.7-0.4-0.7-0.7c0-0.4,0.4-0.7,0.7-0.7c0.4,0,0.7,0.4,0.7,0.7
						C80.5,89.4,80.2,89.8,79.8,89.7z"/>
					<path class="st1" d="M79.8,90L79.8,90L79.8,90c-0.3,0-0.6-0.1-0.7-0.3s-0.3-0.4-0.3-0.7c0-0.6,0.4-1,1-1c0.6,0,1,0.4,1,1
						c0,0.3-0.1,0.6-0.3,0.7S80.1,90,79.8,90z M79.8,88.4c-0.3,0-0.6,0.3-0.6,0.6c0,0.1,0,0.3,0.1,0.4s0.3,0.1,0.4,0.1l0,0
						c0.1,0,0.3,0,0.4-0.1s0.1-0.3,0.1-0.4C80.4,88.7,80.1,88.4,79.8,88.4z"/>
				</g>
				<g>
					<path class="st1" d="M79.8,95.2c-0.4,0-0.7-0.4-0.7-0.7c0-0.4,0.4-0.7,0.7-0.7c0.4,0,0.7,0.4,0.7,0.7S80.2,95.2,79.8,95.2z"/>
					<path class="st1" d="M79.8,95.4c-0.6,0-1-0.4-1-1s0.4-1,1-1c0.6,0,1,0.4,1,1S80.4,95.4,79.8,95.4z M79.8,93.8
						c-0.3,0-0.6,0.3-0.6,0.6c0,0.3,0.3,0.6,0.6,0.6c0.3,0,0.6-0.3,0.6-0.6S80.1,93.8,79.8,93.8z"/>
				</g>
				<g>
					<path class="st1" d="M79.8,100.6c-0.4,0-0.7-0.4-0.7-0.7c0-0.4,0.4-0.7,0.7-0.7c0.4,0,0.7,0.4,0.7,0.7
						C80.5,100.4,80.2,100.6,79.8,100.6z"/>
					<path class="st1" d="M79.8,100.8c-0.6,0-1-0.4-1-1c0-0.3,0.1-0.6,0.3-0.7c0.4-0.4,1-0.4,1.4,0c0.1,0.1,0.3,0.4,0.3,0.7
						s-0.1,0.6-0.3,0.7C80.4,100.8,80.1,100.8,79.8,100.8z M79.8,99.4c-0.1,0-0.3,0-0.4,0.1s-0.1,0.3-0.1,0.4c0,0.3,0.3,0.6,0.6,0.6
						c0.1,0,0.3,0,0.4-0.1s0.1-0.3,0.1-0.4c0-0.1,0-0.3-0.1-0.4C80.1,99.4,79.9,99.4,79.8,99.4z"/>
				</g>
			</g>
		</g>
	</g>
</g>
</svg>
