<?xml version="1.0" encoding="utf-8"?>
<!-- Generator: Adobe Illustrator 20.0.0, SVG Export Plug-In . SVG Version: 6.00 Build 0)  -->
<svg version="1.1" id="Layer_1" xmlns="http://www.w3.org/2000/svg" xmlns:xlink="http://www.w3.org/1999/xlink" x="0px" y="0px"
	 viewBox="0 0 2052.5 1358.3" style="enable-background:new 0 0 2052.5 1358.3;" xml:space="preserve">
<style type="text/css">
	.st0{fill:none;stroke:#DDDDDD;stroke-width:6;stroke-miterlimit:10;}
	.st1{fill:none;stroke:#DDDDDD;stroke-width:6;stroke-miterlimit:10;stroke-dasharray:12,12;}
	.st2{fill:#DDDDDD;}
	.st3{fill:#666666;}
	.st4{font-family:'Roboto-Regular';}
	.st5{font-size:20px;}
	.st6{fill:#78909C;}
	.st7{font-family:'Roboto-Bold';}
	.st8{font-size:31.6561px;}
	.st9{fill:#37474F;}
	.st10{fill:#FFAB00;}
	.st11{fill:#B0BEC5;}
	.st12{fill:#FFECB3;}
	.st13{fill:#FFFFFF;}
	.st14{fill:none;}
	.st15{fill:#0071A9;}
	.st16{clip-path:url(#SVGID_2_);fill:#008DCB;}
	.st17{clip-path:url(#SVGID_4_);fill:#A0D1E4;}
	.st18{clip-path:url(#SVGID_6_);fill:#FFFFFF;}
	.st19{fill:none;stroke:#006193;stroke-width:2.2677;stroke-miterlimit:22.9256;}
	.st20{fill:#008DCB;}
</style>
<g id="Layer_2">
	<g id="XMLID_4_">
		<g id="XMLID_32_">
			<line id="XMLID_35_" class="st0" x1="565.1" y1="277" x2="565.1" y2="283"/>
			<line id="XMLID_34_" class="st1" x1="565.1" y1="295" x2="565.1" y2="1296"/>
			<line id="XMLID_33_" class="st0" x1="565.1" y1="1302" x2="565.1" y2="1308"/>
		</g>
	</g>
	<g id="XMLID_3_">
		<g id="XMLID_27_">
			<line id="XMLID_30_" class="st0" x1="1024.1" y1="277" x2="1024.1" y2="283"/>
			<line id="XMLID_29_" class="st1" x1="1024.1" y1="295" x2="1024.1" y2="1296"/>
			<line id="XMLID_28_" class="st0" x1="1024.1" y1="1302" x2="1024.1" y2="1308"/>
		</g>
	</g>
	<g id="XMLID_2_">
		<g id="XMLID_20_">
			<line id="XMLID_23_" class="st0" x1="1484.1" y1="277" x2="1484.1" y2="283"/>
			<line id="XMLID_22_" class="st1" x1="1484.1" y1="295" x2="1484.1" y2="1296"/>
			<line id="XMLID_21_" class="st0" x1="1484.1" y1="1302" x2="1484.1" y2="1308"/>
		</g>
	</g>
	<g id="XMLID_107_">
		<g id="XMLID_37_">
			<line id="XMLID_95_" class="st0" x1="106.1" y1="277" x2="106.1" y2="283"/>
			<line id="XMLID_94_" class="st1" x1="106.1" y1="295" x2="106.1" y2="1296"/>
			<line id="XMLID_93_" class="st0" x1="106.1" y1="1302" x2="106.1" y2="1308"/>
		</g>
	</g>
	<g id="XMLID_281_">
		<g id="XMLID_357_">
			<line id="XMLID_360_" class="st0" x1="1944.1" y1="277" x2="1944.1" y2="283"/>
			<line id="XMLID_359_" class="st1" x1="1944.1" y1="295" x2="1944.1" y2="1296"/>
			<line id="XMLID_358_" class="st0" x1="1944.1" y1="1302" x2="1944.1" y2="1308"/>
		</g>
	</g>
</g>
<g id="Layer_4">
	<line id="XMLID_211_" class="st0" x1="595.5" y1="568.6" x2="995.5" y2="568.6"/>
	<g id="XMLID_208_" transform="translate(1716.9636,-2280.0287)">
		<polygon id="XMLID_210_" class="st2" points="-733.9,2859.8 -722.7,2848.6 -733.9,2837.4 -729.9,2833.5 -714.8,2848.6 
			-729.9,2863.8 		"/>
		<path id="XMLID_209_" class="st2" d="M-723.1,2841.8l6.9,6.9l-6.9,6.9l-6.9,6.9l-1.3-1.3l-1.3-1.3l5.6-5.6l5.6-5.6l-5.6-5.6
			l-5.6-5.6l1.3-1.3l1.3-1.3L-723.1,2841.8L-723.1,2841.8z"/>
	</g>
	<text id="XMLID_207_" transform="matrix(1 0 0 1 676.1973 549.6635)" class="st3 st4 st5">gettyImages media search</text>
	<line id="XMLID_14_" class="st0" x1="125.5" y1="368.6" x2="525.5" y2="368.6"/>
	<g id="XMLID_11_" transform="translate(1716.9636,-2280.0287)">
		<polygon id="XMLID_13_" class="st2" points="-1203.9,2659.8 -1192.7,2648.6 -1203.9,2637.4 -1199.9,2633.5 -1184.8,2648.6 
			-1199.9,2663.8 		"/>
		<path id="XMLID_12_" class="st2" d="M-1193.1,2641.8l6.9,6.9l-6.9,6.9l-6.9,6.9l-1.3-1.3l-1.3-1.3l5.6-5.6l5.6-5.6l-5.6-5.6
			l-5.6-5.6l1.3-1.3l1.3-1.3L-1193.1,2641.8L-1193.1,2641.8z"/>
	</g>
	<text id="XMLID_1_" transform="matrix(1 0 0 1 234.1465 349.6635)" class="st3 st4 st5">Enter search or filter</text>
	<line id="XMLID_39_" class="st0" x1="533.2" y1="1208.6" x2="133.2" y2="1208.6"/>
	<g id="XMLID_16_" transform="translate(1716.9636,-2280.0287)">
		<polygon id="XMLID_18_" class="st2" points="-1571.3,3499.8 -1582.5,3488.6 -1571.3,3477.4 -1575.3,3473.5 -1590.4,3488.6 
			-1575.3,3503.8 		"/>
		<path id="XMLID_17_" class="st2" d="M-1582.2,3481.8l-6.9,6.9l6.9,6.9l6.9,6.9l1.3-1.3l1.3-1.3l-5.6-5.6l-5.6-5.6l5.6-5.6l5.6-5.6
			l-1.3-1.3l-1.3-1.3L-1582.2,3481.8L-1582.2,3481.8z"/>
	</g>
	<text id="XMLID_15_" transform="matrix(1 0 0 1 249.8952 1189.6635)" class="st3 st4 st5">Display the results</text>
	<line id="XMLID_47_" class="st0" x1="590.5" y1="633.6" x2="990.5" y2="633.6"/>
	<g id="XMLID_41_" transform="translate(1716.9636,-2280.0287)">
		<polygon id="XMLID_46_" class="st2" points="-738.9,2924.8 -727.7,2913.6 -738.9,2902.4 -734.9,2898.5 -719.8,2913.6 
			-734.9,2928.8 		"/>
		<path id="XMLID_45_" class="st2" d="M-728.1,2906.8l6.9,6.9l-6.9,6.9l-6.9,6.9l-1.3-1.3l-1.3-1.3l5.6-5.6l5.6-5.6l-5.6-5.6
			l-5.6-5.6l1.3-1.3l1.3-1.3L-728.1,2906.8L-728.1,2906.8z"/>
	</g>
	<text id="XMLID_40_" transform="matrix(1 0 0 1 724.4981 614.6635)" class="st3 st4 st5">AP media search</text>
	<line id="XMLID_52_" class="st0" x1="590.5" y1="703.6" x2="990.5" y2="703.6"/>
	<g id="XMLID_49_" transform="translate(1716.9636,-2280.0287)">
		<polygon id="XMLID_51_" class="st2" points="-738.9,2994.8 -727.7,2983.6 -738.9,2972.4 -734.9,2968.5 -719.8,2983.6 
			-734.9,2998.8 		"/>
		<path id="XMLID_50_" class="st2" d="M-728.1,2976.8l6.9,6.9l-6.9,6.9l-6.9,6.9l-1.3-1.3l-1.3-1.3l5.6-5.6l5.6-5.6l-5.6-5.6
			l-5.6-5.6l1.3-1.3l1.3-1.3L-728.1,2976.8L-728.1,2976.8z"/>
	</g>
	<text id="XMLID_48_" transform="matrix(1 0 0 1 702.379 684.6635)" class="st3 st4 st5">Reuters media search</text>
	<line id="XMLID_275_" class="st0" x1="1917.2" y1="713.6" x2="1517.2" y2="713.6"/>
	<g id="XMLID_272_" transform="translate(1716.9636,-2280.0287)">
		<polygon id="XMLID_274_" class="st2" points="-187.3,3004.8 -198.5,2993.6 -187.3,2982.4 -191.3,2978.5 -206.4,2993.6 
			-191.3,3008.8 		"/>
		<path id="XMLID_273_" class="st2" d="M-198.2,2986.8l-6.9,6.9l6.9,6.9l6.9,6.9l1.3-1.3l1.3-1.3l-5.6-5.6l-5.6-5.6l5.6-5.6l5.6-5.6
			l-1.3-1.3l-1.3-1.3L-198.2,2986.8L-198.2,2986.8z"/>
	</g>
	<text id="XMLID_271_" transform="matrix(1 0 0 1 1686.4805 694.6635)" class="st3 st4 st5">Results</text>
	<line id="XMLID_59_" class="st0" x1="1456.2" y1="1098.6" x2="599.8" y2="1098.6"/>
	<g id="XMLID_56_" transform="translate(1716.9636,-2280.0287)">
		<polygon id="XMLID_58_" class="st2" points="-1102.3,3389.8 -1113.5,3378.6 -1102.3,3367.4 -1106.3,3363.5 -1121.4,3378.6 
			-1106.3,3393.8 		"/>
		<path id="XMLID_57_" class="st2" d="M-1113.2,3371.8l-6.9,6.9l6.9,6.9l6.9,6.9l1.3-1.3l1.3-1.3l-5.6-5.6l-5.6-5.6l5.6-5.6l5.6-5.6
			l-1.3-1.3l-1.3-1.3L-1113.2,3371.8L-1113.2,3371.8z"/>
	</g>
	<text id="XMLID_55_" transform="matrix(1 0 0 1 990.4805 1079.6635)" class="st3 st4 st5">Results</text>
	<line id="XMLID_434_" class="st0" x1="997.2" y1="818.6" x2="597.2" y2="818.6"/>
	<g id="XMLID_431_" transform="translate(1716.9636,-2280.0287)">
		<polygon id="XMLID_433_" class="st2" points="-1107.3,3109.8 -1118.5,3098.6 -1107.3,3087.4 -1111.3,3083.5 -1126.4,3098.6 
			-1111.3,3113.8 		"/>
		<path id="XMLID_432_" class="st2" d="M-1118.2,3091.8l-6.9,6.9l6.9,6.9l6.9,6.9l1.3-1.3l1.3-1.3l-5.6-5.6l-5.6-5.6l5.6-5.6
			l5.6-5.6l-1.3-1.3l-1.3-1.3L-1118.2,3091.8L-1118.2,3091.8z"/>
	</g>
	<text id="XMLID_430_" transform="matrix(1 0 0 1 702.6931 799.6635)" class="st3 st4 st5">gettyImages results</text>
	<line id="XMLID_429_" class="st0" x1="1002.2" y1="883.6" x2="602.2" y2="883.6"/>
	<g id="XMLID_398_" transform="translate(1716.9636,-2280.0287)">
		<polygon id="XMLID_400_" class="st2" points="-1102.3,3174.8 -1113.5,3163.6 -1102.3,3152.4 -1106.3,3148.5 -1121.4,3163.6 
			-1106.3,3178.8 		"/>
		<path id="XMLID_399_" class="st2" d="M-1113.2,3156.8l-6.9,6.9l6.9,6.9l6.9,6.9l1.3-1.3l1.3-1.3l-5.6-5.6l-5.6-5.6l5.6-5.6
			l5.6-5.6l-1.3-1.3l-1.3-1.3L-1113.2,3156.8L-1113.2,3156.8z"/>
	</g>
	<text id="XMLID_270_" transform="matrix(1 0 0 1 720.779 864.6635)" class="st3 st4 st5">AP media results</text>
	<line id="XMLID_91_" class="st0" x1="1002.2" y1="953.6" x2="602.2" y2="953.6"/>
	<g id="XMLID_88_" transform="translate(1716.9636,-2280.0287)">
		<polygon id="XMLID_90_" class="st2" points="-1102.3,3244.8 -1113.5,3233.6 -1102.3,3222.4 -1106.3,3218.5 -1121.4,3233.6 
			-1106.3,3248.8 		"/>
		<path id="XMLID_89_" class="st2" d="M-1113.2,3226.8l-6.9,6.9l6.9,6.9l6.9,6.9l1.3-1.3l1.3-1.3l-5.6-5.6l-5.6-5.6l5.6-5.6l5.6-5.6
			l-1.3-1.3l-1.3-1.3L-1113.2,3226.8L-1113.2,3226.8z"/>
	</g>
	<text id="XMLID_86_" transform="matrix(1 0 0 1 698.6599 934.6635)" class="st3 st4 st5">Reuters media results</text>
</g>
<g id="Layer_5">
	<rect id="XMLID_10_" x="1471.8" y="388" class="st6" width="32.3" height="764.6"/>
	<rect id="XMLID_8_" x="547" y="315.4" class="st6" width="36.6" height="947"/>
	<rect id="XMLID_87_" x="1926.8" y="562.6" class="st6" width="36.6" height="206"/>
	<line id="XMLID_295_" class="st0" x1="595.5" y1="448.6" x2="1451.9" y2="448.6"/>
	<g id="XMLID_292_" transform="translate(1716.9636,-2280.0287)">
		<polygon id="XMLID_294_" class="st2" points="-279.9,2739.8 -268.7,2728.6 -279.9,2717.4 -275.9,2713.5 -260.8,2728.6 
			-275.9,2743.8 		"/>
		<path id="XMLID_293_" class="st2" d="M-269.1,2721.8l6.9,6.9l-6.9,6.9l-6.9,6.9l-1.3-1.3l-1.3-1.3l5.6-5.6l5.6-5.6l-5.6-5.6
			l-5.6-5.6l1.3-1.3l1.3-1.3L-269.1,2721.8L-269.1,2721.8z"/>
	</g>
	<text id="XMLID_9_" transform="matrix(1 0 0 1 963.8204 429.6635)" class="st3 st4 st5">Media search</text>
	<rect id="XMLID_73_" x="1007.6" y="522.5" class="st6" width="32.3" height="464.1"/>
</g>
<g id="Layer_3">
	<text id="XMLID_447_" transform="matrix(1 0 0 1 926.2999 73.2408)" class="st7 st8">Media Service</text>
	<text id="XMLID_111_" transform="matrix(1 0 0 1 537.962 73.2408)" class="st7 st8">BEE</text>
	<path id="XMLID_26_" class="st9" d="M627,132.5c-0.9-0.4-2,0.2-2.4,1.1c-2.4,7-8.3,7-10.1,7c-0.6-4.4-2.4-8.5-5.5-11.6
		c-2.9-2.9-6.8-4.8-10.9-5.3c-0.2-2.2,0.2-7.7,7-10c0.9-0.4,1.5-1.3,1.1-2.4c-0.4-0.9-1.3-1.5-2.4-1.1c-7.9,2.6-9.6,9-9.4,13.3
		c-4.8,0.2-9.4,2-12.9,5.7c-2.9,2.9-4.8,6.6-5.3,10.7c-7-2.2-15.1-2.4-23.2-0.4c-8.3-4.8-17.1-8.8-23.4-8.7
		c-15.3,0.6-27.5,13.6-26.7,28.9c0.4,8.5,4.4,15.9,10.7,20.8c-0.4,1.7-0.7,3.3-1.3,5.2c-3.3,12.9-7.7,30.2-1.3,38.9l-4.6,4.4
		c-0.7,0.7-0.7,1.8,0,2.6c0.4,0.4,0.9,0.6,1.3,0.6s0.9-0.2,1.3-0.6l4.6-4.6c3.5,2.8,8.5,3.7,13.8,3.7c10,0,21.8-3.5,30.8-6.3
		l2.2-0.7c0.6,0.7,1.3,1.5,2,2c5.2,4.8,11.8,7.4,19,7.4c0.4,0,0.7,0,1.1,0c7.4-0.4,14.4-3.5,19.4-9s7.7-12.5,7.4-20.1
		c-0.2-4.1-2.2-9.2-5.9-15.5c-1.3-2-2.6-4.1-3.9-6.1c1.5-7.4,1.1-14.6-0.9-20.8c4.1-0.7,7.7-2.6,10.7-5.3c3.3-3.3,5.2-7.6,5.5-12.2
		c0.2,0,0.6,0,0.9,0c4.2,0,10.1-1.8,12.7-9.6C628.5,133.8,628.1,132.8,627,132.5z"/>
	<path id="XMLID_60_" class="st6" d="M557,221.1c-1.3,0.4-2.8,0.9-4.2,1.3c0,0,0,0,0-0.2l-36.9-36.7c0.2-0.9,0.6-2,0.7-2.9
		c4.1,2.4,8.8,3.9,14,3.9c0.4,0,0.7,0,1.1,0c0.9,0,1.8-0.2,2.8-0.4l18.6,18.6c0,0.6,0,1.3,0,1.8c0.2,5.2,1.8,10,4.6,14.2L557,221.1z
		"/>
	<path id="XMLID_62_" class="st10" d="M514.7,189.8l33.9,33.7c-4.8,1.3-9.8,2.6-14.7,3.1l-22.1-22.1
		C512.5,199.6,513.6,194.4,514.7,189.8z"/>
	<path id="XMLID_61_" class="st6" d="M514.6,223.4c-2.9-2.9-3.7-8.1-3.3-14l17.9,17.9C523,227.4,517.9,226.5,514.6,223.4z"/>
	<path id="XMLID_82_" class="st10" d="M554,200.5L538.5,185c2.6-0.9,5.5-2.4,8.7-4.2c0.9-0.6,1.7-1.1,2.6-1.7l9.2,9.2
		C557,192.4,555.1,196.6,554,200.5z"/>
	<path id="XMLID_63_" class="st6" d="M561,184.8l-7.9-7.9c3.5-2.4,6.8-4.8,10-7.4l4.6,4.6C565.3,177.4,563,181.1,561,184.8z"/>
	<path id="XMLID_43_" class="st10" d="M580.7,159.8c-0.4-0.4-0.9-0.6-1.5-0.6s-1.1,0.2-1.3,0.7c-0.4,0.6-3.9,5-8.3,11.2l-3.7-3.7
		c5.9-4.8,10.1-8.8,10.5-9.2s0.6-0.9,0.6-1.5s-0.2-1.1-0.7-1.3c-0.7-0.6-8.8-7.2-18.8-13.3c11.6-1.8,22.5,1.1,29.9,8.5
		c7,7,10.1,17,8.8,27.8C588.9,168.6,581.1,160.1,580.7,159.8z"/>
	<path id="XMLID_83_" class="st11" d="M506.4,159.6c-0.6-13.3,10-24.7,23.2-25.3c0.2,0,0.4,0,0.4,0c11.8,0,35.6,17.5,42.2,22.5
		c-4.2,3.9-16,14-26.9,20.5c-5.9,3.5-10.5,5.3-13.8,5.3C518.2,183.3,507,172.8,506.4,159.6z"/>
	<path id="XMLID_44_" class="st11" d="M605.4,204.6c0.2,6.5-2,12.7-6.5,17.3c-4.4,4.8-10.3,7.6-16.8,7.7c-6.5,0.2-12.7-2-17.3-6.5
		c-4.8-4.4-7.6-10.3-7.7-16.8c-0.6-11.6,17.5-36,22.5-42.6c3.9,4.2,14,16,20.5,26.9C603.4,196.6,605.3,201.2,605.4,204.6z"/>
	<path id="XMLID_42_" class="st12" d="M606.4,153.9c-2.6,2.6-5.9,4.1-9.4,4.4c-1.7-3.9-4.1-7.4-7-10.3c-2.9-2.9-6.5-5.3-10.3-7
		c0.4-3.7,2-6.8,4.4-9.4c6.1-6.1,16-6.1,22.3,0c2.9,2.9,4.6,7,4.6,11.1S609.3,150.9,606.4,153.9z"/>
	<text id="XMLID_38_" transform="matrix(1 0 0 1 65.1573 73.2408)" class="st7 st8">Editor</text>
	<g id="XMLID_139_">
		<g id="XMLID_247_">
			<g id="XMLID_251_">
				<path id="XMLID_253_" class="st6" d="M93.2,177.9c-22.9,1.2-30.2-21.7-14.5-41"/>
				<path id="XMLID_252_" class="st9" d="M91.5,180c-9.4,0-17-4-20.7-11.4c-4.8-9.4-2.5-22.1,6.4-33c0.7-1,2.1-1,2.9-0.3
					c1,0.7,1,2.1,0.3,2.9c-7.7,9.7-10.1,20.6-5.9,28.7c3.3,6.3,10.1,9.5,18.7,9.1c1.1-0.1,2.1,0.8,2.1,1.9c0.1,1.1-0.8,2.1-1.9,2.1
					C92.7,180,92.1,180,91.5,180z"/>
			</g>
			<g id="XMLID_248_">
				<path id="XMLID_250_" class="st6" d="M119.8,177.9c22.9,1.2,30.2-21.5,14.5-41"/>
				<path id="XMLID_249_" class="st9" d="M121.6,180c-0.6,0-1.2,0-1.9-0.1c-1.1-0.1-1.9-1-1.9-2.1c0.1-1.1,1-1.9,2.1-1.9
					c8.7,0.5,15.6-2.9,18.7-9.1c4.1-8,1.8-19-5.9-28.7c-0.7-1-0.6-2.1,0.3-2.9c1-0.7,2.1-0.6,2.9,0.3c8.7,10.9,11.2,23.6,6.4,33
					C138.5,175.8,131,180,121.6,180z"/>
			</g>
		</g>
		<g id="XMLID_143_">
			<g id="XMLID_244_">
				<path id="XMLID_246_" class="st11" d="M86.1,198.8l-12,4c-7.9,0-14.4,1.9-14.4,9.2L52,231.9h109l-7.7-19.8
					c0-7.2-6.4-9.1-14.4-9.1l-13-4"/>
				<path id="XMLID_245_" class="st9" d="M161,233.9H52.1c-0.7,0-1.3-0.3-1.7-1c-0.4-0.5-0.5-1.2-0.2-1.9l7.6-19.5
					c0.2-7.1,5.6-10.8,16-10.9l11.7-4c1-0.4,2.2,0.2,2.5,1.3s-0.2,2.2-1.3,2.5l-12,4c-0.2,0.1-0.4,0.1-0.6,0.1
					c-11,0-12.4,3.9-12.4,7.2c0,0.2,0,0.5-0.1,0.7L55,229.8h103l-6.6-17.1c-0.1-0.2-0.1-0.5-0.1-0.7c0-3.3-1.4-7.1-12.4-7.1
					c-0.2,0-0.4,0-0.6-0.1l-13-4c-1.1-0.3-1.6-1.5-1.3-2.5c0.3-1.1,1.5-1.6,2.5-1.3l12.7,4c10.5,0.1,16,3.7,16.1,10.8l7.6,19.5
					c0.2,0.6,0.2,1.3-0.2,1.9C162.3,233.6,161.7,233.9,161,233.9z"/>
			</g>
			<g id="XMLID_241_">
				<path id="XMLID_243_" class="st6" d="M74.8,126.6c7.9-8.3,17-16.3,31.7-16.3s26.6,11,26.6,24.7"/>
				<path id="XMLID_242_" class="st9" d="M133.2,137.1c-1.1,0-2.1-1-2.1-2.1c0-12.5-11-22.6-24.6-22.6c-14.3,0-23,8-30.2,15.6
					c-0.8,0.8-2.1,0.8-2.9,0.1c-0.8-0.8-0.8-2.1-0.1-2.9c7.7-8.1,17.1-16.8,33.1-16.8c15.9,0,28.7,12,28.7,26.7
					C135.2,136.1,134.4,137.1,133.2,137.1z"/>
			</g>
			<g id="XMLID_238_">
				<path id="XMLID_240_" class="st13" d="M84.9,144.1c0,17.5,8,38,21.7,38s21.7-20.4,21.7-38"/>
				<path id="XMLID_239_" class="st9" d="M106.5,184.2c-14.6,0-23.7-20.7-23.7-40c0-1.1,1-2.1,2.1-2.1s2.1,1,2.1,2.1
					c0,17.4,7.9,36,19.6,36s19.6-18.6,19.6-36c0-1.1,1-2.1,2.1-2.1s2.1,1,2.1,2.1C130.2,163.4,121.2,184.2,106.5,184.2z"/>
			</g>
			<g id="XMLID_215_">
				<g id="XMLID_227_">
					<g id="XMLID_233_">
						<circle id="XMLID_237_" class="st13" cx="95.1" cy="149.9" r="8.4"/>
						<path id="XMLID_234_" class="st9" d="M95.1,160.4c-5.8,0-10.5-4.7-10.5-10.5s4.7-10.5,10.5-10.5s10.5,4.7,10.5,10.5
							S100.9,160.4,95.1,160.4z M95.1,143.6c-3.6,0-6.4,2.9-6.4,6.4s2.9,6.4,6.4,6.4c3.6,0,6.4-2.9,6.4-6.4
							C101.6,146.4,98.6,143.6,95.1,143.6z"/>
					</g>
					<g id="XMLID_228_">
						<line id="XMLID_230_" class="st14" x1="81.1" y1="150.7" x2="86.2" y2="150.7"/>
						<path id="XMLID_229_" class="st9" d="M86.2,152.7h-5.1c-1.1,0-2.1-1-2.1-2.1s1-2.1,2.1-2.1h5.1c1.1,0,2.1,1,2.1,2.1
							S87.4,152.7,86.2,152.7z"/>
					</g>
				</g>
				<g id="XMLID_216_">
					<g id="XMLID_220_">
						<circle id="XMLID_226_" class="st13" cx="118" cy="149.9" r="8.4"/>
						<path id="XMLID_221_" class="st9" d="M117.9,160.4c-5.8,0-10.5-4.7-10.5-10.5s4.8-10.5,10.5-10.5c5.8,0,10.5,4.7,10.5,10.5
							C128.3,155.7,123.7,160.4,117.9,160.4z M117.9,143.6c-3.6,0-6.4,2.9-6.4,6.4s2.9,6.4,6.4,6.4c3.6,0,6.4-2.9,6.4-6.4
							C124.3,146.4,121.4,143.6,117.9,143.6z"/>
					</g>
					<g id="XMLID_217_">
						<line id="XMLID_219_" class="st14" x1="131.9" y1="149.6" x2="126.8" y2="149.6"/>
						<path id="XMLID_218_" class="st9" d="M131.9,151.7h-5.1c-1.1,0-2.1-1-2.1-2.1s1-2.1,2.1-2.1h5.1c1.1,0,2.1,1,2.1,2.1
							S133,151.7,131.9,151.7z"/>
					</g>
				</g>
			</g>
			<g id="XMLID_152_">
				<g id="XMLID_212_">
					<line id="XMLID_214_" class="st14" x1="97.4" y1="180.1" x2="97.4" y2="194.3"/>
					<path id="XMLID_213_" class="st9" d="M97.4,196.4c-1.1,0-2.1-1-2.1-2.1v-14.2c0-1.1,1-2.1,2.1-2.1s2.1,1,2.1,2.1v14.2
						C99.4,195.4,98.5,196.4,97.4,196.4z"/>
				</g>
				<g id="XMLID_153_">
					<line id="XMLID_156_" class="st14" x1="115.6" y1="180.1" x2="115.6" y2="194.3"/>
					<path id="XMLID_154_" class="st9" d="M115.6,196.4c-1.1,0-2.1-1-2.1-2.1v-14.2c0-1.1,1-2.1,2.1-2.1s2.1,1,2.1,2.1v14.2
						C117.7,195.4,116.8,196.4,115.6,196.4z"/>
				</g>
			</g>
			<g id="XMLID_147_">
				<path id="XMLID_151_" class="st13" d="M125.3,196.9c0,4.8-8.4,8.7-18.8,8.7s-18.8-3.9-18.8-8.7"/>
				<path id="XMLID_150_" class="st9" d="M106.5,207.6c-11.9,0-20.8-4.6-20.8-10.6c0-1.1,1-2.1,2.1-2.1s2.1,1,2.1,2.1
					c0,3.2,7.2,6.6,16.8,6.6s16.8-3.5,16.8-6.6c0-1.1,1-2.1,2.1-2.1s2.1,1,2.1,2.1C127.4,203,118.4,207.6,106.5,207.6z"/>
			</g>
			<g id="XMLID_144_">
				<path id="XMLID_146_" class="st6" d="M124.1,130.3c0,7-22.8,9.8-32.1,9.8s-17-5.7-17-12.7"/>
				<path id="XMLID_145_" class="st9" d="M92.1,142.2c-10.5,0-19-6.6-19-14.8c0-1.1,1-2.1,2.1-2.1s2.1,1,2.1,2.1
					c0,5.9,6.7,10.6,14.9,10.6c12.8,0,30.1-3.9,30.1-7.9c0-1.1,1-2.1,2.1-2.1s2.1,1,2.1,2.1C126.1,141.5,92.4,142.2,92.1,142.2z"/>
			</g>
		</g>
		<g id="XMLID_140_">
			<path id="XMLID_142_" class="st10" d="M130.7,231.6c-4.4-8.8-13.6-14.9-24.2-14.9s-19.7,6.1-24.2,14.9"/>
			<path id="XMLID_141_" class="st9" d="M130.7,233.6c-0.7,0-1.4-0.4-1.8-1.1c-4.3-8.5-12.9-13.8-22.3-13.8s-18.1,5.3-22.3,13.8
				c-0.5,1-1.7,1.4-2.8,1c-1-0.5-1.4-1.7-1-2.8c5-9.8,14.9-16,26-16s21,6.1,26,16c0.5,1,0.1,2.2-1,2.8
				C131.3,233.5,131,233.6,130.7,233.6z"/>
		</g>
	</g>
	<text id="XMLID_268_" transform="matrix(1 0 0 1 1886.3613 73.6461)" class="st7 st8">Toolbelt</text>
	<g id="XMLID_135_">
		<path id="XMLID_267_" class="st15" d="M1943.2,107.5c-0.3,3.2-0.7,6.5-2.8,8.8c-4.2,4.7-9.8,7.6-14.4,9.8
			c-11.7,5.8-25.2,19.2-25.2,40.6c0,10.4,4,21.6,11.6,30.2c8,9.2,20.1,15.4,34.4,15.4c12.8-0.1,23.3-4.2,31.2-11
			c9.2-8,14.8-19.7,14.8-34.5c0-10.9-3.3-20.4-9.2-27.7c-11.7-14.3-21.1-15.6-27.1-19C1952.1,117.8,1948.2,113.5,1943.2,107.5
			L1943.2,107.5z"/>
		<g id="XMLID_262_">
			<g>
				<defs>
					<path id="SVGID_1_" d="M1943.2,107.5c-0.3,3.2-0.7,6.5-2.8,8.8c-4.2,4.7-9.8,7.6-14.4,9.8c-11.7,5.8-25.2,19.2-25.2,40.6
						c0,10.4,4,21.6,11.6,30.2c8,9.2,20.1,15.4,34.4,15.4c12.8-0.1,23.3-4.2,31.2-11c9.2-8,14.8-19.7,14.8-34.5
						c0-10.9-3.3-20.4-9.2-27.7c-11.7-14.3-21.1-15.6-27.1-19C1952.1,117.8,1948.2,113.5,1943.2,107.5L1943.2,107.5z"/>
				</defs>
				<clipPath id="SVGID_2_">
					<use xlink:href="#SVGID_1_"  style="overflow:visible;"/>
				</clipPath>
				<path id="XMLID_266_" class="st16" d="M1978.1,129.8c6.2,9.3,6,19.4,0.6,28.3c-4.3,7.1-12.1,13.1-22,20
					c-14.9,10.4-30.1,18.2-42.6,14.9c-6.1-1.6-11.4-6.4-15.9-13.7l-3.8-77.8l53.8-0.9L1978.1,129.8L1978.1,129.8z"/>
			</g>
			<g>
				<defs>
					<path id="SVGID_3_" d="M1943.2,107.5c-0.3,3.2-0.7,6.5-2.8,8.8c-4.2,4.7-9.8,7.6-14.4,9.8c-11.7,5.8-25.2,19.2-25.2,40.6
						c0,10.4,4,21.6,11.6,30.2c8,9.2,20.1,15.4,34.4,15.4c12.8-0.1,23.3-4.2,31.2-11c9.2-8,14.8-19.7,14.8-34.5
						c0-10.9-3.3-20.4-9.2-27.7c-11.7-14.3-21.1-15.6-27.1-19C1952.1,117.8,1948.2,113.5,1943.2,107.5L1943.2,107.5z"/>
				</defs>
				<clipPath id="SVGID_4_">
					<use xlink:href="#SVGID_3_"  style="overflow:visible;"/>
				</clipPath>
				<path id="XMLID_265_" class="st17" d="M1942.6,108.1c2.5,4.2,2.8,10,0,12.1c-1.3,1-1.1,1.6-0.5,2c1,0.9,0.3,2.6-0.8,4.2
					c-6.3,9.1-18.6,16.4-26,19.7c-2,0.9-5.8,2-6.9,0.8c-2.9-3.1,2.3-7.9,5.2-12.2l23-16.6L1942.6,108.1L1942.6,108.1z"/>
			</g>
			<g>
				<defs>
					<path id="SVGID_5_" d="M1943.2,107.5c-0.3,3.2-0.7,6.5-2.8,8.8c-4.2,4.7-9.8,7.6-14.4,9.8c-11.7,5.8-25.2,19.2-25.2,40.6
						c0,10.4,4,21.6,11.6,30.2c8,9.2,20.1,15.4,34.4,15.4c12.8-0.1,23.3-4.2,31.2-11c9.2-8,14.8-19.7,14.8-34.5
						c0-10.9-3.3-20.4-9.2-27.7c-11.7-14.3-21.1-15.6-27.1-19C1952.1,117.8,1948.2,113.5,1943.2,107.5L1943.2,107.5z"/>
				</defs>
				<clipPath id="SVGID_6_">
					<use xlink:href="#SVGID_5_"  style="overflow:visible;"/>
				</clipPath>
				<path id="XMLID_264_" class="st18" d="M1942.5,106.9c3.2,7.3,3,11.6-4.4,14.9c-0.2,0.1-0.8,0.6,0.2,0.8c2.8,0.6-0.9,4.8-2.5,6.3
					c-1.8,1.7-4.3,4.3-10.5,8.4s-12.9,7-14.6,5.8c-3.1-2.1,3.1-7.3,6.4-12.5L1942.5,106.9L1942.5,106.9z"/>
			</g>
		</g>
		<path id="XMLID_261_" class="st19" d="M1943.2,107.5c-0.3,3.2-0.7,6.5-2.8,8.8c-4.2,4.7-9.8,7.6-14.4,9.8
			c-11.7,5.8-25.2,19.2-25.2,40.6c0,10.4,4,21.6,11.6,30.2c8,9.2,20.1,15.4,34.4,15.4c12.8-0.1,23.3-4.2,31.2-11
			c9.2-8,14.8-19.7,14.8-34.5c0-10.9-3.3-20.4-9.2-27.7c-11.7-14.3-21.1-15.6-27.1-19C1952.1,117.8,1948.2,113.5,1943.2,107.5
			L1943.2,107.5z"/>
		<path id="XMLID_257_" class="st13" d="M1963.4,179.1c-6.5,0-12.8-11.3-25.7-11.6c-9.7-0.2-17.3,7.9-17.2,15.7
			c0.2,9.4,6.8,11.6,13,11.7c12.1,0.2,22.9-12.2,30.2-12.3c5.6-0.1,11.2,11.6,16.3,12c5.8,0.5,10.2-10.9,9.8-17.7
			c-0.3-4.6-2.9-7.8-6.3-7.8C1977.2,169.3,1969.7,179.2,1963.4,179.1L1963.4,179.1z M1952.2,194.2c2.8-2.8,5.7-4.4,9.1-4.3
			c5.3,0.1,5.5,1.4,7.1,4.5c0.3,0.6,0.1,1.2-0.1,1.5c-0.1,0.2-0.7,0.8-0.9,0.8c-0.5,0-0.7-0.2-0.9-0.7c-1.3-3.2-3.1-3.2-5.5-3.2
			c-3.6,0-5.2,1.8-7.4,3.6c-0.5,0.4-1,0.8-1.4,0.4c-0.3-0.3-0.6-0.7-0.6-0.9C1951.6,195.1,1951.7,194.7,1952.2,194.2L1952.2,194.2z
			 M1944.9,201.7c2.9,2.6,16.4,4.9,24.5-0.6c0.3-0.2,0.7-0.3,1-0.2c0.2,0.1,0.4,0.2,0.4,0.5c0.1,0.5,0.1,1.1-0.3,1.4
			c-5.6,4.7-20.9,7.4-28.2,1.4c-0.7-0.6-0.7-1.5-0.3-2c0.4-0.4,0.7-0.6,1.1-0.8C1943.7,201.2,1944.4,201.3,1944.9,201.7
			L1944.9,201.7z"/>
		<path id="XMLID_136_" class="st20" d="M1920.8,221.5v2.6c0,6.1-2.7,9.4-10.7,9.4h-9.6c-0.1,0-0.2-0.1-0.2-0.2v-21.1
			c0-0.1,0.1-0.2,0.2-0.2h9.6C1917.9,211.9,1920.8,215.3,1920.8,221.5L1920.8,221.5z M1989.8,211.5l-4.4,0.7c-0.1,0-0.2,0.1-0.2,0.2
			v17c0,3.6,3.3,4.8,7.2,3.8c0.2,0,0.3-0.1,0.5-0.1c0.1,0,0.2-0.1,0.2-0.3l-0.4-2.3c0-0.1-0.1-0.1-0.1-0.1c-1.9,0-2.4,0-2.4-1v-17.7
			c0-0.1,0-0.1-0.1-0.2S1989.9,211.5,1989.8,211.5L1989.8,211.5z M1966.4,227v-3.8c0-3.6-2.5-5.6-7.8-5.5c-5.3,0.2-7.4,0.6-7.4,4.9
			v16.6c0,0.1,0,0.1,0.1,0.2c0.1,0,0.1,0.1,0.2,0.1l4.4-0.7c0.1,0,0.2-0.1,0.2-0.2v-3.3c0-0.6-0.5-1.2-0.4-2.1
			c1.4,0.4,3.1,0.6,5,0.6C1962.9,233.7,1966.4,232.6,1966.4,227L1966.4,227z M1956.1,230.6v-7.9c0-1.6,0.1-2,2.6-2s2.8,1.5,2.8,2.5
			v4.5c0,2.4-0.8,3.3-2.9,3.2C1957.5,230.9,1957,230.8,1956.1,230.6L1956.1,230.6z M1938.5,217.8l-4.4,0.7c-0.1,0-0.2,0.1-0.2,0.2
			v10.2c0,3.6,3.3,4.9,7.2,4.9c3.9,0.1,7.7-1,7.7-4.9V218c0-0.1,0-0.1-0.1-0.2c-0.1,0-0.1-0.1-0.2-0.1l-4.4,0.7
			c-0.1,0-0.2,0.1-0.2,0.2v10.2c0,1.1-0.6,2-2.6,2s-2.5-0.9-2.5-2V218c0-0.1,0-0.1-0.1-0.2C1938.6,217.8,1938.5,217.8,1938.5,217.8
			L1938.5,217.8z M1972.6,228.1v1.5c0,1.5,2.7,1.4,4.1,1.4c0.8,0,1.1-0.3,1.1-1.1v-3.4c0-0.1,0-0.1-0.1-0.2c0,0-0.1-0.1-0.2-0.1
			C1975.8,226.4,1972.6,226.5,1972.6,228.1L1972.6,228.1z M1967.8,229.6v-1.5c0-3.6,6-4.2,9.8-4.5c0.1,0,0.2-0.1,0.2-0.2v-0.8
			c0-0.9-0.3-1.6-1.6-1.7c-2.2-0.2-3.5,0.1-6.6,0.8c-0.1,0-0.2,0-0.3-0.2l-0.6-2.1c0-0.1,0-0.2,0.1-0.3c1.9-0.7,4.3-1.3,7.1-1.2
			c2.7,0.1,6.5,0,6.5,4.7v7.4c0,3.2-2.3,3.8-7.3,3.9C1971.4,233.8,1967.8,232.4,1967.8,229.6L1967.8,229.6z M1928,233.4h-4.4
			c-0.1,0-0.2-0.1-0.2-0.2v-13.3v-0.1c0.7-1.2,4.8-1.7,8.8-1.7c0.1,0,0.2,0.1,0.2,0.2v2.6c0,0.1,0,0.1-0.1,0.2c0,0-0.1,0.1-0.2,0.1
			c-2.4-0.1-3.7,0.1-3.9,0.6c0,0,0,0,0,0.1v11.3C1928.2,233.3,1928.1,233.4,1928,233.4L1928,233.4z M1915.4,224v-2.6
			c0-4.7-1.5-6.1-5.4-6.1h-4.5V230h4.5C1914.6,230.1,1915.4,227.8,1915.4,224L1915.4,224z"/>
	</g>
	<g id="XMLID_53_">
		<g id="XMLID_123_">
			<g id="XMLID_130_">
				<path id="XMLID_131_" class="st6" d="M1472.8,174.5l0.9-0.3c2.8-1.3,6.8,1.7,9.2,6.5l1.8,3.8c5.6-3.7,9.9-8.6,13.1-14.2
					l-3.9-1.5c-5-1.9-8.3-5.7-7.3-8.6l0.3-0.9c1-2.9,6-3.7,11.1-1.9l3.9,1.5c1.2-6.3,1.1-12.9-0.8-19.3l-3.8,1.8
					c-4.9,2.2-9.8,1.9-11.2-0.9l-0.3-0.9c-1.3-2.8,1.7-6.8,6.5-9.2l3.8-1.8c-3.7-5.6-8.6-9.9-14.2-13.1l-1.5,3.9
					c-1.9,5-5.7,8.3-8.6,7.3l-1-0.2c-2.9-1-3.7-6-1.9-11.1l1.5-3.9c-6.3-1.2-12.9-1.1-19.3,0.8l1.8,3.8c2.2,4.9,1.9,9.8-0.9,11.2
					l-0.9,0.3c-2.8,1.3-6.8-1.6-9.2-6.5l-1.8-3.8c-5.6,3.7-9.9,8.6-13.1,14.2l3.9,1.5c5,1.9,8.3,5.7,7.3,8.6l-0.3,0.9
					c-1,2.9-6,3.7-11.1,1.9l-3.9-1.5c-1.2,6.3-1.1,12.9,0.8,19.3l3.8-1.8c4.9-2.2,9.8-1.9,11.2,0.9l0.3,0.9c1.3,2.8-1.6,6.8-6.5,9.2
					l-3.8,1.8c3.7,5.6,8.6,9.9,14.2,13.1l1.5-3.9c1.9-5,5.7-8.3,8.6-7.3l0.9,0.3c2.9,1,3.7,6,1.9,11.1l-1.5,3.9
					c6.3,1.2,12.9,1.1,19.3-0.8l-1.8-3.9C1469.6,180.8,1470,175.8,1472.8,174.5z M1450.2,156.5c-3.1-6.7-0.2-14.6,6.5-17.7
					c6.7-3.1,14.6-0.2,17.7,6.5s0.2,14.6-6.5,17.7C1461.3,166,1453.4,163.1,1450.2,156.5z"/>
			</g>
			<g id="XMLID_124_">
				<path id="XMLID_125_" class="st9" d="M1462.3,193.3L1462.3,193.3c-2.8,0-5.7-0.3-8.5-0.9c-0.7-0.1-1.2-0.6-1.5-1.1
					c-0.3-0.6-0.3-1.2-0.1-1.9l1.5-3.9c1.6-4.2,0.7-7.7-0.6-8.2l-0.9-0.3c-1.5-0.6-4.2,1.9-5.7,5.9l-1.5,3.9
					c-0.2,0.6-0.7,1.1-1.3,1.3c-0.6,0.2-1.3,0.2-1.9-0.1c-6-3.4-11.3-8-15-13.8c-0.3-0.6-0.4-1.2-0.3-1.8c0.2-0.7,0.7-1.1,1.2-1.5
					l3.8-1.8c2-0.9,3.7-2.2,4.7-3.7c0.7-1,1-1.9,0.8-2.6l-0.3-0.9c-0.3-0.7-1.5-1.1-3-1.1c-1.6,0-3.5,0.4-5.1,1.2l-3.8,1.8
					c-0.6,0.2-1.2,0.2-1.9,0c-0.6-0.2-1-0.8-1.2-1.5c-1.9-6.6-2.2-13.6-0.9-20.3c0.1-0.7,0.6-1.2,1.1-1.5c0.6-0.3,1.2-0.3,1.9-0.1
					l3.9,1.5c1.6,0.6,3,0.9,4.5,0.9c1.9,0,3.5-0.6,3.7-1.3l0.3-0.9c0.2-0.6-0.1-1.5-0.9-2.5c-1.1-1.3-2.9-2.5-5-3.2l-3.9-1.5
					c-0.6-0.2-1.1-0.7-1.3-1.3c-0.2-0.4-0.2-1.2,0.1-1.8c3.4-6,8-11.2,13.8-15c0.6-0.3,1.2-0.4,1.8-0.3c0.7,0.2,1.1,0.7,1.5,1.2
					l1.8,3.8c1.6,3.5,4.1,5.5,5.7,5.5c0.2,0,0.3,0,0.4-0.1l0.9-0.3c1.2-0.6,1.8-4.1-0.1-8.2l-1.8-3.8c-0.2-0.6-0.2-1.2,0-1.9
					c0.2-0.6,0.8-1,1.5-1.2c6.6-1.9,13.6-2.2,20.3-0.9c0.7,0.1,1.2,0.6,1.5,1.1c0.2,0.6,0.3,1.2,0.1,1.9l-1.5,3.9
					c-1.6,4.2-0.7,7.7,0.6,8.2l0.9,0.3c1.5,0.6,4.2-1.9,5.7-5.9l1.5-3.9c0.2-0.6,0.7-1.1,1.3-1.3s1.3-0.2,1.9,0.1
					c6,3.4,11.2,8,15,13.8c0.3,0.6,0.4,1.2,0.3,1.8c-0.2,0.7-0.7,1.1-1.2,1.5l-3.8,1.8c-2,0.9-3.7,2.2-4.7,3.7c-0.7,1-1,1.9-0.8,2.6
					l0.3,0.9c0.3,0.7,1.5,1.1,3,1.1s3.5-0.4,5.1-1.2l3.8-1.8c0.6-0.2,1.2-0.2,1.9,0c0.6,0.2,1,0.8,1.2,1.5
					c1.9,6.6,2.2,13.6,0.9,20.3c-0.1,0.7-0.6,1.2-1.1,1.5c-0.6,0.2-1.2,0.3-1.9,0.1l-3.9-1.5c-1.6-0.6-3-0.9-4.5-0.9
					c-1.9,0-3.5,0.6-3.7,1.3l-0.3,1c-0.2,0.6,0.1,1.5,0.9,2.5c1.1,1.3,2.9,2.5,4.9,3.2l3.9,1.5c0.6,0.2,1.1,0.7,1.3,1.3
					c0.2,0.6,0.2,1.3-0.1,1.9c-3.4,6-8,11.2-13.8,15c-0.6,0.3-1.2,0.4-1.8,0.3s-1.1-0.7-1.5-1.2l-1.8-3.8c-1.6-3.5-4.1-5.5-5.7-5.5
					c-0.2,0-0.3,0-0.4,0.1l-0.8,0.3c-0.6,0.2-1,1.1-1.1,2.3c-0.1,1.7,0.3,3.8,1.2,5.8l1.8,3.8c0.2,0.6,0.2,1.2,0,1.9s-0.8,1-1.5,1.2
					C1470.4,192.8,1466.3,193.3,1462.3,193.3z M1457.4,188.5c1.7,0.2,3.4,0.3,5,0.3l0,0c2.7,0,5.5-0.3,8-0.9l-0.7-1.3
					c-1.2-2.7-1.8-5.6-1.7-8c0.2-2.9,1.6-5.1,3.7-6l0.8-0.3c0.8-0.3,1.6-0.6,2.3-0.6c3.6,0,7.5,3.2,9.7,8.2l0.7,1.3
					c3.5-2.7,6.5-5.9,8.8-9.6l-1.2-0.7c-2.8-1-5.3-2.7-6.8-4.6c-1.9-2.2-2.5-4.7-1.7-6.9l0.3-0.9c1-2.7,3.9-4.4,7.9-4.4
					c1.9,0,4,0.3,6,1.1l1.3,0.6c0.6-4.4,0.4-8.8-0.6-13.1l-1.3,0.7c-2.3,1.1-4.8,1.7-7,1.7c-3.5,0-6-1.3-7-3.7l-0.3-0.9
					c-1-2.1-0.6-4.6,1.1-7c1.5-2,3.7-3.8,6.5-5.1l1.3-0.7c-2.7-3.5-5.9-6.5-9.6-8.8l-0.6,1.3c-1.9,5.4-5.8,8.9-9.5,8.9
					c-0.7,0-1.3-0.1-1.9-0.3l-0.9-0.3c-4.1-1.5-5.5-7.6-3.2-14l0.6-1.3c-4.4-0.6-8.8-0.4-13.1,0.6l0.7,1.3c2.8,6.1,1.9,12.3-2,14.2
					l-0.9,0.3c-0.8,0.3-1.6,0.6-2.3,0.6c-3.6,0-7.5-3.2-9.7-8l-0.9-1.2c-3.5,2.7-6.5,5.9-8.8,9.6l1.3,0.6c2.8,1,5.3,2.7,6.8,4.6
					c1.9,2.2,2.5,4.7,1.7,6.9l-0.2,0.8c-1,2.7-3.9,4.4-7.9,4.4c-1.9,0-4-0.3-6-1.1l-1.3-0.6c-0.6,4.4-0.4,8.8,0.6,13.1l1.3-0.7
					c2.3-1.1,4.8-1.7,7-1.7c3.5,0,6,1.3,7.2,3.7l0.3,0.9c1,2.1,0.6,4.6-1.1,7c-1.5,2-3.7,3.8-6.5,5.1l-1.3,0.7
					c2.7,3.5,5.9,6.5,9.6,8.8l0.6-1.3c1.9-5.4,5.8-8.9,9.5-8.9c0.7,0,1.3,0.1,1.9,0.3l0.9,0.3c4.1,1.5,5.5,7.6,3.2,14L1457.4,188.5z
					 M1462.3,166.5c-6,0-11.6-3.6-14.1-9.1c-3.6-7.8-0.2-17,7.6-20.7c2.1-1,4.2-1.5,6.6-1.5c6,0,11.6,3.6,14.1,9.1
					c3.6,7.8,0.2,17-7.6,20.7C1466.8,165.9,1464.6,166.5,1462.3,166.5z M1462.3,139.8c-1.6,0-3.1,0.3-4.7,1
					c-5.6,2.6-7.9,9.2-5.4,14.8c1.8,3.9,5.8,6.4,10.1,6.4c1.6,0,3.1-0.3,4.7-1c5.6-2.6,7.9-9.2,5.4-14.8
					C1470.6,142.3,1466.7,139.8,1462.3,139.8z"/>
			</g>
		</g>
		<g id="XMLID_112_">
			<g id="XMLID_119_">
				<path id="XMLID_120_" class="st12" d="M1538.2,216.8l0.3-0.6c1.2-1.9,4.9-1.7,8.2,0.6l2.6,1.7c2-4.5,2.9-9.2,2.7-13.9l-3,0.7
					c-3.8,0.8-7.4-0.3-7.8-2.6l-0.1-0.7c-0.4-2.2,2.3-4.6,6.1-5.4l3-0.7c-1.6-4.4-4.2-8.4-7.9-11.6l-1.7,2.6
					c-2.1,3.2-5.4,4.9-7.3,3.7l-0.6-0.3c-1.9-1.2-1.7-4.9,0.6-8.2l1.7-2.6c-4.5-2-9.2-2.9-13.9-2.7l0.7,3c0.8,3.8-0.3,7.4-2.6,7.8
					l-0.7,0.1c-2.2,0.4-4.6-2.3-5.4-6.1l-0.6-3c-4.4,1.6-8.4,4.2-11.6,7.9l2.6,1.7c3.2,2.1,4.9,5.5,3.7,7.3l-0.3,0.6
					c-1.2,1.9-4.9,1.7-8.2-0.6l-2.6-1.7c-2,4.5-2.9,9.2-2.7,13.9l3-0.7c3.8-0.8,7.4,0.3,7.8,2.6l0.1,0.7c0.4,2.2-2.3,4.6-6.1,5.4
					l-3,0.7c1.6,4.4,4.2,8.4,7.9,11.6l1.7-2.6c2.1-3.2,5.5-4.9,7.3-3.7l0.6,0.3c1.9,1.2,1.7,4.9-0.6,8.2l-1.7,2.6
					c4.5,2,9.2,2.9,13.9,2.7l-0.7-3c-0.8-3.8,0.3-7.4,2.6-7.8l0.7-0.1c2.2-0.4,4.6,2.3,5.4,6.1l0.7,3c4.4-1.6,8.4-4.2,11.6-7.9
					l-2.6-1.7C1538.7,221.9,1537,218.7,1538.2,216.8z M1517.3,214.3c-4.5-2.9-5.7-8.9-2.8-13.4c2.9-4.5,8.9-5.7,13.4-2.8
					s5.7,8.9,2.8,13.4C1527.8,216,1521.8,217.3,1517.3,214.3z"/>
			</g>
			<g id="XMLID_113_">
				<path id="XMLID_114_" class="st9" d="M1522.6,237.8c-4.6,0-9.1-1-13.2-2.9c-0.6-0.2-1-0.8-1.2-1.5s-0.1-1.3,0.3-1.8l1.7-2.6
					c1.7-2.7,1.6-4.8,1.1-5l-0.6-0.3c0,0-0.1,0-0.2,0c-0.8,0-2.5,0.9-4,3.1l-1.7,2.6c-0.3,0.6-0.9,0.9-1.6,1s-1.3-0.1-1.8-0.6
					c-3.8-3.4-6.7-7.7-8.5-12.5c-0.2-0.6-0.2-1.3,0.1-1.9c0.3-0.6,0.9-1,1.5-1.1l3-0.7c3.1-0.7,4.5-2.3,4.4-2.8V210
					c0-0.2-1.1-1-3.1-1c-0.7,0-1.3,0.1-2,0.2l-3,0.7c-0.7,0.1-1.3,0-1.8-0.4c-0.4-0.4-0.8-1-0.9-1.7c-0.3-5.1,0.7-10.3,2.8-14.9
					c0.2-0.6,0.8-1,1.5-1.2s1.3-0.1,1.8,0.3l2.6,1.7c1.3,0.9,2.9,1.5,4,1.5c0.7,0,1-0.2,1-0.2l0.3-0.6c0.1-0.1,0.1-0.6-0.3-1.3
					c-0.6-1-1.6-2.1-2.8-2.9l-2.6-1.7c-0.6-0.3-0.9-0.9-1-1.6c-0.1-0.7,0.1-1.3,0.6-1.8c3.4-3.8,7.7-6.7,12.5-8.5
					c0.6-0.2,1.3-0.2,1.9,0.1s1,0.9,1.1,1.5l0.9,3c0.7,3,2.2,4.4,2.8,4.4l0.7-0.1c0.4-0.1,1.5-2,0.8-5.1l-0.7-3
					c-0.1-0.7,0-1.3,0.4-1.8c0.4-0.6,1-0.8,1.7-0.9c5.1-0.2,10.2,0.7,14.9,2.8c0.6,0.2,1,0.8,1.2,1.5s0.1,1.3-0.3,1.8l-1.7,2.6
					c-0.8,1.2-1.3,2.6-1.5,3.8c0,0.8,0.1,1.2,0.2,1.3l0.6,0.3c0,0,0.1,0,0.2,0c0.9,0,2.7-1.1,4-3.1l1.7-2.6c0.3-0.6,0.9-0.9,1.6-1
					s1.3,0.1,1.8,0.6c3.8,3.4,6.7,7.7,8.5,12.5c0.2,0.6,0.2,1.3-0.1,1.9c-0.3,0.6-0.9,1-1.5,1.1l-3,0.7c-3.1,0.7-4.5,2.3-4.4,2.8
					l0.1,0.7c0.1,0.3,1.1,1,3.1,1c0.7,0,1.3-0.1,2-0.2l3-0.7c0.7-0.1,1.3,0,1.8,0.4c0.4,0.4,0.8,1,0.9,1.7
					c0.3,5.1-0.7,10.3-2.8,14.9c-0.2,0.6-0.8,1-1.5,1.2s-1.3,0.1-1.8-0.3l-2.6-1.7c-1.3-0.9-2.9-1.5-4-1.5c-0.7,0-1,0.2-1,0.2
					l-0.3,0.6c-0.1,0.1-0.1,0.6,0.3,1.3c0.6,1,1.6,2.1,2.8,2.9l2.6,1.7c0.6,0.3,0.9,0.9,1,1.6c0.1,0.7-0.1,1.3-0.6,1.8
					c-3.4,3.8-7.7,6.7-12.5,8.5c-0.6,0.2-1.3,0.2-1.9-0.1s-1-0.9-1.1-1.5l-0.7-3c-0.7-3-2.2-4.4-2.7-4.4l-0.7,0.1
					c-0.1,0-0.4,0.3-0.7,1.1c-0.3,1.1-0.3,2.6-0.1,4l0.7,3c0.1,0.7,0,1.3-0.4,1.8c-0.4,0.4-1,0.8-1.7,0.9
					C1523.7,237.7,1523.1,237.8,1522.6,237.8z M1513.7,231.8c2.5,0.9,5,1.3,7.7,1.5l-0.1-0.3c-0.4-2.2-0.3-4.5,0.2-6.3
					c0.7-2.2,2.2-3.7,4-4.1l0.7-0.1c0.3-0.1,0.7-0.1,0.9-0.1c3.2,0,6.1,3.2,7.2,7.9l0.1,0.3c2.3-1.1,4.6-2.7,6.5-4.5l-0.2-0.2
					c-1.9-1.2-3.5-2.9-4.4-4.6c-1.1-2.1-1.1-4.2,0-5.8l0.3-0.6c1-1.5,2.7-2.2,4.8-2.2c2.1,0,4.4,0.8,6.5,2.1l0.2,0.2
					c0.9-2.5,1.3-5.1,1.5-7.7l-0.3,0.1c-1,0.2-1.9,0.3-2.9,0.3c-4,0-6.9-1.8-7.5-4.6l-0.1-0.7c-0.7-3.5,2.7-6.9,7.9-8l0.3-0.1
					c-1.1-2.3-2.7-4.6-4.5-6.5l-0.2,0.2c-2.1,3.1-5,5.1-7.7,5.1c-1,0-1.9-0.2-2.7-0.8l-0.6-0.3c-1.6-1-2.3-3-2.2-5.4
					c0.1-1.9,0.9-4,2.1-5.9l0.2-0.2c-2.5-0.9-5-1.3-7.7-1.5l0.1,0.3c1.1,5.3-0.8,9.7-4.2,10.4l-0.7,0.1c-0.3,0.1-0.7,0.1-0.9,0.1
					c-3.2,0-6.1-3.2-7.2-7.9l-0.1-0.3c-2.3,1.1-4.6,2.7-6.5,4.5l0.2,0.2c1.9,1.2,3.5,2.9,4.4,4.6c1.1,2.1,1.1,4.2,0,5.8l-0.3,0.4
					c-1,1.5-2.7,2.2-4.8,2.2s-4.4-0.8-6.5-2.1l-0.2-0.2c-0.9,2.5-1.3,5.1-1.5,7.7l0.3-0.1c1-0.2,1.9-0.3,2.9-0.3
					c4,0,6.9,1.8,7.6,4.6l0.1,0.7c0.7,3.5-2.7,6.9-7.9,8l-0.3,0.1c1.1,2.3,2.7,4.6,4.5,6.5l0.2-0.2c2.1-3.1,5-5.1,7.7-5.1
					c1,0,1.9,0.2,2.7,0.8l0.6,0.3c3,2,3,6.8,0.1,11.3L1513.7,231.8z M1522.6,218.1c-2.3,0-4.6-0.7-6.6-2c-5.5-3.6-7-11.1-3.5-16.5
					c2.2-3.4,5.9-5.4,10-5.4c2.3,0,4.6,0.7,6.6,2c2.7,1.8,4.5,4.5,5.1,7.6c0.7,3.1,0,6.4-1.7,8.9
					C1530.4,216.1,1526.7,218.1,1522.6,218.1z M1522.7,198.7c-2.6,0-4.9,1.2-6.3,3.4c-2.2,3.5-1.3,8,2.1,10.4
					c1.2,0.8,2.7,1.2,4.1,1.2c2.6,0,4.9-1.2,6.3-3.4c1.1-1.7,1.5-3.7,1.1-5.6c-0.4-2-1.6-3.7-3.2-4.7
					C1525.5,199.1,1524.1,198.7,1522.7,198.7z"/>
			</g>
		</g>
		<g id="XMLID_105_">
			<g id="XMLID_109_">
				<path id="XMLID_110_" class="st10" d="M1515.1,143.2c0-9.3,7.5-16.8,16.8-16.8s16.8,7.5,16.8,16.8s-7.5,16.8-16.8,16.8"/>
			</g>
			<g id="XMLID_106_">
				<path id="XMLID_108_" class="st9" d="M1531.8,162.2c-1.2,0-2.2-1-2.2-2.2s1-2.2,2.2-2.2c8,0,14.5-6.5,14.5-14.5
					s-6.5-14.5-14.5-14.5s-14.5,6.5-14.5,14.5c0,1.2-1,2.2-2.2,2.2s-2.2-1-2.2-2.2c0-10.5,8.5-19,19-19s19,8.5,19,19
					S1542.2,162.2,1531.8,162.2z"/>
			</g>
		</g>
		<g id="XMLID_100_">
			<g id="XMLID_103_">
				<polyline id="XMLID_104_" class="st10" points="1443.7,200.3 1443.7,219.3 1484,219.3 				"/>
			</g>
			<g id="XMLID_101_">
				<path id="XMLID_102_" class="st9" d="M1484,221.5h-40.2c-1.2,0-2.2-1-2.2-2.2v-19c0-1.2,1-2.2,2.2-2.2s2.2,1,2.2,2.2V217h38
					c1.2,0,2.2,1,2.2,2.2C1486.2,220.5,1485.2,221.5,1484,221.5z"/>
			</g>
		</g>
		<g id="XMLID_54_">
			<g id="XMLID_98_">
				<line id="XMLID_99_" class="st14" x1="1443.7" y1="231.6" x2="1484" y2="231.6"/>
			</g>
			<g id="XMLID_96_">
				<path id="XMLID_97_" class="st9" d="M1484,233.8h-40.2c-1.2,0-2.2-1-2.2-2.2s1-2.2,2.2-2.2h40.2c1.2,0,2.2,1,2.2,2.2
					S1485.2,233.8,1484,233.8z"/>
			</g>
		</g>
	</g>
	<text id="XMLID_134_" transform="matrix(1 0 0 1 1399.2999 73.2408)" class="st7 st8">Content API</text>
	<g id="Layer_2_1_">
		<g id="Layer_1_1_">
			<g id="XMLID_74_">
				<g id="XMLID_166_">
					<g id="XMLID_348_">
						<rect id="XMLID_352_" x="967.2" y="124.2" class="st10" width="114.7" height="107.2"/>
						<path id="XMLID_349_" class="st9" d="M1081.9,233.1H967.2c-0.9,0-1.6-0.8-1.6-1.6V124.2c0-0.9,0.8-1.6,1.6-1.6h114.7
							c0.9,0,1.6,0.8,1.6,1.6v107.2C1083.4,232.3,1082.7,233.1,1081.9,233.1z M968.7,229.9h111.5V125.8H968.7V229.9z"/>
					</g>
					<g id="XMLID_202_">
						<g id="XMLID_317_">
							<g id="XMLID_343_">
								<rect id="XMLID_347_" x="960.8" y="124.2" class="st12" width="17" height="17"/>
								<path id="XMLID_344_" class="st9" d="M977.8,142.8h-17c-0.9,0-1.6-0.8-1.6-1.6v-17c0-0.9,0.8-1.6,1.6-1.6h17
									c0.9,0,1.6,0.8,1.6,1.6v17C979.4,142.1,978.7,142.8,977.8,142.8z M962.3,139.7h13.8v-13.9h-13.8V139.7z"/>
							</g>
							<g id="XMLID_338_">
								<rect id="XMLID_342_" x="960.8" y="142.2" class="st12" width="17" height="17"/>
								<path id="XMLID_339_" class="st9" d="M977.8,160.8h-17c-0.9,0-1.6-0.8-1.6-1.6v-17c0-0.9,0.8-1.6,1.6-1.6h17
									c0.9,0,1.6,0.8,1.6,1.6v17C979.4,160.1,978.7,160.8,977.8,160.8z M962.3,157.7h13.8v-13.8h-13.8V157.7z"/>
							</g>
							<g id="XMLID_333_">
								<rect id="XMLID_337_" x="960.8" y="160.4" class="st12" width="17" height="17"/>
								<path id="XMLID_334_" class="st9" d="M977.8,178.9h-17c-0.9,0-1.6-0.8-1.6-1.6v-17c0-0.9,0.8-1.6,1.6-1.6h17
									c0.9,0,1.6,0.8,1.6,1.6v17C979.4,178.2,978.7,178.9,977.8,178.9z M962.3,175.7h13.8v-13.8h-13.8V175.7z"/>
							</g>
							<g id="XMLID_328_">
								<rect id="XMLID_332_" x="960.8" y="178.4" class="st12" width="17" height="17"/>
								<path id="XMLID_329_" class="st9" d="M977.8,197h-17c-0.9,0-1.6-0.8-1.6-1.6v-17c0-0.9,0.8-1.6,1.6-1.6h17
									c0.9,0,1.6,0.8,1.6,1.6v17C979.4,196.2,978.7,197,977.8,197z M962.3,193.8h13.8V180h-13.8V193.8z"/>
							</g>
							<g id="XMLID_323_">
								<rect id="XMLID_327_" x="960.8" y="196.4" class="st12" width="17" height="17"/>
								<path id="XMLID_324_" class="st9" d="M977.8,215h-17c-0.9,0-1.6-0.8-1.6-1.6v-17c0-0.9,0.8-1.6,1.6-1.6h17
									c0.9,0,1.6,0.8,1.6,1.6v17C979.4,214.3,978.7,215,977.8,215z M962.3,211.8h13.8V198h-13.8V211.8z"/>
							</g>
							<g id="XMLID_318_">
								<rect id="XMLID_322_" x="960.8" y="214.5" class="st12" width="17" height="17"/>
								<path id="XMLID_319_" class="st9" d="M977.8,233.1h-17c-0.9,0-1.6-0.8-1.6-1.6v-17c0-0.9,0.8-1.6,1.6-1.6h17
									c0.9,0,1.6,0.8,1.6,1.6v17C979.4,232.3,978.7,233.1,977.8,233.1z M962.3,229.9h13.8v-13.8h-13.8V229.9z"/>
							</g>
						</g>
						<g id="XMLID_269_">
							<g id="XMLID_312_">
								<rect id="XMLID_316_" x="1071.2" y="124.2" class="st12" width="17" height="17"/>
								<path id="XMLID_313_" class="st9" d="M1088.2,142.8h-17c-0.9,0-1.6-0.8-1.6-1.6v-17c0-0.9,0.8-1.6,1.6-1.6h17
									c0.9,0,1.6,0.8,1.6,1.6v17C1089.8,142.1,1089,142.8,1088.2,142.8z M1072.8,139.7h13.8v-13.9h-13.8V139.7z"/>
							</g>
							<g id="XMLID_307_">
								<rect id="XMLID_311_" x="1071.2" y="142.2" class="st12" width="17" height="17"/>
								<path id="XMLID_308_" class="st9" d="M1088.2,160.8h-17c-0.9,0-1.6-0.8-1.6-1.6v-17c0-0.9,0.8-1.6,1.6-1.6h17
									c0.9,0,1.6,0.8,1.6,1.6v17C1089.8,160.1,1089,160.8,1088.2,160.8z M1072.8,157.7h13.8v-13.8h-13.8V157.7z"/>
							</g>
							<g id="XMLID_302_">
								<rect id="XMLID_306_" x="1071.2" y="160.4" class="st12" width="17" height="17"/>
								<path id="XMLID_303_" class="st9" d="M1088.2,178.9h-17c-0.9,0-1.6-0.8-1.6-1.6v-17c0-0.9,0.8-1.6,1.6-1.6h17
									c0.9,0,1.6,0.8,1.6,1.6v17C1089.8,178.2,1089,178.9,1088.2,178.9z M1072.8,175.7h13.8v-13.8h-13.8V175.7z"/>
							</g>
							<g id="XMLID_297_">
								<rect id="XMLID_301_" x="1071.2" y="178.4" class="st12" width="17" height="17"/>
								<path id="XMLID_298_" class="st9" d="M1088.2,197h-17c-0.9,0-1.6-0.8-1.6-1.6v-17c0-0.9,0.8-1.6,1.6-1.6h17
									c0.9,0,1.6,0.8,1.6,1.6v17C1089.8,196.2,1089,197,1088.2,197z M1072.8,193.8h13.8V180h-13.8V193.8z"/>
							</g>
							<g id="XMLID_287_">
								<rect id="XMLID_291_" x="1071.2" y="196.4" class="st12" width="17" height="17"/>
								<path id="XMLID_288_" class="st9" d="M1088.2,215h-17c-0.9,0-1.6-0.8-1.6-1.6v-17c0-0.9,0.8-1.6,1.6-1.6h17
									c0.9,0,1.6,0.8,1.6,1.6v17C1089.8,214.3,1089,215,1088.2,215z M1072.8,211.8h13.8V198h-13.8V211.8z"/>
							</g>
							<g id="XMLID_282_">
								<rect id="XMLID_286_" x="1071.2" y="214.5" class="st12" width="17" height="17"/>
								<path id="XMLID_283_" class="st9" d="M1088.2,233.1h-17c-0.9,0-1.6-0.8-1.6-1.6v-17c0-0.9,0.8-1.6,1.6-1.6h17
									c0.9,0,1.6,0.8,1.6,1.6v17C1089.8,232.3,1089,233.1,1088.2,233.1z M1072.8,229.9h13.8v-13.8h-13.8V229.9z"/>
							</g>
						</g>
					</g>
					<g id="XMLID_167_">
						<g id="XMLID_184_">
							<g id="XMLID_185_">
								<g id="XMLID_197_">
									<path id="XMLID_201_" class="st12" d="M1013.5,199.6c2,3.1,0,8.1-4.6,11c-4.5,2.8-9.7,2.6-11.8-0.8c-2-3.1,0-8.1,4.5-11
										C1006.1,196.1,1011.5,196.4,1013.5,199.6z"/>
									<path id="XMLID_198_" class="st9" d="M1002.6,214.1c-3,0-5.5-1.2-6.8-3.4c-2.6-4-0.3-9.7,5-13.1c2.2-1.3,4.8-2.1,7.2-2.1
										c3,0,5.5,1.2,6.8,3.4c2.6,3.9,0.3,9.7-5,13.1C1007.6,213.3,1005,214.1,1002.6,214.1z M1007.9,198.6c-1.8,0-3.7,0.7-5.4,1.7
										c-3.7,2.4-5.5,6.3-4,8.7c0.8,1.1,2.2,1.9,4.1,1.9c1.8,0,3.7-0.7,5.4-1.7c3.7-2.4,5.5-6.3,4-8.7
										C1011.4,199.3,1009.9,198.6,1007.9,198.6z"/>
								</g>
								<g id="XMLID_186_">
									<line id="XMLID_196_" class="st14" x1="1013.9" y1="158.8" x2="1013.9" y2="200.1"/>
									<path id="XMLID_195_" class="st9" d="M1013.9,201.8c-0.9,0-1.6-0.8-1.6-1.6v-41.4c0-0.9,0.8-1.6,1.6-1.6s1.6,0.8,1.6,1.6
										v41.4C1015.5,201,1014.7,201.8,1013.9,201.8z"/>
								</g>
							</g>
						</g>
						<g id="XMLID_174_">
							<g id="XMLID_175_">
								<g id="XMLID_179_">
									<path id="XMLID_183_" class="st12" d="M1051.7,188.6c2,3.1,0,8.1-4.6,10.9c-4.5,2.8-9.7,2.6-11.8-0.8
										c-2-3.1,0-8.1,4.6-10.9C1044.4,185.1,1049.6,185.3,1051.7,188.6z"/>
									<path id="XMLID_180_" class="st9" d="M1040.9,202.9c-3,0-5.5-1.2-6.8-3.4c-1.2-2-1.3-4.5-0.3-7.1c1-2.4,2.9-4.5,5.3-6
										c2.2-1.3,4.8-2.2,7.2-2.2c3,0,5.5,1.2,6.8,3.4c1.2,2,1.3,4.5,0.3,7.1c-1,2.4-2.9,4.5-5.3,6S1043.1,202.9,1040.9,202.9z
										 M1046.2,187.6c-1.8,0-3.7,0.7-5.4,1.7c-1.9,1.1-3.4,2.8-4,4.6c-0.7,1.6-0.7,3.1,0,4.1c0.8,1.1,2.2,1.9,4.1,1.9
										c1.8,0,3.7-0.7,5.4-1.7c1.9-1.1,3.4-2.8,4-4.6c0.7-1.6,0.7-3.1-0.1-4.1C1049.5,188.1,1048.1,187.6,1046.2,187.6z"/>
								</g>
								<g id="XMLID_176_">
									<line id="XMLID_178_" class="st14" x1="1052.1" y1="147" x2="1052.1" y2="189.6"/>
									<path id="XMLID_177_" class="st9" d="M1052.1,191.1c-0.9,0-1.6-0.8-1.6-1.6V147c0-0.9,0.8-1.6,1.6-1.6
										c0.8,0,1.6,0.8,1.6,1.6v42.4C1053.7,190.3,1053,191.1,1052.1,191.1z"/>
								</g>
							</g>
						</g>
						<g id="XMLID_171_">
							<polyline id="XMLID_173_" class="st12" points="1014,158 1052.1,143.2 1052.1,149.2 							"/>
							<path id="XMLID_172_" class="st9" d="M1014,159.6c-0.7,0-1.2-0.4-1.5-1c-0.3-0.9,0.1-1.7,1-2l38.2-14.8
								c0.6-0.2,1-0.1,1.5,0.2c0.4,0.3,0.8,0.8,0.8,1.2v5.9c0,0.9-0.8,1.6-1.6,1.6c-0.8,0-1.6-0.8-1.6-1.6v-3.6l-36.4,13.9
								C1014.3,159.6,1014.2,159.6,1014,159.6z"/>
						</g>
						<g id="XMLID_168_">
							<polyline id="XMLID_170_" class="st12" points="1014,168.3 1052.1,154.5 1052.1,159.8 							"/>
							<path id="XMLID_169_" class="st9" d="M1014,169.9c-0.7,0-1.2-0.4-1.5-1c-0.3-0.9,0.1-1.7,1-2l38.2-13.8
								c0.6-0.2,1-0.1,1.5,0.2c0.4,0.3,0.7,0.8,0.7,1.2v5.3c0,0.9-0.8,1.6-1.6,1.6c-0.8,0-1.6-0.8-1.6-1.6v-3l-36.3,13
								C1014.3,169.9,1014.2,169.9,1014,169.9z"/>
						</g>
					</g>
				</g>
				<g id="XMLID_75_">
					<g id="XMLID_161_">
						<path id="XMLID_165_" class="st9" d="M1000.2,182.9c1.2,0,2.4,1,2.4,2.4c0,1.3-1,2.4-2.4,2.4s-2.4-1-2.4-2.4
							C997.7,183.9,998.8,182.9,1000.2,182.9z"/>
						<path id="XMLID_162_" class="st9" d="M1000.2,188c-1.6,0-2.9-1.2-2.9-2.9s1.2-2.9,2.9-2.9s2.9,1.2,2.9,2.9
							C1003.1,186.8,1001.7,188,1000.2,188z M1000.2,183.4c-1,0-1.8,0.9-1.8,1.8c0,1,0.9,1.8,1.8,1.8c0.9,0,1.8-0.9,1.8-1.8
							C1002,184.2,1001.2,183.4,1000.2,183.4z"/>
					</g>
					<g id="XMLID_81_">
						<path id="XMLID_160_" class="st9" d="M1000.2,166.4c1.2,0,2.4,1,2.4,2.4c0,1.3-1,2.5-2.4,2.5s-2.4-1-2.4-2.5
							C997.7,167.3,998.8,166.4,1000.2,166.4z"/>
						<path id="XMLID_148_" class="st9" d="M1000.2,171.5c-1.6,0-2.9-1.2-2.9-3c0-1.6,1.2-2.9,2.9-2.9s2.9,1.2,2.9,2.9
							C1003.1,170.3,1001.7,171.5,1000.2,171.5z M1000.2,167c-1,0-1.8,0.9-1.8,1.8c0,1,0.9,1.9,1.8,1.9c0.9,0,1.8-0.9,1.8-1.9
							S1001.2,167,1000.2,167z"/>
					</g>
					<g id="XMLID_76_">
						<path id="XMLID_80_" class="st9" d="M1000.2,149.8c1.2,0,2.4,1,2.4,2.4c0,1.2-1,2.4-2.4,2.4s-2.4-1-2.4-2.4
							C997.7,150.8,998.8,149.8,1000.2,149.8z"/>
						<path id="XMLID_77_" class="st9" d="M1000.2,155.1c-1.6,0-2.9-1.2-2.9-2.9c0-1.6,1.2-2.9,2.9-2.9s2.9,1.2,2.9,2.9
							C1003.1,153.8,1001.7,155.1,1000.2,155.1z M1000.2,150.4c-1,0-1.8,0.8-1.8,1.8s0.9,1.8,1.8,1.8c0.9,0,1.8-0.9,1.8-1.8
							C1002,151.3,1001.2,150.4,1000.2,150.4z"/>
					</g>
				</g>
			</g>
		</g>
	</g>
</g>
</svg>
