<?xml version="1.0" encoding="utf-8"?>
<!-- Generator: Adobe Illustrator 19.0.0, SVG Export Plug-In . SVG Version: 6.00 Build 0)  -->
<svg version="1.1" id="Layer_1" xmlns="http://www.w3.org/2000/svg" xmlns:xlink="http://www.w3.org/1999/xlink" x="0px" y="0px"
	 viewBox="-35 37 128 128" style="enable-background:new -35 37 128 128;" xml:space="preserve">
<style type="text/css">
	.st0{fill:#FFAB00;}
	.st1{fill:#37474F;}
	.st2{fill:#FFECB3;}
	.st3{fill:none;}
	.st4{fill:#FFFFFF;}
</style>
<g id="Layer_1_1_">
	<g>
		<g>
			<g>
				<rect x="-22.2" y="53.1" class="st0" width="102.5" height="95.8"/>
				<path class="st1" d="M80.2,150.4H-22.2c-0.8,0-1.4-0.7-1.4-1.4V53.1c0-0.8,0.7-1.4,1.4-1.4H80.2c0.8,0,1.4,0.7,1.4,1.4v95.8
					C81.7,149.6,81,150.4,80.2,150.4z M-20.8,147.5h99.6v-93h-99.6V147.5z"/>
			</g>
			<g>
				<g>
					<g>
						<rect x="-27.9" y="53.1" class="st2" width="15.2" height="15.2"/>
						<path class="st1" d="M-12.7,69.7h-15.2c-0.8,0-1.4-0.7-1.4-1.4V53.1c0-0.8,0.7-1.4,1.4-1.4h15.2c0.8,0,1.4,0.7,1.4,1.4v15.2
							C-11.3,69.1-11.9,69.7-12.7,69.7z M-26.5,66.8h12.3V54.5h-12.3V66.8z"/>
					</g>
					<g>
						<rect x="-27.9" y="69.2" class="st2" width="15.2" height="15.2"/>
						<path class="st1" d="M-12.7,85.8h-15.2c-0.8,0-1.4-0.7-1.4-1.4V69.2c0-0.8,0.7-1.4,1.4-1.4h15.2c0.8,0,1.4,0.7,1.4,1.4v15.2
							C-11.3,85.2-11.9,85.8-12.7,85.8z M-26.5,83h12.3V70.7h-12.3V83z"/>
					</g>
					<g>
						<rect x="-27.9" y="85.3" class="st2" width="15.2" height="15.2"/>
						<path class="st1" d="M-12.7,102h-15.2c-0.8,0-1.4-0.7-1.4-1.4V85.3c0-0.8,0.7-1.4,1.4-1.4h15.2c0.8,0,1.4,0.7,1.4,1.4v15.2
							C-11.3,101.2-11.9,102-12.7,102z M-26.5,99.1h12.3V86.8h-12.3V99.1z"/>
					</g>
					<g>
						<rect x="-27.9" y="101.5" class="st2" width="15.2" height="15.2"/>
						<path class="st1" d="M-12.7,118.1h-15.2c-0.8,0-1.4-0.7-1.4-1.4v-15.2c0-0.8,0.7-1.4,1.4-1.4h15.2c0.8,0,1.4,0.7,1.4,1.4v15.2
							C-11.3,117.3-11.9,118.1-12.7,118.1z M-26.5,115.2h12.3v-12.3h-12.3V115.2z"/>
					</g>
					<g>
						<rect x="-27.9" y="117.6" class="st2" width="15.2" height="15.2"/>
						<path class="st1" d="M-12.7,134.1h-15.2c-0.8,0-1.4-0.7-1.4-1.4v-15.2c0-0.8,0.7-1.4,1.4-1.4h15.2c0.8,0,1.4,0.7,1.4,1.4v15.2
							C-11.3,133.5-11.9,134.1-12.7,134.1z M-26.5,131.4h12.3V119h-12.3V131.4z"/>
					</g>
					<g>
						<rect x="-27.9" y="133.8" class="st2" width="15.2" height="15.2"/>
						<path class="st1" d="M-12.7,150.4h-15.2c-0.8,0-1.4-0.7-1.4-1.4v-15.2c0-0.8,0.7-1.4,1.4-1.4h15.2c0.8,0,1.4,0.7,1.4,1.4V149
							C-11.3,149.6-11.9,150.4-12.7,150.4z M-26.5,147.5h12.3v-12.3h-12.3V147.5z"/>
					</g>
				</g>
				<g>
					<g>
						<rect x="70.8" y="53.1" class="st2" width="15.2" height="15.2"/>
						<path class="st1" d="M86,69.7H70.8c-0.8,0-1.4-0.7-1.4-1.4V53.1c0-0.8,0.7-1.4,1.4-1.4h15.2c0.8,0,1.4,0.7,1.4,1.4v15.2
							C87.3,69.1,86.7,69.7,86,69.7z M72.2,66.8h12.3V54.5H72.2V66.8z"/>
					</g>
					<g>
						<rect x="70.8" y="69.2" class="st2" width="15.2" height="15.2"/>
						<path class="st1" d="M86,85.8H70.8c-0.8,0-1.4-0.7-1.4-1.4V69.2c0-0.8,0.7-1.4,1.4-1.4h15.2c0.8,0,1.4,0.7,1.4,1.4v15.2
							C87.3,85.2,86.7,85.8,86,85.8z M72.2,83h12.3V70.7H72.2V83z"/>
					</g>
					<g>
						<rect x="70.8" y="85.3" class="st2" width="15.2" height="15.2"/>
						<path class="st1" d="M86,102H70.8c-0.8,0-1.4-0.7-1.4-1.4V85.3c0-0.8,0.7-1.4,1.4-1.4h15.2c0.8,0,1.4,0.7,1.4,1.4v15.2
							C87.3,101.2,86.7,102,86,102z M72.2,99.1h12.3V86.8H72.2V99.1z"/>
					</g>
					<g>
						<rect x="70.8" y="101.5" class="st2" width="15.2" height="15.2"/>
						<path class="st1" d="M86,118.1H70.8c-0.8,0-1.4-0.7-1.4-1.4v-15.2c0-0.8,0.7-1.4,1.4-1.4h15.2c0.8,0,1.4,0.7,1.4,1.4v15.2
							C87.3,117.3,86.7,118.1,86,118.1z M72.2,115.2h12.3v-12.3H72.2V115.2z"/>
					</g>
					<g>
						<rect x="70.8" y="117.6" class="st2" width="15.2" height="15.2"/>
						<path class="st1" d="M86,134.1H70.8c-0.8,0-1.4-0.7-1.4-1.4v-15.2c0-0.8,0.7-1.4,1.4-1.4h15.2c0.8,0,1.4,0.7,1.4,1.4v15.2
							C87.3,133.5,86.7,134.1,86,134.1z M72.2,131.4h12.3V119H72.2V131.4z"/>
					</g>
					<g>
						<rect x="70.8" y="133.8" class="st2" width="15.2" height="15.2"/>
						<path class="st1" d="M86,150.4H70.8c-0.8,0-1.4-0.7-1.4-1.4v-15.2c0-0.8,0.7-1.4,1.4-1.4h15.2c0.8,0,1.4,0.7,1.4,1.4V149
							C87.3,149.6,86.7,150.4,86,150.4z M72.2,147.5h12.3v-12.3H72.2V147.5z"/>
					</g>
				</g>
			</g>
			<g>
				<g>
					<g>
						<g>
							<path class="st2" d="M19.2,120.5c1.8,2.8,0,7.2-4.1,9.8c-4,2.5-8.7,2.3-10.5-0.7c-1.8-2.8,0-7.2,4-9.8
								C12.6,117.2,17.4,117.6,19.2,120.5z"/>
							<path class="st1" d="M9.5,133.4c-2.7,0-4.9-1.1-6.1-3c-2.3-3.6-0.3-8.7,4.5-11.7c2-1.2,4.3-1.9,6.4-1.9c2.7,0,4.9,1.1,6.1,3
								c2.3,3.5,0.3,8.7-4.5,11.7C13.9,132.6,11.6,133.4,9.5,133.4z M14.2,119.6c-1.6,0-3.3,0.6-4.8,1.5c-3.3,2.1-4.9,5.6-3.6,7.8
								c0.7,1,2,1.7,3.7,1.7c1.6,0,3.3-0.6,4.8-1.5c3.3-2.1,4.9-5.6,3.6-7.8C17.3,120.2,16,119.6,14.2,119.6z"/>
						</g>
						<g>
							<line class="st3" x1="19.6" y1="84" x2="19.6" y2="120.8"/>
							<path class="st1" d="M19.6,122.3c-0.8,0-1.4-0.7-1.4-1.4v-37c0-0.8,0.7-1.4,1.4-1.4s1.4,0.7,1.4,1.4v37
								C21,121.7,20.3,122.3,19.6,122.3z"/>
						</g>
					</g>
				</g>
				<g>
					<g>
						<g>
							<path class="st2" d="M53.2,110.6c1.8,2.8,0,7.2-4.1,9.7c-4,2.5-8.7,2.3-10.5-0.7c-1.8-2.8,0-7.2,4.1-9.7
								C46.8,107.5,51.5,107.7,53.2,110.6z"/>
							<path class="st1" d="M43.7,123.3c-2.7,0-4.9-1.1-6.1-3c-1.1-1.8-1.2-4-0.3-6.3c0.9-2.1,2.6-4,4.7-5.4c2-1.2,4.3-2,6.4-2
								c2.7,0,4.9,1.1,6.1,3c1.1,1.8,1.2,4,0.3,6.3c-0.9,2.1-2.6,4-4.7,5.4C48,122.8,45.7,123.3,43.7,123.3z M48.4,109.7
								c-1.6,0-3.3,0.6-4.8,1.5c-1.7,1-3,2.5-3.6,4.1c-0.6,1.4-0.6,2.8,0,3.7c0.7,1,2,1.7,3.7,1.7c1.6,0,3.3-0.6,4.8-1.5
								c1.7-1,3-2.5,3.6-4.1c0.6-1.4,0.6-2.8-0.1-3.7C51.4,110.2,50.1,109.7,48.4,109.7z"/>
						</g>
						<g>
							<line class="st3" x1="53.7" y1="73.5" x2="53.7" y2="111.5"/>
							<path class="st1" d="M53.7,112.8c-0.8,0-1.4-0.7-1.4-1.4v-38c0-0.8,0.7-1.4,1.4-1.4s1.4,0.7,1.4,1.4v37.9
								C55.1,112.2,54.5,112.8,53.7,112.8z"/>
						</g>
					</g>
				</g>
				<g>
					<polyline class="st2" points="19.7,83.2 53.7,70.1 53.7,75.3 					"/>
					<path class="st1" d="M19.7,84.7c-0.6,0-1.1-0.4-1.3-0.9c-0.3-0.8,0.1-1.5,0.9-1.8l34.1-13.2c0.5-0.2,0.9-0.1,1.3,0.2
						c0.4,0.3,0.7,0.7,0.7,1.1v5.3c0,0.8-0.7,1.4-1.4,1.4s-1.4-0.7-1.4-1.4v-3.2L20.1,84.6C19.9,84.7,19.8,84.7,19.7,84.7z"/>
				</g>
				<g>
					<polyline class="st2" points="19.7,92.5 53.7,80.2 53.7,84.8 					"/>
					<path class="st1" d="M19.7,93.8c-0.6,0-1.1-0.4-1.3-0.9c-0.3-0.8,0.1-1.5,0.9-1.8l34.1-12.3c0.5-0.2,0.9-0.1,1.3,0.2
						c0.4,0.3,0.6,0.7,0.6,1.1v4.7c0,0.8-0.7,1.4-1.4,1.4s-1.4-0.7-1.4-1.4v-2.7L20.1,93.8C19.9,93.8,19.8,93.8,19.7,93.8z"/>
				</g>
			</g>
		</g>
		<g>
			<g>
				<path class="st1" d="M7.3,105.5c1.1,0,2.1,0.9,2.1,2.1s-0.9,2.1-2.1,2.1s-2.1-0.9-2.1-2.1C5.1,106.3,6.1,105.5,7.3,105.5z"/>
				<path class="st1" d="M7.3,110.1c-1.4,0-2.6-1.1-2.6-2.6s1.1-2.6,2.6-2.6s2.6,1.1,2.6,2.6S8.7,110.1,7.3,110.1z M7.3,106
					c-0.9,0-1.6,0.8-1.6,1.6c0,0.9,0.8,1.6,1.6,1.6s1.6-0.8,1.6-1.6C8.9,106.7,8.2,106,7.3,106z"/>
			</g>
			<g>
				<path class="st1" d="M7.3,90.8c1.1,0,2.1,0.9,2.1,2.1S8.5,95,7.3,95s-2.1-0.9-2.1-2.2C5.1,91.6,6.1,90.8,7.3,90.8z"/>
				<path class="st1" d="M7.3,95.3c-1.4,0-2.6-1.1-2.6-2.7c0-1.4,1.1-2.6,2.6-2.6s2.6,1.1,2.6,2.6C9.9,94.2,8.7,95.3,7.3,95.3z
					 M7.3,91.2c-0.9,0-1.6,0.8-1.6,1.6c0,0.9,0.8,1.7,1.6,1.7s1.6-0.8,1.6-1.7S8.2,91.2,7.3,91.2z"/>
			</g>
			<g>
				<path class="st1" d="M7.3,76c1.1,0,2.1,0.9,2.1,2.1c0,1.1-0.9,2.1-2.1,2.1s-2.1-0.9-2.1-2.1C5.1,76.8,6.1,76,7.3,76z"/>
				<path class="st1" d="M7.3,80.7c-1.4,0-2.6-1.1-2.6-2.6c0-1.4,1.1-2.6,2.6-2.6s2.6,1.1,2.6,2.6C9.9,79.5,8.7,80.7,7.3,80.7z
					 M7.3,76.5c-0.9,0-1.6,0.7-1.6,1.6s0.8,1.6,1.6,1.6s1.6-0.8,1.6-1.6S8.2,76.5,7.3,76.5z"/>
			</g>
		</g>
	</g>
</g>
<g id="Layer_3_1_">
	<g id="Layer_2_1_">
		<g>
			<g>
				<path class="st4" d="M91.8,150.7c0,3.5-3,6.1-6.5,6.1H28.7c-3.5,0-6.5-2.6-6.5-6.1v-4.2c0-3.5,3-6.3,6.5-6.3h56.6
					c3.5,0,6.5,2.8,6.5,6.3V150.7z"/>
			</g>
			<g>
				<path class="st1" d="M85.3,158H28.7c-4.2,0-7.7-3.3-7.7-7.3v-4.2c0-4.2,3.5-7.5,7.7-7.5h56.6c4.2,0,7.7,3.5,7.7,7.5v4.2
					C93,154.7,89.5,158,85.3,158z M28.7,141.3c-2.9,0-5.3,2.3-5.3,5.1v4.2c0,2.7,2.4,4.9,5.3,4.9h56.6c3,0,5.4-2.2,5.4-4.9v-4.2
					c0-2.8-2.4-5.1-5.4-5.1H28.7z"/>
			</g>
		</g>
		<g>
			<g>
				<g>
					<circle class="st2" cx="82.1" cy="148.2" r="3.6"/>
				</g>
				<g>
					<path class="st1" d="M82.1,153c-1.2,0-2.5-0.5-3.4-1.4c-1.8-1.8-1.8-4.9,0-6.7c0.9-0.9,2.1-1.4,3.4-1.4s2.5,0.5,3.4,1.4
						c1.8,1.8,1.8,4.9,0,6.7C84.6,152.4,83.4,153,82.1,153z M82.1,145.8c-0.7,0-1.2,0.2-1.7,0.7c-1,1-1,2.4,0,3.4
						c0.5,0.5,1.1,0.7,1.7,0.7c0.7,0,1.2-0.2,1.7-0.7c1-1,1-2.4,0-3.4C83.4,146,82.8,145.8,82.1,145.8z"/>
				</g>
			</g>
			<g>
				<g>
					<path class="st1" d="M86.3,153.7c-0.3,0-0.6-0.1-0.8-0.4l-1.5-1.5c-0.5-0.5-0.5-1.2,0-1.7s1.2-0.5,1.7,0l1.5,1.5
						c0.5,0.5,0.5,1.2,0,1.7C86.9,153.6,86.6,153.7,86.3,153.7z"/>
				</g>
			</g>
		</g>
		<g>
			<g>
				<polyline class="st2" points="29.4,144.8 33.3,148.5 29.4,152.3 				"/>
			</g>
			<g>
				<path class="st1" d="M29.4,153.5c-0.3,0-0.6-0.1-0.8-0.4c-0.5-0.5-0.5-1.2,0-1.7l2.9-3l-2.9-2.9c-0.5-0.5-0.5-1.2,0-1.7
					s1.2-0.5,1.7,0l3.8,3.8c0.2,0.2,0.4,0.5,0.4,0.8s-0.1,0.6-0.4,0.8l-3.8,3.8C30.1,153.4,29.8,153.5,29.4,153.5z"/>
			</g>
		</g>
	</g>
</g>
</svg>
