<?xml version="1.0" encoding="utf-8"?>
<!-- Generator: Adobe Illustrator 20.0.0, SVG Export Plug-In . SVG Version: 6.00 Build 0)  -->
<svg version="1.1" id="Layer_1" xmlns="http://www.w3.org/2000/svg" xmlns:xlink="http://www.w3.org/1999/xlink" x="0px" y="0px"
	 viewBox="0 0 128 128" style="enable-background:new 0 0 128 128;" xml:space="preserve">
<style type="text/css">
	.st0{fill:#FFFFFF;}
	.st1{fill:#37474F;}
	.st2{fill:#FFECB3;}
</style>
<g id="Layer_1_1_">
	<g id="Layer_3">
		<g>
			<g id="Layer_2_2_">
				<g>
					<g>
						<path class="st0" d="M107,57.8c0,5.2-4.6,9.2-9.8,9.2H11.9c-5.2,0-9.8-4-9.8-9.2v-6.4c0-5.2,4.6-9.4,9.8-9.4h85.3
							c5.2,0,9.8,4.2,9.8,9.4V57.8z"/>
					</g>
					<g>
						<path class="st1" d="M97.1,68.8H11.8c-6.4,0-11.6-5-11.6-11v-6.4c0-6.4,5.2-11.2,11.6-11.2h85.3c6.4,0,11.6,5.2,11.6,11.2v6.4
							C108.8,63.8,103.6,68.8,97.1,68.8z M11.8,43.5c-4.4,0-8,3.4-8,7.6v6.4c0,4,3.6,7.4,8,7.4h85.3c4.6,0,8.2-3.4,8.2-7.4v-6.4
							c0-4.2-3.6-7.6-8.2-7.6H11.8z"/>
					</g>
				</g>
			</g>
			<polygon class="st1" points="104.2,65 87.5,67 87.5,43.5 104.4,43.5 107.6,55.2 			"/>
			<g>
				<g>
					<path class="st0" d="M91.3,52.8c0-0.4,0.2-0.8,0.4-1c0.6-0.6,1.4-0.6,2,0l3.6,3.6l3.6-3.6c0.6-0.6,1.4-0.6,2,0s0.6,1.4,0,2
						l-4.6,4.6c-0.2,0.2-0.6,0.4-1,0.4s-0.8-0.2-1-0.4l-4.6-4.6C91.3,53.6,91.3,53.2,91.3,52.8z"/>
				</g>
			</g>
		</g>
	</g>
</g>
<g id="Layer_2">
	<g id="Layer_3_1_">
		<g id="Layer_2_1_">
			<g>
				<g>
					<path class="st0" d="M126.4,78.8c0,5.3-4.5,9.2-9.8,9.2H31.2c-5.3,0-9.8-3.9-9.8-9.2v-6.3c0-5.3,4.5-9.5,9.8-9.5h85.3
						c5.3,0,9.8,4.2,9.8,9.5L126.4,78.8L126.4,78.8z"/>
				</g>
				<g>
					<path class="st1" d="M116.6,89.8H31.2c-6.3,0-11.6-5-11.6-11v-6.3c0-6.3,5.3-11.3,11.6-11.3h85.3c6.3,0,11.6,5.3,11.6,11.3v6.3
						C128.2,84.8,122.9,89.8,116.6,89.8z M31.2,64.5c-4.4,0-8,3.5-8,7.7v6.3c0,4.1,3.6,7.4,8,7.4h85.3c4.5,0,8.1-3.3,8.1-7.4v-6.3
						c0-4.2-3.6-7.7-8.1-7.7H31.2z"/>
				</g>
			</g>
			<g>
				<g>
					<g>
						<circle class="st2" cx="111.8" cy="74.9" r="5.4"/>
					</g>
					<g>
						<path class="st1" d="M111.8,82.1c-1.8,0-3.8-0.8-5.1-2.1c-2.7-2.7-2.7-7.4,0-10.1c1.4-1.4,3.2-2.1,5.1-2.1s3.8,0.8,5.1,2.1
							c2.7,2.7,2.7,7.4,0,10.1C115.5,81.2,113.7,82.1,111.8,82.1z M111.8,71.3c-1.1,0-1.8,0.3-2.6,1.1c-1.5,1.5-1.5,3.6,0,5.1
							c0.8,0.8,1.7,1.1,2.6,1.1c1.1,0,1.8-0.3,2.6-1.1c1.5-1.5,1.5-3.6,0-5.1C113.7,71.6,112.8,71.3,111.8,71.3z"/>
					</g>
				</g>
				<g>
					<g>
						<path class="st1" d="M118.1,83.2c-0.5,0-0.9-0.2-1.2-0.6l-2.3-2.3c-0.8-0.8-0.8-1.8,0-2.6c0.8-0.8,1.8-0.8,2.6,0l2.3,2.3
							c0.8,0.8,0.8,1.8,0,2.6C119,83,118.5,83.2,118.1,83.2z"/>
					</g>
				</g>
			</g>
			<g>
				<g>
					<polyline class="st2" points="32.3,69.8 38.2,75.3 32.3,81.1 					"/>
				</g>
				<g>
					<path class="st1" d="M32.3,82.9c-0.5,0-0.9-0.2-1.2-0.6c-0.8-0.8-0.8-1.8,0-2.6l4.4-4.5l-4.4-4.4c-0.8-0.8-0.8-1.8,0-2.6
						c0.8-0.8,1.8-0.8,2.6,0l5.7,5.7c0.3,0.3,0.6,0.8,0.6,1.2c0,0.5-0.2,0.9-0.6,1.2L33.7,82C33.4,82.8,32.9,82.9,32.3,82.9z"/>
				</g>
			</g>
		</g>
	</g>
</g>
</svg>
