<?xml version="1.0" encoding="utf-8"?>
<!-- Generator: Adobe Illustrator 20.0.0, SVG Export Plug-In . SVG Version: 6.00 Build 0)  -->
<svg version="1.1" id="Layer_1" xmlns="http://www.w3.org/2000/svg" xmlns:xlink="http://www.w3.org/1999/xlink" x="0px" y="0px"
	 viewBox="0 0 130 130" style="enable-background:new 0 0 130 130;" xml:space="preserve">
<style type="text/css">
	.st0{fill:#FFAB00;}
	.st1{fill:#37474F;}
	.st2{fill:#FFECB3;}
	.st3{fill:none;}
	.st4{fill:#FFFFFF;}
</style>
<g id="Layer_3">
	<g>
		<g id="Layer_1_2_">
			<g>
				<g>
					<g>
						<rect x="8.6" y="17.3" class="st0" width="102.5" height="95.8"/>
						<path class="st1" d="M111.1,114.7H8.6c-0.8,0-1.4-0.7-1.4-1.4V17.3c0-0.8,0.7-1.4,1.4-1.4h102.5c0.8,0,1.4,0.7,1.4,1.4v95.8
							C112.5,114,111.8,114.7,111.1,114.7z M10,111.8h99.6v-93H10V111.8z"/>
					</g>
					<g>
						<g>
							<g>
								<rect x="2.9" y="17.3" class="st2" width="15.2" height="15.2"/>
								<path class="st1" d="M18.1,34H2.9c-0.8,0-1.4-0.7-1.4-1.4V17.3c0-0.8,0.7-1.4,1.4-1.4h15.2c0.8,0,1.4,0.7,1.4,1.4v15.2
									C19.5,33.3,18.9,34,18.1,34z M4.3,31.1h12.3V18.7H4.3V31.1z"/>
							</g>
							<g>
								<rect x="2.9" y="33.5" class="st2" width="15.2" height="15.2"/>
								<path class="st1" d="M18.1,50.1H2.9c-0.8,0-1.4-0.7-1.4-1.4V33.5c0-0.8,0.7-1.4,1.4-1.4h15.2c0.8,0,1.4,0.7,1.4,1.4v15.2
									C19.5,49.5,18.9,50.1,18.1,50.1z M4.3,47.2h12.3V35H4.3V47.2z"/>
							</g>
							<g>
								<rect x="2.9" y="49.7" class="st2" width="15.2" height="15.2"/>
								<path class="st1" d="M18.1,66.2H2.9c-0.8,0-1.4-0.7-1.4-1.4V49.7c0-0.8,0.7-1.4,1.4-1.4h15.2c0.8,0,1.4,0.7,1.4,1.4v15.2
									C19.5,65.6,18.9,66.2,18.1,66.2z M4.3,63.3h12.3V51H4.3V63.3z"/>
							</g>
							<g>
								<rect x="2.9" y="65.8" class="st2" width="15.2" height="15.2"/>
								<path class="st1" d="M18.1,82.3H2.9c-0.8,0-1.4-0.7-1.4-1.4V65.8c0-0.8,0.7-1.4,1.4-1.4h15.2c0.8,0,1.4,0.7,1.4,1.4V81
									C19.5,81.7,18.9,82.3,18.1,82.3z M4.3,79.5h12.3V67.2H4.3V79.5z"/>
							</g>
							<g>
								<rect x="2.9" y="81.8" class="st2" width="15.2" height="15.2"/>
								<path class="st1" d="M18.1,98.5H2.9c-0.8,0-1.4-0.7-1.4-1.4V81.9c0-0.8,0.7-1.4,1.4-1.4h15.2c0.8,0,1.4,0.7,1.4,1.4v15.2
									C19.5,97.8,18.9,98.5,18.1,98.5z M4.3,95.7h12.3V83.3H4.3V95.7z"/>
							</g>
							<g>
								<rect x="2.9" y="98" class="st2" width="15.2" height="15.2"/>
								<path class="st1" d="M18.1,114.7H2.9c-0.8,0-1.4-0.7-1.4-1.4V98.1c0-0.8,0.7-1.4,1.4-1.4h15.2c0.8,0,1.4,0.7,1.4,1.4v15.2
									C19.5,114,18.9,114.7,18.1,114.7z M4.3,111.8h12.3V99.5H4.3V111.8z"/>
							</g>
						</g>
						<g>
							<g>
								<rect x="101.6" y="17.3" class="st2" width="15.2" height="15.2"/>
								<path class="st1" d="M116.8,34h-15.2c-0.8,0-1.4-0.7-1.4-1.4V17.3c0-0.8,0.7-1.4,1.4-1.4h15.2c0.8,0,1.4,0.7,1.4,1.4v15.2
									C118.2,33.3,117.5,34,116.8,34z M103,31.1h12.3V18.7H103V31.1z"/>
							</g>
							<g>
								<rect x="101.6" y="33.5" class="st2" width="15.2" height="15.2"/>
								<path class="st1" d="M116.8,50.1h-15.2c-0.8,0-1.4-0.7-1.4-1.4V33.5c0-0.8,0.7-1.4,1.4-1.4h15.2c0.8,0,1.4,0.7,1.4,1.4v15.2
									C118.2,49.5,117.5,50.1,116.8,50.1z M103,47.2h12.3V35H103V47.2z"/>
							</g>
							<g>
								<rect x="101.6" y="49.7" class="st2" width="15.2" height="15.2"/>
								<path class="st1" d="M116.8,66.2h-15.2c-0.8,0-1.4-0.7-1.4-1.4V49.7c0-0.8,0.7-1.4,1.4-1.4h15.2c0.8,0,1.4,0.7,1.4,1.4v15.2
									C118.2,65.6,117.5,66.2,116.8,66.2z M103,63.3h12.3V51H103V63.3z"/>
							</g>
							<g>
								<rect x="101.6" y="65.8" class="st2" width="15.2" height="15.2"/>
								<path class="st1" d="M116.8,82.3h-15.2c-0.8,0-1.4-0.7-1.4-1.4V65.8c0-0.8,0.7-1.4,1.4-1.4h15.2c0.8,0,1.4,0.7,1.4,1.4V81
									C118.2,81.7,117.5,82.3,116.8,82.3z M103,79.5h12.3V67.2H103V79.5z"/>
							</g>
							<g>
								<rect x="101.6" y="81.8" class="st2" width="15.2" height="15.2"/>
								<path class="st1" d="M116.8,98.5h-15.2c-0.8,0-1.4-0.7-1.4-1.4V81.9c0-0.8,0.7-1.4,1.4-1.4h15.2c0.8,0,1.4,0.7,1.4,1.4v15.2
									C118.2,97.8,117.5,98.5,116.8,98.5z M103,95.7h12.3V83.3H103V95.7z"/>
							</g>
							<g>
								<rect x="101.6" y="98" class="st2" width="15.2" height="15.2"/>
								<path class="st1" d="M116.8,114.7h-15.2c-0.8,0-1.4-0.7-1.4-1.4V98.1c0-0.8,0.7-1.4,1.4-1.4h15.2c0.8,0,1.4,0.7,1.4,1.4
									v15.2C118.2,114,117.5,114.7,116.8,114.7z M103,111.8h12.3V99.5H103V111.8z"/>
							</g>
						</g>
					</g>
					<g>
						<g>
							<g>
								<g>
									<path class="st2" d="M50,84.8c1.8,2.8,0,7.2-4.1,9.8c-4,2.5-8.7,2.3-10.5-0.7c-1.8-2.8,0-7.2,4-9.8
										C43.4,81.5,48.2,81.8,50,84.8z"/>
									<path class="st1" d="M40.3,97.7c-2.7,0-4.9-1.1-6.1-3C31.9,91,33.9,86,38.7,83c2-1.2,4.3-1.9,6.4-1.9c2.7,0,4.9,1.1,6.1,3
										c2.3,3.5,0.3,8.7-4.5,11.7C44.7,97,42.4,97.7,40.3,97.7z M45,83.8c-1.6,0-3.3,0.6-4.8,1.5c-3.3,2.1-4.9,5.6-3.6,7.8
										c0.7,1,2,1.7,3.7,1.7c1.6,0,3.3-0.6,4.8-1.5c3.3-2.1,4.9-5.6,3.6-7.8C48.1,84.5,46.8,83.8,45,83.8z"/>
								</g>
								<g>
									<line class="st3" x1="50.4" y1="48.2" x2="50.4" y2="85.2"/>
									<path class="st1" d="M50.4,86.7c-0.8,0-1.4-0.7-1.4-1.4v-37c0-0.8,0.7-1.4,1.4-1.4c0.7,0,1.4,0.7,1.4,1.4v37
										C51.8,86,51.1,86.7,50.4,86.7z"/>
								</g>
							</g>
						</g>
						<g>
							<g>
								<g>
									<path class="st2" d="M84.1,74.8c1.8,2.8,0,7.2-4.1,9.7c-4,2.5-8.7,2.3-10.5-0.7c-1.8-2.8,0-7.2,4.1-9.7
										C77.6,71.8,82.3,72,84.1,74.8z"/>
									<path class="st1" d="M74.5,87.7c-2.7,0-4.9-1.1-6.1-3c-1.1-1.8-1.2-4-0.3-6.3c0.9-2.1,2.6-4,4.7-5.4c2-1.2,4.3-2,6.4-2
										c2.7,0,4.9,1.1,6.1,3c1.1,1.8,1.2,4,0.3,6.3c-0.9,2.1-2.6,4-4.7,5.4C78.8,87,76.5,87.7,74.5,87.7z M79.2,74
										c-1.6,0-3.3,0.6-4.8,1.5c-1.7,1-3,2.5-3.6,4.1c-0.6,1.4-0.6,2.8,0,3.7c0.7,1,2,1.7,3.7,1.7c1.6,0,3.3-0.6,4.8-1.5
										c1.7-1,3-2.5,3.6-4.1c0.6-1.4,0.6-2.8-0.1-3.7C82.2,74.5,80.9,74,79.2,74z"/>
								</g>
								<g>
									<line class="st3" x1="84.5" y1="37.8" x2="84.5" y2="75.8"/>
									<path class="st1" d="M84.5,77.2c-0.8,0-1.4-0.7-1.4-1.4v-38c0-0.8,0.7-1.4,1.4-1.4s1.4,0.7,1.4,1.4v37.9
										C85.9,76.5,85.3,77.2,84.5,77.2z"/>
								</g>
							</g>
						</g>
						<g>
							<polyline class="st2" points="50.5,47.6 84.5,34.3 84.5,39.7 							"/>
							<path class="st1" d="M50.5,49c-0.6,0-1.1-0.4-1.3-0.9c-0.3-0.8,0.1-1.5,0.9-1.8l34.1-13.2c0.5-0.2,0.9-0.1,1.3,0.2
								c0.4,0.3,0.7,0.7,0.7,1.1v5.3c0,0.8-0.7,1.4-1.4,1.4s-1.4-0.7-1.4-1.4v-3.2L50.9,48.8C50.7,49,50.6,49,50.5,49z"/>
						</g>
						<g>
							<polyline class="st2" points="50.5,56.8 84.5,44.5 84.5,49.2 							"/>
							<path class="st1" d="M50.5,58.2c-0.6,0-1.1-0.4-1.3-0.9c-0.3-0.8,0.1-1.5,0.9-1.8l34.1-12.3c0.5-0.2,0.9-0.1,1.3,0.2
								c0.4,0.3,0.6,0.7,0.6,1.1v4.7c0,0.8-0.7,1.4-1.4,1.4c-0.7,0-1.4-0.7-1.4-1.4v-2.7L50.9,58C50.7,58.2,50.6,58.2,50.5,58.2z"/>
						</g>
					</g>
				</g>
				<g>
					<g>
						<path class="st1" d="M38.1,69.8c1.1,0,2.1,0.9,2.1,2.1s-0.9,2.1-2.1,2.1c-1.2,0-2.1-0.9-2.1-2.1
							C35.9,70.7,36.9,69.8,38.1,69.8z"/>
						<path class="st1" d="M38.1,74.3c-1.4,0-2.6-1.1-2.6-2.6s1.1-2.6,2.6-2.6s2.6,1.1,2.6,2.6S39.5,74.3,38.1,74.3z M38.1,70.2
							c-0.9,0-1.6,0.8-1.6,1.6c0,0.9,0.8,1.6,1.6,1.6c0.8,0,1.6-0.8,1.6-1.6C39.7,71,39,70.2,38.1,70.2z"/>
					</g>
					<g>
						<path class="st1" d="M38.1,55.1c1.1,0,2.1,0.9,2.1,2.1s-0.9,2.2-2.1,2.2c-1.2,0-2.1-0.9-2.1-2.2
							C35.9,55.8,36.9,55.1,38.1,55.1z"/>
						<path class="st1" d="M38.1,59.7c-1.4,0-2.6-1.1-2.6-2.7c0-1.4,1.1-2.6,2.6-2.6s2.6,1.1,2.6,2.6C40.7,58.6,39.5,59.7,38.1,59.7
							z M38.1,55.6c-0.9,0-1.6,0.8-1.6,1.6c0,0.9,0.8,1.7,1.6,1.7c0.8,0,1.6-0.8,1.6-1.7S39,55.6,38.1,55.6z"/>
					</g>
					<g>
						<path class="st1" d="M38.1,40.2c1.1,0,2.1,0.9,2.1,2.1c0,1.1-0.9,2.1-2.1,2.1c-1.2,0-2.1-0.9-2.1-2.1
							C35.9,41.2,36.9,40.2,38.1,40.2z"/>
						<path class="st1" d="M38.1,45c-1.4,0-2.6-1.1-2.6-2.6c0-1.4,1.1-2.6,2.6-2.6s2.6,1.1,2.6,2.6C40.7,43.8,39.5,45,38.1,45z
							 M38.1,40.8c-0.9,0-1.6,0.7-1.6,1.6s0.8,1.6,1.6,1.6c0.8,0,1.6-0.8,1.6-1.6S39,40.8,38.1,40.8z"/>
					</g>
				</g>
			</g>
		</g>
		<g id="Layer_2_2_">
			<g id="Layer_4">
				<g id="Layer_2_3_">
					<g>
						<path class="st0" d="M107.7,11.7c-9,0-16.4,7.4-16.4,16.4s7.4,16.4,16.4,16.4s16.4-7.4,16.4-16.4S116.7,11.7,107.7,11.7z
							 M110.4,35.3h-5.3v-6.8h-4.2l6.8-8l6.8,8h-4.1C110.4,28.6,110.4,35.3,110.4,35.3z"/>
						<path class="st1" d="M107.7,10.1c-9.9,0-18,8.1-18,18s8.1,18,18,18s18-8.1,18-18S117.6,10.1,107.7,10.1z M107.7,44.6
							c-9,0-16.4-7.4-16.4-16.4s7.4-16.4,16.4-16.4s16.4,7.4,16.4,16.4S116.7,44.6,107.7,44.6z"/>
						<path class="st4" d="M107.7,6.4c-12,0-21.8,9.8-21.8,21.8S95.7,50,107.7,50s21.8-9.8,21.8-21.8S119.7,6.4,107.7,6.4z
							 M107.7,46.2c-9.9,0-18-8.1-18-18s8.1-18,18-18s18,8.1,18,18S117.6,46.2,107.7,46.2z"/>
						<polygon class="st4" points="107.7,20.6 100.9,28.6 105,28.6 105,35.3 110.4,35.3 110.4,28.6 114.5,28.6 						"/>
					</g>
				</g>
			</g>
		</g>
	</g>
</g>
</svg>
