<?xml version="1.0" encoding="utf-8"?>
<!-- Generator: Adobe Illustrator 17.0.2, SVG Export Plug-In . SVG Version: 6.00 Build 0)  -->
<!DOCTYPE svg PUBLIC "-//W3C//DTD SVG 1.1//EN" "http://www.w3.org/Graphics/SVG/1.1/DTD/svg11.dtd">
<svg version="1.1" xmlns="http://www.w3.org/2000/svg" xmlns:xlink="http://www.w3.org/1999/xlink" x="0px" y="0px" width="1594px"
	 height="1358.26px" viewBox="0 0 1594 1358.26" enable-background="new 0 0 1594 1358.26" xml:space="preserve">
<g id="Layer_2">
	<g id="XMLID_4_">
		<g id="XMLID_32_">
			
				<line id="XMLID_35_" fill="none" stroke="#DDDDDD" stroke-width="6" stroke-miterlimit="10" x1="567.333" y1="276.999" x2="567.333" y2="282.999"/>
			
				<line id="XMLID_34_" fill="none" stroke="#DDDDDD" stroke-width="6" stroke-miterlimit="10" stroke-dasharray="12,12" x1="567.333" y1="294.999" x2="567.333" y2="1295.999"/>
			
				<line id="XMLID_33_" fill="none" stroke="#DDDDDD" stroke-width="6" stroke-miterlimit="10" x1="567.333" y1="1301.999" x2="567.333" y2="1307.999"/>
		</g>
	</g>
	<g id="XMLID_3_">
		<g id="XMLID_27_">
			
				<line id="XMLID_30_" fill="none" stroke="#DDDDDD" stroke-width="6" stroke-miterlimit="10" x1="1026.333" y1="276.999" x2="1026.333" y2="282.999"/>
			
				<line id="XMLID_29_" fill="none" stroke="#DDDDDD" stroke-width="6" stroke-miterlimit="10" stroke-dasharray="12,12" x1="1026.333" y1="294.999" x2="1026.333" y2="1295.999"/>
			
				<line id="XMLID_28_" fill="none" stroke="#DDDDDD" stroke-width="6" stroke-miterlimit="10" x1="1026.333" y1="1301.999" x2="1026.333" y2="1307.999"/>
		</g>
	</g>
	<g id="XMLID_2_">
		<g id="XMLID_20_">
			
				<line id="XMLID_23_" fill="none" stroke="#DDDDDD" stroke-width="6" stroke-miterlimit="10" x1="1486.333" y1="276.999" x2="1486.333" y2="282.999"/>
			
				<line id="XMLID_22_" fill="none" stroke="#DDDDDD" stroke-width="6" stroke-miterlimit="10" stroke-dasharray="12,12" x1="1486.333" y1="294.999" x2="1486.333" y2="1295.999"/>
			
				<line id="XMLID_21_" fill="none" stroke="#DDDDDD" stroke-width="6" stroke-miterlimit="10" x1="1486.333" y1="1301.999" x2="1486.333" y2="1307.999"/>
		</g>
	</g>
	<g id="XMLID_107_">
		<g id="XMLID_37_">
			
				<line id="XMLID_95_" fill="none" stroke="#DDDDDD" stroke-width="6" stroke-miterlimit="10" x1="108.333" y1="276.999" x2="108.333" y2="282.999"/>
			
				<line id="XMLID_94_" fill="none" stroke="#DDDDDD" stroke-width="6" stroke-miterlimit="10" stroke-dasharray="12,12" x1="108.333" y1="294.999" x2="108.333" y2="1295.999"/>
			
				<line id="XMLID_93_" fill="none" stroke="#DDDDDD" stroke-width="6" stroke-miterlimit="10" x1="108.333" y1="1301.999" x2="108.333" y2="1307.999"/>
		</g>
	</g>
</g>
<g id="Layer_4">
	
		<line id="XMLID_211_" fill="none" stroke="#DDDDDD" stroke-width="6" stroke-miterlimit="10" x1="597.711" y1="448.606" x2="997.711" y2="448.606"/>
	<g id="XMLID_208_" transform="translate(1716.9636,-2280.0287)">
		<polygon id="XMLID_210_" fill="#DDDDDD" points="-731.748,2739.814 -720.549,2728.615 -731.728,2717.435 -727.749,2713.456 
			-712.571,2728.634 -727.749,2743.813 		"/>
		<path id="XMLID_209_" fill="#DDDDDD" d="M-720.867,2721.752l6.882,6.882l-6.882,6.882l-6.882,6.882l-1.292-1.292l-1.292-1.292
			l5.599-5.599l5.599-5.599l-5.59-5.59l-5.59-5.59l1.283-1.282l1.283-1.283L-720.867,2721.752L-720.867,2721.752z"/>
	</g>
	
		<text id="XMLID_207_" transform="matrix(1 0 0 1 695.0539 429.6635)" fill="#666666" font-family="'Roboto-Regular'" font-size="20">getContent (contentID)</text>
	
		<line id="XMLID_206_" fill="none" stroke="#DDDDDD" stroke-width="6" stroke-miterlimit="10" x1="1052.711" y1="538.606" x2="1452.711" y2="538.606"/>
	<g id="XMLID_203_" transform="translate(1716.9636,-2280.0287)">
		<polygon id="XMLID_205_" fill="#DDDDDD" points="-276.748,2829.814 -265.549,2818.615 -276.728,2807.435 -272.749,2803.456 
			-257.571,2818.634 -272.749,2833.813 		"/>
		<path id="XMLID_204_" fill="#DDDDDD" d="M-265.867,2811.752l6.882,6.882l-6.882,6.882l-6.882,6.882l-1.292-1.292l-1.292-1.292
			l5.599-5.599l5.599-5.599l-5.59-5.59l-5.59-5.59l1.283-1.282l1.283-1.283L-265.867,2811.752L-265.867,2811.752z"/>
	</g>
	
		<text id="XMLID_194_" transform="matrix(1 0 0 1 1160.054 519.6635)" fill="#666666" font-family="'Roboto-Regular'" font-size="20">getContent (contentID)</text>
	
		<line id="XMLID_193_" fill="none" stroke="#DDDDDD" stroke-width="6" stroke-miterlimit="10" x1="1459.393" y1="828.606" x2="1059.393" y2="828.606"/>
	<g id="XMLID_190_" transform="translate(1716.9636,-2280.0287)">
		<polygon id="XMLID_192_" fill="#DDDDDD" points="-645.076,3119.814 -656.275,3108.615 -645.096,3097.435 -649.075,3093.456 
			-664.253,3108.634 -649.075,3123.813 		"/>
		<path id="XMLID_191_" fill="#DDDDDD" d="M-655.957,3101.752l-6.882,6.882l6.882,6.882l6.882,6.882l1.292-1.292l1.292-1.292
			l-5.599-5.599l-5.599-5.599l5.59-5.59l5.59-5.59l-1.283-1.282l-1.283-1.283L-655.957,3101.752L-655.957,3101.752z"/>
	</g>
	
		<text id="XMLID_189_" transform="matrix(1 0 0 1 1199.4143 809.6635)" fill="#666666" font-family="'Roboto-Regular'" font-size="20">Content JSON</text>
	
		<line id="XMLID_188_" fill="none" stroke="#DDDDDD" stroke-width="6" stroke-miterlimit="10" x1="999.393" y1="933.606" x2="599.393" y2="933.606"/>
	<g id="XMLID_158_" transform="translate(1716.9636,-2280.0287)">
		<polygon id="XMLID_187_" fill="#DDDDDD" points="-1105.076,3224.814 -1116.275,3213.615 -1105.096,3202.435 -1109.075,3198.456 
			-1124.253,3213.634 -1109.075,3228.813 		"/>
		<path id="XMLID_159_" fill="#DDDDDD" d="M-1115.957,3206.752l-6.882,6.882l6.882,6.882l6.882,6.882l1.292-1.292l1.292-1.292
			l-5.599-5.599l-5.599-5.599l5.59-5.59l5.59-5.59l-1.283-1.282l-1.283-1.283L-1115.957,3206.752L-1115.957,3206.752z"/>
	</g>
	
		<text id="XMLID_157_" transform="matrix(1 0 0 1 739.4142 914.6635)" fill="#666666" font-family="'Roboto-Regular'" font-size="20">Content JSON</text>
	
		<line id="XMLID_14_" fill="none" stroke="#DDDDDD" stroke-width="6" stroke-miterlimit="10" x1="127.711" y1="368.606" x2="527.711" y2="368.606"/>
	<g id="XMLID_11_" transform="translate(1716.9636,-2280.0287)">
		<polygon id="XMLID_13_" fill="#DDDDDD" points="-1201.748,2659.814 -1190.549,2648.615 -1201.728,2637.435 -1197.749,2633.456 
			-1182.571,2648.634 -1197.749,2663.813 		"/>
		<path id="XMLID_12_" fill="#DDDDDD" d="M-1190.867,2641.752l6.882,6.882l-6.882,6.882l-6.882,6.882l-1.292-1.292l-1.292-1.292
			l5.599-5.599l5.599-5.599l-5.59-5.59l-5.59-5.59l1.283-1.282l1.283-1.283L-1190.867,2641.752L-1190.867,2641.752z"/>
	</g>
	<text id="XMLID_1_" transform="matrix(1 0 0 1 258.6428 349.6635)" fill="#666666" font-family="'Roboto-Regular'" font-size="20">Visits edit page</text>
	
		<line id="XMLID_39_" fill="none" stroke="#DDDDDD" stroke-width="6" stroke-miterlimit="10" x1="535.393" y1="1023.606" x2="135.393" y2="1023.606"/>
	<g id="XMLID_16_" transform="translate(1716.9636,-2280.0287)">
		<polygon id="XMLID_18_" fill="#DDDDDD" points="-1569.076,3314.814 -1580.275,3303.615 -1569.096,3292.435 -1573.075,3288.456 
			-1588.253,3303.634 -1573.075,3318.813 		"/>
		<path id="XMLID_17_" fill="#DDDDDD" d="M-1579.957,3296.752l-6.882,6.882l6.882,6.882l6.882,6.882l1.292-1.292l1.292-1.292
			l-5.599-5.599l-5.599-5.599l5.59-5.59l5.59-5.59l-1.283-1.282l-1.283-1.283L-1579.957,3296.752L-1579.957,3296.752z"/>
	</g>
	
		<text id="XMLID_15_" transform="matrix(1 0 0 1 252.3797 1004.6635)" fill="#666666" font-family="'Roboto-Regular'" font-size="20">Load the edit page</text>
</g>
<g id="Layer_5">
	<rect id="XMLID_10_" x="1468.967" y="492.602" fill="#78909C" width="36.607" height="383.243"/>
	<rect id="XMLID_9_" x="1008.157" y="408.905" fill="#78909C" width="36.607" height="566.086"/>
	<rect id="XMLID_8_" x="549.157" y="315.436" fill="#78909C" width="36.607" height="746.609"/>
</g>
<g id="Layer_3">
	<text id="XMLID_448_" transform="matrix(1 0 0 1 1428.5579 73.6461)" font-family="'Roboto-Bold'" font-size="31.6561">Toolbelt</text>
	<g id="XMLID_5_">
		<path id="XMLID_81_" fill-rule="evenodd" clip-rule="evenodd" fill="#0071A9" d="M1485.353,107.546
			c-0.34,3.237-0.686,6.461-2.797,8.843c-4.16,4.694-9.805,7.576-14.409,9.842c-11.71,5.764-25.177,19.193-25.177,40.645
			c0,10.39,4.008,21.571,11.569,30.184c8.05,9.169,20.091,15.447,34.39,15.377c12.782-0.062,23.277-4.235,31.166-11.049
			c9.227-7.969,14.793-19.674,14.793-34.512c0-10.93-3.259-20.403-9.192-27.651c-11.701-14.293-21.143-15.553-27.115-18.959
			C1494.307,117.829,1490.364,113.535,1485.353,107.546L1485.353,107.546z"/>
		<g id="XMLID_76_">
			<defs>
				<path id="XMLID_77_" d="M1485.353,107.546c-0.34,3.237-0.686,6.461-2.797,8.843c-4.16,4.694-9.805,7.576-14.409,9.842
					c-11.71,5.764-25.177,19.193-25.177,40.645c0,10.39,4.008,21.571,11.569,30.184c8.05,9.169,20.091,15.447,34.39,15.377
					c12.782-0.062,23.277-4.235,31.166-11.049c9.227-7.969,14.793-19.674,14.793-34.512c0-10.93-3.259-20.403-9.192-27.651
					c-11.701-14.293-21.143-15.553-27.115-18.959C1494.307,117.829,1490.364,113.535,1485.353,107.546L1485.353,107.546z"/>
			</defs>
			<clipPath id="XMLID_41_">
				<use xlink:href="#XMLID_77_"  overflow="visible"/>
			</clipPath>
			<path id="XMLID_80_" clip-path="url(#XMLID_41_)" fill-rule="evenodd" clip-rule="evenodd" fill="#008DCB" d="M1520.277,129.781
				c6.177,9.332,6.024,19.444,0.635,28.33c-4.327,7.134-12.125,13.122-22.013,19.984c-14.919,10.354-30.146,18.185-42.613,14.933
				c-6.089-1.589-11.417-6.384-15.926-13.732l-3.766-77.768l53.764-0.9L1520.277,129.781L1520.277,129.781z"/>
			<path id="XMLID_79_" clip-path="url(#XMLID_41_)" fill-rule="evenodd" clip-rule="evenodd" fill="#A0D1E4" d="M1484.762,108.119
				c2.481,4.184,2.832,9.991,0,12.132c-1.345,1.017-1.051,1.552-0.538,1.983c1.019,0.856,0.285,2.573-0.84,4.201
				c-6.296,9.113-18.638,16.381-26.044,19.659c-1.977,0.875-5.754,2.048-6.889,0.84c-2.87-3.052,2.308-7.886,5.209-12.232
				l22.986-16.635L1484.762,108.119L1484.762,108.119z"/>
			<path id="XMLID_78_" clip-path="url(#XMLID_41_)" fill-rule="evenodd" clip-rule="evenodd" fill="#FFFFFF" d="M1484.695,106.909
				c3.215,7.279,2.985,11.566-4.351,14.92c-0.235,0.107-0.78,0.597,0.161,0.784c2.784,0.552-0.925,4.849-2.531,6.342
				c-1.85,1.72-4.336,4.288-10.533,8.442c-6.197,4.153-12.88,7.011-14.621,5.84c-3.063-2.06,3.12-7.325,6.402-12.467
				L1484.695,106.909L1484.695,106.909z"/>
		</g>
		<path id="XMLID_75_" fill="none" stroke="#006193" stroke-width="2.2677" stroke-miterlimit="22.9256" d="M1485.353,107.546
			c-0.34,3.237-0.686,6.461-2.797,8.843c-4.16,4.694-9.805,7.576-14.409,9.842c-11.71,5.764-25.177,19.193-25.177,40.645
			c0,10.39,4.008,21.571,11.569,30.184c8.05,9.169,20.091,15.447,34.39,15.377c12.782-0.062,23.277-4.235,31.166-11.049
			c9.227-7.969,14.793-19.674,14.793-34.512c0-10.93-3.259-20.403-9.192-27.651c-11.701-14.293-21.143-15.553-27.115-18.959
			C1494.307,117.829,1490.364,113.535,1485.353,107.546L1485.353,107.546z"/>
		<path id="XMLID_71_" fill-rule="evenodd" clip-rule="evenodd" fill="#FFFFFF" d="M1505.607,179.125
			c-6.46-0.042-12.819-11.332-25.723-11.635c-9.705-0.228-17.349,7.907-17.182,15.737c0.201,9.398,6.847,11.644,13.013,11.735
			c12.089,0.179,22.851-12.181,30.196-12.307c5.581-0.096,11.238,11.579,16.308,11.971c5.84,0.451,10.2-10.864,9.819-17.72
			c-0.254-4.569-2.879-7.849-6.288-7.768C1519.36,169.292,1511.928,179.167,1505.607,179.125L1505.607,179.125z M1494.424,194.2
			c2.789-2.775,5.748-4.418,9.074-4.336c5.309,0.131,5.536,1.379,7.074,4.487c0.312,0.631,0.134,1.174-0.067,1.495
			c-0.11,0.175-0.718,0.758-0.925,0.758c-0.511,0-0.697-0.184-0.907-0.707c-1.267-3.162-3.144-3.175-5.511-3.175
			c-3.647,0-5.239,1.78-7.393,3.562c-0.535,0.443-1.042,0.776-1.445,0.437c-0.325-0.273-0.595-0.655-0.588-0.942
			C1493.752,195.098,1493.942,194.68,1494.424,194.2L1494.424,194.2z M1487.047,201.744c2.866,2.643,16.399,4.863,24.532-0.605
			c0.3-0.201,0.685-0.336,1.016-0.193c0.249,0.106,0.395,0.241,0.428,0.52c0.055,0.458,0.086,1.15-0.269,1.445
			c-5.648,4.713-20.922,7.401-28.187,1.403c-0.717-0.592-0.742-1.483-0.269-1.999c0.351-0.383,0.658-0.562,1.084-0.806
			C1485.915,201.206,1486.592,201.324,1487.047,201.744L1487.047,201.744z"/>
		<path id="XMLID_6_" fill-rule="evenodd" clip-rule="evenodd" fill="#008DCB" d="M1462.952,221.471v2.554
			c0,6.107-2.701,9.442-10.723,9.442h-9.574c-0.13,0-0.235-0.106-0.235-0.236v-21.138c0-0.13,0.106-0.236,0.235-0.236h9.577
			C1460.124,211.857,1462.952,215.293,1462.952,221.471L1462.952,221.471z M1532.021,211.484l-4.435,0.717
			c-0.115,0.019-0.198,0.116-0.198,0.233v17.03c0,3.647,3.29,4.774,7.192,3.833c0.157-0.038,0.313-0.072,0.469-0.104
			c0.126-0.026,0.208-0.147,0.184-0.274l-0.433-2.343c-0.015-0.082-0.089-0.102-0.149-0.102c-1.869,0-2.357,0.027-2.357-1.01
			v-17.747c0-0.071-0.028-0.133-0.083-0.179C1532.156,211.491,1532.091,211.473,1532.021,211.484L1532.021,211.484z
			 M1508.589,226.983v-3.756c0-3.648-2.462-5.632-7.776-5.464s-7.391,0.59-7.391,4.933v16.644c0,0.071,0.028,0.133,0.083,0.179
			c0.054,0.046,0.12,0.064,0.19,0.053l4.435-0.717c0.115-0.018,0.198-0.116,0.198-0.233v-3.301c0-0.649-0.454-1.16-0.416-2.109
			c1.416,0.447,3.053,0.603,4.964,0.557C1505.08,233.717,1508.589,232.578,1508.589,226.983L1508.589,226.983z M1498.328,230.613
			v-7.917c0-1.55,0.09-1.985,2.554-1.985c2.464,0,2.8,1.455,2.8,2.516v4.473c0,2.377-0.796,3.258-2.89,3.248
			C1499.734,230.942,1499.183,230.775,1498.328,230.613L1498.328,230.613z M1480.658,217.772l-4.435,0.717
			c-0.115,0.019-0.198,0.116-0.198,0.233v10.175c0,3.648,3.323,4.875,7.192,4.942c3.868,0.067,7.662-1.036,7.662-4.942v-10.891
			c0-0.071-0.028-0.133-0.083-0.179c-0.054-0.046-0.12-0.065-0.19-0.053l-4.435,0.717c-0.115,0.019-0.198,0.116-0.198,0.233v10.175
			c0,1.078-0.577,1.985-2.554,1.985c-1.977,0-2.487-0.924-2.487-1.985v-10.891c0-0.071-0.028-0.133-0.083-0.179
			C1480.794,217.778,1480.729,217.76,1480.658,217.772L1480.658,217.772z M1514.772,228.091v1.486c0,1.459,2.675,1.44,4.133,1.437
			c0.791-0.001,1.109-0.299,1.109-1.109v-3.367c0-0.068-0.026-0.126-0.075-0.173c-0.05-0.046-0.11-0.067-0.178-0.062
			C1518.027,226.433,1514.772,226.493,1514.772,228.091L1514.772,228.091z M1509.966,229.577v-1.486c0-3.605,5.99-4.155,9.834-4.501
			c0.122-0.011,0.214-0.112,0.214-0.235v-0.843c0-0.878-0.32-1.586-1.579-1.714c-2.214-0.224-3.548,0.091-6.568,0.758
			c-0.123,0.027-0.246-0.047-0.278-0.169l-0.559-2.096c-0.031-0.118,0.031-0.239,0.146-0.282c1.86-0.689,4.322-1.317,7.058-1.168
			c2.669,0.145,6.52-0.043,6.52,4.671v7.393c0,3.223-2.309,3.794-7.347,3.852C1513.588,233.801,1509.966,232.437,1509.966,229.577
			L1509.966,229.577z M1470.192,233.401h-4.44c-0.13,0-0.236-0.106-0.236-0.236v-13.35c0-0.044,0.01-0.081,0.032-0.119
			c0.682-1.16,4.817-1.749,8.799-1.691c0.128,0.002,0.232,0.107,0.232,0.236v2.645c0,0.067-0.025,0.125-0.073,0.171
			c-0.049,0.046-0.108,0.068-0.175,0.064c-2.356-0.126-3.74,0.132-3.894,0.643c-0.007,0.023-0.01,0.044-0.01,0.068v11.334
			C1470.428,233.295,1470.322,233.401,1470.192,233.401L1470.192,233.401z M1457.609,224.025v-2.554
			c0-4.722-1.528-6.083-5.377-6.083h-4.469v14.718h4.466C1456.75,230.106,1457.609,227.806,1457.609,224.025L1457.609,224.025z"/>
	</g>
	<text id="XMLID_447_" transform="matrix(1 0 0 1 941.4963 73.2408)" font-family="'Roboto-Bold'" font-size="31.6561">Content API</text>
	<g id="XMLID_148_">
		<g id="XMLID_184_">
			<g id="XMLID_199_">
				<path id="XMLID_200_" fill="#78909C" d="M1015.007,174.545l0.894-0.335c2.795-1.342,6.82,1.677,9.167,6.484l1.789,3.801
					c5.59-3.689,9.95-8.608,13.08-14.198l-3.913-1.453c-5.031-1.901-8.273-5.702-7.267-8.608l0.335-0.894
					c1.006-2.907,6.037-3.689,11.068-1.901l3.913,1.453c1.23-6.261,1.118-12.857-0.783-19.341l-3.801,1.789
					c-4.919,2.236-9.838,1.901-11.18-0.894l-0.335-0.894c-1.342-2.795,1.677-6.82,6.484-9.167l3.801-1.789
					c-3.689-5.59-8.608-9.95-14.198-13.08l-1.453,3.913c-1.901,5.031-5.702,8.273-8.608,7.267l-1.006-0.224
					c-2.907-1.006-3.689-6.037-1.901-11.068l1.453-3.913c-6.261-1.23-12.857-1.118-19.341,0.783l1.789,3.801
					c2.236,4.919,1.901,9.838-0.894,11.18l-0.894,0.335c-2.795,1.342-6.82-1.565-9.167-6.484l-1.789-3.801
					c-5.59,3.689-9.95,8.608-13.08,14.198l3.913,1.453c5.031,1.901,8.273,5.702,7.267,8.608l-0.335,0.894
					c-1.006,2.907-6.037,3.689-11.068,1.901l-3.913-1.453c-1.23,6.261-1.118,12.857,0.783,19.341l3.801-1.789
					c4.919-2.236,9.838-1.901,11.18,0.894l0.335,0.894c1.342,2.795-1.565,6.82-6.484,9.167l-3.801,1.789
					c3.689,5.59,8.608,9.95,14.198,13.08l1.453-3.913c1.901-5.031,5.702-8.273,8.608-7.267l0.894,0.335
					c2.907,1.006,3.689,6.037,1.901,11.068l-1.453,3.913c6.261,1.23,12.857,1.118,19.341-0.783l-1.789-3.913
					C1011.765,180.806,1012.212,175.775,1015.007,174.545z M992.424,156.545c-3.13-6.708-0.224-14.645,6.484-17.664
					c6.708-3.13,14.645-0.224,17.664,6.484c3.13,6.708,0.224,14.645-6.484,17.664C1003.492,166.048,995.554,163.141,992.424,156.545
					z"/>
			</g>
			<g id="XMLID_185_">
				<path id="XMLID_186_" fill="#37474F" d="M1004.498,193.327L1004.498,193.327c-2.795,0-5.702-0.335-8.497-0.894
					c-0.671-0.112-1.23-0.559-1.453-1.118c-0.335-0.559-0.335-1.23-0.112-1.901l1.453-3.913c1.565-4.248,0.671-7.714-0.559-8.161
					l-0.894-0.335c-1.453-0.559-4.248,1.901-5.702,5.925l-1.453,3.913c-0.224,0.559-0.671,1.118-1.342,1.342
					c-0.559,0.224-1.342,0.224-1.901-0.112c-6.037-3.354-11.292-8.049-14.981-13.751c-0.335-0.559-0.447-1.23-0.335-1.789
					c0.224-0.671,0.671-1.118,1.23-1.453l3.801-1.789c2.012-0.894,3.689-2.236,4.695-3.689c0.671-1.006,1.006-1.901,0.783-2.571
					l-0.335-0.894c-0.335-0.671-1.453-1.118-3.019-1.118c-1.565,0-3.466,0.447-5.143,1.23l-3.801,1.789
					c-0.559,0.224-1.23,0.224-1.901,0c-0.559-0.224-1.006-0.783-1.23-1.453c-1.901-6.596-2.236-13.639-0.894-20.347
					c0.112-0.671,0.559-1.23,1.118-1.453c0.559-0.335,1.23-0.335,1.901-0.112l3.913,1.453c1.565,0.559,3.019,0.894,4.472,0.894
					c1.901,0,3.466-0.559,3.689-1.342l0.335-0.894c0.224-0.559-0.112-1.453-0.894-2.46c-1.118-1.342-2.907-2.46-5.031-3.242
					l-3.913-1.453c-0.559-0.224-1.118-0.671-1.342-1.342c-0.224-0.447-0.224-1.23,0.112-1.789
					c3.354-6.037,8.049-11.18,13.751-14.981c0.559-0.335,1.23-0.447,1.789-0.335c0.671,0.224,1.118,0.671,1.453,1.23l1.789,3.801
					c1.565,3.466,4.137,5.478,5.702,5.478c0.224,0,0.335,0,0.447-0.112l0.894-0.335c1.23-0.559,1.789-4.137-0.112-8.161
					l-1.789-3.801c-0.224-0.559-0.224-1.23,0-1.901c0.224-0.559,0.783-1.006,1.453-1.23c6.596-1.901,13.639-2.236,20.347-0.894
					c0.671,0.112,1.23,0.559,1.453,1.118c0.224,0.559,0.335,1.23,0.112,1.901l-1.453,3.913c-1.565,4.248-0.671,7.714,0.559,8.161
					l0.894,0.335c1.453,0.559,4.248-1.901,5.702-5.925l1.453-3.913c0.224-0.559,0.671-1.118,1.342-1.342s1.342-0.224,1.901,0.112
					c6.037,3.354,11.18,8.049,14.981,13.751c0.335,0.559,0.447,1.23,0.335,1.789c-0.224,0.671-0.671,1.118-1.23,1.453l-3.801,1.789
					c-2.012,0.894-3.689,2.236-4.696,3.689c-0.671,1.006-1.006,1.901-0.783,2.571l0.335,0.894c0.335,0.671,1.453,1.118,3.019,1.118
					c1.565,0,3.466-0.447,5.143-1.23l3.801-1.789c0.559-0.224,1.23-0.224,1.901,0c0.559,0.224,1.006,0.783,1.23,1.453
					c1.901,6.596,2.236,13.639,0.894,20.347c-0.112,0.671-0.559,1.23-1.118,1.453c-0.559,0.224-1.23,0.335-1.901,0.112l-3.913-1.453
					c-1.565-0.559-3.019-0.894-4.472-0.894c-1.901,0-3.466,0.559-3.689,1.342l-0.335,1.006c-0.224,0.559,0.112,1.453,0.894,2.46
					c1.118,1.342,2.907,2.46,4.919,3.242l3.913,1.453c0.559,0.224,1.118,0.671,1.342,1.342c0.224,0.559,0.224,1.342-0.112,1.901
					c-3.354,6.037-8.049,11.18-13.751,14.981c-0.559,0.335-1.23,0.447-1.789,0.335c-0.559-0.112-1.118-0.671-1.453-1.23
					l-1.789-3.801c-1.565-3.466-4.137-5.478-5.702-5.478c-0.224,0-0.335,0-0.447,0.112l-0.783,0.335
					c-0.559,0.224-1.006,1.118-1.118,2.348c-0.112,1.677,0.335,3.801,1.23,5.813l1.789,3.801c0.224,0.559,0.224,1.23,0,1.901
					c-0.224,0.671-0.783,1.006-1.453,1.23C1012.547,192.768,1008.523,193.327,1004.498,193.327z M999.579,188.52
					c1.677,0.224,3.354,0.335,5.031,0.335l0,0c2.683,0,5.478-0.335,8.049-0.894l-0.671-1.342c-1.23-2.683-1.789-5.59-1.677-8.049
					c0.224-2.907,1.565-5.143,3.689-6.037l0.783-0.335c0.783-0.335,1.565-0.559,2.348-0.559c3.578,0,7.49,3.242,9.726,8.161
					l0.671,1.342c3.466-2.683,6.484-5.925,8.832-9.615l-1.23-0.671c-2.795-1.006-5.255-2.683-6.82-4.584
					c-1.901-2.236-2.459-4.696-1.677-6.931l0.335-0.894c1.006-2.683,3.913-4.36,7.938-4.36c1.901,0,4.025,0.335,6.037,1.118
					l1.342,0.559c0.559-4.36,0.447-8.832-0.559-13.08l-1.342,0.671c-2.348,1.118-4.807,1.677-7.043,1.677
					c-3.466,0-6.037-1.342-7.043-3.689l-0.335-0.894c-1.006-2.124-0.559-4.584,1.118-7.043c1.453-2.012,3.689-3.801,6.484-5.143
					l1.342-0.671c-2.683-3.466-5.925-6.484-9.615-8.832l-0.559,1.342c-1.901,5.366-5.813,8.944-9.503,8.944
					c-0.671,0-1.342-0.112-1.901-0.335l-0.894-0.335c-4.136-1.453-5.478-7.602-3.242-13.975l0.559-1.342
					c-4.36-0.559-8.832-0.447-13.08,0.559l0.671,1.342c2.795,6.149,1.901,12.298-2.012,14.198l-0.894,0.335
					c-0.783,0.335-1.565,0.559-2.348,0.559c-3.578,0-7.49-3.242-9.726-8.049l-0.894-1.23c-3.466,2.683-6.484,5.925-8.832,9.615
					l1.342,0.559c2.795,1.006,5.254,2.683,6.82,4.584c1.901,2.236,2.46,4.695,1.677,6.931l-0.224,0.783
					c-1.006,2.683-3.913,4.36-7.938,4.36c-1.901,0-4.025-0.335-6.037-1.118l-1.342-0.559c-0.559,4.36-0.447,8.832,0.559,13.08
					l1.342-0.671c2.348-1.118,4.807-1.677,7.043-1.677c3.466,0,6.037,1.342,7.155,3.689l0.335,0.894
					c1.006,2.124,0.559,4.584-1.118,7.043c-1.453,2.012-3.689,3.801-6.484,5.143l-1.342,0.671c2.683,3.466,5.925,6.484,9.615,8.832
					l0.559-1.342c1.901-5.366,5.813-8.944,9.503-8.944c0.671,0,1.342,0.112,1.901,0.335l0.894,0.335
					c4.137,1.453,5.478,7.602,3.242,13.975L999.579,188.52z M1004.498,166.495c-6.037,0-11.627-3.578-14.086-9.056
					c-3.578-7.826-0.224-16.993,7.602-20.683c2.124-1.006,4.248-1.453,6.596-1.453c6.037,0,11.627,3.578,14.086,9.056
					c3.578,7.826,0.224,16.993-7.602,20.683C1008.97,165.936,1006.846,166.495,1004.498,166.495z M1004.498,139.776
					c-1.565,0-3.13,0.335-4.695,1.006c-5.59,2.571-7.938,9.167-5.366,14.757c1.789,3.913,5.813,6.372,10.062,6.372
					c1.565,0,3.13-0.335,4.695-1.006c5.59-2.571,7.938-9.167,5.366-14.757C1012.771,142.347,1008.858,139.776,1004.498,139.776z"/>
			</g>
		</g>
		<g id="XMLID_173_">
			<g id="XMLID_180_">
				<path id="XMLID_181_" fill="#FFECB3" d="M1080.409,216.804l0.335-0.559c1.23-1.901,4.919-1.677,8.161,0.559l2.571,1.677
					c2.012-4.472,2.907-9.167,2.683-13.863l-3.018,0.671c-3.801,0.783-7.379-0.335-7.826-2.571l-0.112-0.671
					c-0.447-2.236,2.348-4.584,6.149-5.366l3.019-0.671c-1.565-4.36-4.248-8.385-7.938-11.627l-1.677,2.571
					c-2.124,3.242-5.366,4.919-7.267,3.689l-0.559-0.335c-1.901-1.23-1.677-4.919,0.559-8.161l1.677-2.571
					c-4.472-2.012-9.167-2.907-13.863-2.683l0.671,3.019c0.783,3.801-0.335,7.379-2.571,7.826l-0.671,0.112
					c-2.236,0.447-4.584-2.348-5.366-6.149l-0.559-3.019c-4.36,1.565-8.385,4.248-11.627,7.938l2.571,1.677
					c3.242,2.124,4.919,5.478,3.689,7.267l-0.335,0.559c-1.23,1.901-4.919,1.677-8.161-0.559l-2.571-1.677
					c-2.012,4.472-2.907,9.167-2.683,13.863l3.019-0.671c3.801-0.783,7.379,0.335,7.826,2.571l0.112,0.671
					c0.447,2.236-2.348,4.584-6.149,5.366l-3.018,0.671c1.565,4.36,4.248,8.385,7.938,11.627l1.677-2.571
					c2.124-3.242,5.478-4.919,7.267-3.689l0.559,0.335c1.901,1.23,1.677,4.919-0.559,8.161l-1.677,2.571
					c4.472,2.012,9.167,2.907,13.863,2.683l-0.671-3.019c-0.783-3.801,0.335-7.379,2.571-7.826l0.671-0.112
					c2.236-0.447,4.584,2.348,5.366,6.149l0.671,3.019c4.36-1.565,8.385-4.248,11.627-7.938l-2.571-1.677
					C1080.856,221.947,1079.179,218.705,1080.409,216.804z M1059.502,214.345c-4.472-2.907-5.702-8.944-2.795-13.416
					c2.907-4.472,8.944-5.702,13.416-2.795c4.472,2.907,5.702,8.944,2.795,13.416
					C1070.011,216.022,1063.974,217.252,1059.502,214.345z"/>
			</g>
			<g id="XMLID_174_">
				<path id="XMLID_175_" fill="#37474F" d="M1064.757,237.822c-4.584,0-9.056-1.006-13.192-2.907
					c-0.559-0.224-1.006-0.783-1.23-1.453c-0.224-0.671-0.112-1.342,0.335-1.789l1.677-2.571c1.677-2.683,1.565-4.807,1.118-5.031
					l-0.559-0.335c0,0-0.112,0-0.224,0c-0.783,0-2.46,0.894-4.025,3.13l-1.677,2.571c-0.335,0.559-0.894,0.894-1.565,1.006
					s-1.342-0.112-1.789-0.559c-3.801-3.354-6.708-7.714-8.497-12.521c-0.224-0.559-0.224-1.342,0.112-1.901
					c0.335-0.559,0.894-1.006,1.453-1.118l3.018-0.671c3.13-0.671,4.472-2.348,4.36-2.795v-0.783c0-0.224-1.118-1.006-3.13-1.006
					c-0.671,0-1.342,0.112-2.012,0.224l-3.018,0.671c-0.671,0.112-1.342,0-1.789-0.447c-0.447-0.447-0.783-1.006-0.894-1.677
					c-0.335-5.143,0.671-10.285,2.795-14.869c0.224-0.559,0.783-1.006,1.453-1.23c0.671-0.224,1.342-0.112,1.789,0.335l2.571,1.677
					c1.342,0.894,2.907,1.453,4.025,1.453c0.671,0,1.006-0.224,1.006-0.224l0.335-0.559c0.112-0.112,0.112-0.559-0.335-1.342
					c-0.559-1.006-1.565-2.124-2.795-2.907l-2.571-1.677c-0.559-0.335-0.894-0.894-1.006-1.565
					c-0.112-0.671,0.112-1.342,0.559-1.789c3.354-3.801,7.714-6.708,12.521-8.497c0.559-0.224,1.342-0.224,1.901,0.112
					c0.559,0.335,1.006,0.894,1.118,1.453l0.894,3.019c0.671,3.019,2.236,4.36,2.795,4.36l0.671-0.112
					c0.447-0.112,1.453-2.012,0.783-5.143l-0.671-3.019c-0.112-0.671,0-1.342,0.447-1.789c0.447-0.559,1.006-0.783,1.677-0.894
					c5.143-0.224,10.174,0.671,14.869,2.795c0.559,0.224,1.006,0.783,1.23,1.453c0.224,0.671,0.112,1.342-0.335,1.789l-1.677,2.571
					c-0.783,1.23-1.342,2.571-1.453,3.801c0,0.783,0.112,1.23,0.224,1.342l0.559,0.335c0,0,0.112,0,0.224,0
					c0.894,0,2.683-1.118,4.025-3.13l1.677-2.571c0.335-0.559,0.894-0.894,1.565-1.006c0.671-0.112,1.342,0.112,1.789,0.559
					c3.801,3.354,6.708,7.714,8.497,12.521c0.224,0.559,0.224,1.342-0.112,1.901c-0.335,0.559-0.894,1.006-1.453,1.118l-3.019,0.671
					c-3.13,0.671-4.472,2.348-4.36,2.795l0.112,0.671c0.112,0.335,1.118,1.006,3.13,1.006c0.671,0,1.342-0.112,2.012-0.224
					l3.019-0.671c0.671-0.112,1.342,0,1.789,0.447c0.447,0.447,0.783,1.006,0.894,1.677c0.335,5.143-0.671,10.285-2.795,14.869
					c-0.224,0.559-0.783,1.006-1.453,1.23s-1.342,0.112-1.789-0.335l-2.571-1.677c-1.342-0.894-2.907-1.453-4.025-1.453
					c-0.671,0-1.006,0.224-1.006,0.224l-0.335,0.559c-0.112,0.112-0.112,0.559,0.335,1.342c0.559,1.006,1.565,2.124,2.795,2.907
					l2.571,1.677c0.559,0.335,0.894,0.894,1.006,1.565c0.112,0.671-0.112,1.342-0.559,1.789c-3.354,3.801-7.714,6.708-12.521,8.497
					c-0.559,0.224-1.342,0.224-1.901-0.112s-1.006-0.894-1.118-1.453l-0.671-3.019c-0.671-3.019-2.236-4.36-2.683-4.36l-0.671,0.112
					c-0.112,0-0.447,0.335-0.671,1.118c-0.335,1.118-0.335,2.571-0.112,4.025l0.671,3.019c0.112,0.671,0,1.342-0.447,1.789
					c-0.447,0.447-1.006,0.783-1.677,0.894C1065.875,237.71,1065.316,237.822,1064.757,237.822z M1055.925,231.785
					c2.46,0.894,5.031,1.342,7.714,1.453l-0.112-0.335c-0.447-2.236-0.335-4.472,0.224-6.261c0.671-2.236,2.236-3.689,4.025-4.137
					l0.671-0.112c0.335-0.112,0.671-0.112,0.894-0.112c3.242,0,6.149,3.242,7.155,7.938l0.112,0.335
					c2.348-1.118,4.584-2.683,6.484-4.472l-0.224-0.224c-1.901-1.23-3.466-2.907-4.36-4.584c-1.118-2.124-1.118-4.248,0-5.813
					l0.335-0.559c1.006-1.453,2.683-2.236,4.807-2.236s4.36,0.783,6.484,2.124l0.224,0.224c0.894-2.46,1.342-5.143,1.453-7.714
					l-0.335,0.112c-1.006,0.224-1.901,0.335-2.907,0.335c-4.025,0-6.931-1.789-7.49-4.584l-0.112-0.671
					c-0.671-3.466,2.683-6.931,7.938-8.049l0.335-0.112c-1.118-2.348-2.683-4.584-4.472-6.484l-0.224,0.224
					c-2.124,3.13-5.031,5.143-7.714,5.143c-1.006,0-1.901-0.224-2.683-0.783l-0.559-0.335c-1.565-1.006-2.348-3.019-2.236-5.366
					c0.112-1.901,0.894-4.025,2.124-5.925l0.224-0.224c-2.459-0.894-5.031-1.342-7.714-1.453l0.112,0.335
					c1.118,5.254-0.783,9.726-4.248,10.397l-0.671,0.112c-0.335,0.112-0.671,0.112-0.894,0.112c-3.242,0-6.149-3.242-7.155-7.938
					l-0.112-0.335c-2.348,1.118-4.584,2.683-6.484,4.472l0.224,0.224c1.901,1.23,3.466,2.907,4.36,4.584
					c1.118,2.124,1.118,4.248,0,5.813l-0.335,0.447c-1.006,1.453-2.683,2.236-4.807,2.236s-4.36-0.783-6.484-2.124l-0.224-0.224
					c-0.894,2.46-1.342,5.143-1.453,7.714l0.335-0.112c1.006-0.224,1.901-0.335,2.907-0.335c4.025,0,6.931,1.789,7.602,4.584
					l0.112,0.671c0.671,3.466-2.683,6.931-7.938,8.049l-0.335,0.112c1.118,2.348,2.683,4.584,4.472,6.484l0.224-0.224
					c2.124-3.13,5.031-5.143,7.714-5.143c1.006,0,1.901,0.224,2.683,0.783l0.559,0.335c3.018,2.012,3.018,6.82,0.112,11.292
					L1055.925,231.785z M1064.757,218.146c-2.348,0-4.584-0.671-6.596-2.012c-5.478-3.578-7.043-11.068-3.466-16.546
					c2.236-3.354,5.925-5.366,9.95-5.366c2.348,0,4.584,0.671,6.596,2.012c2.683,1.789,4.472,4.472,5.143,7.602s0,6.372-1.677,8.944
					C1072.583,216.134,1068.893,218.146,1064.757,218.146z M1064.869,198.693c-2.571,0-4.919,1.23-6.261,3.354
					c-2.236,3.466-1.342,8.049,2.124,10.397c1.23,0.783,2.683,1.23,4.137,1.23c2.571,0,4.919-1.23,6.261-3.354
					c1.118-1.677,1.453-3.689,1.118-5.59c-0.447-2.012-1.565-3.689-3.242-4.695C1067.664,199.14,1066.322,198.693,1064.869,198.693z
					"/>
			</g>
		</g>
		<g id="XMLID_168_">
			<g id="XMLID_171_">
				<path id="XMLID_172_" fill="#FFAB00" d="M1057.266,143.242c0-9.279,7.49-16.77,16.77-16.77s16.77,7.49,16.77,16.77
					s-7.49,16.77-16.77,16.77"/>
			</g>
			<g id="XMLID_169_">
				<path id="XMLID_170_" fill="#37474F" d="M1074.036,162.247c-1.23,0-2.236-1.006-2.236-2.236c0-1.23,1.006-2.236,2.236-2.236
					c8.049,0,14.534-6.484,14.534-14.534s-6.484-14.534-14.534-14.534s-14.534,6.484-14.534,14.534c0,1.23-1.006,2.236-2.236,2.236
					s-2.236-1.006-2.236-2.236c0-10.509,8.497-19.006,19.006-19.006c10.509,0,19.006,8.497,19.006,19.006
					S1084.433,162.247,1074.036,162.247z"/>
			</g>
		</g>
		<g id="XMLID_163_">
			<g id="XMLID_166_">
				<polyline id="XMLID_167_" fill="#FFAB00" points="985.94,200.258 985.94,219.264 1026.187,219.264 				"/>
			</g>
			<g id="XMLID_164_">
				<path id="XMLID_165_" fill="#37474F" d="M1026.187,221.5H985.94c-1.23,0-2.236-1.006-2.236-2.236v-19.006
					c0-1.23,1.006-2.236,2.236-2.236c1.23,0,2.236,1.006,2.236,2.236v16.77h38.011c1.23,0,2.236,1.006,2.236,2.236
					C1028.423,220.494,1027.417,221.5,1026.187,221.5z"/>
			</g>
		</g>
		<g id="XMLID_149_">
			<g id="XMLID_161_">
				<line id="XMLID_162_" fill="none" x1="985.94" y1="231.562" x2="1026.187" y2="231.562"/>
			</g>
			<g id="XMLID_155_">
				<path id="XMLID_160_" fill="#37474F" d="M1026.187,233.798H985.94c-1.23,0-2.236-1.006-2.236-2.236
					c0-1.23,1.006-2.236,2.236-2.236h40.247c1.23,0,2.236,1.006,2.236,2.236C1028.423,232.791,1027.417,233.798,1026.187,233.798z"
					/>
			</g>
		</g>
	</g>
	<text id="XMLID_111_" transform="matrix(1 0 0 1 540.1585 73.2408)" font-family="'Roboto-Bold'" font-size="31.6561">BEE</text>
	<path id="XMLID_26_" fill="#37474F" d="M629.214,132.464c-0.922-0.369-2.028,0.184-2.397,1.106
		c-2.397,7.006-8.297,7.006-10.14,7.006c-0.553-4.425-2.397-8.481-5.531-11.615c-2.95-2.95-6.822-4.794-10.878-5.347
		c-0.184-2.212,0.184-7.743,7.006-9.956c0.922-0.369,1.475-1.291,1.106-2.397c-0.369-0.922-1.291-1.475-2.397-1.106
		c-7.928,2.581-9.587,9.034-9.403,13.274c-4.794,0.184-9.403,2.028-12.906,5.715c-2.95,2.95-4.794,6.637-5.347,10.693
		c-7.006-2.212-15.118-2.397-23.23-0.369c-8.297-4.794-17.146-8.85-23.415-8.665c-15.302,0.553-27.471,13.643-26.733,28.946
		c0.369,8.481,4.425,15.856,10.693,20.834c-0.369,1.659-0.737,3.319-1.291,5.162c-3.319,12.906-7.743,30.236-1.291,38.902
		l-4.609,4.425c-0.737,0.737-0.737,1.844,0,2.581c0.369,0.369,0.922,0.553,1.291,0.553s0.922-0.184,1.291-0.553l4.609-4.609
		c3.503,2.766,8.481,3.687,13.828,3.687c9.956,0,21.755-3.503,30.789-6.269l2.212-0.737c0.553,0.737,1.291,1.475,2.028,2.028
		c5.162,4.794,11.8,7.375,18.99,7.375c0.369,0,0.737,0,1.106,0c7.375-0.369,14.381-3.503,19.359-9.034
		c4.978-5.531,7.743-12.537,7.375-20.096c-0.184-4.056-2.212-9.218-5.9-15.487c-1.291-2.028-2.581-4.056-3.872-6.084
		c1.475-7.375,1.106-14.565-0.922-20.834c4.056-0.737,7.743-2.581,10.693-5.347c3.319-3.319,5.162-7.559,5.531-12.168
		c0.184,0,0.553,0,0.922,0c4.24,0,10.14-1.844,12.721-9.587C630.689,133.755,630.32,132.833,629.214,132.464z"/>
	<path id="XMLID_60_" fill="#78909C" d="M559.154,221.145c-1.291,0.369-2.766,0.922-4.24,1.291c0,0,0,0,0-0.184l-36.874-36.689
		c0.184-0.922,0.553-2.028,0.737-2.95c4.056,2.397,8.85,3.872,14.012,3.872c0.369,0,0.737,0,1.106,0
		c0.922,0,1.844-0.184,2.766-0.369l18.621,18.621c0,0.553,0,1.291,0,1.844c0.184,5.162,1.844,9.956,4.609,14.196L559.154,221.145z"
		/>
	<path id="XMLID_62_" fill="#FFAB00" d="M516.934,189.802l33.924,33.739c-4.794,1.291-9.772,2.581-14.749,3.134l-22.124-22.124
		C514.721,199.574,515.828,194.412,516.934,189.802z"/>
	<path id="XMLID_61_" fill="#78909C" d="M516.749,223.357c-2.95-2.95-3.687-8.112-3.319-14.012l17.884,17.884
		C525.23,227.413,520.068,226.492,516.749,223.357z"/>
	<path id="XMLID_82_" fill="#FFAB00" d="M556.204,200.496l-15.487-15.487c2.581-0.922,5.531-2.397,8.665-4.24
		c0.922-0.553,1.659-1.106,2.581-1.659l9.218,9.218C559.154,192.384,557.31,196.624,556.204,200.496z"/>
	<path id="XMLID_63_" fill="#78909C" d="M563.21,184.824l-7.928-7.928c3.503-2.397,6.822-4.794,9.956-7.375l4.609,4.609
		C567.451,177.45,565.238,181.137,563.21,184.824z"/>
	<path id="XMLID_43_" fill="#FFAB00" d="M582.938,159.75c-0.369-0.369-0.922-0.553-1.475-0.553s-1.106,0.184-1.291,0.737
		c-0.369,0.553-3.872,4.978-8.297,11.246l-3.687-3.687c5.9-4.794,10.14-8.85,10.509-9.218c0.369-0.369,0.553-0.922,0.553-1.475
		s-0.184-1.106-0.737-1.291c-0.737-0.553-8.85-7.19-18.806-13.274c11.615-1.844,22.493,1.106,29.868,8.481
		c7.006,7.006,10.14,16.962,8.85,27.84C591.05,168.6,583.306,160.119,582.938,159.75z"/>
	<path id="XMLID_83_" fill="#B0BEC5" d="M508.637,159.566c-0.553-13.274,9.956-24.705,23.23-25.258c0.184,0,0.369,0,0.369,0
		c11.799,0,35.583,17.515,42.22,22.493c-4.24,3.872-16.04,14.012-26.918,20.465c-5.9,3.503-10.509,5.347-13.828,5.347
		C520.437,183.35,509.19,172.841,508.637,159.566z"/>
	<path id="XMLID_44_" fill="#B0BEC5" d="M607.643,204.552c0.184,6.453-2.028,12.721-6.453,17.331
		c-4.425,4.794-10.325,7.559-16.777,7.743c-6.453,0.184-12.721-2.028-17.331-6.453c-4.794-4.425-7.559-10.325-7.743-16.777
		c-0.553-11.615,17.515-35.952,22.493-42.589c3.872,4.24,14.012,16.04,20.465,26.918
		C605.615,196.624,607.458,201.233,607.643,204.552z"/>
	<path id="XMLID_42_" fill="#FFECB3" d="M608.565,153.851c-2.581,2.581-5.9,4.056-9.403,4.425
		c-1.659-3.872-4.056-7.375-7.006-10.325c-2.95-2.95-6.453-5.347-10.325-7.006c0.369-3.687,2.028-6.822,4.425-9.403
		c6.084-6.084,16.04-6.084,22.308,0c2.95,2.95,4.609,7.006,4.609,11.062S611.515,150.901,608.565,153.851z"/>
	<text id="XMLID_38_" transform="matrix(1 0 0 1 67.3538 73.2408)" font-family="'Roboto-Bold'" font-size="31.6561">Editor</text>
	<g id="XMLID_139_">
		<g id="XMLID_247_">
			<g id="XMLID_251_">
				<path id="XMLID_253_" fill="#78909C" d="M95.439,177.886c-22.864,1.191-30.168-21.673-14.528-41.045"/>
				<path id="XMLID_252_" fill="#37474F" d="M93.692,179.95c-9.447,0-16.989-4.049-20.721-11.353
					c-4.843-9.447-2.461-22.15,6.431-33.026c0.715-0.953,2.064-1.032,2.858-0.318c0.953,0.715,1.032,2.064,0.318,2.858
					c-7.701,9.686-10.083,20.641-5.875,28.66c3.255,6.272,10.083,9.527,18.657,9.13c1.111-0.079,2.064,0.794,2.144,1.905
					c0.079,1.111-0.794,2.064-1.905,2.143C94.883,179.95,94.328,179.95,93.692,179.95z"/>
			</g>
			<g id="XMLID_248_">
				<path id="XMLID_250_" fill="#78909C" d="M122.035,177.886c22.864,1.191,30.248-21.515,14.528-41.045"/>
				<path id="XMLID_249_" fill="#37474F" d="M123.781,179.95c-0.635,0-1.191,0-1.905-0.079c-1.111-0.079-1.905-1.032-1.905-2.143
					c0.079-1.111,1.032-1.905,2.144-1.905c8.733,0.476,15.56-2.858,18.657-9.13c4.128-8.018,1.826-18.974-5.875-28.66
					c-0.715-0.953-0.635-2.144,0.318-2.858c0.953-0.715,2.144-0.635,2.858,0.318c8.733,10.876,11.194,23.579,6.431,33.026
					C140.691,175.822,133.229,179.95,123.781,179.95z"/>
			</g>
		</g>
		<g id="XMLID_143_">
			<g id="XMLID_244_">
				<path id="XMLID_246_" fill="#B0BEC5" d="M88.294,198.845l-11.988,4.049c-7.939,0-14.449,1.905-14.449,9.209l-7.621,19.768
					h109.002l-7.701-19.768c0-7.224-6.431-9.13-14.449-9.13l-13.02-4.049"/>
				<path id="XMLID_245_" fill="#37474F" d="M163.159,233.935H54.315c-0.715,0-1.35-0.318-1.747-0.953
					c-0.397-0.476-0.476-1.191-0.238-1.905l7.621-19.53c0.238-7.145,5.557-10.797,16.037-10.876l11.67-3.969
					c1.032-0.397,2.223,0.238,2.54,1.35c0.318,1.111-0.238,2.223-1.35,2.54l-11.988,4.049c-0.238,0.079-0.397,0.079-0.635,0.079
					c-10.956,0-12.385,3.89-12.385,7.224c0,0.238,0,0.476-0.079,0.715l-6.589,17.148h102.969l-6.589-17.069
					c-0.079-0.238-0.079-0.476-0.079-0.715c0-3.334-1.429-7.145-12.385-7.145c-0.238,0-0.397,0-0.635-0.079l-13.02-4.049
					c-1.111-0.318-1.588-1.508-1.35-2.54c0.318-1.111,1.508-1.588,2.54-1.35l12.702,3.969c10.479,0.079,15.957,3.652,16.116,10.797
					l7.621,19.53c0.238,0.635,0.238,1.35-0.238,1.905C164.508,233.618,163.873,233.935,163.159,233.935z"/>
			</g>
			<g id="XMLID_241_">
				<path id="XMLID_243_" fill="#78909C" d="M77.021,126.6c7.939-8.336,16.989-16.275,31.677-16.275s26.596,11.035,26.596,24.69"/>
				<path id="XMLID_242_" fill="#37474F" d="M135.372,137.08c-1.111,0-2.064-0.953-2.064-2.064
					c0-12.464-10.956-22.626-24.611-22.626c-14.29,0-23.023,8.018-30.168,15.64c-0.794,0.794-2.064,0.794-2.858,0.079
					c-0.794-0.794-0.794-2.064-0.079-2.858c7.701-8.098,17.148-16.831,33.106-16.831c15.878,0,28.66,11.988,28.66,26.675
					C137.357,136.127,136.563,137.08,135.372,137.08z"/>
			</g>
			<g id="XMLID_238_">
				<path id="XMLID_240_" fill="#FFFFFF" d="M87.103,144.145c0,17.545,8.018,38.028,21.673,38.028s21.673-20.403,21.673-38.028"/>
				<path id="XMLID_239_" fill="#37474F" d="M108.697,184.158c-14.608,0-23.658-20.721-23.658-40.013
					c0-1.111,0.953-2.064,2.064-2.064c1.111,0,2.064,0.953,2.064,2.064c0,17.386,7.939,35.964,19.609,35.964
					s19.609-18.577,19.609-35.964c0-1.111,0.953-2.064,2.064-2.064s2.064,0.953,2.064,2.064
					C132.355,163.437,123.384,184.158,108.697,184.158z"/>
			</g>
			<g id="XMLID_215_">
				<g id="XMLID_227_">
					<g id="XMLID_233_">
						<circle id="XMLID_237_" fill="#FFFFFF" cx="97.344" cy="149.941" r="8.415"/>
						<path id="XMLID_234_" fill="#37474F" d="M97.344,160.42c-5.795,0-10.479-4.684-10.479-10.479
							c0-5.795,4.684-10.479,10.479-10.479c5.795,0,10.479,4.684,10.479,10.479C107.824,155.736,103.06,160.42,97.344,160.42z
							 M97.344,143.59c-3.573,0-6.431,2.858-6.431,6.431s2.858,6.431,6.431,6.431s6.431-2.858,6.431-6.431
							C103.775,146.368,100.838,143.59,97.344,143.59z"/>
					</g>
					<g id="XMLID_228_">
						<line id="XMLID_230_" fill="none" x1="83.292" y1="150.655" x2="88.373" y2="150.655"/>
						<path id="XMLID_229_" fill="#37474F" d="M88.373,152.719h-5.081c-1.111,0-2.064-0.953-2.064-2.064
							c0-1.111,0.953-2.064,2.064-2.064h5.081c1.111,0,2.064,0.953,2.064,2.064S89.564,152.719,88.373,152.719z"/>
					</g>
				</g>
				<g id="XMLID_216_">
					<g id="XMLID_220_">
						<circle id="XMLID_226_" fill="#FFFFFF" cx="120.209" cy="149.941" r="8.415"/>
						<path id="XMLID_221_" fill="#37474F" d="M120.129,160.42c-5.795,0-10.479-4.684-10.479-10.479
							c0-5.795,4.763-10.479,10.479-10.479c5.795,0,10.479,4.684,10.479,10.479C130.529,155.736,125.925,160.42,120.129,160.42z
							 M120.129,143.59c-3.573,0-6.431,2.858-6.431,6.431s2.858,6.431,6.431,6.431s6.431-2.858,6.431-6.431
							C126.48,146.368,123.622,143.59,120.129,143.59z"/>
					</g>
					<g id="XMLID_217_">
						<line id="XMLID_219_" fill="none" x1="134.102" y1="149.623" x2="129.021" y2="149.623"/>
						<path id="XMLID_218_" fill="#37474F" d="M134.102,151.687h-5.081c-1.111,0-2.064-0.953-2.064-2.064
							c0-1.111,0.953-2.064,2.064-2.064h5.081c1.111,0,2.064,0.953,2.064,2.064C136.166,150.735,135.213,151.687,134.102,151.687z"
							/>
					</g>
				</g>
			</g>
			<g id="XMLID_152_">
				<g id="XMLID_212_">
					<line id="XMLID_214_" fill="none" x1="99.567" y1="180.109" x2="99.567" y2="194.32"/>
					<path id="XMLID_213_" fill="#37474F" d="M99.567,196.384c-1.111,0-2.064-0.953-2.064-2.064v-14.211
						c0-1.111,0.953-2.064,2.064-2.064s2.064,0.953,2.064,2.064v14.211C101.631,195.431,100.679,196.384,99.567,196.384z"/>
				</g>
				<g id="XMLID_153_">
					<line id="XMLID_156_" fill="none" x1="117.827" y1="180.109" x2="117.827" y2="194.32"/>
					<path id="XMLID_154_" fill="#37474F" d="M117.827,196.384c-1.111,0-2.064-0.953-2.064-2.064v-14.211
						c0-1.111,0.953-2.064,2.064-2.064c1.111,0,2.064,0.953,2.064,2.064v14.211C119.891,195.431,119.018,196.384,117.827,196.384z"
						/>
				</g>
			</g>
			<g id="XMLID_147_">
				<path id="XMLID_151_" fill="#FFFFFF" d="M127.513,196.86c0,4.763-8.415,8.654-18.815,8.654s-18.815-3.89-18.815-8.654"/>
				<path id="XMLID_150_" fill="#37474F" d="M108.697,207.578c-11.909,0-20.8-4.605-20.8-10.638c0-1.111,0.953-2.064,2.064-2.064
					c1.111,0,2.064,0.953,2.064,2.064c0,3.176,7.224,6.589,16.751,6.589s16.751-3.493,16.751-6.589c0-1.111,0.953-2.064,2.064-2.064
					c1.111,0,2.064,0.953,2.064,2.064C129.577,202.973,120.606,207.578,108.697,207.578z"/>
			</g>
			<g id="XMLID_144_">
				<path id="XMLID_146_" fill="#78909C" d="M126.322,130.331c0,6.986-22.785,9.844-32.074,9.844s-16.989-5.716-16.989-12.702"/>
				<path id="XMLID_145_" fill="#37474F" d="M94.328,142.24c-10.479,0-18.974-6.589-18.974-14.767c0-1.111,0.953-2.064,2.064-2.064
					c1.111,0,2.064,0.953,2.064,2.064c0,5.875,6.669,10.638,14.925,10.638c12.782,0,30.089-3.89,30.089-7.86
					c0-1.111,0.953-2.064,2.064-2.064c1.111,0,2.064,0.953,2.064,2.064C128.306,141.525,94.566,142.24,94.328,142.24z"/>
			</g>
		</g>
		<g id="XMLID_140_">
			<path id="XMLID_142_" fill="#FFAB00" d="M132.911,231.633c-4.446-8.812-13.576-14.925-24.214-14.925s-19.689,6.113-24.214,14.925
				"/>
			<path id="XMLID_141_" fill="#37474F" d="M132.911,233.618c-0.715,0-1.429-0.397-1.826-1.111
				c-4.287-8.495-12.861-13.814-22.309-13.814s-18.101,5.319-22.309,13.814c-0.476,1.032-1.747,1.429-2.779,0.953
				c-1.032-0.476-1.429-1.747-0.953-2.779c5.002-9.844,14.925-16.037,26.04-16.037s21.038,6.113,26.04,16.037
				c0.476,1.032,0.079,2.223-0.953,2.779C133.546,233.539,133.229,233.618,132.911,233.618z"/>
		</g>
	</g>
</g>
</svg>
