<?xml version="1.0" encoding="utf-8"?>
<!-- Generator: Adobe Illustrator 19.0.0, SVG Export Plug-In . SVG Version: 6.00 Build 0)  -->
<svg version="1.1" id="Layer_1" xmlns="http://www.w3.org/2000/svg" xmlns:xlink="http://www.w3.org/1999/xlink" x="0px" y="0px"
	 viewBox="0 0 60 60" style="enable-background:new 0 0 60 60;" xml:space="preserve">
<g transform="translate(0,-952.36218)">
	<path id="XMLID_1_" d="M0,982.3c0,0.5,0.3,1.1,0.6,1.5l17.8,18.9c0.8,0.8,2.2,0.9,3.1,0.1c0.9-0.8,0.9-2.3,0.1-3.1L7.3,984.5h50.5
		c1.3,0,2.2-1,2.2-2.2c0-1.3-1-2.2-2.2-2.2H7.3L21.6,965c0.8-0.8,0.7-2.3-0.1-3.1c-0.9-0.9-2.3-0.8-3.1,0.1L0.6,980.7
		C0.1,981.3,0,981.8,0,982.3z"/>
</g>
</svg>
