<?xml version="1.0" encoding="utf-8"?>
<!-- Generator: Adobe Illustrator 20.0.0, SVG Export Plug-In . SVG Version: 6.00 Build 0)  -->
<svg version="1.1" id="Layer_1" xmlns="http://www.w3.org/2000/svg" xmlns:xlink="http://www.w3.org/1999/xlink" x="0px" y="0px"
	 viewBox="0 0 63.3 62.7" style="enable-background:new 0 0 63.3 62.7;" xml:space="preserve">
<style type="text/css">
	.st0{fill:#3594CB;}
</style>
<g>
	<g>
		<path class="st0" d="M50.1,45.6H13.3c-1.8,0-3.3-1.5-3.3-3.3V20.4c0-1.8,1.5-3.3,3.3-3.3h36.8c1.8,0,3.3,1.5,3.3,3.3v21.9
			C53.4,44.1,51.9,45.6,50.1,45.6z M13.3,19.3c-0.6,0-1.1,0.5-1.1,1.1v21.9c0,0.6,0.5,1.1,1.1,1.1h36.8c0.6,0,1.1-0.5,1.1-1.1V20.4
			c0-0.6-0.5-1.1-1.1-1.1H13.3z"/>
	</g>
	<g>
		<rect x="11.1" y="24.2" class="st0" width="41.2" height="2.2"/>
	</g>
	<g>
		<circle class="st0" cx="15.2" cy="21.8" r="1.2"/>
	</g>
	<g>
		<circle class="st0" cx="18.6" cy="21.8" r="1.2"/>
	</g>
	<g>
		<circle class="st0" cx="21.9" cy="21.8" r="1.2"/>
	</g>
</g>
</svg>
