<?xml version="1.0" encoding="utf-8"?>
<!-- Generator: Adobe Illustrator 20.0.0, SVG Export Plug-In . SVG Version: 6.00 Build 0)  -->
<svg version="1.1" id="Layer_1" xmlns="http://www.w3.org/2000/svg" xmlns:xlink="http://www.w3.org/1999/xlink" x="0px" y="0px"
	 viewBox="0 0 122 120.8" style="enable-background:new 0 0 122 120.8;" xml:space="preserve">
<style type="text/css">
	.st0{fill:#3594CB;}
</style>
<path class="st0" d="M85,57.5c0,1.4,1.1,2.5,2.5,2.5s2.5-1.1,2.5-2.5C90,42.3,77.7,30,62.5,30c-1.4,0-2.5,1.1-2.5,2.5
	s1.1,2.5,2.5,2.5C74.9,35,85,45.1,85,57.5z"/>
<path class="st0" d="M98.4,72.7l-20-7.5c-0.9-0.3-2-0.1-2.6,0.6l-6,6c-8.4-5.9-15.6-13.1-21.5-21.5l6-6c0.7-0.7,0.9-1.7,0.6-2.6
	l-7.5-20C47,20.6,46,20,45,20h-1.4c-6.2,0-12.1,2.4-16.5,6.8l0,0C22.5,31.4,20,37.6,20,44.1c0,4.3,1.1,8.6,3.3,12.3
	C33,73,47,87,63.6,96.7c3.7,2.2,8,3.3,12.3,3.3c6.5,0,12.7-2.5,17.3-7.2c4.4-4.4,6.8-10.2,6.8-16.5V75C100,74,99.4,73,98.4,72.7z
	 M89.7,89.3C86,93,81.1,95,75.9,95c-3.4,0-6.8-0.9-9.8-2.6c-15.9-9.3-29.2-22.6-38.5-38.5c-1.7-3-2.6-6.3-2.6-9.8
	c0-5.2,2-10.1,5.7-13.7l0,0c3.4-3.4,7.8-5.3,12.6-5.3l6.3,16.9l-6.4,6.4c-0.8,0.8-1,2.2-0.3,3.2c6.8,10.2,15.5,18.9,25.7,25.7
	c1,0.7,2.3,0.5,3.2-0.3l6.4-6.4L95,76.7C94.9,81.5,93,85.9,89.7,89.3z"/>
<path class="st0" d="M62.5,20c-1.4,0-2.5,1.1-2.5,2.5s1.1,2.5,2.5,2.5C80.4,25,95,39.6,95,57.5c0,1.4,1.1,2.5,2.5,2.5
	s2.5-1.1,2.5-2.5C100,36.8,83.2,20,62.5,20z"/>
</svg>
