<?xml version="1.0" encoding="utf-8"?>
<!-- Generator: Adobe Illustrator 20.0.0, SVG Export Plug-In . SVG Version: 6.00 Build 0)  -->
<svg version="1.1" id="Layer_1" xmlns="http://www.w3.org/2000/svg" xmlns:xlink="http://www.w3.org/1999/xlink" x="0px" y="0px"
	 viewBox="0 0 33.3 36.6" style="enable-background:new 0 0 33.3 36.6;" xml:space="preserve">
<style type="text/css">
	.st0{fill:#6CBFEE;}
</style>
<g>
	<rect x="5.5" y="19.5" class="st0" width="2" height="5"/>
	<rect x="8.5" y="17.5" class="st0" width="2" height="7"/>
	<rect x="11.5" y="19.5" class="st0" width="2" height="5"/>
	<path class="st0" d="M6.2,18.2l3.3-3.3l2.3,2.3c0.4,0.4,1,0.4,1.4,0l8.5-8.5l1.8,1.8v-5h-4.9l1.7,1.8l-7.8,7.8l-2.3-2.3
		c-0.4-0.4-1-0.4-1.4,0l-4,4c-0.4,0.4-0.4,1,0,1.4c0.2,0.2,0.5,0.3,0.7,0.3S6,18.4,6.2,18.2z"/>
	<rect x="14.5" y="17.5" class="st0" width="2" height="7"/>
	<path class="st0" d="M19.5,17.9v-3.4h-2v5C18,18.8,18.7,18.3,19.5,17.9z"/>
	<path class="st0" d="M20.5,17.6c0.3-0.1,0.7-0.1,1-0.1s0.7,0,1,0.1v-5.1h-2V17.6z"/>
	<path class="st0" d="M28.2,27.8l-3.3-3.3c0.4-0.6,0.6-1.3,0.6-2c0-2.2-1.8-4-4-4s-4,1.8-4,4s1.8,4,4,4c0.7,0,1.4-0.2,2-0.6l3.3,3.3
		c0.2,0.2,0.5,0.3,0.7,0.3s0.5-0.1,0.7-0.3C28.6,28.8,28.6,28.2,28.2,27.8z M18.5,22.5c0-1.7,1.3-3,3-3s3,1.3,3,3s-1.3,3-3,3
		S18.5,24.2,18.5,22.5z"/>
</g>
</svg>
