<?xml version="1.0" encoding="utf-8"?>
<!-- Generator: Adobe Illustrator 20.0.0, SVG Export Plug-In . SVG Version: 6.00 Build 0)  -->
<svg version="1.1" id="Layer_1" xmlns="http://www.w3.org/2000/svg" xmlns:xlink="http://www.w3.org/1999/xlink" x="0px" y="0px"
	 viewBox="0 0 166 165.9" style="enable-background:new 0 0 166 165.9;" xml:space="preserve">
<style type="text/css">
	.st0{fill:none;}
	.st1{fill:#3594CB;}
</style>
<g>
	<path class="st0" d="M114.5,45.4l12.2,0l-14.8-18.7v16.1C111.9,44.2,113.1,45.4,114.5,45.4z"/>
	<path class="st0" d="M111.4,48.5c-1.4,0-2.6-1.2-2.6-2.6V22.8v-1.7H38.3c-1.6,0-2.8,1.3-2.8,2.8v0v99.7V142c0,1.6,1.3,2.8,2.8,2.8
		h15.9h73.4c1.6,0,2.8-1.3,2.8-2.8V48.5h-1.3H111.4z M50.2,43.2c0-1.4,1.1-2.5,2.5-2.5h25.5c1.4,0,2.5,1.1,2.5,2.5v0.8
		c0,1.4-1.1,2.5-2.5,2.5H52.7c-1.4,0-2.5-1.1-2.5-2.5V43.2z M115.7,122.7c0,1.4-1.1,2.5-2.5,2.5H52.7c-1.4,0-2.5-1.1-2.5-2.5v-0.8
		c0-1.4,1.1-2.5,2.5-2.5h60.5c1.4,0,2.5,1.1,2.5,2.5V122.7z M115.7,106.9c0,1.4-1.1,2.5-2.5,2.5H52.7c-1.4,0-2.5-1.1-2.5-2.5v-0.8
		c0-1.4,1.1-2.5,2.5-2.5h60.5c1.4,0,2.5,1.1,2.5,2.5V106.9z M115.7,91.2c0,1.4-1.1,2.5-2.5,2.5H52.7c-1.4,0-2.5-1.1-2.5-2.5v-0.8
		c0-1.4,1.1-2.5,2.5-2.5h60.5c1.4,0,2.5,1.1,2.5,2.5V91.2z M115.7,75.4c0,1.4-1.1,2.5-2.5,2.5H52.7c-1.4,0-2.5-1.1-2.5-2.5v-0.8
		c0-1.4,1.1-2.5,2.5-2.5h60.5c1.4,0,2.5,1.1,2.5,2.5V75.4z M115.7,59.7c0,1.4-1.1,2.5-2.5,2.5H52.7c-1.4,0-2.5-1.1-2.5-2.5v-0.8
		c0-1.4,1.1-2.5,2.5-2.5h60.5c1.4,0,2.5,1.1,2.5,2.5V59.7z"/>
	<path class="st1" d="M113.2,56.4H52.7c-1.4,0-2.5,1.1-2.5,2.5v0.8c0,1.4,1.1,2.5,2.5,2.5h60.5c1.4,0,2.5-1.1,2.5-2.5v-0.8
		C115.7,57.6,114.6,56.4,113.2,56.4z"/>
	<path class="st1" d="M52.7,46.4h25.5c1.4,0,2.5-1.1,2.5-2.5v-0.8c0-1.4-1.1-2.5-2.5-2.5H52.7c-1.4,0-2.5,1.1-2.5,2.5v0.8
		C50.2,45.3,51.4,46.4,52.7,46.4z"/>
	<path class="st1" d="M113.2,72.2H52.7c-1.4,0-2.5,1.1-2.5,2.5v0.8c0,1.4,1.1,2.5,2.5,2.5h60.5c1.4,0,2.5-1.1,2.5-2.5v-0.8
		C115.7,73.3,114.6,72.2,113.2,72.2z"/>
	<path class="st1" d="M113.2,87.9H52.7c-1.4,0-2.5,1.1-2.5,2.5v0.8c0,1.4,1.1,2.5,2.5,2.5h60.5c1.4,0,2.5-1.1,2.5-2.5v-0.8
		C115.7,89.1,114.6,87.9,113.2,87.9z"/>
	<path class="st1" d="M113.2,103.7H52.7c-1.4,0-2.5,1.1-2.5,2.5v0.8c0,1.4,1.1,2.5,2.5,2.5h60.5c1.4,0,2.5-1.1,2.5-2.5v-0.8
		C115.7,104.8,114.6,103.7,113.2,103.7z"/>
	<path class="st1" d="M113.2,119.4H52.7c-1.4,0-2.5,1.1-2.5,2.5v0.8c0,1.4,1.1,2.5,2.5,2.5h60.5c1.4,0,2.5-1.1,2.5-2.5v-0.8
		C115.7,120.6,114.6,119.4,113.2,119.4z"/>
	<path class="st1" d="M130.5,45.4L130.5,45.4l-18.6-23.5l-0.7-0.8l-2.5-3.1H36c-1.6,0-3,1.3-3,3v0v104.7V145c0,1.6,1.3,3,3,3h16.7
		H130c1.6,0,3-1.3,3-3V48.5L130.5,45.4z M111.9,26.7l14.8,18.7l-12.2,0c-1.4,0-2.6-1.2-2.6-2.6L111.9,26.7L111.9,26.7z M130.5,142
		c0,1.6-1.3,2.8-2.8,2.8H54.2H38.3c-1.6,0-2.8-1.3-2.8-2.8v-18.5V23.9v0c0-1.6,1.3-2.8,2.8-2.8h70.5v1.7v23.1c0,1.4,1.2,2.6,2.6,2.6
		h17.8h1.3V142z"/>
</g>
</svg>
