<?xml version="1.0" encoding="utf-8"?>
<!-- Generator: Adobe Illustrator 20.0.0, SVG Export Plug-In . SVG Version: 6.00 Build 0)  -->
<svg version="1.1" id="Layer_1" xmlns:sketch="http://www.bohemiancoding.com/sketch/ns"
	 xmlns="http://www.w3.org/2000/svg" xmlns:xlink="http://www.w3.org/1999/xlink" x="0px" y="0px" viewBox="0 0 143.4 141"
	 style="enable-background:new 0 0 143.4 141;" xml:space="preserve">
<style type="text/css">
	.st0{fill:#6CBFEE;}
</style>
<title>chart_area_3</title>
<description>Created with Sketch (http://www.bohemiancoding.com/sketch)</description>
<g sketch:type="MSPage">
	<path sketch:type="MSShapeGroup" class="st0" d="M25.7,116.5h91v-2l5,3l-5,3v-2l0,0h-93V117V25.5h-2l3-5l3,5h-2V116.5z M27.7,114.5
		L41.8,87l12.8,11l23.2-12l16.2,10.2L112.7,75v39.6H27.7z M28.8,107.4L41.4,83l13.3,12l23.9-12L94,92.3l18.7-21.7v-22L92,75.4
		L73.3,57.6l-16,21.9L32.7,68L28.8,107.4z"/>
</g>
</svg>
