<?xml version="1.0" encoding="utf-8"?>
<!-- Generator: Adobe Illustrator 20.0.0, SVG Export Plug-In . SVG Version: 6.00 Build 0)  -->
<svg version="1.1" id="Layer_1" xmlns="http://www.w3.org/2000/svg" xmlns:xlink="http://www.w3.org/1999/xlink" x="0px" y="0px"
	 viewBox="0 0 126 124.7" style="enable-background:new 0 0 126 124.7;" xml:space="preserve">
<style type="text/css">
	.st0{fill:#3594CB;}
</style>
<path class="st0" d="M23.7,98.6h78.5c4,0,7.2-3.2,7.2-7.2V30.5c0-4-3.2-7.2-7.2-7.2H23.7c-4,0-7.2,3.2-7.2,7.2v60.9
	C16.6,95.4,19.8,98.6,23.7,98.6z M102.3,93.6H23.7c-1.2,0-2.2-1-2.2-2.2V45.9h82.9v45.5C104.4,92.7,103.5,93.6,102.3,93.6z
	 M23.7,28.4h78.5c1.2,0,2.2,1,2.2,2.2V41H21.6V30.5C21.6,29.3,22.5,28.4,23.7,28.4z M34.9,34.6c0-1.7,1.4-3,3-3c1.6,0,3,1.4,3,3
	c0,1.7-1.4,3-3,3C36.3,37.6,34.9,36.3,34.9,34.6z M44.9,34.6c0-1.7,1.4-3,3-3c1.7,0,3,1.4,3,3c0,1.7-1.4,3-3,3
	C46.3,37.7,44.9,36.3,44.9,34.6z M24.9,34.6c0-1.7,1.4-3,3-3s3,1.4,3,3c0,1.7-1.4,3-3,3S24.9,36.3,24.9,34.6z M75,56.2H51
	c-1.4,0-2.5,1.1-2.5,2.5v24.1c0,1.4,1.1,2.5,2.5,2.5h24c1.4,0,2.5-1.1,2.5-2.5V58.7C77.5,57.4,76.4,56.2,75,56.2z M72.5,80.3h-19
	V61.2h19.1L72.5,80.3L72.5,80.3z M87.1,61v19.6c0,1.4-1.1,2.5-2.5,2.5s-2.5-1.1-2.5-2.5V61c0-1.4,1.1-2.5,2.5-2.5S87.1,59.6,87.1,61
	z M96.4,63.8v13.9c0,1.4-1.1,2.5-2.5,2.5s-2.5-1.1-2.5-2.5V63.8c0-1.4,1.1-2.5,2.5-2.5S96.4,62.4,96.4,63.8z M43.8,61v19.6
	c0,1.4-1.1,2.5-2.5,2.5s-2.5-1.1-2.5-2.5V61c0-1.4,1.1-2.5,2.5-2.5S43.8,59.6,43.8,61z M34.5,63.9v13.9c0,1.4-1.1,2.5-2.5,2.5
	c-1.4,0-2.5-1.1-2.5-2.5V63.9c0-1.4,1.1-2.5,2.5-2.5C33.4,61.4,34.5,62.5,34.5,63.9z"/>
</svg>
