<?xml version="1.0" encoding="utf-8"?>
<!-- Generator: Adobe Illustrator 20.0.0, SVG Export Plug-In . SVG Version: 6.00 Build 0)  -->
<svg version="1.1" id="Layer_1" xmlns="http://www.w3.org/2000/svg" xmlns:xlink="http://www.w3.org/1999/xlink" x="0px" y="0px"
	 viewBox="0 0 149 149" style="enable-background:new 0 0 149 149;" xml:space="preserve">
<style type="text/css">
	.st0{fill:#3594CB;}
</style>
<path class="st0" d="M117.3,112.7L91.9,87.3c4.4-6.2,6.7-13.5,6.7-21.2c0-9.9-3.8-19.2-10.8-26.1c-7-7-16.3-10.8-26.1-10.8
	c-9.9,0-19.2,3.8-26.1,10.8c-7,7-10.8,16.3-10.8,26.1c0,9.9,3.8,19.2,10.8,26.1c7,7,16.3,10.8,26.1,10.8c7.5,0,14.7-2.2,20.8-6.4
	l25.5,25.5c1.3,1.3,3,1.9,4.7,1.9c1.7,0,3.4-0.6,4.7-1.9C119.9,119.5,119.9,115.3,117.3,112.7z M61.6,91.9c-6.9,0-13.4-2.7-18.3-7.6
	c-4.9-4.9-7.6-11.4-7.6-18.3s2.7-13.4,7.6-18.3c4.9-4.9,11.4-7.6,18.3-7.6c6.9,0,13.4,2.7,18.3,7.6c4.9,4.9,7.6,11.4,7.6,18.3
	s-2.7,13.4-7.6,18.3C75,89.2,68.5,91.9,61.6,91.9z"/>
</svg>
