<?xml version="1.0" encoding="utf-8"?>
<!-- Generator: Adobe Illustrator 20.0.0, SVG Export Plug-In . SVG Version: 6.00 Build 0)  -->
<svg version="1.1" id="Layer_1" xmlns="http://www.w3.org/2000/svg" xmlns:xlink="http://www.w3.org/1999/xlink" x="0px" y="0px"
	 viewBox="0 0 35 35" style="enable-background:new 0 0 35 35;" xml:space="preserve">
<style type="text/css">
	.st0{fill:#6CBFEE;}
</style>
<path class="st0" d="M27.5,24.5c-0.7,0-1.4,0.4-1.7,1h-3.1c-0.3-0.6-1-1-1.7-1s-1.4,0.4-1.7,1h-3.1c-0.3-0.6-1-1-1.7-1
	s-1.4,0.4-1.7,1H11c-1.9,0-3.5-1.6-3.5-3.5s1.6-3.5,3.5-3.5h1.8c0.3,0.6,1,1,1.7,1s1.4-0.4,1.7-1h3.1c0.3,0.6,1,1,1.7,1
	s1.4-0.4,1.7-1H24c3,0,5.5-2.5,5.5-5.5S27,7.5,24,7.5h-1.3c-0.3-0.6-1-1-1.7-1s-1.4,0.4-1.7,1h-3.1c-0.3-0.6-1-1-1.7-1
	s-1.4,0.4-1.7,1H9.2c-0.3-0.6-1-1-1.7-1c-1.1,0-2,0.9-2,2s0.9,2,2,2c0.7,0,1.4-0.4,1.7-1h3.6c0.3,0.6,1,1,1.7,1s1.4-0.4,1.7-1h3.1
	c0.3,0.6,1,1,1.7,1s1.4-0.4,1.7-1H24c1.9,0,3.5,1.6,3.5,3.5s-1.6,3.5-3.5,3.5h-1.3c-0.3-0.6-1-1-1.7-1s-1.4,0.4-1.7,1h-3.1
	c-0.3-0.6-1-1-1.7-1s-1.4,0.4-1.7,1H11c-3,0-5.5,2.5-5.5,5.5S8,27.5,11,27.5h1.8c0.3,0.6,1,1,1.7,1s1.4-0.4,1.7-1h3.1
	c0.3,0.6,1,1,1.7,1s1.4-0.4,1.7-1h3.1c0.3,0.6,1,1,1.7,1c1.1,0,2-0.9,2-2C29.5,25.4,28.6,24.5,27.5,24.5z M22,8.5c0,0.6-0.4,1-1,1
	c-0.6,0-1-0.4-1-1s0.4-1,1-1C21.6,7.5,22,8,22,8.5z M15.5,8.5c0,0.6-0.4,1-1,1c-0.6,0-1-0.4-1-1s0.4-1,1-1C15.1,7.5,15.5,8,15.5,8.5
	z M13.5,17.5c0-0.6,0.4-1,1-1c0.6,0,1,0.4,1,1s-0.4,1-1,1C13.9,18.5,13.5,18.1,13.5,17.5z M20,17.5c0-0.6,0.4-1,1-1c0.6,0,1,0.4,1,1
	s-0.4,1-1,1C20.4,18.5,20,18.1,20,17.5z M22,26.5c0,0.6-0.4,1-1,1c-0.6,0-1-0.4-1-1s0.4-1,1-1C21.6,25.5,22,26,22,26.5z M15.5,26.5
	c0,0.6-0.4,1-1,1c-0.6,0-1-0.4-1-1s0.4-1,1-1C15.1,25.5,15.5,26,15.5,26.5z"/>
</svg>
