<?xml version="1.0" encoding="utf-8"?>
<!-- Generator: Adobe Illustrator 20.0.0, SVG Export Plug-In . SVG Version: 6.00 Build 0)  -->
<svg version="1.1" id="Layer_1" xmlns="http://www.w3.org/2000/svg" xmlns:xlink="http://www.w3.org/1999/xlink" x="0px" y="0px"
	 viewBox="0 0 140 148.4" style="enable-background:new 0 0 140 148.4;" xml:space="preserve">
<style type="text/css">
	.st0{fill:#6CBFEE;}
</style>
<g>
	<g>
		<path class="st0" d="M69,101.2c1.1,4,3.1,8.9,3.5,11.5c1.3,8.3-10.5,12.3-15.2,5.6c-2.2-3.2-2.3-6.2-4-11.5
			c-5.9,1.6-9.1,4-13.6,3.5c-6.7-0.9-8.5-10.2-3.7-14.4c3-2.7,7.8-2.6,12-4.5c0,0-3.9-12.3-6.1-18.1c-4.4,1.3-11,4.1-13.9,3.5
			c-3.5-1.4-5.9-4.2-5.9-8C22.3,61,31,60.4,36.8,58c-1.4-4.5-3.8-7.6-3.5-12.5c0.4-6.3,7.9-10,13.3-6.1c2.6,1.8,4.2,8.4,5.9,13.3
			l17.9-5.9c-2-6.5-6-13-1.1-17.9c3.7-3.7,10.1-2.7,12.8,1.1c2.5,3.5,2.7,7.8,4,11.5c4.8-1.7,10.9-4.7,15.5-3.2
			c3.7,1.3,5.5,6.2,4.5,9.3c-1.9,5.9-8.6,6.7-14.7,8.8l5.9,18.1c5-1.6,7.5-3.8,12.3-3.7c4.8,0,7.8,3.5,8.3,6.9
			c1.1,8.9-8.9,9.7-15.2,12c1.9,6.2,3.6,7.6,3.5,12.5c-0.2,8.5-10.9,10.4-15.5,4c-1.7-2.3-2.1-6.1-3.7-10.9
			C86.9,95.4,69.3,101.5,69,101.2z M81.5,79.9l-6.4-18.1l-17.3,6.1l5.9,17.9L81.5,79.9z"/>
	</g>
</g>
</svg>
