<?xml version="1.0" encoding="utf-8"?>
<!-- Generator: Adobe Illustrator 20.0.0, SVG Export Plug-In . SVG Version: 6.00 Build 0)  -->
<svg version="1.1" id="Layer_1" xmlns="http://www.w3.org/2000/svg" xmlns:xlink="http://www.w3.org/1999/xlink" x="0px" y="0px"
	 viewBox="0 0 101.7 101.3" style="enable-background:new 0 0 101.7 101.3;" xml:space="preserve">
<style type="text/css">
	.st0{fill:#3594CB;}
</style>
<path class="st0" d="M68.8,50.1c0,11-5.6,20.7-14.1,26.4c-1-0.3-1.9-0.7-2.9-1.2c8.6-5.1,14.4-14.5,14.4-25.2S60.4,30,51.8,24.9
	c0.9-0.5,1.9-0.9,2.9-1.2C63.3,29.4,68.8,39.1,68.8,50.1z M37.1,79.4c-16.2,0-29.3-13.2-29.3-29.3s13.1-29.3,29.3-29.3
	c3.2,0,6.3,0.5,9.2,1.5c0.9-0.6,1.9-1.1,2.8-1.6c-3.7-1.5-7.8-2.4-12-2.4c-17.5,0-31.8,14.3-31.8,31.8s14.3,31.8,31.8,31.8
	c4.3,0,8.3-0.9,12-2.4c-1-0.5-1.9-1-2.8-1.6C43.4,78.8,40.3,79.4,37.1,79.4z M64.7,46.9l-21,21.2c0.2,0.2,0.3,0.4,0.5,0.5l20.6-20.8
	C64.8,47.5,64.8,47.2,64.7,46.9z M64.2,44.1L42.1,66.4c0.2,0.2,0.3,0.4,0.5,0.6l21.8-22C64.3,44.7,64.3,44.4,64.2,44.1z M62.6,39.3
	L39.5,62.5c0.1,0.2,0.2,0.5,0.4,0.7l23-23.2C62.8,39.8,62.7,39.5,62.6,39.3z M63.5,41.6l-22.8,23c0.1,0.2,0.3,0.4,0.5,0.6l22.6-22.8
	C63.7,42.1,63.6,41.9,63.5,41.6z M65,50.1c0-0.1,0-0.1,0-0.2L45.3,69.7c0.2,0.2,0.4,0.3,0.6,0.5l19-19.1C64.9,50.7,65,50.4,65,50.1z
	 M63.9,57.5L49.2,72.4c0.2,0.1,0.4,0.3,0.7,0.4l13.4-13.5C63.4,58.7,63.7,58.1,63.9,57.5z M64.7,53.4L47.2,71.1
	c0.2,0.1,0.4,0.3,0.6,0.4l16.7-16.9C64.6,54.2,64.7,53.8,64.7,53.4z M61.2,63.5l-8.3,8.4C56.2,69.8,59.1,66.9,61.2,63.5z M61.4,37.2
	l-23,23.2c0.1,0.2,0.2,0.5,0.3,0.7l23.1-23.3C61.7,37.6,61.6,37.4,61.4,37.2z M53.6,28.8l-17,17.1c-0.1,0.4-0.1,0.8-0.2,1.2
	l17.8-17.9C54,29.1,53.8,28.9,53.6,28.8z M45.7,30.2l-3.8,3.9c-0.8,1-1.6,2.2-2.2,3.3l9.5-9.5C47.9,28.6,46.8,29.3,45.7,30.2z
	 M55.4,30.2L36.3,49.5c0,0.2,0,0.4,0,0.6s0,0.3,0,0.5l19.8-19.9C55.8,30.5,55.6,30.3,55.4,30.2z M51.6,27.6L37.8,41.5
	c-0.2,0.5-0.4,1.1-0.6,1.6l15-15.2C52,27.8,51.8,27.7,51.6,27.6z M60.1,35.2L37.5,58c0.1,0.3,0.2,0.5,0.3,0.8l22.8-23
	C60.5,35.6,60.3,35.4,60.1,35.2z M57.2,31.7L36.4,52.6c0,0.3,0,0.7,0.1,1l21.2-21.4C57.5,32.1,57.3,31.9,57.2,31.7z M58.8,33.4
	l-21.9,22c0.1,0.3,0.1,0.6,0.2,0.9l22.2-22.4C59.1,33.8,58.9,33.6,58.8,33.4z M95.9,50.1c0,17.5-14.3,31.8-31.8,31.8
	S32.4,67.6,32.4,50.1c0-11.5,6.2-21.6,15.4-27.2l0,0l0,0c0.9-0.5,1.8-1,2.8-1.5l0,0l0,0c4.1-1.9,8.7-3.1,13.5-3.1
	C81.6,18.3,95.9,32.6,95.9,50.1z M93.4,50.1c0-16.1-13.1-29.3-29.3-29.3c-3.8,0-7.4,0.7-10.7,2.1c-1,0.4-1.9,0.8-2.8,1.3
	c-9.3,4.9-15.7,14.6-15.7,25.9s6.4,21,15.7,25.9l0,0c0.9,0.5,1.8,0.9,2.8,1.3l0,0c3.3,1.3,6.9,2.1,10.7,2.1
	C80.3,79.4,93.4,66.2,93.4,50.1z"/>
</svg>
