<?xml version="1.0" encoding="utf-8"?>
<!-- Generator: Adobe Illustrator 21.0.2, SVG Export Plug-In . SVG Version: 6.00 Build 0)  -->
<svg version="1.1" xmlns="http://www.w3.org/2000/svg" xmlns:xlink="http://www.w3.org/1999/xlink" x="0px" y="0px"
	 viewBox="0 0 1119.3 189.3" style="enable-background:new 0 0 1119.3 189.3;" xml:space="preserve">
<style type="text/css">
	.st0{fill:#7F7F7F;}
	.st1{fill:#E73C0E;}
	.st2{fill:none;stroke:#E73C0E;stroke-width:5;stroke-miterlimit:10;}
	.st3{fill:none;stroke:#E73C0E;stroke-width:2;stroke-miterlimit:10;}
	.st4{fill:#ED9700;}
	.st5{fill:#FFAB00;}
	.st6{fill:#FFBB4D;}
	.st7{fill:#FFFFFF;}
	.st8{font-family:'OpenSans-Semibold';}
	.st9{font-size:20px;}
	.st10{font-size:14px;}
	.st11{font-size:16px;}
	.st12{font-family:'OpenSans';}
	.st13{font-size:12px;}
	.st14{font-family:'MyriadPro-Regular';}
</style>
<g id="Layer_2">
	<polygon class="st0" points="5.3,51.3 136.3,51.3 158.8,27.8 136.3,5.3 5.3,5.3 28.3,28.3 	"/>
	<polygon class="st1" points="143.3,51.3 267.3,51.3 289.8,27.8 267.3,5.3 143.3,5.3 166.3,28.3 	"/>
	<polygon class="st1" points="274.3,51.3 444.3,51.3 466.8,27.8 444.3,5.3 274.3,5.3 297.3,28.3 	"/>
	<polygon class="st1" points="451.3,51.3 621.3,51.3 643.8,27.8 621.3,5.3 451.3,5.3 474.3,28.3 	"/>
	<line class="st2" x1="262.8" y1="51.3" x2="262.8" y2="80.8"/>
	<line class="st3" x1="322.3" y1="51.3" x2="322.3" y2="80.8"/>
	<line class="st3" x1="381.3" y1="51.3" x2="381.3" y2="80.8"/>
	<line class="st2" x1="440.7" y1="51.3" x2="440.7" y2="80.8"/>
	<line class="st3" x1="500.2" y1="51.3" x2="500.2" y2="80.8"/>
	<line class="st3" x1="559.2" y1="51.3" x2="559.2" y2="80.8"/>
	<line class="st2" x1="618.6" y1="51.3" x2="618.6" y2="80.8"/>
	<polygon class="st1" points="629.3,51.3 799.3,51.3 821.8,27.8 799.3,5.3 629.3,5.3 652.3,28.3 	"/>
	<line class="st3" x1="678.2" y1="51.3" x2="678.2" y2="80.8"/>
	<line class="st3" x1="737.2" y1="51.3" x2="737.2" y2="80.8"/>
	<line class="st2" x1="796.6" y1="51.3" x2="796.6" y2="80.8"/>
	<line class="st3" x1="202.8" y1="51.3" x2="202.8" y2="82.3"/>
	<line class="st3" x1="1034.2" y1="81.3" x2="202.3" y2="81.3"/>
	<polygon class="st1" points="807.3,51.3 977.3,51.3 999.8,27.8 977.3,5.3 807.3,5.3 830.3,28.3 	"/>
	<line class="st3" x1="856.2" y1="51.3" x2="856.2" y2="80.8"/>
	<line class="st3" x1="915.2" y1="51.3" x2="915.2" y2="80.8"/>
	<line class="st2" x1="974.6" y1="51.3" x2="974.6" y2="81.3"/>
	<polygon class="st1" points="985.3,51.3 1094.3,51.3 1116.8,27.8 1094.3,5.3 985.3,5.3 1008.3,28.3 	"/>
	<line class="st3" x1="1034.2" y1="51.3" x2="1034.2" y2="82.3"/>
	<rect x="201.9" y="82.3" class="st4" width="357.4" height="60"/>
	<rect x="559.3" y="82.3" class="st5" width="148" height="60"/>
	<rect x="707.3" y="82.3" class="st6" width="328" height="60"/>
</g>
<g id="Layer_3">
	<text transform="matrix(1 0 0 1 53.6668 35.4183)" class="st7 st8 st9">Phase</text>
	<text transform="matrix(1 0 0 1 145.1688 71.4183)" class="st8 st10">Month</text>
	<text transform="matrix(1 0 0 1 209.0887 117.3766)" class="st7 st8 st11">Phase 1</text>
	<text transform="matrix(1 0 0 1 566.0887 117.3766)" class="st7 st8 st11">Phase 2</text>
	<text transform="matrix(1 0 0 1 715.0887 117.3766)" class="st7 st8 st11">Phase 3</text>
	<text transform="matrix(1 0 0 1 218.744 70.4183)" class="st12 st13">MAR</text>
	<text transform="matrix(1 0 0 1 282.575 70.4183)" class="st14 st13">APR</text>
	<text transform="matrix(1 0 0 1 339.9251 70.4183)" class="st14 st13">MAY</text>
	<text transform="matrix(1 0 0 1 401.617 70.4183)" class="st14 st13">JUN</text>
	<text transform="matrix(1 0 0 1 461.7332 70.4183)" class="st14 st13">JUL</text>
	<text transform="matrix(1 0 0 1 518.2371 70.4183)" class="st14 st13">AUG</text>
	<text transform="matrix(1 0 0 1 579.5648 70.4183)" class="st14 st13">SEP</text>
	<text transform="matrix(1 0 0 1 638.0711 70.4183)" class="st14 st13">OCT</text>
	<text transform="matrix(1 0 0 1 696.2371 70.4183)" class="st14 st13">NOV</text>
	<text transform="matrix(1 0 0 1 757.2391 70.4183)" class="st14 st13">DEC</text>
	<text transform="matrix(1 0 0 1 816.827 70.4183)" class="st14 st13">JAN</text>
	<text transform="matrix(1 0 0 1 876.5408 70.4183)" class="st14 st13">FEB</text>
	<text transform="matrix(1 0 0 1 932.9427 70.4183)" class="st14 st13">MAR</text>
	<text transform="matrix(1 0 0 1 181.6668 35.4183)" class="st7 st8 st9">Q1’2017</text>
	<text transform="matrix(1 0 0 1 332.6668 35.4183)" class="st7 st8 st9">Q2’2017</text>
	<text transform="matrix(1 0 0 1 509.6668 35.4183)" class="st7 st8 st9">Q3’2017</text>
	<text transform="matrix(1 0 0 1 690.6668 35.4183)" class="st7 st8 st9">Q4’2017</text>
	<text transform="matrix(1 0 0 1 864.6668 35.4183)" class="st7 st8 st9">Q1’2018</text>
	<text transform="matrix(1 0 0 1 994.575 70.4183)" class="st14 st13">APR</text>
	<text transform="matrix(1 0 0 1 1017.6668 35.4183)" class="st7 st8 st9">Q2’2018</text>
</g>
</svg>
