<?xml version="1.0" encoding="utf-8"?>
<!-- Generator: Adobe Illustrator 16.0.0, SVG Export Plug-In . SVG Version: 6.00 Build 0)  -->
<!DOCTYPE svg PUBLIC "-//W3C//DTD SVG 1.1//EN" "http://www.w3.org/Graphics/SVG/1.1/DTD/svg11.dtd">
<svg version="1.1" id="Layer_1" xmlns="http://www.w3.org/2000/svg" xmlns:xlink="http://www.w3.org/1999/xlink" x="0px" y="0px"
	 width="132px" height="132px" viewBox="0 0 132 132" enable-background="new 0 0 132 132" xml:space="preserve">
<g>
	<g>
		<path fill="#FFAB00" d="M116.4,69.5c0,27.5-22.3,49.7-49.8,49.7S16.9,97,16.9,69.5c0-27.5,22.3-49.7,49.8-49.7
			S116.4,42,116.4,69.5z"/>
		<path fill="#37474F" d="M66.6,120.8c-28.3,0-51.3-23-51.3-51.2s23-51.2,51.3-51.2c28.3,0,51.3,23,51.3,51.2S94.9,120.8,66.6,120.8
			z M66.6,21.3c-26.6,0-48.3,21.6-48.3,48.2s21.6,48.2,48.3,48.2c26.6,0,48.3-21.6,48.3-48.2S93.2,21.3,66.6,21.3z"/>
	</g>
	<g>
		<path fill="#FFFFFF" d="M83.5,120.6c0,5.1-4.2,8.9-9.3,8.9H59c-5.2,0-9.5-3.7-9.5-8.9v-15.2c0-5.1,4.4-9.9,9.5-9.9h15.1
			c5.2,0,9.3,4.8,9.3,9.9V120.6z"/>
		<path fill="#37474F" d="M74.2,131H59c-6.2,0-11-4.6-11-10.4v-15.2C48,99.3,53.2,94,59,94h15.1C80,94,85,99.2,85,105.4v15.2
			C85,126.4,80.2,131,74.2,131z M59,97c-4.2,0-8,4-8,8.4v15.2c0,4.1,3.5,7.4,8,7.4h15.1c4.5,0,7.8-3.2,7.8-7.4v-15.2
			c0-4.5-3.7-8.4-7.8-8.4H59z"/>
	</g>
	<g>
		<g>
			<path fill="#37474F" d="M68.5,103.5v8h7v3h-7v8h-4v-8h-7v-3h7v-8H68.5z"/>
			<path fill="#37474F" d="M68.5,124h-4c-0.8,0-1.5-0.7-1.5-1.5V116h-5.5c-0.8,0-1.5-0.7-1.5-1.5v-3c0-0.8,0.7-1.5,1.5-1.5H63v-6.5
				c0-0.8,0.7-1.5,1.5-1.5h4c0.8,0,1.5,0.7,1.5,1.5v6.5h5.5c0.8,0,1.5,0.7,1.5,1.5v3c0,0.8-0.7,1.5-1.5,1.5H70v6.5
				C70,123.3,69.3,124,68.5,124z M66,121h1v-6.5c0-0.8,0.7-1.5,1.5-1.5c-0.8,0-1.5-0.7-1.5-1.5V105h-1v6.5c0,0.8-0.7,1.5-1.5,1.5H59
				h5.5c0.8,0,1.5,0.7,1.5,1.5V121z"/>
		</g>
	</g>
	<g>
		<path fill="#FFFFFF" d="M77.3,79.6c0,2.9-2.3,4.9-5.2,4.9H61.1c-2.9,0-5.2-2-5.2-4.9L50.6,7.9c0-2.9,2.3-5.4,5.3-5.4h21.4
			c2.9,0,5.2,2.5,5.2,5.4L77.3,79.6z"/>
		<path fill="#37474F" d="M72.1,86H61.1c-3.8,0-6.7-2.7-6.7-6.4L49.2,8c0,0,0-0.1,0-0.1c0-3.8,3-6.9,6.8-6.9h21.4
			c3.7,0,6.7,3.1,6.7,6.9c0,0,0,0.1,0,0.1l-5.2,71.6C78.8,83.3,75.9,86,72.1,86z M52.1,7.9l5.3,71.6c0,0,0,0.1,0,0.1
			c0,2,1.6,3.4,3.7,3.4h10.9c2.2,0,3.7-1.4,3.7-3.4c0,0,0-0.1,0-0.1l5.2-71.6C81,5.8,79.3,4,77.3,4H55.9C53.9,4,52.2,5.8,52.1,7.9z"
			/>
	</g>
	<g>
		<g>
			<path fill="#37474F" d="M66.6,30.3c-1.3,0-2.3-1-2.3-2.3c0-1.3,1-2.4,2.3-2.4c1.2,0,2.3,1,2.3,2.4C68.9,29.3,67.9,30.3,66.6,30.3
				z"/>
			<path fill="#37474F" d="M66.6,30.8c-1.5,0-2.8-1.2-2.8-2.8c0-1.6,1.3-2.9,2.8-2.9s2.8,1.3,2.8,2.9C69.4,29.6,68.1,30.8,66.6,30.8
				z M66.6,26.2c-1,0-1.8,0.8-1.8,1.9c0,1,0.8,1.8,1.8,1.8s1.8-0.8,1.8-1.8C68.4,27.1,67.6,26.2,66.6,26.2z"/>
		</g>
		<g>
			<path fill="#37474F" d="M66.6,46.5c-1.3,0-2.3-1.1-2.3-2.3c0-1.3,1-2.3,2.3-2.3c1.2,0,2.3,1,2.3,2.3
				C68.9,45.4,67.9,46.5,66.6,46.5z"/>
			<path fill="#37474F" d="M66.6,47c-1.5,0-2.8-1.3-2.8-2.8c0-1.6,1.3-2.8,2.8-2.8s2.8,1.3,2.8,2.8C69.4,45.7,68.1,47,66.6,47z
				 M66.6,42.3c-1,0-1.8,0.8-1.8,1.8c0,1,0.8,1.8,1.8,1.8s1.8-0.8,1.8-1.8C68.4,43.2,67.6,42.3,66.6,42.3z"/>
		</g>
		<g>
			<path fill="#37474F" d="M66.6,62.5c-1.3,0-2.3-1-2.3-2.2c0-1.3,1-2.4,2.3-2.4c1.3,0,2.3,1,2.3,2.4C68.9,61.5,67.9,62.5,66.6,62.5
				z"/>
			<path fill="#37474F" d="M66.6,63c-1.5,0-2.8-1.3-2.8-2.7c0-1.6,1.2-2.9,2.8-2.9s2.8,1.3,2.8,2.9C69.4,61.8,68.1,63,66.6,63z
				 M66.6,58.4c-1,0-1.8,0.8-1.8,1.9c0,0.9,0.8,1.7,1.8,1.7s1.8-0.8,1.8-1.7C68.4,59.3,67.6,58.4,66.6,58.4z"/>
		</g>
	</g>
</g>
</svg>
