<?xml version="1.0" encoding="utf-8"?>
<!-- Generator: Adobe Illustrator 16.0.0, SVG Export Plug-In . SVG Version: 6.00 Build 0)  -->
<!DOCTYPE svg PUBLIC "-//W3C//DTD SVG 1.1//EN" "http://www.w3.org/Graphics/SVG/1.1/DTD/svg11.dtd">
<svg version="1.1" id="Layer_1" xmlns="http://www.w3.org/2000/svg" xmlns:xlink="http://www.w3.org/1999/xlink" x="0px" y="0px"
	 width="128px" height="128px" viewBox="0 0 128 128" enable-background="new 0 0 128 128" xml:space="preserve">
<g>
	<g>
		<g>
			<path fill="#FFAB00" d="M38.5,62.5h-0.4c-17.1,0-31,13.8-31,31c0,17.1,13.9,31,31,31c17.2,0,31.1-13.9,31.1-31
				c0-0.3-0.1-0.9-0.1-0.9H38.5V62.5z"/>
			<path fill="#37474F" d="M38.1,126c-17.9,0-32.5-14.6-32.5-32.5C5.5,75.6,20.1,61,38.1,61h0.4c0.8,0,1.5,0.7,1.5,1.5V91h29
				c1.6,0,1.6,1.8,1.6,2.4C70.6,111.4,56,126,38.1,126z M37,64C21.2,64.6,8.5,77.6,8.5,93.5c0,16.3,13.2,29.5,29.5,29.5
				c16.1,0,29.2-12.9,29.6-29H38.5c-0.8,0-1.5-0.7-1.5-1.5V64z"/>
		</g>
		<g>
			<path fill="#FFECB3" d="M79.5,50.5h-41v11.8c16,0,30.1,13.2,30.5,30.2h10.5V50.5z"/>
			<path fill="#37474F" d="M79.5,94H69c-0.8,0-1.5-0.6-1.5-1.5c-0.4-15.8-13.5-28.7-29-28.7c-0.8,0-1.5-0.7-1.5-1.5V50.5
				c0-0.8,0.7-1.5,1.5-1.5h41c0.8,0,1.5,0.7,1.5,1.5v42C81,93.3,80.3,94,79.5,94z M70.5,91H78V52H40v8.8C56,61.6,69.3,74.7,70.5,91z
				"/>
		</g>
	</g>
	<g>
		<g>
			<g>
				<g>
					<path fill="#37474F" d="M126,77H91c-0.8,0-1.5-0.7-1.5-1.5S90.2,74,91,74h35c0.8,0,1.5,0.7,1.5,1.5S126.8,77,126,77z"/>
				</g>
			</g>
			<g>
				<g>
					<path fill="none" stroke="#37474F" stroke-width="3" stroke-linecap="round" stroke-miterlimit="10" d="M125.8,81.3"/>
				</g>
				<g>
					<path fill="none" stroke="#37474F" stroke-width="3" stroke-linecap="round" stroke-miterlimit="10" d="M91.5,81.3"/>
				</g>
			</g>
			<g>
				<g>
					<path fill="#37474F" d="M126,89H91c-0.8,0-1.5-0.7-1.5-1.5S90.2,86,91,86h35c0.8,0,1.5,0.7,1.5,1.5S126.8,89,126,89z"/>
				</g>
			</g>
			<g>
				<g>
					<path fill="none" stroke="#37474F" stroke-width="3" stroke-linecap="round" stroke-miterlimit="10" d="M91.5,93.1"/>
				</g>
			</g>
		</g>
		<g>
			<g>
				<g>
					<path fill="#37474F" d="M126,53H91c-0.8,0-1.5-0.7-1.5-1.5S90.2,50,91,50h35c0.8,0,1.5,0.7,1.5,1.5S126.8,53,126,53z"/>
				</g>
			</g>
			<g>
				<g>
					<path fill="none" stroke="#37474F" stroke-width="3" stroke-linecap="round" stroke-miterlimit="10" d="M125.8,57.2"/>
				</g>
				<g>
					<path fill="none" stroke="#37474F" stroke-width="3" stroke-linecap="round" stroke-miterlimit="10" d="M91.5,57.2"/>
				</g>
			</g>
			<g>
				<g>
					<path fill="#37474F" d="M126,64H91c-0.8,0-1.5-0.7-1.5-1.5S90.2,61,91,61h35c0.8,0,1.5,0.7,1.5,1.5S126.8,64,126,64z"/>
				</g>
			</g>
			<g>
				<g>
					<path fill="none" stroke="#37474F" stroke-width="3" stroke-linecap="round" stroke-miterlimit="10" d="M125.8,69"/>
				</g>
				<g>
					<path fill="none" stroke="#37474F" stroke-width="3" stroke-linecap="round" stroke-miterlimit="10" d="M91.5,69"/>
				</g>
			</g>
		</g>
	</g>
	<g>
		<g>
			<path fill="#37474F" d="M108.5,104.8c0-1,0.8-1.8,1.8-1.8c1,0,1.8,0.8,1.8,1.8c0,1-0.8,1.8-1.8,1.8
				C109.3,106.6,108.5,105.8,108.5,104.8z"/>
			<path fill="#37474F" d="M110.3,107.1c-1.3,0-2.3-1-2.3-2.3c0-1.3,1-2.3,2.3-2.3c1.3,0,2.3,1,2.3,2.3
				C112.6,106,111.5,107.1,110.3,107.1z M110.3,103.5c-0.7,0-1.3,0.6-1.3,1.3c0,0.7,0.6,1.3,1.3,1.3c0.7,0,1.3-0.6,1.3-1.3
				C111.6,104.1,111,103.5,110.3,103.5z"/>
		</g>
		<g>
			<path fill="#37474F" d="M95.9,104.8c0-1,0.8-1.8,1.8-1.8c1,0,1.8,0.8,1.8,1.8c0,1-0.8,1.8-1.8,1.8
				C96.7,106.6,95.9,105.8,95.9,104.8z"/>
			<path fill="#37474F" d="M97.7,107.1c-1.3,0-2.3-1-2.3-2.3c0-1.3,1-2.3,2.3-2.3c1.3,0,2.3,1,2.3,2.3C100,106,99,107.1,97.7,107.1z
				 M97.7,103.5c-0.7,0-1.3,0.6-1.3,1.3c0,0.7,0.6,1.3,1.3,1.3c0.7,0,1.3-0.6,1.3-1.3C99,104,98.4,103.5,97.7,103.5z"/>
		</g>
		<g>
			<path fill="#37474F" d="M83.4,104.8c0-1,0.8-1.8,1.8-1.8c1,0,1.8,0.8,1.8,1.8c0,1-0.8,1.8-1.8,1.8
				C84.2,106.6,83.4,105.8,83.4,104.8z"/>
			<path fill="#37474F" d="M85.2,107.1c-1.3,0-2.3-1-2.3-2.3c0-1.3,1-2.3,2.3-2.3c1.3,0,2.3,1,2.3,2.3
				C87.5,106,86.4,107.1,85.2,107.1z M85.2,103.5c-0.7,0-1.3,0.6-1.3,1.3c0,0.7,0.6,1.3,1.3,1.3c0.7,0,1.3-0.6,1.3-1.3
				C86.5,104,85.9,103.5,85.2,103.5z"/>
		</g>
	</g>
	<g>
		<polyline fill="#B0BEC5" points="3.4,62.8 39,27.3 52,40.3 88.3,4.1 		"/>
		<path fill="#37474F" d="M3.4,64.3c-0.4,0-0.8-0.1-1.1-0.4c-0.6-0.6-0.6-1.5,0-2.1l35.6-35.5c0.6-0.6,1.5-0.6,2.1,0l12,12L87.2,3.1
			c0.6-0.6,1.5-0.6,2.1,0s0.6,1.5,0,2.1L53.1,41.4c-0.6,0.6-1.5,0.6-2.1,0l-12-12L4.5,63.9C4.2,64.2,3.8,64.3,3.4,64.3z"/>
	</g>
</g>
</svg>
