<?xml version="1.0" encoding="utf-8"?>
<!-- Generator: Adobe Illustrator 19.0.0, SVG Export Plug-In . SVG Version: 6.00 Build 0)  -->
<svg version="1.1" xmlns="http://www.w3.org/2000/svg" xmlns:xlink="http://www.w3.org/1999/xlink" x="0px" y="0px"
	 viewBox="236 -236 512 512" style="enable-background:new 236 -236 512 512;" xml:space="preserve">
<g id="Layer_1">
	<path d="M510.8,145.4V31.3h37l5.6-44.5h-42.6v-28.2c0-13.2,3.8-22,21.3-22h22.6v-40.1c-3.8-0.6-17.5-1.9-33.2-1.9
		c-32.6,0-55.2,20.7-55.2,58.9v32.6h-37v44.5h37v114.8H510.8L510.8,145.4z"/>
</g>
<g id="Layer_2">
	<path d="M492,276c-68.4,0-132.7-26.6-181-75c-48.4-48.4-75-112.6-75-181c0-68.4,26.6-132.7,75-181s112.6-75,181-75
		c68.4,0,132.7,26.6,181,75c48.4,48.4,75,112.6,75,181c0,68.4-26.6,132.7-75,181C624.7,249.4,560.4,276,492,276z M492-216.8
		c-63.2,0-122.7,24.6-167.4,69.3S255.2-43.2,255.2,20s24.6,122.7,69.3,167.4s104.2,69.3,167.4,69.3s122.7-24.6,167.4-69.3
		c44.7-44.7,69.3-104.2,69.3-167.4s-24.6-122.7-69.3-167.4C614.7-192.1,555.2-216.8,492-216.8z"/>
</g>
</svg>
