<?xml version="1.0" encoding="utf-8"?>
<!-- Generator: Adobe Illustrator 19.0.0, SVG Export Plug-In . SVG Version: 6.00 Build 0)  -->
<svg version="1.1" xmlns="http://www.w3.org/2000/svg" xmlns:xlink="http://www.w3.org/1999/xlink" x="0px" y="0px"
	 viewBox="236 -236 512 512" style="enable-background:new 236 -236 512 512;" xml:space="preserve">
<style type="text/css">
	.st0{fill:#FF6700;}
</style>
<g id="Layer_2">
</g>
<g id="Layer_1">
	<g>
		<path class="st0" d="M567.9-64.3c-8.1,0-16.3,0-24.5,0c-5,0-8.8,3.1-8.8,8.1c0,8.8,0,17,0,25.7c0,5,3.1,8.1,8.1,8.1
			c8.8,0,17,0,25.7,0c5,0,8.1-3.8,8.1-8.8c0.2-4.3,0.2-8.6,0.2-12.4c0-3.8,0-8.1,0-11.9C576.7-60.5,572.9-64.3,567.9-64.3z"/>
		<path class="st0" d="M555.3,42.3c-4.4,13.2-12.5,23.2-23.2,31.4c-10.7,8.1-23.2,12.5-37,13.2c-18.8,0.6-35.8-5-48.9-18.2
			c-18.8-18.2-25.1-40.8-19.5-66.5c-6.8,0.6-12.5,0.6-19.4,0.6c0,0.6,0,1.9,0,2.5c0,29.5,0,59.6,0,89.1c0,6.3,3.1,9.4,9.4,9.4
			c50.2,0,99.7,0,149.9,0c6.3,0,9.4-3.1,9.4-9.4c0-29.5,0-59.6,0-89.1c0-0.6,0-1.3,0-2.5c-6.3,0-12.5,0-18.8,0
			C560.3,16,559.7,29.2,555.3,42.3z"/>
		<path class="st0" d="M492,61.7c23.2,0,42-18.8,42.6-42c-0.6-23.2-19.4-42-42.6-42s-42,18.8-42,42S468.8,61.7,492,61.7z"/>
		<path class="st0" d="M492-236c-141.4,0-256,114.6-256,256s114.6,256,256,256S748,161.4,748,20S633.4-236,492-236z M601.7,107.5
			c0,0.6-0.6,1.3-0.6,1.9c-2.5,11.9-12.5,20.7-24.5,20.7c-56.4,0-112.9,0-169.3,0c-11.3,0-21.3-8.1-24.5-19.5
			c0.1-1.2-0.6-2.4-0.6-3.7c0-58.3,0-116.7,0-175c0-0.6,0.6-0.6,0.6-1.3c1.9-10.7,8.8-17,18.8-20.1c0.6,0,1.9-0.6,2.5-0.6
			c58.3,0,116.7,0,175,0c0.6,0,0.6,0.6,1.3,0.6c10.7,2.5,17.5,8.8,20.7,19.5c0,0.6,0.6,1.9,0.6,2.5
			C601.7-9.2,601.7,49.2,601.7,107.5z"/>
	</g>
</g>
</svg>
