<?xml version="1.0" encoding="utf-8"?>
<!-- Generator: Adobe Illustrator 19.0.0, SVG Export Plug-In . SVG Version: 6.00 Build 0)  -->
<svg version="1.1" xmlns="http://www.w3.org/2000/svg" xmlns:xlink="http://www.w3.org/1999/xlink" x="0px" y="0px"
	 viewBox="236 -236 512 512" style="enable-background:new 236 -236 512 512;" xml:space="preserve">
<g id="Layer_1">
	<path d="M382.2,106.9c0-58.3,0-116.7,0-175c0-0.6,0.6-0.6,0.6-1.3c1.9-10.7,8.8-17,18.8-20.1c0.6,0,1.9-0.6,2.5-0.6
		c58.3,0,116.7,0,175,0c0.6,0,0.6,0.6,1.3,0.6c10.7,2.5,17.5,8.8,20.7,19.5c0,0.6,0.6,1.9,0.6,2.5c0,58.3,0,116.7,0,175
		c0,0.6-0.6,1.3-0.6,1.9c-2.5,11.9-12.5,20.7-24.5,20.7c-56.4,0-112.9,0-169.3,0c-11.3,0-21.3-8.1-24.5-19.5
		C382.9,109.4,382.2,108.2,382.2,106.9L382.2,106.9z M407.3,2.8c0,0.6,0,1.9,0,2.5c0,29.5,0,59.6,0,89.1c0,6.3,3.1,9.4,9.4,9.4
		c50.2,0,99.7,0,149.9,0c6.3,0,9.4-3.1,9.4-9.4c0-29.5,0-59.6,0-89.1c0-0.6,0-1.3,0-2.5c-6.3,0-12.5,0-18.8,0
		c3.1,13.2,2.5,26.4-1.9,39.5c-4.4,13.2-12.5,23.2-23.2,31.4c-10.7,8.1-23.2,12.5-37,13.2c-18.8,0.6-35.8-5-48.9-18.2
		c-18.8-18.2-25.1-40.8-19.5-66.5C419.9,2.8,414.2,2.8,407.3,2.8L407.3,2.8z M492-22.3c-23.2,0-42,18.8-42,42s18.8,42,42,42
		c23.2,0,42-18.8,42.6-42C534-3.5,515.2-22.3,492-22.3L492-22.3z M576.7-43.6c0-3.8,0-8.1,0-11.9c0-5-3.8-8.8-8.8-8.8
		c-8.1,0-16.3,0-24.5,0c-5,0-8.8,3.1-8.8,8.1c0,8.8,0,17,0,25.7c0,5,3.1,8.1,8.1,8.1c8.8,0,17,0,25.7,0c5,0,8.1-3.8,8.1-8.8
		C576.7-35.5,576.7-39.8,576.7-43.6L576.7-43.6z"/>
</g>
<g id="Layer_2">
	<path d="M492,276c-68.4,0-132.7-26.6-181-75c-48.4-48.4-75-112.6-75-181c0-68.4,26.6-132.7,75-181s112.6-75,181-75
		c68.4,0,132.7,26.6,181,75c48.4,48.4,75,112.6,75,181c0,68.4-26.6,132.7-75,181C624.7,249.4,560.4,276,492,276z M492-216.8
		c-63.2,0-122.7,24.6-167.4,69.3S255.2-43.2,255.2,20s24.6,122.7,69.3,167.4s104.2,69.3,167.4,69.3s122.7-24.6,167.4-69.3
		c44.7-44.7,69.3-104.2,69.3-167.4s-24.6-122.7-69.3-167.4C614.7-192.1,555.2-216.8,492-216.8z"/>
</g>
</svg>
