<?xml version="1.0" encoding="utf-8"?>
<!-- Generator: Adobe Illustrator 16.0.0, SVG Export Plug-In . SVG Version: 6.00 Build 0)  -->
<!DOCTYPE svg PUBLIC "-//W3C//DTD SVG 1.1//EN" "http://www.w3.org/Graphics/SVG/1.1/DTD/svg11.dtd">
<svg version="1.1" id="Layer_1" xmlns="http://www.w3.org/2000/svg" xmlns:xlink="http://www.w3.org/1999/xlink" x="0px" y="0px"
	 width="128px" height="128px" viewBox="0 0 128 128" enable-background="new 0 0 128 128" xml:space="preserve">
<g>
	<g>
		<rect x="14.5" y="15.5" fill="#78909C" width="107" height="107"/>
		<path fill="#37474F" d="M123,124H13V14h110V124z M16,121h104V17H16V121z"/>
	</g>
	<g>
		<rect x="7.5" y="6.5" fill="#FFFFFF" width="106" height="108"/>
		<path fill="#37474F" d="M115,116H6V5h109V116z M9,113h103V8H9V113z"/>
	</g>
	<g>
		<g>
			<g>
				<g>
					<rect x="20.5" y="19.5" fill="#37474F" width="34" height="34"/>
					<path fill="#37474F" d="M54.5,55h-34c-0.8,0-1.5-0.7-1.5-1.5v-34c0-0.8,0.7-1.5,1.5-1.5h34c0.8,0,1.5,0.7,1.5,1.5v34
						C56,54.3,55.3,55,54.5,55z M22,52h31V21H22V52z"/>
				</g>
				<g>
					<g>
						<path fill="#FFAB00" d="M43.1,44.5L42,41h-8.7l-2.6,8h-3.2l8.3-25h3.8L48,49h-3.4L43.1,44.5 M41.3,39l-2.4-7.3
							C38.3,30.1,38,29,37.6,27h-0.1c-0.4,2-0.8,3.2-1.2,4.7L33.9,39H41.3z"/>
					</g>
				</g>
			</g>
			<g>
				<g>
					<path fill="#37474F" d="M75.3,21.4c0-0.7-0.6-1.2-1.2-1.2c-0.7,0-1.3,0.6-1.3,1.2s0.6,1.2,1.3,1.2
						C74.8,22.6,75.3,22.1,75.3,21.4z"/>
					<path fill="#37474F" d="M74.1,23.1c-1,0-1.8-0.8-1.8-1.7c0-1,0.8-1.7,1.8-1.7c0.9,0,1.7,0.8,1.7,1.7
						C75.8,22.3,75.1,23.1,74.1,23.1z M74.1,20.7c-0.4,0-0.8,0.3-0.8,0.7c0,0.4,0.3,0.7,0.8,0.7c0.4,0,0.7-0.3,0.7-0.7
						C74.8,21,74.5,20.7,74.1,20.7z"/>
				</g>
				<g>
					<path fill="#37474F" d="M84,21.4c0-0.7-0.5-1.2-1.2-1.2c-0.6,0-1.2,0.6-1.2,1.2s0.6,1.2,1.2,1.2C83.4,22.6,84,22.1,84,21.4z"/>
					<path fill="#37474F" d="M82.7,23.1c-0.9,0-1.7-0.8-1.7-1.7c0-0.9,0.8-1.7,1.7-1.7c1,0,1.7,0.8,1.7,1.7
						C84.5,22.4,83.7,23.1,82.7,23.1z M82.7,20.7c-0.4,0-0.7,0.3-0.7,0.7c0,0.4,0.3,0.7,0.7,0.7c0.4,0,0.7-0.3,0.7-0.7
						C83.5,21,83.2,20.7,82.7,20.7z"/>
				</g>
				<g>
					<path fill="#37474F" d="M92.7,21.4c0-0.7-0.6-1.2-1.2-1.2c-0.7,0-1.2,0.6-1.2,1.2s0.5,1.2,1.2,1.2
						C92.1,22.6,92.7,22.1,92.7,21.4z"/>
					<path fill="#37474F" d="M91.4,23.1c-1,0-1.7-0.8-1.7-1.7c0-1,0.8-1.7,1.7-1.7c1,0,1.7,0.8,1.7,1.7
						C93.2,22.3,92.4,23.1,91.4,23.1z M91.4,20.7c-0.4,0-0.7,0.3-0.7,0.7c0,0.4,0.3,0.7,0.7,0.7c0.4,0,0.7-0.3,0.7-0.7
						C92.2,21,91.8,20.7,91.4,20.7z"/>
				</g>
			</g>
			<g>
				<g>
					<g>
						<line fill="#FFAB00" x1="64" y1="55.5" x2="101" y2="55.5"/>
						<path fill="#FFAB00" d="M101,57H64c-0.8,0-1.5-0.7-1.5-1.5S63.2,54,64,54h37c0.8,0,1.5,0.7,1.5,1.5S101.8,57,101,57z"/>
					</g>
					<g>
						<line fill="#FFAB00" x1="64" y1="46.5" x2="101" y2="46.5"/>
						<path fill="#FFAB00" d="M101,48H64c-0.8,0-1.5-0.7-1.5-1.5S63.2,45,64,45h37c0.8,0,1.5,0.7,1.5,1.5S101.8,48,101,48z"/>
					</g>
					<g>
						<line fill="#FFAB00" x1="64" y1="37.5" x2="101" y2="37.5"/>
						<path fill="#FFAB00" d="M101,39H64c-0.8,0-1.5-0.7-1.5-1.5S63.2,36,64,36h37c0.8,0,1.5,0.7,1.5,1.5S101.8,39,101,39z"/>
					</g>
				</g>
				<g>
					<g>
						<line fill="#FFAB00" x1="20" y1="81.5" x2="101" y2="81.5"/>
						<path fill="#37474F" d="M101,83H20c-0.8,0-1.5-0.7-1.5-1.5S19.2,80,20,80h81c0.8,0,1.5,0.7,1.5,1.5S101.8,83,101,83z"/>
					</g>
					<g>
						<line fill="#FFAB00" x1="20" y1="72.5" x2="101" y2="72.5"/>
						<path fill="#37474F" d="M101,74H20c-0.8,0-1.5-0.7-1.5-1.5S19.2,71,20,71h81c0.8,0,1.5,0.7,1.5,1.5S101.8,74,101,74z"/>
					</g>
					<g>
						<line fill="#FFAB00" x1="20" y1="63.5" x2="101" y2="63.5"/>
						<path fill="#37474F" d="M101,65H20c-0.8,0-1.5-0.7-1.5-1.5S19.2,62,20,62h81c0.8,0,1.5,0.7,1.5,1.5S101.8,65,101,65z"/>
					</g>
				</g>
			</g>
		</g>
		<g>
			<rect x="20.5" y="89.5" fill="#FFAB00" width="81" height="12"/>
			<path fill="#37474F" d="M101.5,103h-81c-0.8,0-1.5-0.7-1.5-1.5v-12c0-0.8,0.7-1.5,1.5-1.5h81c0.8,0,1.5,0.7,1.5,1.5v12
				C103,102.3,102.3,103,101.5,103z M22,100h78v-9H22V100z"/>
		</g>
	</g>
</g>
</svg>
