<?xml version="1.0" encoding="utf-8"?>
<!-- Generator: Adobe Illustrator 19.0.0, SVG Export Plug-In . SVG Version: 6.00 Build 0)  -->
<svg version="1.1" id="Layer_1" xmlns="http://www.w3.org/2000/svg" xmlns:xlink="http://www.w3.org/1999/xlink" x="0px" y="0px"
	 viewBox="0 0 40 40" style="enable-background:new 0 0 40 40;" xml:space="preserve">
<path id="XMLID_1_" d="M32,27.8c-1.8,0-3.4,0.8-4.5,2l-13.7-8.1c0.2-0.5,0.2-1.1,0.2-1.7c0-0.6-0.1-1.2-0.3-1.8l13.7-7.9
	c1.1,1.2,2.7,1.9,4.4,1.9c3.4,0,6.1-2.7,6.1-6.1S35.4,0,32,0s-6.1,2.7-6.1,6.1c0,0.6,0.1,1.2,0.3,1.8l-13.7,7.9
	c-1.1-1.2-2.7-1.9-4.4-1.9c-3.4,0-6.1,2.7-6.1,6.1s2.7,6.1,6.1,6.1c1.8,0,3.4-0.8,4.5-2l13.7,8.1c-0.2,0.5-0.2,1.1-0.2,1.7
	c0,3.4,2.7,6.1,6.1,6.1s6.1-2.7,6.1-6.1C38.1,30.5,35.4,27.8,32,27.8z"/>
</svg>
