<?xml version="1.0" encoding="utf-8"?>
<!-- Generator: Adobe Illustrator 16.0.0, SVG Export Plug-In . SVG Version: 6.00 Build 0)  -->
<!DOCTYPE svg PUBLIC "-//W3C//DTD SVG 1.1//EN" "http://www.w3.org/Graphics/SVG/1.1/DTD/svg11.dtd">
<svg version="1.1" id="Layer_1" xmlns="http://www.w3.org/2000/svg" xmlns:xlink="http://www.w3.org/1999/xlink" x="0px" y="0px"
	 width="128px" height="128px" viewBox="0 0 128 128" enable-background="new 0 0 128 128" xml:space="preserve">
<g>
	<g>
		<g>
			<path fill="#FFECB3" d="M97,61.3V22.7c4-1.1,7.6-5.2,7.6-10.1c0-5.7-4.8-10.5-10.5-10.5c-4.9,0-9.2,3.8-10.2,7.8h-1.3l-6.8-6.8
				L69,10h-1.3l-6.8-6.8L54.1,10h-1.3l-6.8-6.8L39.2,10h-1.3L31,3.2L24.3,10H23c-1.1-4-5.2-7.8-10.1-7.8C7.2,2.2,2.8,6.9,2.8,12.6
				c0,4.9,3.2,9.1,8.2,10.1v38.5c-5,1.1-8.2,5.2-8.2,10.1C2.8,77,7.3,81.8,13,81.8c4.9,0,8.9-3.8,10-7.8h1.3l6.8,6.8l6.8-6.8h1.3
				l6.8,6.8l6.8-6.8h1.3l6.8,6.8l6.8-6.8H69l6.8,6.8l6.8-6.8h1.3c1.1,4,5.2,7.8,10.1,7.8c5.7,0,10.7-4.7,10.7-10.4
				C104.6,66.5,101,62.3,97,61.3z"/>
			<path fill="#37474F" d="M93.9,83.8c-5.2,0-9.3-3.4-11.2-7.2l-5.5,5.5c-0.8,0.8-2,0.8-2.8,0l-6-6l-6,6c-0.8,0.8-2,0.8-2.8,0l-6-6
				l-6,6c-0.8,0.8-2,0.8-2.8,0l-6-6l-6,6c-0.8,0.8-2,0.8-2.8,0l-5.5-5.5c-1.9,3.8-5.9,7.2-11.1,7.2c-6.7,0-12.2-5.6-12.2-12.5
				c0-5.4,3.2-9.9,8.2-11.6V24.2C4,22.5,0.8,18,0.8,12.6c0-6.8,5.4-12.4,12.1-12.4c5.2,0,9.3,3.4,11.2,7.2l5.5-5.5
				c0.8-0.8,2.1-0.8,2.8,0l6,6l6-6c0.4-0.4,0.9-0.6,1.4-0.6l0,0c0.5,0,1,0.2,1.4,0.6l6,6l6-6c0.4-0.4,0.9-0.6,1.4-0.6l0,0
				c0.5,0,1,0.2,1.4,0.6l6,6l6-6c0.4-0.4,0.9-0.6,1.4-0.6l0,0c0.5,0,1,0.2,1.4,0.6l5.6,5.6c1.9-3.8,6.2-7.2,11.4-7.2
				c6.8,0,12.5,5.7,12.5,12.5c0,4.9-3.2,9.6-7.6,11.5v35.7c4.4,1.9,7.6,6.6,7.6,11.6C106.6,78.1,100.8,83.8,93.9,83.8z M82.5,72h1.3
				c0.9,0,1.7,0.6,1.9,1.5c0.8,3.1,4.1,6.3,8.1,6.3c4.6,0,8.7-3.9,8.7-8.4c0-4.1-3.1-7.4-6.1-8.2c-0.9-0.2-1.5-1-1.5-1.9V22.7
				c0-0.9,0.6-1.7,1.5-1.9c3-0.8,6.1-4.1,6.1-8.1c0-4.6-3.9-8.5-8.5-8.5c-4.1,0-7.5,3.3-8.3,6.3c-0.2,0.9-1,1.5-1.9,1.5h-1.3
				c-0.5,0-1-0.2-1.4-0.6L75.8,6l-5.4,5.4C70,11.8,69.5,12,69,12h-1.3c-0.5,0-1-0.2-1.4-0.6L60.9,6l-5.4,5.4
				c-0.4,0.4-0.9,0.6-1.4,0.6h-1.3c-0.5,0-1-0.2-1.4-0.6L45.9,6l-5.4,5.4c-0.4,0.4-0.9,0.6-1.4,0.6h-1.3c-0.5,0-1-0.2-1.4-0.6L31,6
				l-5.4,5.4c-0.4,0.4-0.9,0.6-1.4,0.6H23c-0.9,0-1.7-0.6-1.9-1.5c-0.8-3.1-4.1-6.3-8.1-6.3c-4.6,0-8.1,3.7-8.1,8.4
				c0,4.1,2.7,7.3,6.6,8.2c0.9,0.2,1.6,1,1.6,2v38.5c0,0.9-0.7,1.8-1.6,2c-4,0.9-6.6,4-6.6,8.1c0,4.7,3.7,8.5,8.2,8.5
				c4,0,7.2-3.2,8-6.3c0.2-0.9,1-1.5,1.9-1.5h1.3c0.5,0,1,0.2,1.4,0.6L31,78l5.4-5.4c0.4-0.4,0.9-0.6,1.4-0.6h1.3
				c0.5,0,1,0.2,1.4,0.6l5.4,5.4l5.4-5.4c0.4-0.4,0.9-0.6,1.4-0.6h1.3c0.5,0,1,0.2,1.4,0.6l5.4,5.4l5.4-5.4c0.4-0.4,0.9-0.6,1.4-0.6
				H69c0.5,0,1,0.2,1.4,0.6l5.4,5.4l5.4-5.4C81.5,72.2,82,72,82.5,72z"/>
		</g>
		<g>
			<rect x="21" y="22" fill="#B0BEC5" width="66" height="40"/>
			<path fill="#37474F" d="M87,64H21c-1.1,0-2-0.9-2-2V22c0-1.1,0.9-2,2-2h66c1.1,0,2,0.9,2,2v40C89,63.1,88.1,64,87,64z M23,60h62
				V24H23V60z"/>
		</g>
		<g>
			<polyline fill="#FFAB00" points="21.7,58.9 43.8,36.8 53.6,46.5 58.3,41.8 66.8,50.3 81.3,35.8 86.1,40.5 			"/>
			<path fill="#37474F" d="M21.7,60.9c-0.5,0-1-0.2-1.4-0.6c-0.8-0.8-0.8-2,0-2.8l22.2-22.2c0.8-0.8,2-0.8,2.8,0l8.3,8.3l3.3-3.3
				c0.8-0.8,2-0.8,2.8,0l7.1,7.1l13.1-13.1c0.8-0.8,2-0.8,2.8,0l4.8,4.8c0.8,0.8,0.8,2,0,2.8s-2,0.8-2.8,0l-3.3-3.3L68.2,51.7
				c-0.8,0.8-2,0.8-2.8,0l-7.1-7.1L55,47.9c-0.8,0.8-2,0.8-2.8,0l-8.3-8.3L23.1,60.3C22.7,60.7,22.2,60.9,21.7,60.9z"/>
		</g>
		<g>
			<path fill="#FFECB3" d="M35.5,35c-1.7,1.8-4.6,1.9-6.4,0.1c-1.8-1.7-1.9-4.6-0.1-6.4"/>
			<path fill="#37474F" d="M32.2,38.4c-1.7,0-3.3-0.6-4.5-1.8c-1.3-1.2-2-2.8-2-4.6c0-1.7,0.6-3.4,1.8-4.6c0.8-0.8,2-0.8,2.8-0.1
				c0.8,0.8,0.8,2,0.1,2.8c-0.5,0.5-0.7,1.1-0.7,1.8c0,0.7,0.3,1.3,0.8,1.7c0.5,0.5,1.1,0.7,1.8,0.7c0.7,0,1.3-0.3,1.7-0.8
				c0.8-0.8,2-0.8,2.8-0.1c0.8,0.8,0.8,2,0.1,2.8c-1.2,1.3-2.8,2-4.6,2C32.3,38.4,32.3,38.4,32.2,38.4z"/>
		</g>
	</g>
	<g>
		<g>
			<g>
				<path fill="#FFAB00" d="M82.2,77.2c2.1-3.3,5.9-9.9,9.4-13.7c14.9-15.9,32.2-19,33.6-19.3l0.1-0.1c0,0,0,0.1,0,0.1
					c0.1,0,0.1,0,0.1,0l-0.1,0.1C125,45.8,121.9,63.1,106,78c-3.9,3.6-10.3,7.2-13.7,9.4"/>
				<path fill="#37474F" d="M92.3,89.4c-0.7,0-1.3-0.3-1.7-0.9c-0.6-0.9-0.3-2.2,0.6-2.8c0.7-0.4,1.4-0.9,2.3-1.4
					c3.4-2.1,8.1-5,11.1-7.8c12-11.2,16.5-23.7,18-29.6c-5.9,1.6-18.4,6.1-29.6,18c-2.7,2.9-5.6,7.6-7.7,11c-0.5,0.9-1,1.7-1.5,2.4
					c-0.6,0.9-1.8,1.2-2.8,0.6c-0.9-0.6-1.2-1.8-0.6-2.8c0.4-0.7,0.9-1.5,1.4-2.3c2.2-3.6,5.2-8.5,8.2-11.6
					c13.9-14.9,30-18.9,34.2-19.8c0.5-0.3,1.2-0.4,1.8-0.1c0.3,0.1,0.5,0.3,0.7,0.5c0.2,0.2,0.4,0.4,0.5,0.7
					c0.2,0.6,0.2,1.2-0.1,1.8c-0.8,4.2-4.9,20.2-19.8,34.2c-3.3,3.1-8.2,6.1-11.8,8.3c-0.8,0.5-1.6,1-2.2,1.4
					C93.1,89.3,92.7,89.4,92.3,89.4z"/>
			</g>
			<g>
				
					<path fill="#FFAB00" stroke="#37474F" stroke-width="4" stroke-linecap="round" stroke-linejoin="round" stroke-miterlimit="10" d="
					M75.8,93.8"/>
			</g>
			<g>
				
					<path fill="#FFAB00" stroke="#37474F" stroke-width="4" stroke-linecap="round" stroke-linejoin="round" stroke-miterlimit="10" d="
					M83.4,97.3"/>
			</g>
			<g>
				
					<path fill="#FFAB00" stroke="#37474F" stroke-width="4" stroke-linecap="round" stroke-linejoin="round" stroke-miterlimit="10" d="
					M112.3,68.5"/>
			</g>
			<g>
				
					<path fill="#FFAB00" stroke="#37474F" stroke-width="4" stroke-linecap="round" stroke-linejoin="round" stroke-miterlimit="10" d="
					M98.5,81"/>
			</g>
			<g>
				
					<path fill="#FFAB00" stroke="#37474F" stroke-width="4" stroke-linecap="round" stroke-linejoin="round" stroke-miterlimit="10" d="
					M98.5,68.1"/>
			</g>
		</g>
		<g>
			<g>
				<path fill="#78909C" d="M50.7,104.5c6.2-7.2,17.4-4.9,18.4-4.8l0.1-0.1c0,0,0,0.1,0,0.1c0,0,0.1,0,0.1,0l-0.1,0.1
					c0.2,0.9,2.5,12.1-4.8,18.4c-7.2,6.2-16,3.5-16.9,3.2l-0.1,0c0,0,0-0.1,0-0.1l-0.1,0l0-0.1C47.2,120.5,44.5,111.6,50.7,104.5z"
					/>
				<path fill="#37474F" d="M53.2,124.2c-2.6,0-4.8-0.5-5.9-0.8c-0.1,0-0.3,0-0.4-0.1c-0.5-0.2-0.9-0.5-1.2-1c0-0.1-0.1-0.1-0.1-0.2
					c-0.1-0.2-0.1-0.4-0.2-0.6c-0.7-2.3-2.7-11.1,3.7-18.5c4.2-4.9,10.4-5.9,14.8-5.9c1.7,0,3.5,0.2,5.2,0.5c0.1,0,0.3,0,0.4,0.1
					c0.3,0.1,0.5,0.2,0.7,0.3c0.5,0.3,0.8,0.7,0.9,1.3c0,0.2,0.1,0.4,0,0.6c0.5,3.1,1.8,13.5-5.5,19.8
					C62.3,122.7,57.9,124.2,53.2,124.2z M49.1,119.8c1,0.2,2.4,0.5,4.1,0.5c3.8,0,7.2-1.2,9.9-3.6c5.2-4.5,4.8-12,4.3-15.2
					c-0.9-0.1-2.1-0.2-3.4-0.2c-3.6,0-8.5,0.8-11.8,4.5C47.7,111,48.5,117.3,49.1,119.8z"/>
			</g>
			<g>
				
					<path fill="#FFECB3" stroke="#37474F" stroke-width="4" stroke-linecap="round" stroke-linejoin="round" stroke-miterlimit="10" d="
					M53.7,125.8"/>
			</g>
			<g>
				
					<path fill="#FFECB3" stroke="#37474F" stroke-width="4" stroke-linecap="round" stroke-linejoin="round" stroke-miterlimit="10" d="
					M66.3,113.2"/>
			</g>
			<g>
				
					<path fill="#FFECB3" stroke="#37474F" stroke-width="4" stroke-linecap="round" stroke-linejoin="round" stroke-miterlimit="10" d="
					M60,118.4"/>
			</g>
			<g>
				
					<path fill="#FFECB3" stroke="#37474F" stroke-width="4" stroke-linecap="round" stroke-linejoin="round" stroke-miterlimit="10" d="
					M56.7,109.4"/>
			</g>
		</g>
		<g>
			<polygon fill="#FFFFFF" points="71.6,103.9 65.7,98 82.2,77.2 92.3,87.4 			"/>
			<path fill="#37474F" d="M71.6,105.9c-0.5,0-1-0.2-1.4-0.6l-5.9-5.9c-0.7-0.7-0.8-1.9-0.2-2.7L80.6,76c0.4-0.4,0.9-0.7,1.5-0.8
				c0.6,0,1.1,0.2,1.5,0.6l10.1,10.1c0.4,0.4,0.6,1,0.6,1.5c0,0.6-0.3,1.1-0.8,1.5l-20.7,16.5C72.5,105.7,72,105.9,71.6,105.9z
				 M68.4,97.8l3.4,3.4l17.6-14l-7-7L68.4,97.8z"/>
		</g>
	</g>
</g>
</svg>
