<?xml version="1.0" encoding="utf-8"?>
<!-- Generator: Adobe Illustrator 20.0.0, SVG Export Plug-In . SVG Version: 6.00 Build 0)  -->
<svg version="1.1" id="Layer_1" xmlns="http://www.w3.org/2000/svg" xmlns:xlink="http://www.w3.org/1999/xlink" x="0px" y="0px"
	 viewBox="0 0 128 128" style="enable-background:new 0 0 128 128;" xml:space="preserve">
<style type="text/css">
	.st0{fill:#FFFFFF;}
	.st1{fill:#37474F;}
	.st2{fill:#B0BEC5;}
	.st3{clip-path:url(#SVGID_2_);}
	.st4{fill:#FFAB00;}
	.st5{clip-path:url(#SVGID_4_);}
	.st6{fill:#FFECB3;}
	.st7{fill:#3F3F3F;}
	.st8{clip-path:url(#SVGID_6_);}
	.st9{clip-path:url(#SVGID_8_);}
</style>
<g>
	<g>
		<rect x="16.7" y="15.6" class="st0" width="86.1" height="86.1"/>
		<path class="st1" d="M103.9,102.8H15.5V14.5h88.3V102.8z M17.8,100.5h83.8V16.7H17.8V100.5z"/>
	</g>
	<g>
		<rect x="27.7" y="27.4" class="st2" width="64" height="61.7"/>
	</g>
	<g>
		<g>
			<defs>
				<rect id="SVGID_1_" x="27.7" y="27.4" width="64" height="61.7"/>
			</defs>
			<clipPath id="SVGID_2_">
				<use xlink:href="#SVGID_1_"  style="overflow:visible;"/>
			</clipPath>
			<g class="st3">
				<polygon class="st4" points="28,89.4 51.9,65.5 63.7,77.2 85.8,55.1 98,67.4 112.2,81.6 100.7,104.9 47,96 28.3,94.9 26.9,90.8 
									"/>
				<path class="st1" d="M100.7,106.1c-0.1,0-0.2,0-0.2,0l-53.6-8.9L28.3,96c-0.5,0-0.8-0.3-1-0.8l-1.5-4.1
					c-0.2-0.4-0.1-0.8,0.2-1.1l1.1-1.4l0.1-0.1L51,64.6c0.5-0.5,1.2-0.5,1.6,0l11,11l21.3-21.3c0.5-0.5,1.2-0.5,1.6,0l26.4,26.4
					c0.4,0.4,0.5,0.8,0.2,1.3l-11.5,23.4C101.5,105.9,101.1,106.1,100.7,106.1z M29.2,93.7l17.9,1.1c0.1,0,0.1,0,0.2,0l52.9,8.8
					l10.7-21.9l-25-25.1L64.4,78.1c-0.2,0.2-0.5,0.3-0.8,0.3l0,0c-0.3,0-0.6-0.2-0.8-0.3l-10.9-11L28.8,90.2L28.1,91L29.2,93.7z"/>
			</g>
		</g>
		<g>
			<defs>
				<rect id="SVGID_3_" x="27.7" y="27.4" width="64" height="61.7"/>
			</defs>
			<clipPath id="SVGID_4_">
				<use xlink:href="#SVGID_3_"  style="overflow:visible;"/>
			</clipPath>
			<g class="st5">
				<path class="st0" d="M115.8,50.8c0-2.4-1.7-4.2-3.9-4.6c-0.5-2.2-2.3-3.9-4.6-3.9c-2,0-3.7,1.2-4.4,2.9
					c-0.5-0.2-1.1-0.5-1.6-0.5c0-0.2,0.1-0.2,0.1-0.3c0-4-3.2-7.2-7.2-7.2c-1.8-4.6-6.1-7.8-11.3-7.8c-5.4,0-9.9,3.7-11.4,8.6
					c-0.1,0-0.1,0-0.2,0c-4,0-7.2,3.3-7.2,7.2c0,0.8,0.2,1.4,0.5,2.1c-1.8,0.7-3,2.4-3,4.5c0,1.9,1.1,3.4,2.7,4.2l-0.8,0.3h2.4
					c0.2,0,0.4,0.2,0.6,0.2s0.4-0.2,0.6-0.2H114l-2.4-0.6C113.9,55.1,115.8,53.2,115.8,50.8z M103.4,53.1c0.6-0.5,1.2-1.1,1.5-1.8
					c0.5,0.2,0.8,0.4,1.4,0.5c0.2,1.1,0.8,2.1,1.6,2.7L103.4,53.1z"/>
				<path class="st1" d="M66.3,57.3c-0.3,0-0.5-0.1-0.6-0.1l0,0h-9.5l5.6-1.8c-0.9-1.1-1.4-2.4-1.4-3.7c0-2.1,1.1-4,2.8-5
					c-0.1-0.5-0.2-0.9-0.2-1.4c0-4.4,3.4-8.1,7.8-8.4c2-5.2,6.8-8.6,12.2-8.6c5.3,0,9.9,3,12,7.8c4,0.4,7.2,3.7,7.5,7.7
					c1.1-1.5,2.9-2.5,4.9-2.5c2.6,0,4.8,1.7,5.6,4.1c2.4,0.8,4.1,3,4.1,5.6c0,1.7-0.8,3.2-2,4.3l8.5,2.1H66.9
					C66.7,57.2,66.5,57.3,66.3,57.3z M65,54.8h0.7c0.2,0,0.5,0.1,0.6,0.1c0.2-0.1,0.4-0.1,0.6-0.1h38.4l-4.3-1.3l1.8-1.4
					c0.6-0.5,1-0.9,1.2-1.4l0.5-1.1l1.1,0.6c0.3,0.2,0.6,0.3,1.1,0.4l0.8,0.2l0.2,0.8c0.2,0.8,0.5,1.5,1.2,2.1l1.1,0.9l1.7-0.2
					c2-0.2,3.3-1.7,3.3-3.5c0-1.8-1.2-3.2-3-3.5l-0.8-0.2l-0.2-0.8c-0.4-1.8-1.8-3-3.5-3c-1.4,0-2.7,0.8-3.4,2.2l-0.5,1.1l-1.1-0.5
					c-0.4-0.2-0.8-0.3-1.2-0.4l-1.1-0.2l0.2-1.1c0-0.1,0-0.2,0.1-0.3c-0.1-3.3-2.7-5.9-6.1-6h-0.8l-0.3-0.8
					c-1.6-4.3-5.6-7.1-10.2-7.1c-4.7,0-8.8,3.1-10.3,7.8l-0.2,0.8h-0.8c-0.1,0-0.2,0-0.2,0c-3.4,0.1-6,2.8-6,6.1
					c0,0.5,0.2,1.1,0.4,1.7l0.3,1L65,48c-1.4,0.6-2.3,1.9-2.3,3.4c0,1.4,0.8,2.5,2.1,3.1L65,54.8z"/>
			</g>
		</g>
	</g>
	<g>
		<path class="st1" d="M93.2,90.6H27v-64h66.3V90.6z M29.2,88.3h61.7V28.9H29.2V88.3z"/>
	</g>
	<g>
		<polyline class="st6" points="29.9,87.6 53.7,80 52.7,68.3 		"/>
		<path class="st1" d="M29.9,88.8c-0.5,0-0.9-0.3-1.1-0.8c-0.2-0.6,0.2-1.2,0.8-1.4l22.9-7.4l-0.9-10.8c-0.1-0.6,0.4-1.2,1.1-1.2
			c0.6-0.1,1.2,0.4,1.2,1.1l1,11.7c0.1,0.5-0.3,1-0.8,1.2l-23.8,7.7C30.1,88.8,30,88.8,29.9,88.8z"/>
	</g>
	<g>
		<polyline class="st6" points="63.7,77.2 85.3,66.3 85.5,57.6 		"/>
		<path class="st1" d="M63.7,78.4c-0.4,0-0.8-0.2-1-0.6c-0.3-0.5-0.1-1.2,0.5-1.5l21-10.7l0.2-8c0-0.6,0.5-1.1,1.1-1.1
			s1.1,0.5,1.1,1.1l-0.4,8.8c0,0.4-0.2,0.8-0.6,1l-21.6,11C64,78.4,63.8,78.4,63.7,78.4z"/>
	</g>
	<g>
		<path class="st0" d="M54.1,58.6c-6.7,0-12.1-5.4-12.1-12.1c0-4,1.9-7.4,4.8-9.6c-6.4,0.8-11.3,6.2-11.3,12.9c0,7.2,5.8,13,13,13
			c4.2,0,7.9-2.1,10.3-5.2C57.3,58.3,55.8,58.6,54.1,58.6z"/>
		<path class="st1" d="M48.5,64c-7.8,0-14.2-6.3-14.2-14.2c0-7,5.3-13,12.3-13.9l4.3-0.5l-3.4,2.6c-2.7,2.1-4.3,5.3-4.3,8.7
			c0,6,4.9,11,11,11c1.4,0,2.9-0.3,4.3-0.8l4-1.8l-2.7,3.4C57,61.9,52.9,64,48.5,64z M43,39.4c-3.8,2-6.4,5.9-6.4,10.4
			c0,6.5,5.3,11.9,11.9,11.9c2.3,0,4.5-0.7,6.4-1.9c-0.3,0-0.5,0-0.8,0c-7.3,0-13.3-5.9-13.3-13.3C40.9,43.9,41.7,41.5,43,39.4z"/>
	</g>
	<g>
		<g>
			<path class="st1" d="M68.1,21.5c0-0.8,0.6-1.4,1.4-1.4s1.4,0.6,1.4,1.4c0,0.8-0.6,1.4-1.4,1.4S68.1,22.2,68.1,21.5z"/>
			<path class="st7" d="M69.5,23.2c-1,0-1.8-0.8-1.8-1.8c0-1,0.8-1.8,1.8-1.8c1,0,1.8,0.8,1.8,1.8C71.2,22.5,70.4,23.2,69.5,23.2z
				 M69.5,20.5c-0.5,0-1,0.5-1,1c0,0.5,0.5,1,1,1c0.5,0,1-0.5,1-1C70.4,20.9,70,20.5,69.5,20.5z"/>
		</g>
		<g>
			<path class="st1" d="M58.6,21.5c0-0.8,0.6-1.4,1.4-1.4s1.4,0.6,1.4,1.4c0,0.8-0.6,1.4-1.4,1.4S58.6,22.2,58.6,21.5z"/>
			<path class="st7" d="M59.9,23.2c-1,0-1.8-0.8-1.8-1.8c0-1,0.8-1.8,1.8-1.8c1,0,1.8,0.8,1.8,1.8C61.7,22.4,60.9,23.2,59.9,23.2z
				 M59.9,20.5c-0.5,0-1,0.5-1,1c0,0.5,0.5,1,1,1c0.5,0,1-0.5,1-1C60.9,20.9,60.5,20.5,59.9,20.5z"/>
		</g>
		<g>
			<path class="st1" d="M49,21.5c0-0.8,0.6-1.4,1.4-1.4c0.8,0,1.4,0.6,1.4,1.4c0,0.8-0.6,1.4-1.4,1.4C49.6,22.8,49,22.2,49,21.5z"/>
			<path class="st7" d="M50.3,23.2c-1,0-1.8-0.8-1.8-1.8c0-1,0.8-1.8,1.8-1.8s1.8,0.8,1.8,1.8C52.1,22.5,51.3,23.2,50.3,23.2z
				 M50.3,20.5c-0.5,0-1,0.5-1,1c0,0.5,0.5,1,1,1s1-0.5,1-1C51.3,20.9,50.9,20.5,50.3,20.5z"/>
		</g>
	</g>
</g>
<g>
	<g>
		<rect x="28.2" y="26.4" class="st0" width="86.1" height="86.1"/>
		<path class="st1" d="M115.4,113.6H27.1V25.3h88.3V113.6z M29.4,111.3h83.8V27.6H29.4V111.3z"/>
	</g>
	<g>
		<rect x="39.3" y="38.2" class="st2" width="64" height="61.7"/>
	</g>
	<g>
		<g>
			<defs>
				<rect id="SVGID_5_" x="39.3" y="38.2" width="64" height="61.7"/>
			</defs>
			<clipPath id="SVGID_6_">
				<use xlink:href="#SVGID_5_"  style="overflow:visible;"/>
			</clipPath>
			<g class="st8">
				<polygon class="st4" points="39.5,100.2 63.4,76.3 75.2,88 97.3,66 109.6,78.2 123.7,92.4 112.2,115.8 58.5,106.9 39.9,105.7 
					38.4,101.6 				"/>
				<path class="st1" d="M112.2,116.9c-0.1,0-0.2,0-0.2,0L58.5,108l-18.6-1.1c-0.5,0-0.8-0.3-1-0.8l-1.5-4.1
					c-0.2-0.4-0.1-0.8,0.2-1.1l1.1-1.4l0.1-0.1l23.9-23.9c0.5-0.5,1.2-0.5,1.6,0l11,11l21.3-21.3c0.5-0.5,1.2-0.5,1.6,0l26.4,26.4
					c0.4,0.4,0.5,0.8,0.2,1.3l-11.5,23.4C113.1,116.7,112.6,116.9,112.2,116.9z M40.7,104.6l17.9,1.1c0.1,0,0.1,0,0.2,0l52.9,8.8
					l10.7-21.9l-25-25.1L76,88.9c-0.2,0.2-0.5,0.3-0.8,0.3l0,0c-0.3,0-0.6-0.2-0.8-0.3l-10.9-11L40.3,101l-0.7,0.8L40.7,104.6z"/>
			</g>
		</g>
		<g>
			<defs>
				<rect id="SVGID_7_" x="39.3" y="38.2" width="64" height="61.7"/>
			</defs>
			<clipPath id="SVGID_8_">
				<use xlink:href="#SVGID_7_"  style="overflow:visible;"/>
			</clipPath>
			<g class="st9">
				<path class="st0" d="M127.4,61.6c0-2.4-1.7-4.2-3.9-4.6c-0.5-2.2-2.3-3.9-4.6-3.9c-2,0-3.7,1.2-4.4,2.9
					c-0.5-0.2-1.1-0.5-1.6-0.5c0-0.2,0.1-0.2,0.1-0.3c0-4-3.2-7.2-7.2-7.2c-1.8-4.6-6.1-7.8-11.3-7.8c-5.4,0-9.9,3.7-11.4,8.6
					c-0.1,0-0.1,0-0.2,0c-4,0-7.2,3.3-7.2,7.2c0,0.8,0.2,1.4,0.5,2.1c-1.8,0.7-3,2.4-3,4.5c0,1.9,1.1,3.4,2.7,4.2l-0.8,0.3h2.4
					c0.2,0,0.4,0.2,0.6,0.2s0.4-0.2,0.6-0.2h47.1l-2.4-0.6C125.5,65.9,127.4,64,127.4,61.6z M115,63.9c0.6-0.5,1.2-1.1,1.5-1.8
					c0.5,0.2,0.8,0.4,1.4,0.5c0.2,1.1,0.8,2.1,1.6,2.7L115,63.9z"/>
				<path class="st1" d="M77.8,68.1c-0.3,0-0.5-0.1-0.6-0.1l0,0h-9.5l5.6-1.8c-0.9-1.1-1.4-2.4-1.4-3.7c0-2.1,1.1-4,2.8-5
					c-0.1-0.5-0.2-0.9-0.2-1.4c0-4.4,3.4-8.1,7.8-8.4c2-5.2,6.8-8.6,12.2-8.6c5.3,0,9.9,3,12,7.8c4,0.4,7.2,3.7,7.5,7.7
					c1.1-1.5,2.9-2.5,4.9-2.5c2.6,0,4.8,1.7,5.6,4.1c2.4,0.8,4.1,3,4.1,5.6c0,1.7-0.8,3.2-2,4.3L135,68H78.5
					C78.3,68,78,68.1,77.8,68.1z M76.5,65.6h0.7c0.2,0,0.5,0.1,0.6,0.1c0.2-0.1,0.4-0.1,0.6-0.1h38.4l-4.3-1.3l1.8-1.4
					c0.6-0.5,1-0.9,1.2-1.4l0.5-1.1l1.1,0.6c0.3,0.2,0.6,0.3,1.1,0.4l0.8,0.2l0.2,0.8c0.2,0.8,0.5,1.5,1.2,2.1l1.1,0.9l1.7-0.2
					c2-0.2,3.3-1.7,3.3-3.5c0-1.8-1.2-3.2-3-3.5l-0.8-0.2l-0.2-0.8c-0.4-1.8-1.8-3-3.5-3c-1.4,0-2.7,0.8-3.4,2.2l-0.5,1.1L114,57
					c-0.4-0.2-0.8-0.3-1.2-0.4l-1.1-0.2l0.2-1.1c0-0.1,0-0.2,0.1-0.3c-0.1-3.3-2.7-5.9-6.1-6H105l-0.3-0.8
					c-1.6-4.3-5.6-7.1-10.2-7.1c-4.7,0-8.8,3.1-10.3,7.8L84,49.7h-0.8c-0.1,0-0.2,0-0.2,0c-3.4,0.1-6,2.8-6,6.1
					c0,0.5,0.2,1.1,0.4,1.7l0.3,1l-1,0.4c-1.4,0.6-2.3,1.9-2.3,3.4c0,1.4,0.8,2.5,2.1,3.1L76.5,65.6z"/>
			</g>
		</g>
	</g>
	<g>
		<path class="st1" d="M104.8,101.4H38.5v-64h66.3V101.4z M40.8,99.2h61.7V39.8H40.8V99.2z"/>
	</g>
	<g>
		<polyline class="st6" points="41.4,98.5 65.3,90.8 64.3,79.1 		"/>
		<path class="st1" d="M41.4,99.6c-0.5,0-0.9-0.3-1.1-0.8c-0.2-0.6,0.2-1.2,0.8-1.4L64,90l-0.9-10.8C63,78.6,63.5,78,64.2,78
			c0.6-0.1,1.2,0.4,1.2,1.1l1,11.7c0.1,0.5-0.3,1-0.8,1.2l-23.8,7.7C41.6,99.6,41.6,99.6,41.4,99.6z"/>
	</g>
	<g>
		<polyline class="st6" points="75.2,88 96.9,77.1 97.1,68.4 		"/>
		<path class="st1" d="M75.2,89.2c-0.4,0-0.8-0.2-1-0.6c-0.3-0.5-0.1-1.2,0.5-1.5l21-10.7l0.2-8c0-0.6,0.5-1.1,1.1-1.1
			s1.1,0.5,1.1,1.1l-0.4,8.8c0,0.4-0.2,0.8-0.6,1l-21.6,11C75.5,89.2,75.4,89.2,75.2,89.2z"/>
	</g>
	<g>
		<path class="st0" d="M65.6,69.5c-6.7,0-12.1-5.4-12.1-12.1c0-4,1.9-7.4,4.8-9.6C51.9,48.6,47,54,47,60.6c0,7.2,5.8,13,13,13
			c4.2,0,7.9-2.1,10.3-5.2C68.9,69.2,67.4,69.5,65.6,69.5z"/>
		<path class="st1" d="M60.1,74.8c-7.8,0-14.2-6.3-14.2-14.2c0-7,5.3-13,12.3-13.9l4.3-0.5l-3.4,2.6c-2.7,2.1-4.3,5.3-4.3,8.7
			c0,6,4.9,11,11,11c1.4,0,2.9-0.3,4.3-0.8l4-1.8l-2.7,3.4C68.6,72.7,64.5,74.8,60.1,74.8z M54.6,50.2c-3.8,2-6.4,5.9-6.4,10.4
			c0,6.5,5.3,11.9,11.9,11.9c2.3,0,4.5-0.7,6.4-1.9c-0.3,0-0.5,0-0.8,0c-7.3,0-13.3-5.9-13.3-13.3C52.5,54.8,53.2,52.3,54.6,50.2z"
			/>
	</g>
	<g>
		<g>
			<path class="st1" d="M79.6,32.3c0-0.8,0.6-1.4,1.4-1.4s1.4,0.6,1.4,1.4c0,0.8-0.6,1.4-1.4,1.4S79.6,33.1,79.6,32.3z"/>
			<path class="st7" d="M81,34c-1,0-1.8-0.8-1.8-1.8c0-1,0.8-1.8,1.8-1.8c1,0,1.8,0.8,1.8,1.8C82.8,33.3,82,34,81,34z M81,31.3
				c-0.5,0-1,0.5-1,1s0.5,1,1,1c0.5,0,1-0.5,1-1S81.5,31.3,81,31.3z"/>
		</g>
		<g>
			<path class="st1" d="M70.1,32.3c0-0.8,0.6-1.4,1.4-1.4c0.8,0,1.4,0.6,1.4,1.4c0,0.8-0.6,1.4-1.4,1.4
				C70.7,33.7,70.1,33.1,70.1,32.3z"/>
			<path class="st7" d="M71.5,34c-1,0-1.8-0.8-1.8-1.8c0-1,0.8-1.8,1.8-1.8c1,0,1.8,0.8,1.8,1.8C73.2,33.2,72.4,34,71.5,34z
				 M71.5,31.3c-0.5,0-1,0.5-1,1s0.5,1,1,1c0.5,0,1-0.5,1-1C72.5,31.8,72,31.3,71.5,31.3z"/>
		</g>
		<g>
			<path class="st1" d="M60.5,32.3c0-0.8,0.6-1.4,1.4-1.4c0.8,0,1.4,0.6,1.4,1.4c0,0.8-0.6,1.4-1.4,1.4
				C61.1,33.7,60.5,33.1,60.5,32.3z"/>
			<path class="st7" d="M61.9,34c-1,0-1.8-0.8-1.8-1.8c0-1,0.8-1.8,1.8-1.8c1,0,1.8,0.8,1.8,1.8C63.7,33.3,62.9,34,61.9,34z
				 M61.9,31.3c-0.5,0-1,0.5-1,1s0.5,1,1,1s1-0.5,1-1S62.4,31.3,61.9,31.3z"/>
		</g>
	</g>
</g>
</svg>
