<?xml version="1.0" encoding="utf-8"?>
<!-- Generator: Adobe Illustrator 20.0.0, SVG Export Plug-In . SVG Version: 6.00 Build 0)  -->
<svg version="1.1" id="Layer_1" xmlns="http://www.w3.org/2000/svg" xmlns:xlink="http://www.w3.org/1999/xlink" x="0px" y="0px"
	 viewBox="0 0 64 64" style="enable-background:new 0 0 64 64;" xml:space="preserve">
<style type="text/css">
	.st0{fill:#FFECB3;}
	.st1{fill:#37474F;}
	.st2{fill:#FFAB00;}
	.st3{fill:#B0BEC5;}
</style>
<g>
	<g>
		<polyline class="st0" points="29,57.5 8,57.5 8,6.5 29,6.5 		"/>
	</g>
	<g>
		<path class="st1" d="M29,58.5H8c-0.6,0-1-0.4-1-1v-1v-50c0-0.6,0.4-1,1-1h21c0.6,0,1,0.4,1,1s-0.4,1-1,1H9v49h20c0.6,0,1,0.4,1,1
			C30,58.1,29.6,58.5,29,58.5z"/>
	</g>
	<g>
		<path class="st1" d="M29,5.5c0.6,0,1,0.4,1,1v51c0,0.6-0.4,1-1,1c-1,0-1-2-1-2v-49C28,7.5,28,5.5,29,5.5z"/>
	</g>
	<g>
		<g>
			<polyline class="st2" points="32.8,19.9 32.8,6.5 57.8,6.5 57.8,19.9 			"/>
		</g>
		<g>
			<path class="st1" d="M57.8,20.5c-0.6,0-1-0.4-1-1v-12h-23v12c0,0.6-0.4,1-1,1s-1-0.4-1-1v-13c0-0.6,0.4-1,1-1h25c0.6,0,1,0.4,1,1
				v13C58.8,20.1,58.4,20.5,57.8,20.5z"/>
		</g>
	</g>
	<g>
		<path class="st1" d="M31.8,19.5c0-0.6,0.2-1,0.5-1h25.9c0.3,0,0.5,0.4,0.5,1c0,1-1,1-1,1H32.8C32.8,20.5,31.8,20.5,31.8,19.5z"/>
	</g>
	<g>
		<g>
			<polyline class="st3" points="32.8,56.9 32.8,23.4 57.8,23.4 57.8,56.9 			"/>
		</g>
		<g>
			<path class="st1" d="M57.8,58.4c-0.6,0-1-0.4-1-1v-33h-23v33c0,0.6-0.4,1-1,1s-1-0.4-1-1v-34c0-0.6,0.4-1,1-1h25c0.6,0,1,0.4,1,1
				v34C58.8,58,58.4,58.4,57.8,58.4z"/>
		</g>
	</g>
	<g>
		<path class="st1" d="M31.8,57.5c0-0.6,0.2-1,0.5-1h25.9c0.3,0,0.5,0.4,0.5,1c0,1-1,1-1,1H32.8C32.8,58.5,31.8,58.5,31.8,57.5z"/>
	</g>
</g>
</svg>
