<?xml version="1.0" encoding="utf-8"?>
<!-- Generator: Adobe Illustrator 19.0.0, SVG Export Plug-In . SVG Version: 6.00 Build 0)  -->
<svg version="1.1" xmlns="http://www.w3.org/2000/svg" xmlns:xlink="http://www.w3.org/1999/xlink" x="0px" y="0px"
	 viewBox="236 -236 512 512" style="enable-background:new 236 -236 512 512;" xml:space="preserve">
<style type="text/css">
	.st0{fill:#FF6700;}
</style>
<g id="Layer_2">
</g>
<g id="Layer_1">
	<path class="st0" d="M492-236c-141.4,0-256,114.6-256,256s114.6,256,256,256S748,161.4,748,20S633.4-236,492-236z M595.8-33.3
		c0.1,2.3,0.2,4.7,0.2,6.9C595.9,44.5,542,126,443.6,126c-30.3,0-58.4-8.9-82.1-24c4.2,0.4,8.5,0.7,12.8,0.7
		c25.1,0,48.2-8.6,66.5-22.9c-23.5-0.4-43.2-15.9-50-37.2c3.3,0.6,6.6,1,10.1,1c4.9,0,9.6-0.7,14.1-1.9
		C390.5,36.7,372,15.1,372-10.8c0-0.2,0-0.4,0-0.7c7.2,4,15.5,6.4,24.3,6.7c-14.3-9.6-23.8-26-23.8-44.5c0-9.8,2.6-19,7.2-26.9
		c26.4,32.4,65.8,53.7,110.3,55.9c-1-3.9-1.4-8-1.4-12.2c0-29.5,24-53.5,53.6-53.5c15.4,0,29.3,6.5,39.1,16.9
		c12.2-2.4,23.6-6.9,34-13c-4,12.6-12.5,23-23.5,29.6c10.9-1.3,21.2-4.1,30.8-8.4C615.3-50.2,606.2-40.7,595.8-33.3z"/>
</g>
</svg>
