<?xml version="1.0" encoding="utf-8"?>
<!-- Generator: Adobe Illustrator 19.0.0, SVG Export Plug-In . SVG Version: 6.00 Build 0)  -->
<svg version="1.1" id="Layer_1" xmlns="http://www.w3.org/2000/svg" xmlns:xlink="http://www.w3.org/1999/xlink" x="0px" y="0px"
	 viewBox="236 -236 512 512" style="enable-background:new 236 -236 512 512;" xml:space="preserve">
<path d="M622.5-60.9c-9.6,4.3-19.9,7.1-30.8,8.4c11-6.6,19.6-17.1,23.5-29.6c-10.4,6.1-21.8,10.6-34,13
	C571.5-79.5,557.6-86,542.2-86c-29.6,0-53.6,24-53.6,53.5c0,4.2,0.4,8.3,1.4,12.2c-44.5-2.2-83.9-23.5-110.3-55.9
	c-4.6,7.9-7.2,17.1-7.2,26.9c0,18.5,9.5,35,23.8,44.5c-8.8-0.3-17-2.7-24.3-6.7c0,0.2,0,0.4,0,0.7c0,25.9,18.4,47.6,42.9,52.5
	c-4.5,1.2-9.2,1.9-14.1,1.9c-3.5,0-6.8-0.3-10.1-1c6.8,21.3,26.6,36.8,50,37.2c-18.3,14.3-41.4,22.9-66.5,22.9
	c-4.3,0-8.6-0.3-12.8-0.7c23.7,15.2,51.8,24,82.1,24c98.4,0,152.3-81.6,152.3-152.3c0-2.3-0.1-4.7-0.2-6.9
	C606.2-40.7,615.3-50.2,622.5-60.9z"/>
<path d="M492,276c-68.4,0-132.7-26.6-181-75c-48.4-48.4-75-112.6-75-181c0-68.4,26.6-132.7,75-181s112.6-75,181-75
	c68.4,0,132.7,26.6,181,75c48.4,48.4,75,112.6,75,181c0,68.4-26.6,132.7-75,181C624.7,249.4,560.4,276,492,276z M492-216.8
	c-63.2,0-122.7,24.6-167.4,69.3S255.2-43.2,255.2,20s24.6,122.7,69.3,167.4s104.2,69.3,167.4,69.3s122.7-24.6,167.4-69.3
	c44.7-44.7,69.3-104.2,69.3-167.4s-24.6-122.7-69.3-167.4C614.7-192.1,555.2-216.8,492-216.8z"/>
</svg>
