<?xml version="1.0" encoding="utf-8"?>
<!-- Generator: Adobe Illustrator 20.0.0, SVG Export Plug-In . SVG Version: 6.00 Build 0)  -->
<svg version="1.1" id="Layer_1" xmlns="http://www.w3.org/2000/svg" xmlns:xlink="http://www.w3.org/1999/xlink" x="0px" y="0px"
	 viewBox="0 0 128 128" style="enable-background:new 0 0 128 128;" xml:space="preserve">
<style type="text/css">
	.st0{fill:#FFAB00;}
	.st1{fill:#37474F;}
	.st2{fill:#FFECB3;}
</style>
<g id="Layer_1_2_">
	<g id="Layer_1_1_">
		<g id="Layer_2">
			<g>
				<g>
					<path class="st0" d="M112.8,64c0,26.9-21.8,48.8-48.8,48.8S15.2,91,15.2,64S37.1,15.2,64,15.2S112.8,37.1,112.8,64z"/>
					<path class="st1" d="M64,114c-27.5,0-50-22.4-50-50c0-27.5,22.4-50,50-50c27.5,0,50,22.4,50,50C114,91.5,91.5,114,64,114z
						 M64,16.5c-26.2,0-47.5,21.3-47.5,47.5s21.3,47.5,47.5,47.5s47.5-21.3,47.5-47.5S90.2,16.5,64,16.5z"/>
				</g>
				<g>
					<path class="st2" d="M102.9,64c0,21.5-17.4,38.9-38.9,38.9S25.1,85.5,25.1,64S42.5,25.1,64,25.1S102.9,42.5,102.9,64z"/>
					<path class="st1" d="M64,104.1C41.8,104.1,23.9,86,23.9,64C23.9,41.8,42,23.9,64,23.9S104.1,42,104.1,64
						C104.1,86.2,86.2,104.1,64,104.1z M64,26.3c-20.8,0-37.7,16.9-37.7,37.7s16.9,37.7,37.7,37.7s37.7-16.9,37.7-37.7
						S84.8,26.3,64,26.3z"/>
				</g>
				<g>
					<g>
						<polygon class="st1" points="52.4,84.8 86.4,64 52.4,43.2 						"/>
						<path class="st1" d="M52.4,86c-0.2,0-0.4,0-0.5-0.2c-0.4-0.2-0.7-0.7-0.7-1.1V43.2c0-0.4,0.2-0.9,0.7-1.1
							c0.4-0.2,0.9-0.2,1.2,0l34,20.8c0.4,0.2,0.5,0.7,0.5,1.1s-0.2,0.9-0.5,1.1l-34,20.8C52.7,86,52.6,86,52.4,86z M53.6,45.3v37.1
							l30.3-18.7L53.6,45.3z"/>
					</g>
				</g>
			</g>
		</g>
	</g>
</g>
</svg>
