<?xml version="1.0" encoding="utf-8"?>
<!-- Generator: Adobe Illustrator 19.0.0, SVG Export Plug-In . SVG Version: 6.00 Build 0)  -->
<svg version="1.1" id="Layer_3" xmlns="http://www.w3.org/2000/svg" xmlns:xlink="http://www.w3.org/1999/xlink" x="0px" y="0px"
	 viewBox="22.3 15.3 83.9 12.7" style="enable-background:new 22.3 15.3 83.9 12.7;" xml:space="preserve">
<polyline id="XMLID_11_" points="62.5,18 68.2,18 73.2,25 73.2,25 73.2,18 76.9,18 76.9,27.7 71.3,27.7 66.2,20.7 66.1,20.7 
	66.1,27.7 62.5,27.7 62.5,18 "/>
<path id="XMLID_22_" d="M82.1,25.6h1.2c2.2,0,3-0.3,3-1c0-0.7-1-1-2.7-1h-1.5V25.6 M82.1,21.7h1.2c1.8,0,2.7-0.1,2.7-0.9
	c0-0.8-0.7-1-2.4-1h-1.5V21.7z M78,18h7c3.4,0,5.3,0.9,5.3,2.4c0,0.9-0.9,1.9-2.7,2.2l0,0c2.2,0.1,3.1,1.5,3.1,2.4
	c0,1.6-1.9,2.7-5.6,2.7H78V18z"/>
<path id="XMLID_13_" d="M101.7,21.1c-0.1-1-1-1.3-2.1-1.5c-3.1-0.3-3.7,2.1-3.7,3.1c0,1.6,0.4,3.1,3.6,3.1c0.6,0,2.1-0.6,2.1-1.5
	h4.4c-0.1,2.8-4.9,3.6-7,3.6c-4.3,0-8-0.7-7.7-5c0.1-3,3-5.2,8.6-5c3.1,0,6.2,1,6.2,3.4h-4.5"/>
<path id="XMLID_14_" d="M57.2,21.1c-0.1-1-1-1.3-2.1-1.5c-3.1-0.2-3.7,2.1-3.7,3.2c0,1.6,0.4,3.1,3.6,3.1c0.6,0,2.2-0.6,2.2-1.5h4.5
	c-0.1,2.8-4.9,3.6-7,3.6c-4.3,0-8-0.7-7.7-5c0.1-3,3-5.2,8.6-5c3.1,0,6.2,1,6.2,3.4h-4.6"/>
<path id="XMLID_6_" d="M41.3,22.8l-6.5,4.3L37,22l1-2.4c0.4-0.8,1.2-1.3,2.1-1.3c0.8,0,1.6,0.4,2,1.1c0.5,0.7,0.5,1.9,0,2.6
	C41.9,22.3,41.6,22.6,41.3,22.8"/>
<path id="XMLID_5_" d="M38,18.7l-3.2,7.6l-0.1-0.8l-1-6.2c0-0.4,0.1-0.7,0.4-0.9l0.5-0.3c0-0.1-0.1-0.1-0.2-0.2h-0.9
	c-0.1-0.9,0.3-1.7,1.1-2.2c0.6-0.4,1.5-0.5,2.1-0.2c0.9,0.3,1.4,1.3,1.5,2.2C38.2,18.1,38.2,18.4,38,18.7"/>
<path id="XMLID_4_" d="M31.9,26.3l-3.2-7.6c-0.3-0.8-0.2-1.8,0.4-2.5c0.6-0.7,1.5-1,2.4-0.7c0.8,0.2,1.5,0.9,1.7,1.7
	c0.1,0.3,0.1,0.6,0.1,1L31.9,26.3"/>
<path id="XMLID_3_" d="M25.1,22.6c-0.6-0.6-0.9-1.4-0.8-2.2c0.1-0.9,0.8-1.7,1.6-2c0.8-0.3,1.8-0.1,2.4,0.6c0.3,0.2,0.4,0.5,0.6,0.8
	l3.1,7.4L25.1,22.6"/>
<path id="XMLID_2_" d="M24.4,28c-0.8-0.1-1.5-0.6-1.9-1.3c-0.4-0.8-0.3-1.9,0.2-2.6c0.6-0.7,1.4-1.1,2.3-0.9c0.4,0,0.7,0.2,1,0.3
	l6.6,4.4L24.4,28"/>
<path id="XMLID_1_" d="M42.2,28c0.8-0.1,1.5-0.6,1.9-1.3c0.4-0.8,0.3-1.9-0.2-2.6c-0.6-0.7-1.4-1.1-2.3-0.9
	c-0.3,0.1-0.6,0.2-0.9,0.4L34.1,28H42.2"/>
</svg>
