<?xml version="1.0" standalone="no"?>
<!DOCTYPE svg PUBLIC "-//W3C//DTD SVG 1.1//EN" "http://www.w3.org/Graphics/SVG/1.1/DTD/svg11.dtd" >
<svg xmlns="http://www.w3.org/2000/svg">
<metadata></metadata>
<defs>
<font id="bonn_regular_betaregular" horiz-adv-x="655" >
<font-face units-per-em="2048" ascent="1536" descent="-512" />
<missing-glyph horiz-adv-x="245" />
<glyph horiz-adv-x="0" />
<glyph horiz-adv-x="682" />
<glyph unicode=" "  horiz-adv-x="245" />
<glyph unicode="&#x09;" horiz-adv-x="245" />
<glyph unicode="&#xa0;" horiz-adv-x="245" />
<glyph unicode="!" horiz-adv-x="428" d="M121 315v1274h160v-1274h-160zM123 78q0 35 21.5 57.5t56.5 22.5t57.5 -22.5t22.5 -57.5t-22.5 -56.5t-57.5 -21.5t-56.5 21.5t-21.5 56.5z" />
<glyph unicode="$" d="M47 279v198h158v-198q0 -49 35.5 -85t85.5 -36q49 0 83.5 35.5t34.5 85.5v391q0 53 -35.5 89t-86.5 36q-57 0 -107.5 21.5t-87.5 59t-58.5 89t-21.5 108.5v238q0 57 21.5 108t59.5 89t89 59.5t109 21.5q57 0 108 -21.5t89 -59.5t59.5 -89t21.5 -108v-199h-160v199 q0 49 -33.5 85t-86.5 36t-86 -36t-33 -85v-240q0 -53 35.5 -89t87.5 -36q57 0 108 -21.5t88 -59.5t58.5 -89t21.5 -108v-389q0 -57 -21.5 -108.5t-59.5 -89.5t-89 -59.5t-108 -21.5t-108.5 21.5t-89.5 59.5t-59.5 89t-21.5 109zM246 -160v1909h160v-1909h-160zM246 -160 v1909h160v-1909h-160z" />
<glyph unicode="%" horiz-adv-x="708" d="M49 0l443 1589h161l-444 -1589h-160zM49 1507q0 35 24.5 58.5t57.5 23.5t55.5 -23.5t22.5 -58.5t-22.5 -56t-55.5 -21t-57.5 21t-24.5 56zM494 78q0 35 24.5 58.5t56.5 23.5q33 0 55.5 -23.5t22.5 -58.5t-22.5 -56.5t-55.5 -21.5t-57 21.5t-24 56.5z" />
<glyph unicode="&#x26;" horiz-adv-x="671" />
<glyph unicode="'" horiz-adv-x="1705" />
<glyph unicode="(" horiz-adv-x="591" d="M137 119v1351q0 57 21.5 108.5t59.5 89.5t89 59.5t109 21.5v-160q-49 0 -84 -34.5t-35 -84.5v-1351q0 -49 35 -84t84 -35v-160q-57 0 -108.5 21.5t-89.5 59.5t-59.5 89t-21.5 109z" />
<glyph unicode=")" horiz-adv-x="524" d="M137 0q49 0 84 35t35 84v1351q0 49 -35 84t-84 35v160q57 0 108.5 -21.5t89.5 -59.5t59.5 -89t21.5 -109v-1351q0 -57 -21.5 -108.5t-59.5 -89.5t-89 -59.5t-109 -21.5v160z" />
<glyph unicode="*" horiz-adv-x="788" />
<glyph unicode="+" horiz-adv-x="616" d="M53 797v157h174v160h160v-160h174v-157h-174v-160h-160v160h-174z" />
<glyph unicode="," horiz-adv-x="317" d="M45 -158l88 316h158l-88 -316h-158z" />
<glyph unicode="-" horiz-adv-x="618" d="M53 797v157h508v-157h-508z" />
<glyph unicode="." horiz-adv-x="385" d="M94 78q0 35 24.5 58.5t57.5 23.5t55.5 -23.5t22.5 -58.5t-22.5 -56.5t-55.5 -21.5t-57.5 21.5t-24.5 56.5z" />
<glyph unicode="/" horiz-adv-x="684" d="M49 0l443 1589h161l-444 -1589h-160z" />
<glyph unicode="0" horiz-adv-x="657" d="M49 274v1049q0 55 22.5 104.5t60.5 85t88 57t104 21.5q57 0 109 -21.5t91 -57t61.5 -85t22.5 -104.5v-1049q0 -53 -22.5 -103t-61.5 -88t-91 -60.5t-109 -22.5q-53 0 -103.5 22.5t-88.5 60.5t-60.5 88t-22.5 103zM209 274q0 -53 30.5 -83.5t84.5 -30.5q59 0 90.5 30.5 t31.5 83.5v1049q0 47 -31.5 78t-90.5 31q-53 0 -84 -31t-31 -78v-1049zM246 872q0 35 21.5 57.5t56.5 22.5t57 -22.5t22 -57.5t-22.5 -56t-56.5 -21q-35 0 -56.5 21t-21.5 56z" />
<glyph unicode="1" horiz-adv-x="258" d="M49 0v1589h160v-1589h-160z" />
<glyph unicode="2" d="M49 0v160l397 954v191q0 59 -31.5 93t-78.5 34t-87 -34t-40 -93v-191h-160v191q0 59 22.5 111t61.5 90t91 60.5t112 22.5q59 0 108.5 -22.5t85 -60.5t56 -90t20.5 -111v-191l-397 -954h397v-160h-557z" />
<glyph unicode="3" d="M49 270h158q0 -47 40 -79.5t89 -32.5q47 0 80 32.5t33 79.5v398q0 59 -33 93t-80 34v159q47 0 80 32t33 79v238q0 59 -33 94t-80 35q-49 0 -89 -35t-40 -94h-158q0 59 22.5 111t61.5 91t91 61.5t112 22.5q59 0 109.5 -22.5t86 -61.5t55 -91t19.5 -111v-238 q0 -47 -21.5 -101.5t-58.5 -89.5q37 -37 58.5 -92t21.5 -114v-398q0 -53 -19.5 -102t-55 -86t-86 -59.5t-109.5 -22.5t-111.5 22.5t-91.5 59.5t-61.5 86t-22.5 102z" />
<glyph unicode="4" d="M47 629l2 6l287 954h160l-287 -954h123v108h160v-108h114v-158h-114v-477h-160v477h-283v152h-2z" />
<glyph unicode="5" d="M49 268h162q0 -47 30.5 -78.5t77.5 -31.5q61 0 94 31.5t33 78.5v400q0 59 -32.5 93t-94.5 34h-270v794h557v-159h-395v-476h108q59 0 111.5 -22.5t91.5 -61.5t61.5 -91t22.5 -111v-400q0 -53 -22.5 -102t-61.5 -86t-91 -59.5t-112 -22.5q-53 0 -102 22.5t-86 59.5 t-59.5 86t-22.5 102z" />
<glyph unicode="6" horiz-adv-x="653" d="M49 270v396v637q0 59 19.5 111t55.5 91t86 61.5t109 22.5t111.5 -22.5t90.5 -61.5t60.5 -91t22.5 -111h-158q0 59 -38.5 94t-88.5 35q-47 0 -78.5 -35t-31.5 -94v-379q23 12 49.5 22t60.5 10q59 0 111.5 -22.5t90.5 -62.5t60.5 -92t22.5 -113v-396q0 -53 -22.5 -102 t-60.5 -86t-90 -59.5t-112 -22.5q-59 0 -109 22.5t-86 59.5t-55.5 86t-19.5 102zM209 270q0 -47 31.5 -78.5t78.5 -31.5q49 0 88 31.5t39 78.5v396q0 59 -39 93t-88 34q-47 0 -78.5 -34t-31.5 -93v-396z" />
<glyph unicode="7" d="M49 0l397 1430h-397v159h557v-159l-397 -1430h-160z" />
<glyph unicode="8" d="M49 268v400q0 59 22.5 114.5t57.5 89.5q-35 37 -57.5 91.5t-22.5 101.5v240q0 59 22.5 111t60.5 90t87 60.5t103 22.5q59 0 111 -22.5t90 -60.5t60.5 -90t22.5 -111v-240q0 -47 -22.5 -101.5t-57.5 -91.5q35 -35 57.5 -90t22.5 -114v-400q0 -53 -22.5 -101t-60.5 -85 t-90 -59.5t-111 -22.5q-53 0 -102.5 22.5t-87.5 59.5t-60.5 85t-22.5 101zM209 268q0 -47 33 -77.5t80 -30.5t85.5 30.5t38.5 77.5v400q0 59 -38.5 93t-85.5 34t-80 -34t-33 -93v-400zM209 1065q0 -47 32.5 -80t80.5 -33q47 0 85.5 33t38.5 80v240q0 59 -38.5 92t-85.5 33 t-80 -33t-33 -92v-240z" />
<glyph unicode="9" d="M49 287h158q0 -59 39 -94t88 -35q47 0 78.5 34.5t31.5 94.5v379q-23 -12 -49 -22.5t-61 -10.5q-59 0 -111.5 22.5t-90.5 62.5t-60.5 92t-22.5 114v395q0 53 22.5 102t60.5 86t90 59.5t112 22.5q59 0 109.5 -22.5t86 -59.5t55 -86t19.5 -102v-395v-637q0 -59 -19.5 -111.5 t-55 -91.5t-86 -61.5t-109.5 -22.5t-111.5 22.5t-90.5 61.5t-60.5 91t-22.5 112zM207 924q0 -59 39 -93t88 -34q47 0 78.5 33.5t31.5 93.5v395q0 47 -31.5 79t-78.5 32q-49 0 -88 -32t-39 -79v-395z" />
<glyph unicode=":" horiz-adv-x="245" d="M45 78q0 35 21.5 57.5t56.5 22.5t57.5 -22.5t22.5 -57.5t-22.5 -56.5t-57.5 -21.5t-56.5 21.5t-21.5 56.5z" />
<glyph unicode=";" horiz-adv-x="256" d="M45 78q0 35 21.5 57.5t56.5 22.5t57.5 -22.5t22.5 -57.5t-22.5 -56.5t-57.5 -21.5t-56.5 21.5t-21.5 56.5zM45 872q0 35 21.5 57.5t56.5 22.5t57.5 -22.5t22.5 -57.5t-22.5 -56t-57.5 -21t-56.5 21t-21.5 56z" />
<glyph unicode="&#x3c;" horiz-adv-x="577" d="M49 635v160l479 159v-159l-319 -82l319 -78v-160z" />
<glyph unicode="=" horiz-adv-x="679" d="M49 479v158h557v-158h-557zM49 795v157h557v-157h-557z" />
<glyph unicode="&#x3e;" horiz-adv-x="577" d="M49 475v160l320 78l-320 82v159l479 -159v-160z" />
<glyph unicode="?" horiz-adv-x="679" d="M57 1112v191q0 59 22.5 111t59.5 91t86 61.5t103 22.5q59 0 111.5 -22.5t90 -61.5t60 -91t22.5 -111v-191l-204 -635h-160l207 635v191q0 59 -40 93t-87 34t-79 -34t-32 -93v-191h-160zM248 80q0 35 22.5 57.5t57.5 22.5t57.5 -22.5t22.5 -57.5t-23 -57.5t-57 -22.5 q-35 0 -57.5 22.5t-22.5 57.5z" />
<glyph unicode="@" horiz-adv-x="1091" d="M109 0v838q0 57 21.5 107t59 88t89 59.5t108.5 21.5h320q55 0 105 -21.5t87 -58.5t59.5 -86t24.5 -104v-844h-158v27q-59 -27 -120 -27q-57 0 -108.5 21.5t-89.5 59.5t-59.5 89t-21.5 109v81q0 57 21.5 107.5t59.5 88.5t89 59.5t109 21.5q63 0 120 -29v228 q0 49 -34.5 83.5t-83.5 34.5h-320q-49 0 -84 -33.5t-35 -82.5h-2v-838h-157zM586 279q0 -51 34.5 -86t84.5 -35q49 0 83.5 34.5t34.5 86.5v81q0 49 -34.5 84t-83.5 35t-84 -34.5t-35 -84.5v-81z" />
<glyph unicode="A" d="M49 0l199 1589h160l198 -1589h-160l-38 317h-160l-41 -317h-158zM268 477h119l-59 477z" />
<glyph unicode="B" d="M49 0v1589h281q57 0 107 -22.5t88 -60.5t59.5 -88t21.5 -107v-238q0 -59 -22.5 -110.5t-61.5 -90.5q39 -39 61.5 -89t22.5 -109v-395q0 -57 -21.5 -108.5t-59.5 -89.5t-89 -59.5t-108 -21.5h-279zM209 158h117q53 0 86.5 35.5t33.5 85.5v395q0 47 -33.5 82t-82.5 39h-121 v-637zM209 952h127q49 4 79.5 39t30.5 82v238q0 47 -33.5 81.5t-82.5 39.5h-121v-480z" />
<glyph unicode="C" d="M49 279v1034q0 57 21.5 107t59.5 88t89 59.5t109 21.5q57 0 108 -21.5t89 -59.5t59.5 -88t21.5 -107v-193h-160v193q0 49 -34.5 84t-83.5 35t-84 -35t-35 -84v-1034q0 -49 35 -84t84 -35t83.5 34.5t34.5 84.5v215h160v-215q0 -57 -21.5 -108.5t-59.5 -89.5t-89 -59.5 t-108 -21.5t-108.5 21.5t-89.5 59.5t-59.5 89t-21.5 109z" />
<glyph unicode="D" d="M49 0v1589h281q57 0 107 -22.5t88 -60.5t59.5 -88t21.5 -107v-238v-399v-395q0 -57 -21.5 -108.5t-59.5 -89.5t-89 -59.5t-108 -21.5h-279zM209 158h117q53 0 86.5 35.5t33.5 85.5v1032q0 47 -33.5 81.5t-82.5 39.5h-121v-1274z" />
<glyph unicode="E" d="M49 0v1589h557v-159h-397v-476h397v-159h-397v-635h397v-160h-557z" />
<glyph unicode="F" d="M49 0v1589h557v-159h-397v-476h397v-159h-397v-795h-160z" />
<glyph unicode="G" d="M49 279v1032q0 57 21.5 108t59.5 89t89 59.5t109 21.5q57 0 108 -21.5t89 -59.5t59.5 -89t21.5 -108v-199h-160v199q0 49 -34.5 84t-83.5 35q-51 0 -86 -35t-35 -84v-1032q0 -49 34.5 -85t86.5 -36q49 0 83.5 35.5t34.5 85.5v516h-159v159h319v-675q0 -57 -21.5 -108.5 t-59.5 -89.5t-89 -59.5t-108 -21.5t-108.5 21.5t-89.5 59.5t-59.5 89t-21.5 109z" />
<glyph unicode="H" d="M49 -2v1591h160v-637h237v637h160v-1591h-160v795h-237v-795h-160z" />
<glyph unicode="I" horiz-adv-x="258" d="M49 0v1589h160v-1589h-160z" />
<glyph unicode="J" horiz-adv-x="354" d="M-143 -82q49 0 92 18.5t75.5 51t51 77t18.5 93.5v1431h160v-1431q0 -84 -32 -157t-85 -126t-125.5 -85t-154.5 -32v160z" />
<glyph unicode="K" d="M49 0v1591h160v-477l237 477h160l-332 -663l332 -928h-160l-237 668v-668h-160z" />
<glyph unicode="L" horiz-adv-x="653" d="M49 0v1589h158v-1429h397v-160h-555z" />
<glyph unicode="M" horiz-adv-x="1021" d="M49 0v1589h223l238 -1192l240 1192h223v-1589h-160v1112l-223 -1112h-160l-221 1112v-1112h-160z" />
<glyph unicode="N" horiz-adv-x="653" d="M49 0v1589h221l176 -874v874h158v-1589h-174l-223 1112v-1112h-158z" />
<glyph unicode="O" d="M49 279v1034q0 57 21.5 107t59.5 88t89 59.5t109 21.5q57 0 108 -21.5t89 -59.5t59.5 -88t21.5 -107v-1034q0 -57 -21.5 -108.5t-59.5 -89.5t-89 -59.5t-108 -21.5t-108.5 21.5t-89.5 59.5t-59.5 89t-21.5 109zM209 279q0 -49 35 -84t84 -35t83.5 34.5t34.5 84.5v1034 q0 49 -34.5 84t-83.5 35t-84 -35t-35 -84v-1034z" />
<glyph unicode="P" d="M49 0v1589h281q57 0 107 -22.5t88 -60.5t59.5 -88t21.5 -107v-238q0 -57 -21.5 -108.5t-59.5 -89t-89 -59t-108 -21.5h-119v-795h-160zM209 952h117q53 0 86.5 36t33.5 85v238q0 47 -33.5 81.5t-82.5 39.5h-121v-480z" />
<glyph unicode="Q" horiz-adv-x="659" d="M49 266v1041q0 59 22.5 110t61.5 90t91 60.5t112 21.5q51 0 99 -21.5t85 -60.5t59.5 -90t22.5 -110v-1041q0 -84 -44 -149.5t-114 -100.5q35 -47 90.5 -72.5t112.5 -25.5v-158q-117 0 -214 67t-144 173q-47 6 -91 28.5t-77 57.5t-52.5 81t-19.5 99zM207 266q0 -51 40 -87 t89 -36q47 0 77.5 36t30.5 87v1041q0 55 -30.5 91t-77.5 36q-49 0 -89 -36t-40 -91v-1041z" />
<glyph unicode="R" d="M49 0v1589h281q57 0 107 -22.5t88 -60.5t59.5 -88t21.5 -107v-238q0 -59 -22.5 -110.5t-63.5 -90.5q41 -37 63.5 -88t22.5 -110v-674h-160v674q0 47 -33.5 83t-84.5 38h-119v-795h-160zM209 952h119q53 4 85.5 39t32.5 82v238q0 47 -33.5 81.5t-82.5 39.5h-121v-480z" />
<glyph unicode="S" d="M47 279v198h158v-198q0 -49 35.5 -85t85.5 -36q49 0 83.5 35.5t34.5 85.5v391q0 53 -35.5 89t-86.5 36q-57 0 -107.5 21.5t-87.5 59t-58.5 89t-21.5 108.5v238q0 57 21.5 108t59.5 89t89 59.5t109 21.5q57 0 108 -21.5t89 -59.5t59.5 -89t21.5 -108v-199h-160v199 q0 49 -33.5 85t-86.5 36t-86 -36t-33 -85v-240q0 -53 35.5 -89t87.5 -36q57 0 108 -21.5t88 -59.5t58.5 -89t21.5 -108v-389q0 -57 -21.5 -108.5t-59.5 -89.5t-89 -59.5t-108 -21.5t-108.5 21.5t-89.5 59.5t-59.5 89t-21.5 109z" />
<glyph unicode="T" d="M49 1432v157h557v-157h-200v-1432h-158v1432h-199z" />
<glyph unicode="U" d="M49 276v1313h160v-1310q0 -49 32.5 -84t86.5 -35q53 0 87 34.5t34 84.5v1310h157v-1313q0 -57 -21.5 -107t-59.5 -88t-89 -59.5t-108 -21.5t-107.5 21.5t-88.5 59.5t-60.5 88t-22.5 107z" />
<glyph unicode="V" d="M49 1589h158l121 -954l118 954h160l-198 -1589h-160z" />
<glyph unicode="W" horiz-adv-x="1052" d="M49 1589h158l121 -954l118 954h160l119 -954l119 954h160l-199 -1589h-160l-119 954l-118 -954h-160z" />
<glyph unicode="X" d="M49 0l199 795l-199 794h160l119 -477l118 477h160l-198 -794l198 -795h-160l-118 477l-119 -477h-160z" />
<glyph unicode="Y" d="M49 0l199 795l-199 794h158l121 -477l118 477h160l-399 -1589h-158z" />
<glyph unicode="Z" d="M49 0v158l400 1274h-400v157h557v-157l-397 -1274h397v-158h-557z" />
<glyph unicode="[" horiz-adv-x="438" d="M49 -80v1749h320v-160h-160v-1429h160v-160h-320z" />
<glyph unicode="\" horiz-adv-x="786" d="M49 1589h162l442 -1589h-159z" />
<glyph unicode="]" horiz-adv-x="468" d="M49 80h160v1429h-160v160h320v-1749h-320v160z" />
<glyph unicode="^" horiz-adv-x="604" d="M53 1110l160 479h160l159 -479h-159l-82 320l-78 -320h-160z" />
<glyph unicode="_" horiz-adv-x="667" d="M49 0v158h557v-158h-557z" />
<glyph unicode="a" horiz-adv-x="653" d="M47 279v81q0 57 21.5 107.5t59.5 88.5t89.5 59.5t108.5 21.5q63 0 120 -29v228q0 49 -34.5 83.5t-83.5 34.5q-51 0 -86 -34.5t-35 -83.5v-41h-158v49q2 55 24.5 104t59.5 86t87 58.5t108 21.5q55 0 105 -21.5t87 -58.5t59.5 -86t24.5 -104v-473v-11v-81v-13v-266h-158v27 q-59 -27 -120 -27q-57 0 -108.5 21.5t-89.5 59.5t-59.5 89t-21.5 109zM207 279q0 -51 34.5 -86t84.5 -35q49 0 83.5 34.5t34.5 86.5v81q0 49 -34.5 84t-83.5 35t-84 -34.5t-35 -84.5v-81z" />
<glyph unicode="b" d="M49 -2v846v745h160v-502q57 27 119 27q57 0 108 -21.5t89 -59.5t59.5 -89t21.5 -108v-560q0 -57 -21.5 -108t-59.5 -89t-89 -59.5t-108 -21.5q-66 0 -119 29v-29h-160zM209 276q0 -49 35 -83.5t84 -34.5t83.5 34.5t34.5 83.5v560q0 49 -34.5 83.5t-83.5 34.5t-84 -34.5 t-35 -83.5v-560z" />
<glyph unicode="c" d="M49 281v555q0 57 21.5 108t59.5 89t89 59.5t109 21.5q57 0 108 -21.5t89 -59.5t59.5 -89t21.5 -108h-160q0 49 -34.5 83.5t-83.5 34.5t-85 -34.5t-36 -83.5v-555q0 -49 36 -84t85 -35t83.5 34.5t34.5 84.5h160q0 -57 -21.5 -108.5t-59.5 -89.5t-89 -59.5t-108 -21.5 t-108.5 21.5t-89.5 59.5t-59.5 89t-21.5 109z" />
<glyph unicode="d" d="M49 279v557q0 57 21.5 108t59.5 89t89 59.5t109 21.5q61 0 121 -27v502h157v-745v-844h-157v29q-57 -29 -121 -29q-57 0 -108.5 21.5t-89.5 59.5t-59.5 89t-21.5 109zM209 279q0 -49 35 -84t84 -35t85 34.5t36 84.5v198v359q0 49 -35 83.5t-86 34.5q-49 0 -84 -34.5 t-35 -83.5v-557z" />
<glyph unicode="e" d="M49 274v562q0 57 21.5 108t59.5 89t89.5 59.5t108.5 21.5t108 -21.5t89 -59.5t59.5 -89t21.5 -108v-203v-135v-25h-397v-199q0 -49 35 -83.5t84 -34.5t83.5 34.5t34.5 83.5v41h160v-49q-2 -55 -24.5 -104t-59.5 -86t-87 -58.5t-107 -21.5t-108.5 21.5t-89.5 59.5 t-59.5 89t-21.5 108zM209 633h237v203q0 49 -34.5 83.5t-83.5 34.5t-84 -34.5t-35 -83.5v-203z" />
<glyph unicode="f" horiz-adv-x="471" d="M-37 954v160h174v197q0 57 21.5 108t59.5 89t89 59.5t109 21.5h55v-159h-55q-49 0 -84 -35t-35 -84v-197h174v-160h-174v-954h-160v954h-174z" />
<glyph unicode="g" d="M49 -238h160q49 0 92 18.5t76 51.5t51 76t18 92v29q-53 -29 -118 -29q-57 0 -108.5 21.5t-89.5 59.5t-59.5 89t-21.5 109v557q0 57 21.5 108t59.5 89t89 59.5t109 21.5q61 0 118 -27v27h160v-270v-844q0 -82 -31.5 -154.5t-85 -126t-126 -85t-154.5 -31.5h-160v159z M209 279q0 -49 35 -84t84 -35t83.5 34.5t34.5 84.5v557q0 49 -34.5 83.5t-83.5 34.5t-84 -34.5t-35 -83.5v-557z" />
<glyph unicode="h" d="M49 0v842v747h160v-504q51 27 119 27q57 0 108 -21.5t89 -59.5t59.5 -88t21.5 -107v-836h-160v836q0 49 -34.5 83.5t-83.5 34.5t-84 -34.5t-35 -83.5v-836h-160z" />
<glyph unicode="i" horiz-adv-x="256" d="M49 0v1112h158v-1112h-158zM49 1432v157h158v-157h-158z" />
<glyph unicode="j" horiz-adv-x="339" d="M-150 -236q49 0 93.5 18.5t77 51.5t51 77t18.5 93v1112h160v-1112q0 -82 -32 -154.5t-85 -126t-127 -85t-156 -31.5v157zM90 1432v157h158v-157h-158z" />
<glyph unicode="k" d="M49 0v1589h158v-794l18 -35l221 352h158l-309 -494l309 -618h-158l-239 477v-477h-158z" />
<glyph unicode="l" horiz-adv-x="258" d="M49 0v1589h160v-1589h-160z" />
<glyph unicode="m" horiz-adv-x="1052" d="M49 0v840v270h158v-27q53 27 119 27q59 0 110 -21.5t90 -60.5q37 39 88.5 60.5t110.5 21.5q57 0 108.5 -21.5t89.5 -59.5t59.5 -88t21.5 -107v-834h-160v834q0 49 -35 83.5t-84 34.5q-51 0 -86 -34.5t-35 -83.5v-834h-158v834q0 49 -34.5 83.5t-85.5 34.5 q-49 0 -84 -34.5t-35 -83.5v-834h-158z" />
<glyph unicode="n" d="M49 0v840v270h160v-27q53 27 119 27q57 0 108 -21.5t89 -59.5t59.5 -88t21.5 -107v-834h-160v834q0 49 -34.5 83.5t-83.5 34.5t-84 -34.5t-35 -83.5v-834h-160z" />
<glyph unicode="o" d="M49 279v557q0 57 21.5 107t59.5 88t89.5 59.5t108.5 21.5t108 -21.5t89 -59.5t59.5 -88t21.5 -107v-557q0 -57 -21.5 -108.5t-59.5 -89.5t-89 -59.5t-108 -21.5t-108.5 21.5t-89.5 59.5t-59.5 89t-21.5 109zM209 279q0 -51 35 -86t84 -35t83.5 34.5t34.5 86.5v557 q0 49 -34.5 83.5t-83.5 34.5t-84 -34.5t-35 -83.5v-557z" />
<glyph unicode="p" d="M49 285v852h160v-52q53 27 119 27q57 0 108 -21.5t89 -59.5t59.5 -88t21.5 -107v-557q0 -57 -21.5 -108.5t-59.5 -89.5t-89 -59.5t-108 -21.5q-59 0 -119 27v-490h-160v748zM209 285q0 -55 35 -91t84 -36t83.5 34.5t34.5 86.5v557q0 49 -34.5 83.5t-83.5 34.5t-84 -34.5 t-35 -83.5v-551z" />
<glyph unicode="q" d="M49 279v557q0 57 21.5 107t59.5 88t89.5 59.5t108.5 21.5q66 0 118 -27v52h160v-852v-748h-160v490q-59 -27 -118 -27q-57 0 -108.5 21.5t-89.5 59.5t-59.5 89t-21.5 109zM209 279q0 -51 35 -86t84 -35t83.5 35.5t34.5 91.5v551q0 49 -34.5 83.5t-83.5 34.5t-84 -34.5 t-35 -83.5v-557z" />
<glyph unicode="r" d="M49 2v834v284h160v-35q51 27 119 27q57 0 108 -21.5t89 -59.5t59.5 -88t21.5 -107v-199h-160v199q0 49 -34.5 83.5t-83.5 34.5t-84 -34.5t-35 -83.5v-834h-160z" />
<glyph unicode="s" d="M49 279h158q0 -51 34.5 -86t86.5 -35q49 0 83.5 34.5t34.5 86.5v79q0 53 -35.5 89t-86.5 36q-57 0 -107.5 21.5t-87.5 59.5t-58.5 89.5t-21.5 108.5v74q0 57 21.5 107t59.5 88t89 59.5t109 21.5q57 0 108 -21.5t89 -59.5t59.5 -88t21.5 -107h-160q0 49 -34.5 83.5 t-83.5 34.5q-51 0 -86 -34.5t-35 -83.5v-76q0 -53 36 -89t87 -36q57 0 108 -21.5t88 -59.5t58.5 -89t21.5 -109v-77q0 -57 -21.5 -108.5t-59.5 -89.5t-89 -59.5t-108 -21.5t-108.5 21.5t-89.5 59.5t-59.5 89t-21.5 109z" />
<glyph unicode="t" horiz-adv-x="641" d="M53 954v158h174v477h160v-477h174v-158h-174v-675q0 -51 35 -86t84 -35h39v-158h-47q-55 2 -103.5 23.5t-85.5 58.5t-58.5 85t-23.5 103v684h-174z" />
<glyph unicode="u" d="M49 276v834h160v-834q0 -51 35 -85.5t84 -34.5t83.5 34.5t34.5 85.5v834h160v-834q0 -57 -21.5 -108t-59.5 -89t-89 -59.5t-108 -21.5t-108.5 21.5t-89.5 59.5t-59.5 89t-21.5 108z" />
<glyph unicode="v" d="M49 1110h158l115 -668l124 668h160l-207 -1112h-159z" />
<glyph unicode="w" horiz-adv-x="1052" d="M49 1112h160l115 -668l125 668h157l115 -668l125 668h158l-207 -1112h-158l-115 668l-125 -668h-157z" />
<glyph unicode="x" d="M49 0l199 557l-199 555h160l119 -334l118 334h160l-198 -555l198 -557h-160l-118 334l-119 -334h-160z" />
<glyph unicode="y" d="M49 -256h160q49 0 93 19.5t76 51t51.5 75.5t19.5 94v43q-59 -27 -121 -27q-57 0 -108.5 21.5t-89.5 59.5t-59.5 89t-21.5 109v833h160v-833q0 -51 35 -86t84 -35q51 0 86 34.5t35 86.5v833h157v-1128q0 -82 -31.5 -155t-85 -126t-126 -85t-154.5 -32h-160v158z" />
<glyph unicode="z" d="M49 -2v158l397 796h-397v158h557v-158l-397 -796h397v-158h-557z" />
<glyph unicode="{" horiz-adv-x="684" d="M137 795v159q49 0 84 35t35 84h160q0 -57 -21.5 -108.5t-59.5 -89t-89 -59t-109 -21.5zM137 795v159q57 0 108.5 -21.5t89.5 -59t59.5 -89t21.5 -108.5h-160q0 49 -35 84t-84 35zM256 119v1351q0 57 21.5 108.5t59.5 89.5t89 59.5t109 21.5v-160q-49 0 -84 -34.5 t-35 -84.5v-1351q0 -49 34.5 -84t84.5 -35v-160q-57 0 -108.5 21.5t-89.5 59.5t-59.5 89t-21.5 109z" />
<glyph unicode="|" horiz-adv-x="266" d="M53 -156v1905h160v-1905h-160z" />
<glyph unicode="}" horiz-adv-x="755" d="M137 0q49 0 84 35t35 84v1351q0 49 -35 84t-84 35v160q57 0 108.5 -21.5t89.5 -59.5t59.5 -89t21.5 -109v-1351q0 -57 -21.5 -108.5t-59.5 -89.5t-89 -59.5t-109 -21.5v160zM256 676q0 57 21.5 108.5t59.5 89t89 59t109 21.5v-159q-49 0 -84 -35t-35 -84h-160zM256 1073 h160q0 -49 34.5 -84t84.5 -35v-159q-57 0 -108.5 21.5t-89.5 59t-59.5 89t-21.5 108.5z" />
<glyph unicode="~" horiz-adv-x="1261" d="M82 557q0 57 21.5 108.5t59.5 89.5t88 59.5t107 21.5t108.5 -21.5t89.5 -58.5t59.5 -87.5t21.5 -107.5q0 -51 36 -87t89 -36q51 0 86 35t35 84h157q0 -57 -21.5 -108.5t-59 -89t-89 -59t-108.5 -21.5h2q-59 0 -109.5 21.5t-88.5 58t-59.5 88t-21.5 108.5q0 51 -35.5 87 t-89.5 36h-2q-49 0 -83.5 -35t-34.5 -86h-158z" />
<glyph unicode="&#xa8;" horiz-adv-x="1705" />
<glyph unicode="&#xad;" horiz-adv-x="618" d="M53 797v157h508v-157h-508z" />
<glyph unicode="&#xc4;" d="M49 0l199 1589h160l198 -1589h-160l-38 317h-160l-41 -317h-158zM49 1745q0 35 21.5 57.5t56.5 22.5t57.5 -22.5t22.5 -57.5t-22.5 -56.5t-57.5 -21.5t-56.5 21.5t-21.5 56.5zM268 477h119l-59 477zM446 1745q0 35 21.5 57.5t56.5 22.5t57.5 -22.5t22.5 -57.5 t-22.5 -56.5t-57.5 -21.5t-56.5 21.5t-21.5 56.5z" />
<glyph unicode="&#xc6;" horiz-adv-x="1310" />
<glyph unicode="&#xd6;" d="M49 279v1034q0 57 21.5 107t59.5 88t89 59.5t109 21.5q57 0 108 -21.5t89 -59.5t59.5 -88t21.5 -107v-1034q0 -57 -21.5 -108.5t-59.5 -89.5t-89 -59.5t-108 -21.5t-108.5 21.5t-89.5 59.5t-59.5 89t-21.5 109zM49 1745q0 35 21.5 57.5t56.5 22.5t57.5 -22.5t22.5 -57.5 t-22.5 -56.5t-57.5 -21.5t-56.5 21.5t-21.5 56.5zM209 279q0 -49 35 -84t84 -35t83.5 34.5t34.5 84.5v1034q0 49 -34.5 84t-83.5 35t-84 -35t-35 -84v-1034zM446 1745q0 35 21.5 57.5t56.5 22.5t57.5 -22.5t22.5 -57.5t-22.5 -56.5t-57.5 -21.5t-56.5 21.5t-21.5 56.5z" />
<glyph unicode="&#xdc;" d="M49 276v1313h160v-1310q0 -49 32.5 -84t86.5 -35q53 0 87 34.5t34 84.5v1310h157v-1313q0 -57 -21.5 -107t-59.5 -88t-89 -59.5t-108 -21.5t-107.5 21.5t-88.5 59.5t-60.5 88t-22.5 107zM49 1745q0 35 21.5 57.5t56.5 22.5t57.5 -22.5t22.5 -57.5t-22.5 -56.5 t-57.5 -21.5t-56.5 21.5t-21.5 56.5zM446 1745q0 35 21.5 57.5t56.5 22.5t57.5 -22.5t22.5 -57.5t-22.5 -56.5t-57.5 -21.5t-56.5 21.5t-21.5 56.5z" />
<glyph unicode="&#xdf;" horiz-adv-x="684" d="M49 451v854q0 59 22.5 111t60.5 90t87 60.5t103 22.5q59 0 111 -22.5t90 -60.5t60.5 -90t22.5 -111v-240q0 -47 -22.5 -101.5t-57.5 -91.5q35 -35 57.5 -90t22.5 -114v-383q0 -68 -24.5 -120t-64.5 -89t-91 -56.5t-104 -19.5v160q59 0 91.5 39t32.5 86v383q0 59 -38.5 93 t-85.5 34v157q47 0 85.5 33t38.5 80v240q0 59 -38.5 92t-85.5 33t-80 -33t-33 -92l2 -1702h-160q-2 475 -2 848z" />
<glyph unicode="&#xe0;" d="M39 279v88q0 55 22.5 104t60.5 86t89 58.5t106 21.5h119v199q0 49 -34.5 83.5t-84.5 34.5q-51 0 -85.5 -34.5t-34.5 -83.5v-41h-158v49q0 55 22.5 104t60.5 86t89 58.5t106 21.5t105.5 -21.5t87.5 -58.5t59.5 -86t24.5 -104v-844h-158v29q-57 -29 -119 -29 q-59 0 -109 21.5t-88 59.5t-59.5 89t-21.5 109zM197 279q0 -49 34.5 -84t85.5 -35q49 0 84 34.5t35 84.5v198h-129q-47 -4 -78.5 -37.5t-31.5 -81.5v-79z" />
<glyph unicode="&#xe2;" horiz-adv-x="653" d="M47 279v81q0 57 21.5 107.5t59.5 88.5t89.5 59.5t108.5 21.5q63 0 120 -29v228q0 49 -34.5 83.5t-83.5 34.5q-51 0 -86 -34.5t-35 -83.5v-41h-158v49q2 55 24.5 104t59.5 86t87 58.5t108 21.5q55 0 105 -21.5t87 -58.5t59.5 -86t24.5 -104v-473v-11v-81v-13v-266h-158v27 q-59 -27 -120 -27q-57 0 -108.5 21.5t-89.5 59.5t-59.5 89t-21.5 109zM207 279q0 -51 34.5 -86t84.5 -35q49 0 83.5 34.5t34.5 86.5v81q0 49 -34.5 84t-83.5 35t-84 -34.5t-35 -84.5v-81z" />
<glyph unicode="&#xe3;" horiz-adv-x="653" d="M47 279v81q0 57 21.5 107.5t59.5 88.5t89.5 59.5t108.5 21.5q63 0 120 -29v228q0 49 -34.5 83.5t-83.5 34.5q-51 0 -86 -34.5t-35 -83.5v-41h-158v49q2 55 24.5 104t59.5 86t87 58.5t108 21.5q55 0 105 -21.5t87 -58.5t59.5 -86t24.5 -104v-473v-11v-81v-13v-266h-158v27 q-59 -27 -120 -27q-57 0 -108.5 21.5t-89.5 59.5t-59.5 89t-21.5 109zM207 279q0 -51 34.5 -86t84.5 -35q49 0 83.5 34.5t34.5 86.5v81q0 49 -34.5 84t-83.5 35t-84 -34.5t-35 -84.5v-81z" />
<glyph unicode="&#xe4;" d="M47 279v81q0 57 21.5 107.5t59.5 88.5t89.5 59.5t108.5 21.5q63 0 120 -29v228q0 49 -34.5 83.5t-83.5 34.5q-51 0 -86 -34.5t-35 -83.5v-41h-158v49q2 55 24.5 104t59.5 86t87 58.5t108 21.5q55 0 105 -21.5t87 -58.5t59.5 -86t24.5 -104v-473v-11v-81v-13v-266h-158v27 q-59 -27 -120 -27q-57 0 -108.5 21.5t-89.5 59.5t-59.5 89t-21.5 109zM49 1356q0 35 21.5 57.5t56.5 22.5t57.5 -22.5t22.5 -57.5t-22.5 -56.5t-57.5 -21.5t-56.5 21.5t-21.5 56.5zM207 279q0 -51 34.5 -86t84.5 -35q49 0 83.5 34.5t34.5 86.5v81q0 49 -34.5 84t-83.5 35 t-84 -34.5t-35 -84.5v-81zM446 1356q0 35 21.5 57.5t56.5 22.5t57.5 -22.5t22.5 -57.5t-22.5 -56.5t-57.5 -21.5t-56.5 21.5t-21.5 56.5z" />
<glyph unicode="&#xe5;" horiz-adv-x="653" d="M47 279v81q0 57 21.5 107.5t59.5 88.5t89.5 59.5t108.5 21.5q63 0 120 -29v228q0 49 -34.5 83.5t-83.5 34.5q-51 0 -86 -34.5t-35 -83.5v-41h-158v49q2 55 24.5 104t59.5 86t87 58.5t108 21.5q55 0 105 -21.5t87 -58.5t59.5 -86t24.5 -104v-473v-11v-81v-13v-266h-158v27 q-59 -27 -120 -27q-57 0 -108.5 21.5t-89.5 59.5t-59.5 89t-21.5 109zM207 279q0 -51 34.5 -86t84.5 -35q49 0 83.5 34.5t34.5 86.5v81q0 49 -34.5 84t-83.5 35t-84 -34.5t-35 -84.5v-81z" />
<glyph unicode="&#xe7;" d="M49 281v555q0 57 21.5 108t59.5 89t89 59.5t109 21.5q57 0 108 -21.5t89 -59.5t59.5 -89t21.5 -108h-160q0 49 -34.5 83.5t-83.5 34.5t-85 -34.5t-36 -83.5v-555q0 -49 36 -84t85 -35t83.5 34.5t34.5 84.5h160q0 -57 -21.5 -108.5t-59.5 -89.5t-89 -59.5t-108 -21.5 t-108.5 21.5t-89.5 59.5t-59.5 89t-21.5 109z" />
<glyph unicode="&#xe8;" d="M49 274v562q0 57 21.5 108t59.5 89t89.5 59.5t108.5 21.5t108 -21.5t89 -59.5t59.5 -89t21.5 -108v-203v-135v-25h-397v-199q0 -49 35 -83.5t84 -34.5t83.5 34.5t34.5 83.5v41h160v-49q-2 -55 -24.5 -104t-59.5 -86t-87 -58.5t-107 -21.5t-108.5 21.5t-89.5 59.5 t-59.5 89t-21.5 108zM209 633h237v203q0 49 -34.5 83.5t-83.5 34.5t-84 -34.5t-35 -83.5v-203z" />
<glyph unicode="&#xe9;" d="M49 274v562q0 57 21.5 108t59.5 89t89.5 59.5t108.5 21.5t108 -21.5t89 -59.5t59.5 -89t21.5 -108v-203v-135v-25h-397v-199q0 -49 35 -83.5t84 -34.5t83.5 34.5t34.5 83.5v41h160v-49q-2 -55 -24.5 -104t-59.5 -86t-87 -58.5t-107 -21.5t-108.5 21.5t-89.5 59.5 t-59.5 89t-21.5 108zM209 633h237v203q0 49 -34.5 83.5t-83.5 34.5t-84 -34.5t-35 -83.5v-203z" />
<glyph unicode="&#xea;" d="M49 274v562q0 57 21.5 108t59.5 89t89.5 59.5t108.5 21.5t108 -21.5t89 -59.5t59.5 -89t21.5 -108v-203v-135v-25h-397v-199q0 -49 35 -83.5t84 -34.5t83.5 34.5t34.5 83.5v41h160v-49q-2 -55 -24.5 -104t-59.5 -86t-87 -58.5t-107 -21.5t-108.5 21.5t-89.5 59.5 t-59.5 89t-21.5 108zM209 633h237v203q0 49 -34.5 83.5t-83.5 34.5t-84 -34.5t-35 -83.5v-203z" />
<glyph unicode="&#xeb;" d="M49 274v562q0 57 21.5 108t59.5 89t89.5 59.5t108.5 21.5t108 -21.5t89 -59.5t59.5 -89t21.5 -108v-203v-135v-25h-397v-199q0 -49 35 -83.5t84 -34.5t83.5 34.5t34.5 83.5v41h160v-49q-2 -55 -24.5 -104t-59.5 -86t-87 -58.5t-107 -21.5t-108.5 21.5t-89.5 59.5 t-59.5 89t-21.5 108zM209 633h237v203q0 49 -34.5 83.5t-83.5 34.5t-84 -34.5t-35 -83.5v-203z" />
<glyph unicode="&#xec;" horiz-adv-x="1705" />
<glyph unicode="&#xed;" horiz-adv-x="1705" />
<glyph unicode="&#xee;" horiz-adv-x="1705" />
<glyph unicode="&#xef;" horiz-adv-x="256" d="M49 0v1112h158v-1112h-158zM49 1432v157h158v-157h-158z" />
<glyph unicode="&#xf1;" d="M49 0v840v270h160v-27q53 27 119 27q57 0 108 -21.5t89 -59.5t59.5 -88t21.5 -107v-834h-160v834q0 49 -34.5 83.5t-83.5 34.5t-84 -34.5t-35 -83.5v-834h-160z" />
<glyph unicode="&#xf2;" d="M49 279v557q0 57 21.5 107t59.5 88t89.5 59.5t108.5 21.5t108 -21.5t89 -59.5t59.5 -88t21.5 -107v-557q0 -57 -21.5 -108.5t-59.5 -89.5t-89 -59.5t-108 -21.5t-108.5 21.5t-89.5 59.5t-59.5 89t-21.5 109zM209 279q0 -51 35 -86t84 -35t83.5 34.5t34.5 86.5v557 q0 49 -34.5 83.5t-83.5 34.5t-84 -34.5t-35 -83.5v-557z" />
<glyph unicode="&#xf3;" d="M49 279v557q0 57 21.5 107t59.5 88t89.5 59.5t108.5 21.5t108 -21.5t89 -59.5t59.5 -88t21.5 -107v-557q0 -57 -21.5 -108.5t-59.5 -89.5t-89 -59.5t-108 -21.5t-108.5 21.5t-89.5 59.5t-59.5 89t-21.5 109zM209 279q0 -51 35 -86t84 -35t83.5 34.5t34.5 86.5v557 q0 49 -34.5 83.5t-83.5 34.5t-84 -34.5t-35 -83.5v-557z" />
<glyph unicode="&#xf4;" d="M49 279v557q0 57 21.5 107t59.5 88t89.5 59.5t108.5 21.5t108 -21.5t89 -59.5t59.5 -88t21.5 -107v-557q0 -57 -21.5 -108.5t-59.5 -89.5t-89 -59.5t-108 -21.5t-108.5 21.5t-89.5 59.5t-59.5 89t-21.5 109zM209 279q0 -51 35 -86t84 -35t83.5 34.5t34.5 86.5v557 q0 49 -34.5 83.5t-83.5 34.5t-84 -34.5t-35 -83.5v-557z" />
<glyph unicode="&#xf6;" d="M49 279v557q0 57 21.5 107t59.5 88t89.5 59.5t108.5 21.5t108 -21.5t89 -59.5t59.5 -88t21.5 -107v-557q0 -57 -21.5 -108.5t-59.5 -89.5t-89 -59.5t-108 -21.5t-108.5 21.5t-89.5 59.5t-59.5 89t-21.5 109zM49 1356q0 35 21.5 57.5t56.5 22.5t57.5 -22.5t22.5 -57.5 t-22.5 -56.5t-57.5 -21.5t-56.5 21.5t-21.5 56.5zM209 279q0 -51 35 -86t84 -35t83.5 34.5t34.5 86.5v557q0 49 -34.5 83.5t-83.5 34.5t-84 -34.5t-35 -83.5v-557zM446 1356q0 35 21.5 57.5t56.5 22.5t57.5 -22.5t22.5 -57.5t-22.5 -56.5t-57.5 -21.5t-56.5 21.5t-21.5 56.5 z" />
<glyph unicode="&#xf7;" horiz-adv-x="643" d="M53 797v157h508v-157h-508zM233 639q0 35 21.5 57.5t56.5 22.5t57.5 -22.5t22.5 -57.5t-22.5 -56.5t-57.5 -21.5t-56.5 21.5t-21.5 56.5zM233 1090q0 35 21.5 57t56.5 22t57.5 -22.5t22.5 -56.5q0 -35 -22.5 -56.5t-57.5 -21.5t-56.5 21.5t-21.5 56.5z" />
<glyph unicode="&#xfc;" d="M49 276v834h160v-834q0 -51 35 -85.5t84 -34.5t83.5 34.5t34.5 85.5v834h160v-834q0 -57 -21.5 -108t-59.5 -89t-89 -59.5t-108 -21.5t-108.5 21.5t-89.5 59.5t-59.5 89t-21.5 108zM49 1356q0 35 21.5 57.5t56.5 22.5t57.5 -22.5t22.5 -57.5t-22.5 -56.5t-57.5 -21.5 t-56.5 21.5t-21.5 56.5zM446 1356q0 35 21.5 57.5t56.5 22.5t57.5 -22.5t22.5 -57.5t-22.5 -56.5t-57.5 -21.5t-56.5 21.5t-21.5 56.5z" />
<glyph unicode="&#x2000;" horiz-adv-x="912" />
<glyph unicode="&#x2001;" horiz-adv-x="1825" />
<glyph unicode="&#x2002;" horiz-adv-x="912" />
<glyph unicode="&#x2003;" horiz-adv-x="1825" />
<glyph unicode="&#x2004;" horiz-adv-x="608" />
<glyph unicode="&#x2005;" horiz-adv-x="456" />
<glyph unicode="&#x2006;" horiz-adv-x="304" />
<glyph unicode="&#x2007;" horiz-adv-x="304" />
<glyph unicode="&#x2008;" horiz-adv-x="228" />
<glyph unicode="&#x2009;" horiz-adv-x="365" />
<glyph unicode="&#x200a;" horiz-adv-x="101" />
<glyph unicode="&#x2010;" horiz-adv-x="618" d="M53 797v157h508v-157h-508z" />
<glyph unicode="&#x2011;" horiz-adv-x="618" d="M53 797v157h508v-157h-508z" />
<glyph unicode="&#x2012;" horiz-adv-x="618" d="M53 797v157h508v-157h-508z" />
<glyph unicode="&#x2013;" horiz-adv-x="665" d="M61 797v159h555v-159h-555z" />
<glyph unicode="&#x2014;" horiz-adv-x="2158" d="M53 797v157h2048v-157h-2048z" />
<glyph unicode="&#x2018;" horiz-adv-x="301" d="M70 1430v159l159 160v-319h-159z" />
<glyph unicode="&#x2019;" horiz-adv-x="305" d="M70 1589v160h159v-319z" />
<glyph unicode="&#x201a;" horiz-adv-x="294" d="M70 0v160h159v-320z" />
<glyph unicode="&#x201c;" horiz-adv-x="516" d="M70 1430v159l159 160v-319h-159zM309 1430v159l160 160v-319h-160z" />
<glyph unicode="&#x201d;" horiz-adv-x="573" d="M70 1589v160h159v-319zM309 1589v160h160v-319z" />
<glyph unicode="&#x201e;" horiz-adv-x="532" d="M70 0v160h159v-320zM309 0v160h160v-320z" />
<glyph unicode="&#x2022;" horiz-adv-x="409" d="M45 950q0 68 44 114t112 46t113.5 -46t45.5 -114t-46 -111.5t-113 -43.5q-68 0 -112 43.5t-44 111.5z" />
<glyph unicode="&#x2026;" horiz-adv-x="849" d="M94 78q0 35 24.5 58.5t57.5 23.5t55.5 -23.5t22.5 -58.5t-22.5 -56.5t-55.5 -21.5t-57.5 21.5t-24.5 56.5zM354 78q0 35 24.5 58.5t57.5 23.5t55.5 -23.5t22.5 -58.5t-22.5 -56.5t-55.5 -21.5t-57.5 21.5t-24.5 56.5zM614 78q0 35 25 58.5t57 23.5q33 0 55.5 -23.5 t22.5 -58.5t-22.5 -56.5t-55.5 -21.5t-57.5 21.5t-24.5 56.5z" />
<glyph unicode="&#x202f;" horiz-adv-x="365" />
<glyph unicode="&#x205f;" horiz-adv-x="456" />
<glyph unicode="&#x20ac;" d="M-76 479l125 158v158h-125l125 157v211q0 55 22.5 104.5t60.5 85.5t88 57.5t104 21.5q57 0 109 -21.5t91 -57.5t61.5 -85t22.5 -105h-162q0 47 -31.5 78t-90.5 31q-53 0 -84 -31t-31 -78v-211h237l-124 -157h-113v-158h237l-124 -158h-113v-205q0 -53 30.5 -83.5 t84.5 -30.5q59 0 90.5 30.5t31.5 83.5h162q0 -53 -22.5 -103t-61.5 -88t-91 -60.5t-109 -22.5q-53 0 -103.5 22.5t-88.5 60.5t-60.5 88t-22.5 103v205h-125z" />
<glyph unicode="&#x2122;" horiz-adv-x="1677" d="M49 1432v157h557v-157h-200v-635h-158v635h-199zM705 797v792h143l237 -637l240 637h148v-794h-160v397l-148 -397h-159l-142 395v-393h-159z" />
<glyph unicode="&#x25fc;" horiz-adv-x="1116" d="M0 0v1116h1116v-1116h-1116z" />
<glyph unicode="&#xfb01;" horiz-adv-x="755" d="M-37 954v160h174v197q0 57 21.5 108t59.5 89t89 59.5t109 21.5h55v-159h-55q-49 0 -84 -35t-35 -84v-197h174v-160h-174v-954h-160v954h-174zM528 0v1112h158v-1112h-158zM528 1430v159h158v-159h-158z" />
<glyph unicode="&#xfb02;" horiz-adv-x="729" d="M-37 954v160h174v197q0 57 21.5 108t59.5 89t89 59.5t109 21.5h55v-159h-55q-49 0 -84 -35t-35 -84v-197h174v-160h-174v-954h-160v954h-174zM535 0v1589h159v-1589h-159z" />
</font>
</defs>
</svg>
